<?xml version="1.0" encoding="UTF-8"?>
<svg width="70px" height="70px" viewBox="0 0 70 70" version="1.1" xmlns="http://www.w3.org/2000/svg" xmlns:xlink="http://www.w3.org/1999/xlink">
    <!-- Generator: Sketch 53.1 (72631) - https://sketchapp.com -->
    <title>LOGOB</title>
    <desc>Created with Sketch.</desc>
    <defs>
        <circle id="path-1" cx="34" cy="34" r="34"></circle>
        <filter x="-2.9%" y="-1.5%" width="105.9%" height="105.9%" filterUnits="objectBoundingBox" id="filter-2">
            <feOffset dx="0" dy="1" in="SourceAlpha" result="shadowOffsetOuter1"></feOffset>
            <feGaussianBlur stdDeviation="0.5" in="shadowOffsetOuter1" result="shadowBlurOuter1"></feGaussianBlur>
            <feColorMatrix values="0 0 0 0 0.824388587   0 0 0 0 0.824388587   0 0 0 0 0.824388587  0 0 0 0.5 0" type="matrix" in="shadowBlurOuter1"></feColorMatrix>
        </filter>
    </defs>
    <g id="LOGOB" stroke="none" stroke-width="1" fill="none" fill-rule="evenodd">
        <g id="Group-2" transform="translate(1.000000, 1.000000)">
            <g id="Oval">
                <use fill="black" fill-opacity="1" filter="url(#filter-2)" xlink:href="#path-1"></use>
                <use fill="#FFFFFF" fill-rule="evenodd" xlink:href="#path-1"></use>
            </g>
            <g id="Group" transform="translate(8.369231, 5.230769)" fill-rule="nonzero">
                <path d="M31.5432908,10.1032174 L30.2646027,10.4520463 C31.5442042,15.253204 32.2468412,21.3711872 32.2468412,27.7230769 C32.2468412,42.1366782 28.6176011,53.8604487 24.5846154,53.8604487 C20.5516296,53.8604487 16.9223896,42.1366782 16.9223896,27.7230769 C16.9223896,13.3094756 20.5516296,1.58570513 24.5846154,1.58570513 C26.1045973,1.58570513 27.6697849,3.39794147 28.9676598,6.53670425 L30.1978548,6.04561493 C28.6288263,2.24259175 26.6804722,0.2625 24.5846154,0.2625 C19.3100931,0.2625 15.5974581,12.7473398 15.5974581,27.7230769 C15.5974581,42.6988141 19.3100931,55.1836538 24.5846154,55.1836538 C29.8591376,55.1836538 33.5717727,42.6988141 33.5717727,27.7230769 C33.5717727,21.2554449 32.8515255,15.0104901 31.5432908,10.1032174 Z" id="Path" stroke="#FFFFFF" stroke-width="0.525" fill="#353535"></path>
                <path d="M6.03787679,30.2664643 L6.97445016,31.2071415 C10.4848798,27.7723697 15.3626486,24.1876809 20.7425478,21.0908799 C26.9037448,17.5430909 33.1160368,14.9521578 38.2409525,13.7949751 C42.9618726,12.727679 46.3362229,13.0083124 47.285908,14.6488573 C48.2362573,16.289538 46.7939038,19.3426309 43.5044442,22.8899993 C39.9377465,26.7380229 34.582619,30.8075789 28.420338,34.3554564 C22.2591409,37.9032454 16.046849,40.4941785 10.9218402,41.6513821 C6.19616085,42.7179497 2.82447973,42.4377541 1.87694715,40.7974261 C1.08823669,39.4350682 1.95213013,37.0800354 4.18177918,34.2697417 L3.14733142,33.4361946 C0.46068499,36.8224421 -0.354983224,39.5930957 0.725839326,41.4589779 C1.54623961,42.8776386 3.32962122,43.6131808 6.0205101,43.6122818 L6.0205978,43.6122818 C7.5030322,43.6122818 9.24274229,43.3890658 11.2168316,42.9429437 C16.4628016,41.7573151 22.8111583,39.1143976 29.0853377,35.5016929 C35.3615794,31.8878008 40.830193,27.7266592 44.4802424,23.7894412 C48.3749022,19.5892996 49.7146652,16.1944828 48.4370409,13.9873489 C47.1606335,11.7799333 43.5410586,11.2398886 37.9460541,12.5033926 C32.7000842,13.6890212 26.3517274,16.3319387 20.0775259,19.9446561 C14.6018164,23.0968877 9.62570806,26.7570022 6.03787679,30.2664643 Z M6.02064165,44.1372818 C6.02062703,44.1372818 6.02061242,44.1372818 6.0205978,44.1372818 L6.0206855,44.1372818 C6.02067088,44.1372818 6.02065627,44.1372818 6.02064165,44.1372818 Z" id="Path" stroke="#FFFFFF" stroke-width="0.525" fill="#353535"></path>
                <path d="M36.3366017,42.5887335 L36.6776823,41.3055023 C31.8826636,40.0013925 26.2462966,37.5537435 20.7663249,34.3942598 C14.597027,30.8372884 9.23821729,26.7604494 5.66965779,22.9059469 C2.3775784,19.3516312 0.934129353,16.2926716 1.88486812,14.6494133 C2.50775793,13.5694724 4.20808548,13.0690345 6.67865949,13.1741205 L6.75644926,11.8490754 C3.44512226,11.7034681 1.56114842,12.553331 0.73263302,13.9856269 C-0.546178651,16.1973772 0.794659699,19.5992198 4.69197406,23.8071783 C8.34593431,27.753116 13.8190978,31.9226124 20.1007699,35.5438311 C25.6828963,38.7612701 31.4375823,41.257036 36.3366017,42.5887335 Z" id="Path" stroke="#FFFFFF" stroke-width="0.525" fill="#353535"></path>
                <path d="M10.5571276,13.9820736 C9.93595276,13.8514291 9.33659014,13.7431808 8.76283321,13.659195 L9.04070227,11.8124415 C9.65334191,11.9020263 10.2906389,12.01774 10.9535415,12.1567831 L10.5571276,13.9820736 Z" id="Path" fill="#353535"></path>
                <path d="M12.837699,12.8577478 L12.4921709,14.1420708 C17.2758782,15.4536658 22.8919229,17.8937687 28.3443925,21.0318386 C34.5308493,24.5919753 39.9045625,28.6724412 43.4830427,32.5303688 C46.784298,36.0878685 48.2317919,39.1496139 47.2782723,40.7945704 C46.4931934,42.1510565 44.0279533,42.5862003 40.4899563,42.0783525 L40.285169,43.3926233 C41.3031222,43.5390671 42.2393937,43.6122826 43.0906027,43.6122826 C45.8065863,43.6122826 47.6171415,42.8718963 48.4352948,41.4586671 C49.7176409,39.2449872 48.3730807,35.8401361 44.4648663,31.6283681 C40.8006678,27.6788377 35.3121742,23.5055492 29.0128929,19.8810288 C23.459132,16.6854737 17.7246703,14.1969956 12.837699,12.8577478 Z" id="Path" stroke="#FFFFFF" stroke-width="0.525" fill="#353535"></path>
                <ellipse id="Oval" fill="#4285F4" cx="24.4629094" cy="27.843612" rx="2.79923839" ry="2.77230769"></ellipse>
                <ellipse id="Oval" fill="#4285F4" cx="30.0613861" cy="8.31692308" rx="1.82559025" ry="1.80802676"></ellipse>
                <ellipse id="Oval" fill="#4285F4" cx="38.3373953" cy="42.5488963" rx="1.82559025" ry="1.80802676"></ellipse>
                <ellipse id="Oval" fill="#4285F4" cx="4.98994669" cy="32.4239465" rx="1.82559025" ry="1.80802676"></ellipse>
                <path d="M24.4629094,31.5802007 C22.3821625,31.5802007 20.6900228,29.9043407 20.6900228,27.843612 C20.6900228,25.7828834 22.3821625,24.1070234 24.4629094,24.1070234 C26.5436563,24.1070234 28.2357959,25.7828834 28.2357959,27.843612 C28.2357959,29.9043407 26.5436563,31.5802007 24.4629094,31.5802007 Z M24.4629094,25.9753177 C23.4225359,25.9753177 22.5764661,26.8132477 22.5764661,27.843612 C22.5764661,28.8739764 23.4225359,29.7119064 24.4629094,29.7119064 C25.5032828,29.7119064 26.3493526,28.8739764 26.3493526,27.843612 C26.3493526,26.8132477 25.5032828,25.9753177 24.4629094,25.9753177 Z" id="Shape" fill="#4285F4"></path>
                <path d="M30.0613861,11.0892308 C28.5180727,11.0892308 27.2621478,9.84538872 27.2621478,8.31692308 C27.2621478,6.78845744 28.5180727,5.54461538 30.0613861,5.54461538 C31.6046996,5.54461538 32.8606245,6.78845744 32.8606245,8.31692308 C32.8606245,9.84538872 31.6046996,11.0892308 30.0613861,11.0892308 Z M30.0613861,7.39282051 C29.5463263,7.39282051 29.1283067,7.80681846 29.1283067,8.31692308 C29.1283067,8.82702769 29.5463263,9.24102564 30.0613861,9.24102564 C30.576446,9.24102564 30.9944656,8.82702769 30.9944656,8.31692308 C30.9944656,7.80681846 30.576446,7.39282051 30.0613861,7.39282051 Z" id="Shape" fill="#4285F4"></path>
                <path d="M38.3373953,45.321204 C36.7940818,45.321204 35.5381569,44.077362 35.5381569,42.5488963 C35.5381569,41.0204307 36.7940818,39.7765886 38.3373953,39.7765886 C39.8807087,39.7765886 41.1366337,41.0204307 41.1366337,42.5488963 C41.1366337,44.077362 39.8807087,45.321204 38.3373953,45.321204 Z M38.3373953,41.6247938 C37.8223354,41.6247938 37.4043158,42.0387917 37.4043158,42.5488963 C37.4043158,43.0590009 37.8223354,43.4729989 38.3373953,43.4729989 C38.8524551,43.4729989 39.2704747,43.0590009 39.2704747,42.5488963 C39.2704747,42.0387917 38.8524551,41.6247938 38.3373953,41.6247938 Z" id="Shape" fill="#4285F4"></path>
                <path d="M4.98994669,35.1962542 C3.44663326,35.1962542 2.1907083,33.9524121 2.1907083,32.4239465 C2.1907083,30.8954808 3.44663326,29.6516388 4.98994669,29.6516388 C6.53326012,29.6516388 7.78918507,30.8954808 7.78918507,32.4239465 C7.78918507,33.9524121 6.53326012,35.1962542 4.98994669,35.1962542 Z M4.98994669,31.4998439 C4.47488682,31.4998439 4.05686723,31.9138419 4.05686723,32.4239465 C4.05686723,32.9340511 4.47488682,33.3480491 4.98994669,33.3480491 C5.50500655,33.3480491 5.92302615,32.9340511 5.92302615,32.4239465 C5.92302615,31.9138419 5.50500655,31.4998439 4.98994669,31.4998439 Z" id="Shape" fill="#4285F4"></path>
            </g>
        </g>
    </g>
</svg>