<?xml version="1.0" encoding="UTF-8"?>
<svg width="82px" height="92px" viewBox="0 0 82 92" version="1.1" xmlns="http://www.w3.org/2000/svg" xmlns:xlink="http://www.w3.org/1999/xlink">
    <!-- Generator: Sketch 53.1 (72631) - https://sketchapp.com -->
    <title>LOGO</title>
    <desc>Created with Sketch.</desc>
    <g id="LOGO" stroke="none" stroke-width="1" fill="none" fill-rule="evenodd">
        <g id="Group" transform="translate(1.000000, 0.000000)" fill-rule="nonzero">
            <path d="M51.9753354,16.6722437 L49.7382916,17.2889496 C51.849888,25.2593439 53.01,35.4342814 53.01,46 C53.01,69.8740163 47.061238,89.2933333 40.5,89.2933333 C33.938762,89.2933333 27.99,69.8740163 27.99,46 C27.99,22.1259837 33.938762,2.70666667 40.5,2.70666667 C42.9689015,2.70666667 45.5325563,5.71892971 47.6585996,10.9423228 L49.8113846,10.0738765 C47.2199578,3.69153236 43.9892138,0.36 40.5,0.36 C31.7780554,0.36 25.6725,21.1082584 25.6725,46 C25.6725,70.8917416 31.7780554,91.64 40.5,91.64 C49.2219446,91.64 55.3275,70.8917416 55.3275,46 C55.3275,35.2306008 54.1372004,24.8325958 51.9753354,16.6722437 Z" id="Path" stroke="#FFFFFF" stroke-width="0.72" fill="#353535"></path>
            <path d="M9.84117472,50.2318023 L11.4888866,51.9035625 C17.2707661,46.1773232 25.3221795,40.1960124 34.2054657,35.0305793 C44.3494788,29.1299761 54.5770279,24.8210422 63.012269,22.8970354 C70.7602201,21.1275822 76.2938908,21.5924789 77.8355749,24.2827609 C79.3766369,26.9703002 77.0130189,32.02435 71.6160969,37.9035983 C65.7459111,44.3012 56.929748,51.0690504 46.7840817,56.9697243 C36.6400686,62.8703275 26.4125195,67.1792614 17.9771497,69.1032975 C10.2214003,70.87154 4.69210466,70.4073684 3.15393104,67.7174705 C1.87088338,65.478696 3.30251882,61.5625901 6.99287986,56.882244 L5.17376639,55.401516 C0.694593488,61.0849749 -0.673048787,65.7470699 1.13380734,68.898062 C2.50085548,71.2860408 5.46241341,72.5199338 9.91804102,72.51843 L9.91816252,72.51843 C12.3658172,72.51843 15.2367413,72.1463263 18.493492,71.402853 C27.1429469,69.4281329 37.6074613,65.0272959 47.9491408,59.0119511 C58.294354,52.9945509 67.3089185,46.0654972 73.3273768,39.5075201 C79.7639667,32.4954837 81.9832316,26.8149198 79.8557326,23.1022285 C77.7317278,19.391628 71.7403285,18.4886144 62.4960554,20.5974506 C53.8466005,22.5721707 43.3820861,26.9730076 33.0403761,32.9883702 C23.9862886,38.2535879 15.7605667,44.3700623 9.84117472,50.2318023 Z M9.91822327,73.23843 C9.91820302,73.23843 9.91818277,73.23843 9.91816252,73.23843 L9.91828402,73.23843 C9.91826377,73.23843 9.91824352,73.23843 9.91822327,73.23843 Z" id="Path" stroke="#FFFFFF" stroke-width="0.72" fill="#353535"></path>
            <path d="M60.0700005,70.6330054 L60.6717994,68.3606065 C52.7428093,66.2054017 43.4100058,62.1416179 34.3365426,56.8911741 C24.152548,50.9980183 15.3070503,44.2439941 9.41825884,37.860085 C4.00207513,31.9910837 1.62991,26.9456057 3.17673891,24.2622881 C4.19387547,22.4923702 7.00541736,21.67084 11.1004477,21.8568327 L11.2377077,19.5102408 C5.69653638,19.2516327 2.53651097,20.6742963 1.14669617,23.0857239 C-0.987484488,26.7903621 1.23892167,32.4596344 7.69631471,39.4572221 C13.7371441,46.0046105 22.7831066,52.9210898 33.1647194,58.9277 C42.4169313,64.2800111 51.9563668,68.4284612 60.0700005,70.6330054 Z" id="Path" stroke="#FFFFFF" stroke-width="0.72" fill="#353535"></path>
            <path d="M17.4260204,23.0901961 C16.4006841,22.8729496 15.411352,22.6929454 14.4642857,22.5532869 L14.9229476,19.4823529 C15.9341953,19.6313219 16.9861433,19.8237402 18.0803571,20.0549526 L17.4260204,23.0901961 Z" id="Path" fill="#353535"></path>
            <path d="M20.9386301,21.3674496 L20.3290492,23.6415383 C28.2395164,25.8093343 37.5388301,29.86069 46.5668612,35.0756085 C56.7791981,40.9740184 65.6493114,47.7340631 71.5544852,54.1236572 C76.9857693,59.9979203 79.3645774,65.0479843 77.8132573,67.7340173 C76.5317368,69.9563687 72.4575422,70.6696419 66.6028889,69.8155615 L66.2415813,72.1427837 C67.954906,72.3932024 69.5295571,72.5184314 70.9597704,72.5184314 C75.4692611,72.5184314 78.4841899,71.281035 79.8511208,68.9112464 C81.9912105,65.2033581 79.7586183,59.529057 73.2831722,52.5251417 C67.225428,45.9718044 58.1541436,39.0490465 47.7434501,33.0369722 C38.5382533,27.7210656 29.0323159,23.5846786 20.9386301,21.3674496 Z" id="Path" stroke="#FFFFFF" stroke-width="0.72" fill="#353535"></path>
            <ellipse id="Oval" fill="#4285F4" cx="40.1383929" cy="46.1803922" rx="4.70089286" ry="4.69019608"></ellipse>
            <ellipse id="Oval" fill="#4285F4" cx="49.359375" cy="13.8901961" rx="3.07366071" ry="3.06666667"></ellipse>
            <ellipse id="Oval" fill="#4285F4" cx="63.1004464" cy="70.5333333" rx="3.07366071" ry="3.06666667"></ellipse>
            <ellipse id="Oval" fill="#4285F4" cx="8.13616071" cy="53.9372549" rx="3.07366071" ry="3.06666667"></ellipse>
            <path d="M40.1383929,52.3137255 C36.7481451,52.3137255 33.9910714,49.5629255 33.9910714,46.1803922 C33.9910714,42.7978588 36.7481451,40.0470588 40.1383929,40.0470588 C43.5286406,40.0470588 46.2857143,42.7978588 46.2857143,46.1803922 C46.2857143,49.5629255 43.5286406,52.3137255 40.1383929,52.3137255 Z M40.1383929,43.1137255 C38.443269,43.1137255 37.0647321,44.4891255 37.0647321,46.1803922 C37.0647321,47.8716588 38.443269,49.2470588 40.1383929,49.2470588 C41.8335167,49.2470588 43.2120536,47.8716588 43.2120536,46.1803922 C43.2120536,44.4891255 41.8335167,43.1137255 40.1383929,43.1137255 Z" id="Shape" fill="#4285F4"></path>
            <path d="M49.5401786,18.4 C46.9484196,18.4 44.8392857,16.2956654 44.8392857,13.7098039 C44.8392857,11.1239425 46.9484196,9.01960784 49.5401786,9.01960784 C52.1319375,9.01960784 54.2410714,11.1239425 54.2410714,13.7098039 C54.2410714,16.2956654 52.1319375,18.4 49.5401786,18.4 Z M49.5401786,12.1464052 C48.6752143,12.1464052 47.9732143,12.8468078 47.9732143,13.7098039 C47.9732143,14.5728 48.6752143,15.2732026 49.5401786,15.2732026 C50.4051429,15.2732026 51.1071429,14.5728 51.1071429,13.7098039 C51.1071429,12.8468078 50.4051429,12.1464052 49.5401786,12.1464052 Z" id="Shape" fill="#4285F4"></path>
            <path d="M63.28125,75.4039216 C60.6894911,75.4039216 58.5803571,73.2995869 58.5803571,70.7137255 C58.5803571,68.1278641 60.6894911,66.0235294 63.28125,66.0235294 C65.8730089,66.0235294 67.9821429,68.1278641 67.9821429,70.7137255 C67.9821429,73.2995869 65.8730089,75.4039216 63.28125,75.4039216 Z M63.28125,69.1503268 C62.4162857,69.1503268 61.7142857,69.8507294 61.7142857,70.7137255 C61.7142857,71.5767216 62.4162857,72.2771242 63.28125,72.2771242 C64.1462143,72.2771242 64.8482143,71.5767216 64.8482143,70.7137255 C64.8482143,69.8507294 64.1462143,69.1503268 63.28125,69.1503268 Z" id="Shape" fill="#4285F4"></path>
            <path d="M8.31696429,58.4470588 C5.72520536,58.4470588 3.61607143,56.3427242 3.61607143,53.7568627 C3.61607143,51.1710013 5.72520536,49.0666667 8.31696429,49.0666667 C10.9087232,49.0666667 13.0178571,51.1710013 13.0178571,53.7568627 C13.0178571,56.3427242 10.9087232,58.4470588 8.31696429,58.4470588 Z M8.31696429,52.1934641 C7.452,52.1934641 6.75,52.8938667 6.75,53.7568627 C6.75,54.6198588 7.452,55.3202614 8.31696429,55.3202614 C9.18192857,55.3202614 9.88392857,54.6198588 9.88392857,53.7568627 C9.88392857,52.8938667 9.18192857,52.1934641 8.31696429,52.1934641 Z" id="Shape" fill="#4285F4"></path>
        </g>
    </g>
</svg>