<?xml version="1.0" encoding="UTF-8"?>
<svg width="1073px" height="257px" viewBox="0 0 1073 257" version="1.1" xmlns="http://www.w3.org/2000/svg" xmlns:xlink="http://www.w3.org/1999/xlink">
    <!-- Generator: Sketch 64 (93537) - https://sketch.com -->
    <title>a1</title>
    <desc>Created with Sketch.</desc>
    <defs>
        <text id="text-1" font-family="SFProText-Regular, SF Pro Text" font-size="12" font-weight="normal" line-spacing="18" fill="#555555">
            <tspan x="274" y="92">Research plan </tspan>
            <tspan x="274" y="110">and Logistics</tspan>
        </text>
        <filter x="-2.3%" y="-5.6%" width="104.5%" height="111.1%" filterUnits="objectBoundingBox" id="filter-2">
            <feGaussianBlur stdDeviation="1.5" in="SourceAlpha" result="shadowBlurInner1"></feGaussianBlur>
            <feOffset dx="0" dy="1" in="shadowBlurInner1" result="shadowOffsetInner1"></feOffset>
            <feComposite in="shadowOffsetInner1" in2="SourceAlpha" operator="arithmetic" k2="-1" k3="1" result="shadowInnerInner1"></feComposite>
            <feColorMatrix values="0 0 0 0 0   0 0 0 0 0   0 0 0 0 0  0 0 0 0.5 0" type="matrix" in="shadowInnerInner1"></feColorMatrix>
        </filter>
        <filter x="-2.3%" y="-5.6%" width="104.5%" height="111.1%" filterUnits="objectBoundingBox" id="filter-3">
            <feGaussianBlur stdDeviation="1.5" in="SourceAlpha" result="shadowBlurInner1"></feGaussianBlur>
            <feOffset dx="0" dy="1" in="shadowBlurInner1" result="shadowOffsetInner1"></feOffset>
            <feComposite in="shadowOffsetInner1" in2="SourceAlpha" operator="arithmetic" k2="-1" k3="1" result="shadowInnerInner1"></feComposite>
            <feColorMatrix values="0 0 0 0 0   0 0 0 0 0   0 0 0 0 0  0 0 0 0.5 0" type="matrix" in="shadowInnerInner1"></feColorMatrix>
        </filter>
    </defs>
    <g id="a1" stroke="none" stroke-width="1" fill="none" fill-rule="evenodd">
        <text id="RESEARCH" font-family="SFProText-Medium, SF Pro Text" font-size="16" font-weight="400" fill="#555555">
            <tspan x="87" y="26">RESEARCH</tspan>
        </text>
        <text id="Heuristic-evaluation" font-family="SFProText-Regular, SF Pro Text" font-size="12" font-weight="normal" line-spacing="18">
            <tspan x="128" y="179" fill="#555555">Heuristic </tspan>
            <tspan x="128" y="197" fill="#555555">evaluation</tspan>
            <tspan x="128" y="215" fill="#777777">• Pilot app</tspan>
        </text>
        <g id="Group-8" transform="translate(81.000000, 172.000000)">
            <path d="M7.68,3 L23.32,3 C25.9046926,3 28,5.09530737 28,7.68 L28,34.32 C28,36.9046926 25.9046926,39 23.32,39 L7.68,39 C5.09530737,39 3,36.9046926 3,34.32 L3,7.68 C3,5.09530737 5.09530737,3 7.68,3 Z" id="Rectangle-2" fill="#FECC25"></path>
            <path d="M26.9992301,0 C28.6524271,0 29.9989814,1.3153469 29.9989814,2.93023188 C30.0003395,3.89004442 30.0003395,4.3784164 29.9989814,4.39534782 C30,24.6085412 30,34.7219142 29.9989814,34.7354668 L29.9989814,34.7354668 L29.9989814,39.0697681 C29.9989814,40.6846677 28.6524271,42 26.9992301,42 L26.9992301,42 L3.00121961,42 C1.34802261,42 0.00146780752,40.6846677 0.00146780752,39.0697681 C-0.00034947798,36.3676922 -0.000479284087,34.911398 0.0010783892,34.7008856 L0.00100624284,22.3301584 C0.000752916544,13.9238293 0.000752916544,8.46260791 0.00100624284,5.94649412 L0.00146780752,2.93023188 C0.00146780752,1.3153469 1.34802261,0 3.00121961,0 L3.00121961,0 Z M28.9990644,35.1627923 L1.00138524,35.1627923 L1.00138524,39.0697681 C1.00138524,40.1604493 1.88468085,41.023256 3.00121961,41.023256 L3.00121961,41.023256 L26.9992301,41.023256 C28.1157688,41.023256 28.9990644,40.1604493 28.9990644,39.0697681 L28.9990644,39.0697681 L28.9990644,35.1627923 Z M10.4537267,37.6025015 L10.5005979,37.6046522 L19.4998518,37.6046522 C19.6801548,37.6021613 19.8478636,37.6946959 19.9387593,37.8468226 C20.0296549,37.9989493 20.0296549,38.1870991 19.9387593,38.3392257 C19.8478636,38.4913524 19.6801548,38.583887 19.4998518,38.5813961 L19.4998518,38.5813961 L10.4099745,38.5817577 C10.172776,38.5617649 9.97677809,38.3785606 9.9537681,38.1388091 C9.92788185,37.8690887 10.130736,37.6299385 10.4068555,37.6046522 C10.438034,37.6017846 10.4694194,37.6017846 10.5005979,37.6046522 Z M28.9990644,4.88371979 L1.00138524,4.88371979 L1.00138524,34.1860483 L28.9990644,34.1860483 L28.9990644,4.88371979 Z M13.0003905,21.488362 C13.2538299,21.486458 13.4686537,21.6700725 13.5003492,21.9157023 C13.5016523,21.9360313 13.5016523,21.9564199 13.5003492,21.9767488 L13.5003492,21.9767488 L13.5003492,29.7907005 C13.5003216,30.0604098 13.2764986,30.2790725 13.0003905,30.2790725 L13.0003905,30.2790725 L5.00105349,30.2790725 C4.72494557,30.2790725 4.50109527,30.0604096 4.50109527,29.7907005 L4.50109527,29.7907005 L4.50109527,21.9767488 C4.50109527,21.7070397 4.72494557,21.488362 5.00105349,21.488362 L5.00105349,21.488362 Z M24.9993962,21.4883769 C25.2755041,21.488404 25.4993544,21.7070397 25.4993544,21.9767488 L25.4993544,21.9767488 L25.4993544,29.7907005 C25.4993544,30.0604096 25.2755041,30.2790725 24.9993962,30.2790725 L24.9993962,30.2790725 L17.0000592,30.2790725 C16.7239511,30.2790725 16.5001281,30.0604098 16.5001005,29.7907005 L16.5001005,29.7907005 L16.5001005,21.9767488 C16.4987974,21.9564199 16.4987974,21.9360313 16.5001005,21.9157023 C16.5299861,21.6812814 16.7273403,21.5013529 16.9688129,21.4883769 L16.9688129,21.4883769 Z M12.5004323,22.4651208 L5.5010122,22.4651208 L5.5010122,29.3023285 L12.5004323,29.3023285 L12.5004323,22.4651208 Z M24.4994375,22.4651208 L17.5000174,22.4651208 L17.5000174,29.3023285 L24.4994375,29.3023285 L24.4994375,22.4651208 Z M13.0003905,8.79072005 C13.2764986,8.79074693 13.5003216,9.00938274 13.5003492,9.27909203 L13.5003492,9.27909203 L13.5003492,17.1388042 C13.4760658,17.3904894 13.2591864,17.5824814 13.0003905,17.5813959 L13.0003905,17.5813959 L5.00105349,17.5813959 C4.72494557,17.5813959 4.50109439,17.3627284 4.50109439,17.0930193 L4.50109439,17.0930193 L4.50109439,9.27906761 C4.50060335,9.02084085 4.70597092,8.80685871 4.96980719,8.79072005 L4.96980719,8.79072005 Z M24.9993962,8.79067121 C25.2755041,8.79067121 25.4993544,9.0093341 25.4993544,9.27904319 L25.4993544,9.27904319 L25.4993544,17.0929949 C25.4993544,17.362704 25.2755041,17.5813715 24.9993962,17.5813715 L24.9993962,17.5813715 L17.0000592,17.5813715 C16.7412633,17.582457 16.5243839,17.390465 16.5001005,17.1387797 C16.4993686,17.1235346 16.4993686,17.1082644 16.5001005,17.0930193 L16.5001005,17.0930193 L16.5001005,9.27906761 C16.5001281,9.00935832 16.7239511,8.79067121 17.0000592,8.79067121 L17.0000592,8.79067121 Z M12.5004323,9.76743959 L5.5010122,9.76743959 L5.5010122,16.6046473 L12.5004323,16.6046473 L12.5004323,9.76743959 Z M24.4994375,9.76743959 L17.5000174,9.76743959 L17.5000174,16.6046473 L24.4994375,16.6046473 L24.4994375,9.76743959 Z M26.9992301,0.976743959 L3.00121961,0.976743959 C1.88468085,0.976743959 1.00138524,1.83957027 1.00138524,2.93023188 L1.00138524,2.93023188 L1.00138524,3.90697584 L28.9990644,3.90697584 L28.9990644,2.93023188 C28.9990644,1.83957027 28.1157688,0.976743959 26.9992301,0.976743959 L26.9992301,0.976743959 Z" id="Shape" fill="#000000" fill-rule="nonzero"></path>
        </g>
        <text id="Compititor-Analysis" font-family="SFProText-Regular, SF Pro Text" font-size="12" font-weight="normal" line-spacing="18" fill="#555555">
            <tspan x="128" y="92">Compititor </tspan>
            <tspan x="128" y="110">Analysis </tspan>
        </text>
        <g id="Group-12" transform="translate(60.000000, 83.000000)" fill-rule="nonzero">
            <circle id="Oval" stroke="#272727" stroke-width="1.17" cx="4" cy="27" r="4"></circle>
            <circle id="Oval" stroke="#272727" stroke-width="1.17" cx="16" cy="18" r="8"></circle>
            <circle id="Oval" stroke="#272727" stroke-width="1.17" cx="28.5" cy="5.5" r="3.5"></circle>
            <circle id="Oval" stroke="#272727" stroke-width="1.17" cx="32.5" cy="23.5" r="5.5"></circle>
            <circle id="Oval" stroke="#272727" stroke-width="1.17" cx="44" cy="31" r="2"></circle>
            <circle id="Oval" stroke="#272727" stroke-width="1.17" cx="46" cy="9" r="9"></circle>
            <circle id="Oval" fill="#A87400" cx="4" cy="27" r="3"></circle>
            <circle id="Oval" fill="#FECC25" cx="16" cy="18" r="7"></circle>
            <circle id="Oval" fill="#F5A623" cx="28.5" cy="5.5" r="2.5"></circle>
            <circle id="Oval" fill="#A87400" cx="33" cy="23" r="5"></circle>
            <circle id="Oval" fill="#FECC25" cx="44.5" cy="30.5" r="1.5"></circle>
            <circle id="Oval" fill="#F5A623" cx="46" cy="9" r="8"></circle>
        </g>
        <text id="Contextual-Inquiry-T" font-family="SFProText-Regular, SF Pro Text" font-size="12" font-weight="normal" line-spacing="18" fill="#555555">
            <tspan x="274" y="177">Contextual Inquiry </tspan>
            <tspan x="274" y="195">Think aloud Protocols </tspan>
        </text>
        <text id="•-Used-paper-prototy" font-family="SFProText-Regular, SF Pro Text" font-size="12" font-weight="normal" line-spacing="18" fill="#777777">
            <tspan x="274" y="214">• Used paper prototypes</tspan>
        </text>
        <g id="Research-plan-and-Lo" fill="#555555" fill-opacity="1">
            <use filter="url(#filter-2)" xlink:href="#text-1"></use>
            <use filter="url(#filter-3)" xlink:href="#text-1"></use>
        </g>
        <g id="Group-14" transform="translate(213.000000, 81.000000)">
            <polygon id="Rectangle" fill="#D4FEFF" points="15 5 33 5 33 33 15 33"></polygon>
            <g id="Group" fill="#000000" fill-rule="nonzero">
                <path d="M45.3562341,34.3889675 L40.3816794,34.3889675 L40.3816794,6.08910891 C40.3816794,2.72560113 37.6310433,0 34.2366412,0 L6.14503817,0 C2.75063613,0 0,2.72560113 0,6.08910891 C0,6.43705799 0.234096692,6.66902405 0.58524173,6.66902405 L11.178117,6.66902405 L11.178117,34.9108911 C11.178117,34.9688826 11.178117,35.0268741 11.2366412,35.0848656 C11.3536896,38.3903819 14.0458015,41 17.3816794,41 L39.8549618,41 C43.2493639,41 46,38.2743989 46,34.9108911 C45.9414758,34.6209335 45.7073791,34.3889675 45.3562341,34.3889675 Z M1.11195929,5.50919378 C1.40458015,3.07355021 3.51145038,1.15983027 6.08651399,1.15983027 C8.66157761,1.15983027 10.7684478,3.07355021 11.0610687,5.50919378 L1.11195929,5.50919378 Z M17.3231552,39.8981612 C14.5725191,39.8981612 12.3486005,37.6944837 12.3486005,34.9688826 L12.3486005,34.9688826 L12.3486005,6.32107496 C12.3486005,6.26308345 12.3486005,6.26308345 12.3486005,6.20509194 C12.3486005,6.14710042 12.3486005,6.14710042 12.3486005,6.08910891 C12.3486005,4.05940594 11.3536896,2.26166902 9.7735369,1.15983027 L34.2366412,1.15983027 C36.9872774,1.15983027 39.2111959,3.36350778 39.2111959,6.08910891 L39.2111959,34.330976 L22.8829517,34.330976 C22.5318066,34.330976 22.2977099,34.562942 22.2977099,34.9108911 C22.2977099,37.6944837 20.0737913,39.8981612 17.3231552,39.8981612 Z M39.7964377,39.8981612 L20.8931298,39.8981612 C22.2977099,38.9123055 23.2340967,37.3465347 23.4096692,35.5487977 L44.7124682,35.5487977 C44.4783715,37.9844413 42.3129771,39.8981612 39.7964377,39.8981612 Z" id="Shape"></path>
                <path d="M17.5882353,10 L36.4117647,10 C36.7647059,10 37,9.8 37,9.5 C37,9.2 36.7647059,9 36.4117647,9 L17.5882353,9 C17.2352941,9 17,9.2 17,9.5 C17,9.8 17.2941176,10 17.5882353,10 Z" id="Shape"></path>
                <path d="M17.5882353,15 L36.4117647,15 C36.7647059,15 37,14.8 37,14.5 C37,14.2 36.7647059,14 36.4117647,14 L17.5882353,14 C17.2352941,14 17,14.2 17,14.5 C17,14.8 17.2941176,15 17.5882353,15 Z" id="Shape"></path>
                <path d="M17.5882353,20 L36.4117647,20 C36.7647059,20 37,19.8 37,19.5 C37,19.2 36.7647059,19 36.4117647,19 L17.5882353,19 C17.2352941,19 17,19.2 17,19.5 C17,19.8 17.2941176,20 17.5882353,20 Z" id="Shape"></path>
                <path d="M17.5882353,25 L36.4117647,25 C36.7647059,25 37,24.8 37,24.5 C37,24.2 36.7647059,24 36.4117647,24 L17.5882353,24 C17.2352941,24 17,24.2 17,24.5 C17,24.8 17.2941176,25 17.5882353,25 Z" id="Shape"></path>
                <path d="M31,29.5 C31,29.2 30.7704918,29 30.4262295,29 L17.5737705,29 C17.2295082,29 17,29.2 17,29.5 C17,29.8 17.2295082,30 17.5737705,30 L30.4262295,30 C30.7704918,30 31,29.75 31,29.5 Z" id="Shape"></path>
            </g>
        </g>
        <g id="Group-2" transform="translate(220.000000, 169.000000)" fill-rule="nonzero">
            <g id="Group" transform="translate(18.912809, 18.978294) rotate(8.000000) translate(-18.912809, -18.978294) translate(9.365640, 9.223577)" fill="#D4FEFF">
                <ellipse id="Oval" cx="9.23947138" cy="9.44032945" rx="9.23947138" ry="9.44032945"></ellipse>
            </g>
            <path d="M18.1851294,3.54716981 C9.60700664,3.54716981 2.60377358,10.4929707 2.60377358,19.0007459 C2.60377358,27.5085211 9.60700664,34.4543219 18.1851294,34.4543219 C22.3066494,34.4543219 26.0598398,32.859244 28.841028,30.2670312 L31.4876597,32.8926071 C30.6499524,34.0557795 30.7504773,35.6840916 31.8227426,36.7475628 L38.0891856,42.9619675 C38.6588266,43.5269369 39.429648,43.8259088 40.233847,43.8259088 C41.038046,43.8259088 41.808214,43.5269369 42.377855,42.9619675 C43.5506452,41.7987951 43.5506452,39.904745 42.377855,38.7415726 L36.1120657,32.5265195 C35.5424247,31.9615501 34.771603,31.6625782 33.967404,31.6625782 C33.3307464,31.6625782 32.7278592,31.8623687 32.2252348,32.2279372 L29.5779487,29.6023613 C32.1915955,26.8439811 33.7998625,23.1215695 33.7998625,19.0338494 C33.7663542,10.4928407 26.7632522,3.54716981 18.1851294,3.54716981 Z M18.1851294,4.54417472 C26.2271195,4.54417472 32.7612365,11.0247066 32.7612365,19.0007459 C32.7612365,26.9767851 26.2271195,33.457317 18.1851294,33.457317 C10.1431393,33.457317 3.60902235,26.9767851 3.60902235,19.0007459 C3.60902235,11.0247066 10.1431393,4.54417472 18.1851294,4.54417472 Z M18.1851294,6.03968208 C10.9808466,6.03968208 5.11689549,11.855544 5.11689549,19.0007459 C5.11689549,26.1459477 10.9808466,31.9618096 18.1851294,31.9618096 C25.3894122,31.9618096 31.2533633,26.1459477 31.2533633,19.0007459 C31.2533633,11.855544 25.3894122,6.03968208 18.1851294,6.03968208 Z M18.1851294,7.03668698 C24.8532796,7.03668698 30.2481146,12.38728 30.2481146,19.0007459 C30.2481146,25.6142117 24.8532796,30.9648047 18.1851294,30.9648047 C11.5169793,30.9648047 6.12214426,25.6142117 6.12214426,19.0007459 C6.12214426,12.38728 11.5169793,7.03668698 18.1851294,7.03668698 Z M33.967404,32.6264796 C34.4700284,32.6264796 34.9730458,32.8261401 35.3751446,33.2249421 L41.6409339,39.4393464 C42.4116246,40.2037169 42.4116246,41.4665897 41.6409339,42.2641937 C41.2723427,42.6297621 40.7699797,42.8626558 40.233847,42.8626558 C39.6977143,42.8626558 39.1946979,42.6629956 38.8261067,42.2641937 L32.5603178,36.049789 C31.789627,35.2854192 31.789627,34.022546 32.5603178,33.2249421 C32.928909,32.8593736 33.4312713,32.6264796 33.967404,32.6264796 Z" id="Shape" fill="#000000" transform="translate(22.930611, 23.686539) rotate(8.000000) translate(-22.930611, -23.686539) "></path>
        </g>
        <path d="" id="Path-4" stroke="#979797" fill-rule="nonzero"></path>
        <text id="Affinity-Mapping" font-family="SFProText-Regular, SF Pro Text" font-size="12" font-weight="normal" line-spacing="18" fill="#555555">
            <tspan x="526" y="96">Affinity Mapping</tspan>
        </text>
        <g id="Group-6" transform="translate(471.000000, 73.000000)">
            <polygon id="Rectangle-3" fill="#FECC25" transform="translate(26.105625, 25.081875) rotate(-14.000000) translate(-26.105625, -25.081875) " points="15.35625 14.3325 36.855 14.3325 36.855 35.83125 15.35625 35.83125"></polygon>
            <path d="M41.9668655,34.3771444 L36.5839506,13.1380422 L39.1530691,10.8733541 C39.2634324,10.8853458 39.3747688,10.8853458 39.485132,10.8733541 C40.1089233,10.8788198 40.6735024,10.5046059 40.9117929,9.92773557 C41.1500835,9.35086527 41.014312,8.68699182 40.5687058,8.25016321 C39.9633398,7.66831603 39.0069243,7.66831603 38.4015583,8.25016321 C38.0354613,8.61260825 37.8776003,9.13585032 37.9821103,9.64045437 L36.1033332,11.2930646 L35.4217304,8.59117802 C35.3799615,8.35504438 35.2431067,8.14643869 35.0431958,8.0141834 C34.8432848,7.8819281 34.597864,7.83763136 34.3643721,7.89166045 L33.2982753,8.16272351 L33.5779072,6.93856777 C33.6299635,6.71122066 33.5890896,6.4724852 33.4643732,6.27544129 C33.3396568,6.07839739 33.1414355,5.93937765 32.9137814,5.88929142 L6.9342261,0.0220878174 C6.70702125,-0.030001087 6.46843518,0.010898454 6.27151457,0.135692927 C6.07459396,0.2604874 5.93566121,0.45883282 5.88560631,0.686629507 L0.0220739964,26.6999391 C-0.0299823145,26.9272862 0.0108916345,27.1660216 0.13560802,27.3630655 C0.260324406,27.5601094 0.458545715,27.6991292 0.686199863,27.7492154 L11.6005842,30.2062709 L14.4056421,41.3373442 C14.5076781,41.7336208 14.8707343,42.0060835 15.2794919,41.9931419 C15.352026,42.002286 15.4254203,42.002286 15.4979544,41.9931419 L41.3114782,35.4701406 C41.5472334,35.4189444 41.7513489,35.2725025 41.8754675,35.0655086 C42,34.8585147 42.0326644,34.6093863 41.9668655,34.3771444 Z M1.94454361,26.2539966 L7.40610501,1.94576113 L31.6816531,7.41074213 L31.3932827,8.66987375 L8.54210978,14.4408937 C8.31416977,14.4928254 8.11652861,14.6339805 7.99336766,14.8328046 C7.8702067,15.0316286 7.83179615,15.2715421 7.88672241,15.498914 L11.1199668,28.3000855 L1.94454361,26.2539966 Z M15.9261408,40.0782125 L9.80919202,15.9448565 L32.2671325,10.2700202 L32.2671325,10.2700202 L33.9187087,9.85030964 L34.60905,12.5784282 L30.8078033,15.9273685 C30.4704239,16.2516274 30.4480862,16.7842341 30.7571282,17.135638 C31.0661701,17.487042 31.596964,17.5325882 31.9612851,17.238964 L35.0896674,14.4846135 L40.0094419,33.9836657 L15.9261408,40.0782125 Z M34.1022171,20.0457782 C34.1638092,20.2695712 34.1339442,20.508686 34.0192036,20.7104278 C33.9044631,20.9121696 33.7142643,21.0599804 33.4905223,21.1212865 L16.7825136,25.7643343 C16.7042288,25.7750071 16.624859,25.7750071 16.5465742,25.7643343 C16.0639602,25.829528 15.6199075,25.490897 15.5547546,25.0079809 C15.4896017,24.5250648 15.8280208,24.0807341 16.3106347,24.0155404 L33.0273818,19.4337003 C33.2510348,19.3720697 33.49,19.4019534 33.6916156,19.5167658 C33.8932311,19.6315782 34.0409494,19.8218961 34.1022171,20.0457782 L34.1022171,20.0457782 Z M31.3058977,26.5250597 C31.4480219,26.9862214 31.1898948,27.4754046 30.7291568,27.6180559 L18.6612907,31.3342429 C18.2061144,31.4596953 17.7336596,31.2006876 17.5943158,30.7493093 C17.4549721,30.2979311 17.6991327,29.8174219 18.1457193,29.6641447 L30.2135854,25.9479577 C30.4360642,25.8769696 30.6776827,25.8980359 30.8845387,26.0064569 C31.0913947,26.1148779 31.2462781,26.3016331 31.3146362,26.5250597 L31.3058977,26.5250597 Z M9.18875865,8.04030794 C9.22922479,7.81183501 9.35878546,7.60882451 9.54890945,7.47598239 C9.73903344,7.34314028 9.97412896,7.29136073 10.2024244,7.3320464 L20.4177289,9.18576795 C20.9003428,9.2292304 21.2563675,9.65594453 21.2129322,10.1388606 C21.169497,10.6217767 20.7430498,10.9780243 20.2604359,10.9345619 L20.1031429,10.9345619 L9.89657701,9.06335238 C9.66643652,9.02296768 9.46204427,8.89204178 9.32904689,8.69981418 C9.19604951,8.50758657 9.14552562,8.27006972 9.18875865,8.04030794 Z" id="Shape" stroke="#FFFFFF" stroke-width="0.585" fill="#000000" fill-rule="nonzero"></path>
        </g>
        <text id="Experience-Mapping" font-family="SFProText-Regular, SF Pro Text" font-size="12" font-weight="normal" line-spacing="18" fill="#555555">
            <tspan x="526" y="228">Experience Mapping</tspan>
        </text>
        <g id="Group-9" transform="translate(476.000000, 202.000000)">
            <g id="Group-4">
                <path d="M30.2138155,35.7953774 C27.5830434,35.7953774 25.4439184,37.9848849 25.4439184,40.6774221 C25.4439184,43.3691024 27.583881,45.557753 30.2138155,45.557753 C32.84375,45.557753 34.9853878,43.3682455 34.9853878,40.6774221 C34.9853878,37.9840279 32.84375,35.7953774 30.2138155,35.7953774 Z M30.2138155,43.8438528 C28.5077083,43.8438528 27.1190359,42.4230295 27.1190359,40.6774221 C27.1190359,38.9301009 28.5077083,37.5092776 30.2138155,37.5092776 C31.9215978,37.5092776 33.3102702,38.9301009 33.3102702,40.6774221 C33.3102702,42.4230295 31.9215978,43.8438528 30.2138155,43.8438528 Z" id="Shape" fill="#000000" fill-rule="nonzero" transform="translate(30.214653, 40.676565) rotate(20.000000) translate(-30.214653, -40.676565) "></path>
                <path d="M11.6617959,7.05146158 C11.6617959,4.35892434 9.52145753,2.16941681 6.89106122,2.16941681 C4.26066492,2.16941681 2.12032653,4.35978129 2.12032653,7.05146158 C2.12032653,9.74314187 4.26066492,11.9317925 6.89106122,11.9317925 C9.52145753,11.9317925 11.6617959,9.74314187 11.6617959,7.05146158 Z M3.79573819,7.05146158 C3.79573819,5.30414031 5.18297904,3.88331703 6.89106122,3.88331703 C8.597468,3.88331703 9.98638426,5.30414031 9.98638426,7.05146158 C9.98638426,8.79706895 8.597468,10.2178926 6.89106122,10.2178926 C5.18297904,10.2187492 3.79573819,8.79706895 3.79573819,7.05146158 Z" id="Shape" fill="#000000" fill-rule="nonzero" transform="translate(6.891061, 7.050605) rotate(20.000000) translate(-6.891061, -7.050605) "></path>
                <path d="M6.13723446,16.5030499 C5.84248561,16.2018711 5.36709194,16.200859 5.07361635,16.5007855 L3.70906907,17.8960973 L2.33709392,16.4949596 C2.04234507,16.1937808 1.5669514,16.1927687 1.27347581,16.4926952 C0.980000217,16.7926216 0.98102925,17.2784254 1.27577811,17.5796042 L2.64775325,18.9807419 L1.28320271,20.3745164 C0.989727122,20.6744429 0.990756155,21.1602467 1.28550501,21.4614255 C1.43250252,21.6116297 1.62522661,21.68737 1.81779114,21.68778 C2.01035566,21.6881899 2.20276062,21.6132696 2.34912313,21.4636898 L3.71367529,20.0706841 L5.08263673,21.4695094 C5.22963424,21.6197136 5.42235833,21.6954539 5.61492285,21.6958656 C5.80748738,21.6962738 5.99989234,21.6213535 6.14625484,21.4717738 C6.43973044,21.1718473 6.4387014,20.6860435 6.14395255,20.3848647 L4.77498948,18.9852707 L6.13953676,17.5899589 C6.43301235,17.2900324 6.43198169,16.80346 6.13723446,16.5030499 Z" id="Shape" fill="#000000" fill-rule="nonzero" transform="translate(3.709865, 18.982138) rotate(20.000000) translate(-3.709865, -18.982138) "></path>
                <path d="M9.27389749,29.5208432 C8.92022608,29.219539 8.34959185,29.2183241 7.9971937,29.5181252 L6.35868074,30.9136224 L4.71424108,29.5111359 C4.36056966,29.2098317 3.78993543,29.2086168 3.43753728,29.5084179 C3.08513913,29.8082189 3.08616816,30.2940227 3.43983958,30.5953269 L5.08427924,31.9978134 L3.44575978,33.3902359 C3.09336162,33.690037 3.09439066,34.1758407 3.44806207,34.477145 C3.62444552,34.6274118 3.85574806,34.7032342 4.08689104,34.7037263 C4.31803402,34.7042184 4.54901743,34.6293802 4.72476587,34.479863 L6.36328534,33.0874405 L8.00771849,34.4868523 C8.18410193,34.6371191 8.41540448,34.7129415 8.64654745,34.713436 C8.87769043,34.7139257 9.10867385,34.6390875 9.28442229,34.4895703 C9.63682044,34.1897693 9.6357914,33.7039655 9.28211999,33.4026613 L7.63768684,32.0032495 L9.27619979,30.6077523 C9.62859794,30.3079512 9.62756728,29.8213788 9.27389749,29.5208432 Z" id="Shape" fill="#000000" fill-rule="nonzero" transform="translate(6.360980, 31.998898) rotate(20.000000) translate(-6.360980, -31.998898) "></path>
                <path d="M22.4872826,25.8005132 C22.6343217,25.9507175 22.8271004,26.0264579 23.0197196,26.026868 C23.2123387,26.0272781 23.4047983,25.9523578 23.5512024,25.8027782 L24.9161392,24.4082359 L26.2869962,25.8086026 C26.4340354,25.9588069 26.6268141,26.0345474 26.8194332,26.0349591 C27.0120524,26.0353675 27.204512,25.9604473 27.3509161,25.8108676 C27.6444751,25.5109413 27.6434461,25.0251376 27.3486138,24.7239586 L25.9777568,23.3235919 L27.3426936,21.9290496 C27.6362526,21.6291233 27.6352236,21.1433195 27.3403913,20.8421405 C27.045559,20.5409616 26.5700305,20.5399492 26.2764715,20.8398755 L24.9115346,22.2344178 L23.5406776,20.8340511 C23.2458453,20.5328721 22.7703168,20.5318598 22.4767578,20.8317861 C22.1831988,21.1317124 22.1842278,21.6175162 22.4790601,21.9186951 L23.8499171,23.3190618 L22.4849803,24.7136041 C22.192172,25.0127634 22.1932027,25.4993358 22.4872826,25.8005132 Z" id="Shape" fill="#000000" fill-rule="nonzero" transform="translate(24.913837, 23.321231) rotate(20.000000) translate(-24.913837, -23.321231) "></path>
                <path d="M21.4216258,31.2641309 C21.1126573,30.9575963 20.6142944,30.9549707 20.3066218,31.2601925 C19.9989459,31.5638498 19.9984161,32.0582582 20.3058107,32.3663541 L22.7570281,34.8052882 L17.9855508,34.79513 C12.2828036,34.7829891 12.1667508,30.2509147 12.1647628,30.0569017 C12.1622727,29.6258526 11.8090563,29.2769799 11.3745688,29.276053 C10.9385042,29.2751265 10.5867692,29.6256276 10.5876805,30.0566733 C10.5876805,30.1208217 10.6853743,36.3441756 17.988865,36.3597244 L22.7650735,36.3698927 L20.3068151,38.7968102 C19.9975654,39.1020287 19.9970356,39.5964372 20.3060074,39.9045364 C20.4600965,40.0574117 20.662126,40.1345066 20.8655703,40.1349415 C21.0658604,40.1353661 21.2675684,40.0606953 21.4210113,39.9084748 L25.2217113,36.1560806 C25.369646,36.0093243 25.4520238,35.8115794 25.4531601,35.6034917 C25.4527194,35.3954006 25.3695014,35.1965209 25.2225224,35.049919 L21.4216258,31.2641309 Z" id="Shape" fill="#000000" fill-rule="nonzero" transform="translate(18.020420, 34.705497) rotate(20.000000) translate(-18.020420, -34.705497) "></path>
                <path d="M12.0862932,7.58264582 C12.09225,7.5826585 12.1603283,7.58334054 12.2739504,7.59217603 C12.2824601,7.59219415 12.2905454,7.59274846 12.298204,7.59276554 C12.5224334,7.59324214 12.7100292,7.37289341 12.7217618,7.08664406 C12.7343249,6.79072868 12.5542342,6.53683406 12.3193313,6.51914676 C12.1682622,6.50808314 12.0831691,6.50951328 12.0848688,6.5084427 C11.849578,6.50847887 11.6607468,6.74816058 11.6613732,7.04464114 C11.6620028,7.3411217 11.8518511,7.5816096 12.0862932,7.58264582 Z" id="Shape" fill="#000000" fill-rule="nonzero" transform="translate(12.191877, 7.050604) rotate(20.000000) translate(-12.191877, -7.050604) "></path>
                <path d="M16.9643131,17.7629606 C16.9773831,17.8697307 16.9889133,17.9772441 16.9963344,18.0851219 C17.0116546,18.2840834 17.2390613,18.4390827 17.5098098,18.439668 C17.5190574,18.439668 17.5277912,18.4396974 17.537038,18.4393439 C17.8211219,18.4294984 18.0385814,18.2541724 18.0227331,18.0484917 C18.0142625,17.9301613 18.0021955,17.8118233 17.9870492,17.6949716 C17.9593846,17.4892658 17.7114388,17.3394479 17.4263439,17.357129 C17.144334,17.3759363 16.9366485,17.5572547 16.9643131,17.7629606 Z" id="Shape" fill="#000000" fill-rule="nonzero" transform="translate(17.492694, 17.897690) rotate(20.000000) translate(-17.492694, -17.897690) "></path>
                <path d="M17.2039565,14.9671987 C17.2794577,15.1052129 17.4330709,15.1853703 17.5925663,15.185711 C17.6565373,15.1858461 17.7217787,15.1735236 17.7830985,15.146395 C17.9964222,15.0518316 18.0845359,14.8183692 17.9786609,14.6249932 L17.9361425,14.5497453 C17.8801778,14.452272 17.8186055,14.3602387 17.7505571,14.2716962 C17.6157561,14.0942247 17.3472406,14.0480913 17.1499641,14.1683905 C16.9526892,14.2894684 16.9026306,14.5315789 17.0378654,14.7098302 C17.0851096,14.7714586 17.1293363,14.8369747 17.168382,14.9052057 L17.2039565,14.9671987 Z" id="Shape" fill="#000000" fill-rule="nonzero" transform="translate(17.492693, 14.643564) rotate(20.000000) translate(-17.492693, -14.643564) "></path>
                <path d="M14.6137104,9.9502176 C14.5007678,9.8902646 14.386721,9.83637381 14.2730574,9.78761538 C14.0781527,9.70416268 13.8665753,9.83526644 13.8008153,10.0781752 C13.735802,10.3220185 13.8406168,10.5876826 14.0355215,10.6711353 C14.1324144,10.7123939 14.2304361,10.759253 14.3266041,10.8098402 C14.3739434,10.8351323 14.4227434,10.8468988 14.4715187,10.8470033 C14.6170999,10.8473125 14.7542626,10.7403086 14.8142017,10.561765 C14.8930041,10.3240156 14.8038104,10.0504542 14.6137104,9.9502176 Z" id="Shape" fill="#000000" fill-rule="nonzero" transform="translate(14.312203, 10.304730) rotate(20.000000) translate(-14.312203, -10.304730) "></path>
                <path d="M15.8424657,21.3701894 C15.8628168,21.2581872 15.8821571,21.1431949 15.8994834,21.0255839 C15.9296805,20.8206048 15.7299341,20.6356778 15.4542025,20.6123082 C15.1844977,20.5893249 14.9317231,20.7359399 14.9005217,20.9409169 C14.8841871,21.0525542 14.8658407,21.1626933 14.8464821,21.2690954 C14.8107597,21.4733158 15.0039861,21.6619638 15.2787228,21.6898131 C15.3013245,21.6921022 15.3239246,21.6936442 15.3455173,21.6936917 C15.5940842,21.6942194 15.8092193,21.5579818 15.8424657,21.3701894 Z" id="Shape" fill="#000000" fill-rule="nonzero" transform="translate(15.372366, 21.151814) rotate(20.000000) translate(-15.372366, -21.151814) "></path>
                <path d="M14.4668265,23.8783865 C14.2002751,23.8170489 13.9291735,23.9585601 13.8614449,24.1923152 C13.8258482,24.3142168 13.8035861,24.3836834 13.8016025,24.3876139 C13.7254025,24.6187278 13.8773043,24.8616944 14.1413796,24.9295847 C14.1882154,24.9414886 14.235039,24.9477091 14.2813518,24.9478089 C14.4964818,24.9482657 14.6944183,24.8249609 14.7582548,24.6344798 C14.7582548,24.6344798 14.7844795,24.5549661 14.8270026,24.4116567 C14.8947313,24.1779016 14.733875,23.9392879 14.4668265,23.8783865 Z" id="Shape" fill="#000000" fill-rule="nonzero" transform="translate(14.312205, 24.405938) rotate(20.000000) translate(-14.312205, -24.405938) "></path>
                <ellipse id="Oval-2" fill="#7ED321" transform="translate(7.951224, 7.050605) rotate(20.000000) translate(-7.951224, -7.050605) " cx="7.95122449" cy="7.05060463" rx="2.65246984" ry="2.70968796"></ellipse>
                <ellipse id="Oval-2" fill="#7ED321" transform="translate(30.214653, 40.676565) rotate(20.000000) translate(-30.214653, -40.676565) " cx="30.2146531" cy="40.6765652" rx="2.65246984" ry="2.70968796"></ellipse>
            </g>
        </g>
        <text id="Persona-Creation" font-family="SFProText-Regular, SF Pro Text" font-size="12" font-weight="normal" line-spacing="18" fill="#555555">
            <tspan x="526" y="165">Persona Creation</tspan>
        </text>
        <g id="Group-5" transform="translate(478.000000, 139.000000)" fill-rule="nonzero">
            <ellipse id="Oval" stroke="#000000" stroke-width="1.17" cx="15" cy="9.5" rx="10" ry="9.5"></ellipse>
            <path d="M25,26 L5,26 C2.23888889,26 0,28.2383333 0,31 L0,41 L5,41 L25,41 L30,41 L30,31 C30,28.2383333 27.7616667,26 25,26 Z" id="Shape" stroke="#000000" stroke-width="1.17"></path>
            <circle id="Oval" fill="#71B2FF" cx="16" cy="9" r="8"></circle>
            <path d="M24.8333333,27 L8.16666667,27 C5.86574074,27 4,28.6414444 4,30.6666667 L4,38 L8.16666667,38 L24.8333333,38 L29,38 L29,30.6666667 C29,28.6414444 27.1347222,27 24.8333333,27 Z" id="Shape" fill="#71B2FF"></path>
        </g>
        <text id="SYNTHESIS" font-family="SFProText-Medium, SF Pro Text" font-size="16" font-weight="400" fill="#555555">
            <tspan x="488" y="26">SYNTHESIS</tspan>
        </text>
        <circle id="Oval" stroke="#555555" fill="#777777" fill-rule="nonzero" cx="491.5" cy="43.5" r="3.5"></circle>
        <text id="IA-and-Taskflows" font-family="SFProText-Regular, SF Pro Text" font-size="12" font-weight="normal" line-spacing="18" fill="#555555">
            <tspan x="770" y="98">IA and Taskflows</tspan>
        </text>
        <text id="Lo-fi-and-Hi-fi-wire" font-family="SFProText-Regular, SF Pro Text" font-size="12" font-weight="normal" line-spacing="18" fill="#555555">
            <tspan x="770" y="170">Lo-fi and Hi-fi </tspan>
            <tspan x="770" y="188">wireframes</tspan>
        </text>
        <g id="Group-13" transform="translate(709.000000, 76.000000)">
            <path d="M22.3636364,0 C19.6641682,0 17.4545455,2.20420426 17.4545455,4.89705882 L17.4545455,8.16176471 C17.4545455,10.8546193 19.6641682,13.0588235 22.3636364,13.0588235 L22.9090909,13.0588235 L22.9090909,16.8676471 L10.3636364,16.8676471 C10.3295642,16.8660522 10.2954358,16.8660522 10.2613636,16.8676471 C10.0489998,16.888746 9.84750223,16.9715123 9.68181818,17.1056985 L5.86363636,20.0813419 C5.60015616,20.291727 5.44911284,20.6119073 5.45454545,20.9485294 L5.45454545,23.9411765 L4.90909091,23.9411765 C2.20962273,23.9411765 0,26.1453807 0,28.8382353 L0,32.1029412 C0,34.7957957 2.20962273,37 4.90909091,37 L8.18181818,37 C10.8812858,37 13.0909091,34.7957963 13.0909091,32.1029412 L13.0909091,28.8382353 C13.0909091,26.1453807 10.8812864,23.9411765 8.18181818,23.9411765 L7.63636364,23.9411765 L7.63636364,21.4756434 L10.7386364,19.0441176 L22.9090909,19.0441176 L22.9090909,23.9411765 L22.3636364,23.9411765 C19.6641682,23.9411765 17.4545455,26.1453807 17.4545455,28.8382353 L17.4545455,32.1029412 C17.4545455,34.7957957 19.6641682,37 22.3636364,37 L25.6363636,37 C28.3358313,37 30.5454545,34.7957963 30.5454545,32.1029412 L30.5454545,28.8382353 C30.5454545,26.1453807 28.3358318,23.9411765 25.6363636,23.9411765 L25.0909091,23.9411765 L25.0909091,19.0441176 L37.2954545,19.0441176 L40.3636364,21.4586397 L40.3636364,23.9411765 L39.8181818,23.9411765 C37.1187136,23.9411765 34.9090909,26.1453807 34.9090909,28.8382353 L34.9090909,32.1029412 C34.9090909,34.7957957 37.1187136,37 39.8181818,37 L43.0909091,37 C45.7903767,37 48,34.7957963 48,32.1029412 L48,28.8382353 C48,26.1453807 45.7903773,23.9411765 43.0909091,23.9411765 L42.5454545,23.9411765 L42.5454545,20.9315257 C42.5508872,20.5949036 42.3998438,20.2747233 42.1363636,20.0643382 L38.3352273,17.1056985 C38.1462268,16.9550124 37.912376,16.8712717 37.6704545,16.8676471 L25.0909091,16.8676471 L25.0909091,13.0588235 L25.6363636,13.0588235 C28.3358313,13.0588235 30.5454545,10.8546198 30.5454545,8.16176471 L30.5454545,4.89705882 C30.5454545,2.20420426 28.3358318,0 25.6363636,0 L22.3636364,0 Z M22.3636364,2.17647059 L25.6363636,2.17647059 C27.1605824,2.17647059 28.3636364,3.37657321 28.3636364,4.89705882 L28.3636364,8.16176471 C28.3636364,9.68225087 27.1605829,10.8823529 25.6363636,10.8823529 L22.3636364,10.8823529 C20.8394165,10.8823529 19.6363636,9.68225141 19.6363636,8.16176471 L19.6363636,4.89705882 C19.6363636,3.37657212 20.8394165,2.17647059 22.3636364,2.17647059 Z M4.90909091,26.1176471 L8.18181818,26.1176471 C9.70603691,26.1176471 10.9090909,27.3177497 10.9090909,28.8382353 L10.9090909,32.1029412 C10.9090909,33.6234273 9.70603745,34.8235294 8.18181818,34.8235294 L4.90909091,34.8235294 C3.38487109,34.8235294 2.18181818,33.6234279 2.18181818,32.1029412 L2.18181818,28.8382353 C2.18181818,27.3177486 3.38487109,26.1176471 4.90909091,26.1176471 Z M22.3636364,26.1176471 L25.6363636,26.1176471 C27.1605824,26.1176471 28.3636364,27.3177497 28.3636364,28.8382353 L28.3636364,32.1029412 C28.3636364,33.6234273 27.1605829,34.8235294 25.6363636,34.8235294 L22.3636364,34.8235294 C20.8394165,34.8235294 19.6363636,33.6234279 19.6363636,32.1029412 L19.6363636,28.8382353 C19.6363636,27.3177486 20.8394165,26.1176471 22.3636364,26.1176471 Z M39.8181818,26.1176471 L43.0909091,26.1176471 C44.6151278,26.1176471 45.8181818,27.3177497 45.8181818,28.8382353 L45.8181818,32.1029412 C45.8181818,33.6234273 44.6151284,34.8235294 43.0909091,34.8235294 L39.8181818,34.8235294 C38.293962,34.8235294 37.0909091,33.6234279 37.0909091,32.1029412 L37.0909091,28.8382353 C37.0909091,27.3177486 38.293962,26.1176471 39.8181818,26.1176471 Z" id="Shape" stroke="#FFFFFF" stroke-width="1.17" fill="#000000" fill-rule="nonzero"></path>
            <rect id="Rectangle-4" fill="#FFB573" x="20" y="2" width="8" height="8" rx="2.34"></rect>
            <path d="M22.34,26 L25.66,26 C26.9523463,26 28,27.0476537 28,28.34 L28,31.66 C28,32.9523463 26.9523463,34 25.66,34 L22.34,34 C21.0476537,34 20,32.9523463 20,31.66 L20,28.34 C20,27.0476537 21.0476537,26 22.34,26 Z" id="Rectangle-4" fill="#FFB573"></path>
            <path d="M39.34,26 L42.66,26 C43.9523463,26 45,27.0476537 45,28.34 L45,31.66 C45,32.9523463 43.9523463,34 42.66,34 L39.34,34 C38.0476537,34 37,32.9523463 37,31.66 L37,28.34 C37,27.0476537 38.0476537,26 39.34,26 Z" id="Rectangle-4" fill="#FFB573"></path>
            <path d="M5.34,26 L8.66,26 C9.95234631,26 11,27.0476537 11,28.34 L11,31.66 C11,32.9523463 9.95234631,34 8.66,34 L5.34,34 C4.04765369,34 3,32.9523463 3,31.66 L3,28.34 C3,27.0476537 4.04765369,26 5.34,26 Z" id="Rectangle-4" fill="#FFB573"></path>
        </g>
        <g id="Group-3" transform="translate(711.000000, 154.000000)">
            <rect id="Rectangle-5" fill="#E3E3E3" x="19" y="32" width="16" height="5"></rect>
            <rect id="Rectangle-5" fill="#E3E3E3" x="19" y="32" width="16" height="5"></rect>
            <path d="M4.73170732,39 L13.2682927,39 C13.695122,39 14,38.6423841 14,38.2847682 L14,30.7152318 C14,30.2980132 13.6341463,30 13.2682927,30 L4.73170732,30 C4.30487805,30 4,30.3576159 4,30.7152318 L4,38.2847682 C4,38.7019868 4.36585366,39 4.73170732,39 Z M5.52439024,31.4304636 L12.5365854,31.4304636 L12.5365854,37.5099338 L5.52439024,37.5099338 L5.52439024,31.4304636 Z" id="Shape" stroke="#FFFFFF" stroke-width="0.585" fill="#000000" fill-rule="nonzero"></path>
            <path d="M37.2198142,30 L17.7801858,30 C17.3250774,30 17,30.3576159 17,30.7152318 L17,38.2847682 C17,38.7019868 17.3900929,39 17.7801858,39 L37.2198142,39 C37.6749226,39 38,38.6423841 38,38.2847682 L38,30.7748344 C38,30.3576159 37.6749226,30 37.2198142,30 Z M36.374613,37.5695364 L18.625387,37.5695364 L18.625387,31.4900662 L36.4396285,31.4900662 L36.4396285,37.5695364 L36.374613,37.5695364 Z" id="Shape" stroke="#FFFFFF" stroke-width="0.585" fill="#000000" fill-rule="nonzero"></path>
            <polygon id="Shape" stroke="#FFFFFF" stroke-width="0.585" fill="#000000" fill-rule="nonzero" points="37 17.48 37 17 28 17 28 17.48 28 18 37 18"></polygon>
            <polygon id="Shape" stroke="#FFFFFF" stroke-width="0.585" fill="#000000" fill-rule="nonzero" points="37 14.48 37 14 28 14 28 14.48 28 15 37 15"></polygon>
            <polygon id="Shape" stroke="#FFFFFF" stroke-width="0.585" fill="#000000" fill-rule="nonzero" points="37 11.48 37 11 28 11 28 11.48 28 12 37 12"></polygon>
            <polygon id="Shape" stroke="#FFFFFF" stroke-width="0.585" fill="#000000" fill-rule="nonzero" points="37 8.48 37 8 28 8 28 8.48 28 9 37 9"></polygon>
            <polygon id="Shape" stroke="#FFFFFF" stroke-width="0.585" fill="#000000" fill-rule="nonzero" points="37 24.48 37 24 28 24 28 24.48 28 25 37 25"></polygon>
            <polygon id="Shape" stroke="#FFFFFF" stroke-width="0.585" fill="#000000" fill-rule="nonzero" points="37 26.48 37 26 28 26 28 26.48 28 27 37 27"></polygon>
            <rect id="Rectangle-5" fill="#7ED321" x="7" y="11" width="16" height="13"></rect>
            <rect id="Rectangle-5" fill="#7ED321" x="19" y="32" width="16" height="5"></rect>
            <rect id="Rectangle-5" fill="#7ED321" x="6" y="32" width="5" height="5"></rect>
            <path d="M40.2950011,0 L0.76028304,0 C0.3167846,0 0,0.376119403 0,0.752238806 L0,4.63880597 L0,41.2477612 C0,41.6865672 0.38014152,42 0.76028304,42 L40.2316442,42 C40.6751427,42 40.9919273,41.6238806 40.9919273,41.2477612 L40.9919273,4.70149254 L40.9919273,0.814925373 C41.0552842,0.376119403 40.7384996,0 40.2950011,0 Z M39.4713612,40.558209 L1.583923,40.558209 L1.583923,5.51641791 L39.4713612,5.51641791 L39.4713612,40.558209 Z M5.13191052,1.56716418 L39.4713612,1.56716418 L39.4713612,3.88656716 L5.13191052,3.88656716 L5.13191052,1.56716418 Z M3.54798752,3.94925373 L1.583923,3.94925373 L1.583923,1.62985075 L3.54798752,1.62985075 L3.54798752,3.94925373 Z" id="Shape" stroke="#FFFFFF" stroke-width="0.585" fill="#000000" fill-rule="nonzero"></path>
            <path d="M4.06626506,25.5868852 C4.06626506,25.6459016 4.13253012,25.704918 4.13253012,25.704918 C4.13253012,25.7639344 4.19879518,25.7639344 4.19879518,25.8229508 C4.19879518,25.8229508 4.19879518,25.8229508 4.19879518,25.8229508 C4.26506024,25.8819672 4.3313253,25.9409836 4.39759036,25.9409836 C4.39759036,25.9409836 4.39759036,25.9409836 4.46385542,25.9409836 C4.59638554,26 4.6626506,26 4.79518072,26 L4.79518072,26 L25.2048193,26 L25.2048193,26 C25.3373494,26 25.4036145,26 25.5361446,25.9409836 C25.5361446,25.9409836 25.5361446,25.9409836 25.6024096,25.9409836 C25.6686747,25.8819672 25.7349398,25.8819672 25.8012048,25.8229508 C25.8012048,25.8229508 25.8012048,25.8229508 25.8012048,25.8229508 C25.8012048,25.8229508 25.8674699,25.7639344 25.8674699,25.704918 C25.9337349,25.6459016 25.9337349,25.5868852 25.9337349,25.5868852 C25.9337349,25.5278689 25.9337349,25.4688525 26,25.4098361 C26,25.3508197 26,25.3508197 26,25.2918033 L26,8.76721311 C26,8.70819672 26,8.70819672 26,8.64918033 C26,8.59016393 26,8.53114754 25.9337349,8.47213115 C25.9337349,8.41311475 25.8674699,8.35409836 25.8674699,8.35409836 C25.8674699,8.29508197 25.8012048,8.29508197 25.8012048,8.23606557 C25.8012048,8.23606557 25.8012048,8.23606557 25.8012048,8.23606557 C25.7349398,8.17704918 25.6686747,8.17704918 25.6686747,8.11803279 C25.6024096,8.11803279 25.6024096,8.05901639 25.5361446,8.05901639 C25.4698795,8.05901639 25.4698795,8.05901639 25.4036145,8.05901639 C25.3373494,8.05901639 25.2710843,8 25.2048193,8 C25.2048193,8 25.2048193,8 25.2048193,8 L4.79518072,8 C4.79518072,8 4.79518072,8 4.79518072,8 C4.72891566,8 4.6626506,8 4.59638554,8.05901639 C4.53012048,8.05901639 4.53012048,8.05901639 4.46385542,8.11803279 C4.39759036,8.11803279 4.39759036,8.17704918 4.3313253,8.17704918 C4.26506024,8.23606557 4.19879518,8.23606557 4.19879518,8.29508197 C4.19879518,8.29508197 4.19879518,8.29508197 4.19879518,8.29508197 C4.19879518,8.29508197 4.13253012,8.35409836 4.13253012,8.41311475 C4.06626506,8.47213115 4.06626506,8.53114754 4.06626506,8.53114754 C4.06626506,8.59016393 4.06626506,8.64918033 4,8.70819672 C4,8.76721311 4,8.76721311 4,8.82622951 L4,25.3508197 C4,25.4098361 4,25.4098361 4,25.4688525 C4,25.4688525 4.06626506,25.5278689 4.06626506,25.5868852 Z M23.0843373,9.53442623 L15,16.0262295 L6.98192771,9.53442623 L23.0843373,9.53442623 Z M6.98192771,24.5836066 L15.0662651,18.0327869 L23.0843373,24.5836066 L6.98192771,24.5836066 Z M5.65662651,10.4786885 L13.8072289,17.0295082 L5.65662651,23.6393443 L5.65662651,10.4786885 Z M24.4096386,23.6393443 L16.2590361,17.0295082 L24.4096386,10.4786885 L24.4096386,23.6393443 Z" id="Shape" stroke="#FFFFFF" stroke-width="0.585" fill="#000000" fill-rule="nonzero"></path>
        </g>
        <text id="Interactions" font-family="SFProText-Regular, SF Pro Text" font-size="12" font-weight="normal" line-spacing="18" fill="#555555">
            <tspan x="985" y="98">Interactions</tspan>
        </text>
        <text id="Celebrate" font-family="SFProText-Regular, SF Pro Text" font-size="12" font-weight="normal" line-spacing="18" fill="#555555">
            <tspan x="985" y="178">Celebrate</tspan>
        </text>
        <g id="Group-18" transform="translate(929.000000, 66.000000)" fill-rule="nonzero">
            <path d="M32.8852459,26.8133775 C32.0515949,26.8133775 31.270047,27.1379937 30.6854746,27.7273951 C30.6270174,27.7872263 30.569831,27.8470575 30.5151862,27.9094348 C30.463083,27.8496035 30.4084382,27.7897723 30.3512517,27.7299411 C29.7628669,27.1379937 28.9787775,26.8133775 28.1476681,26.8133775 C27.3165586,26.8133775 26.53374,27.1379937 25.9491676,27.7273951 C25.8919812,27.7872263 25.8347948,27.8470575 25.7814208,27.9094348 C25.7293176,27.8470575 25.6746728,27.7872263 25.6162155,27.7299411 C25.0265599,27.1379937 24.2437413,26.8133775 23.4151735,26.8133775 C22.8344135,26.8133775 22.277799,26.9712301 21.7948913,27.2665673 L21.7948913,23.7390703 C23.4698183,22.6710191 24.5004448,20.8391649 24.5004448,18.832909 C24.5004448,15.6185713 21.8863896,13 18.6763248,13 C15.4688016,13 12.8560173,15.6172983 12.8560173,18.832909 C12.8560173,20.8391649 13.8879146,22.6722921 15.5602999,23.7390703 L15.5602999,37.0559758 C13.6146906,35.8988143 11.4123777,35.2903179 9.1147541,35.2903179 C7.39534884,35.2903179 6,36.6918964 6,38.4117262 C6,40.131556 7.39789046,41.5344075 9.1147541,41.5344075 C12.6692083,41.5344075 15.5602999,44.4292209 15.5602999,47.991089 L17.0573135,47.991089 C17.0573135,43.6030407 13.4939637,40.0322616 9.1147541,40.0322616 C8.22137502,40.0322616 7.4970136,39.3066487 7.4970136,38.4117262 C7.4970136,37.5168037 8.22137502,36.7886448 9.1147541,36.7886448 C11.5712289,36.7886448 13.9031643,37.5753619 15.8576693,39.0622318 C16.0838734,39.2353604 16.3875969,39.2620935 16.6430296,39.1360661 C16.8959207,39.0100386 17.0573135,38.7490725 17.0573135,38.4651924 L17.0573135,18.836728 C17.0573135,18.4013603 17.2263312,17.9939987 17.5338671,17.6910235 C17.8388614,17.3855023 18.2467912,17.2161926 18.6763248,17.2161926 C19.1109417,17.2161926 19.5163299,17.3855023 19.8213242,17.6922965 C20.1288601,17.9978177 20.2953361,18.4051793 20.2953361,18.839274 L20.2953361,29.9411508 C20.2953361,30.3536044 20.6333715,30.6909508 21.0451137,30.6909508 C21.456856,30.6909508 21.7948913,30.3536044 21.7948913,29.9411508 C21.7948913,29.5070561 21.963909,29.0996945 22.2663617,28.7954463 C22.5764392,28.4873791 22.9830982,28.3180694 23.4151735,28.3180694 C23.8472487,28.3180694 24.2539077,28.4873791 24.5576312,28.7929003 C24.8613547,29.0971485 25.0291015,29.5083291 25.0291015,29.9436968 C25.0291015,29.9436968 25.0291015,29.9436968 25.0291015,29.9449698 C25.0303723,30.3574234 25.3658661,30.6934968 25.7788791,30.6934968 C26.1906214,30.6934968 26.5273859,30.3574234 26.5273859,29.9436968 C26.5273859,29.5096021 26.6964036,29.1009675 27.0064811,28.7929003 C27.3127462,28.4873791 27.7194053,28.3180694 28.1476681,28.3180694 C28.5797433,28.3180694 28.9864023,28.4873791 29.288855,28.7929003 C29.5951201,29.0996945 29.7628669,29.5096021 29.7628669,29.9436968 C29.7628669,30.3561504 30.1009023,30.6934968 30.5126446,30.6934968 C30.9243868,30.6934968 31.2598805,30.3574234 31.2598805,29.9436968 C31.2598805,29.9424238 31.2598805,29.9424238 31.2598805,29.9411508 C31.2598805,29.5096021 31.4327106,29.1022405 31.744059,28.7929003 C32.0490532,28.4848331 32.4557123,28.3180694 32.8852459,28.3180694 C33.3147795,28.3180694 33.7201677,28.4873791 34.0264328,28.7929003 C34.3314271,29.1009675 34.5029864,29.5096021 34.5029864,29.9411508 L34.5029864,48 L36,48 L36,29.9398778 C36,29.1098785 35.6759436,28.3231614 35.086288,27.7324871 C34.4953615,27.1379937 33.7138137,26.8133775 32.8852459,26.8133775 Z M18.6725124,15.7153197 C17.841403,15.7153197 17.0585843,16.038663 16.4740119,16.6267913 C15.8830855,17.2136466 15.5577583,17.9990907 15.5577583,18.835455 L15.5577583,21.8231978 C14.7978142,21.0288427 14.3517601,19.9709755 14.3517601,18.836728 C14.3517601,16.4472976 16.2897446,14.5046919 18.6737832,14.5046919 C21.0590926,14.5046919 23.0008896,16.4472976 23.0008896,18.836728 C23.0008896,19.9722485 22.551023,21.0313887 21.7923497,21.8244708 L21.7923497,18.836728 C21.7923497,18.0016367 21.4670225,17.2174656 20.8786377,16.6306103 C20.2877113,16.039936 19.5061634,15.7153197 18.6725124,15.7153197 Z" id="Shape" fill="#000000"></path>
            <path d="M18.0561773,45.9927632 C18.0561773,42.4291622 14.6807258,39.529278 10.5324357,39.529278 C9.68616523,39.529278 9,38.9399967 9,38.2132164 C9,37.4864362 9.68616523,36.8950873 10.5324357,36.8950873 C12.8593785,36.8950873 15.068349,37.5339922 16.9197913,38.7415019 C17.1340675,38.8821024 17.4217754,38.9038128 17.6637389,38.8014639 C17.9032948,38.699115 18.0561773,38.4871805 18.0561773,38.2566372 L18.0561773,22.3160615 C18.0561773,21.9624928 18.2162825,21.6316682 18.5076018,21.3856174 C18.7965134,21.137499 19.1829328,21 19.5898168,21 C20.0015159,21 20.3855277,21.137499 20.6744393,21.3866512 C20.9657586,21.6347697 21.1234562,21.9655942 21.1234562,22.3181292 L21.1234562,31.3341328 C21.1234562,31.6690927 21.4436667,31.9430568 21.8336974,31.9430568 C22.2237282,31.9430568 22.5439387,31.6690927 22.5439387,31.3341328 C22.5439387,30.9815979 22.7040439,30.6507733 22.990548,30.4036887 C23.2842748,30.1535026 23.6694904,30.0160036 24.0787819,30.0160036 C24.4880735,30.0160036 24.873289,30.1535026 25.1609969,30.401621 C25.4487048,30.6487056 25.6076062,30.9826317 25.6076062,31.3362005 C25.60881,31.6721942 25.9266129,31.9451245 26.3178474,31.9451245 C26.7078782,31.9451245 27.0268848,31.6721942 27.0268848,31.3362005 C27.0268848,30.9836655 27.1869901,30.6518071 27.4807169,30.401621 C27.7708324,30.1535026 28.156048,30.0160036 28.5617281,30.0160036 C28.9710197,30.0160036 29.3562352,30.1535026 29.6427393,30.401621 C29.9328548,30.6507733 30.0917562,30.9836655 30.0917562,31.3362005 C30.0917562,31.6711604 30.4119667,31.9451245 30.8019974,31.9451245 C31.1920282,31.9451245 31.509831,31.6721942 31.509831,31.3362005 C31.509831,30.9836655 31.6735476,30.652841 31.9684783,30.401621 C32.25739,30.151435 32.6426056,30.0160036 33.0494895,30.0160036 C33.4563734,30.0160036 33.8403852,30.1535026 34.1305007,30.401621 C34.4194124,30.6518071 34.5819252,30.9836655 34.5819252,31.3341328 L34.5819252,46 L36,46 L18.0561773,45.9927632 Z" id="Shape" fill="#DADAFF"></path>
            <path d="M23,12.9254117 L24.0053102,14 L26.2633357,11.5847594 L26.2633357,7.11591863 C27.2650253,6.78785922 28,5.79851469 28,4.62060058 C28,3.17533097 26.901762,2 25.5512913,2 C24.2020275,2 23.1037895,3.17533097 23.1037895,4.62060058 C23.1037895,5.79851469 23.8375573,6.78785922 24.8416606,7.11591863 L24.8416606,10.9544721 L23,12.9254117 Z M24.5266715,4.62189215 C24.5266715,4.01614466 24.9864832,3.52276397 25.5549119,3.52276397 C26.1209269,3.52276397 26.5819455,4.01614466 26.5819455,4.62189215 C26.5819455,5.22763965 26.1209269,5.72231191 25.5549119,5.72231191 C24.9864832,5.71972877 24.5266715,5.22634808 24.5266715,4.62189215 Z" id="Shape" fill="#000000"></path>
            <polygon id="Rectangle-path" fill="#000000" points="18 6 19 6 19 7 18 7"></polygon>
            <polygon id="Rectangle-path" fill="#000000" points="18 10 19 10 19 11 18 11"></polygon>
            <polygon id="Rectangle-path" fill="#000000" points="26 18 27 18 27 19 26 19"></polygon>
            <polygon id="Rectangle-path" fill="#000000" points="29 18 30 18 30 19 29 19"></polygon>
            <polygon id="Rectangle-path" fill="#000000" points="6 18 7 18 7 19 6 19"></polygon>
            <polygon id="Rectangle-path" fill="#000000" points="11 18 12 18 12 19 11 19"></polygon>
            <path d="M10.7390789,7.11591863 L10.7390789,11.5847594 L12.9946901,14 L14,12.9254117 L12.1607536,10.9557636 L12.1607536,7.11333549 C13.1624429,6.78527607 13.8974174,5.79851469 13.8974174,4.62060058 C13.8974174,3.17533097 12.7991797,2 11.4487094,2 C10.0982391,2 9,3.17533097 9,4.62060058 C8.99879462,5.79980626 9.73738962,6.78785922 10.7390789,7.11591863 Z M11.4487094,3.52147239 C12.0147242,3.52147239 12.4769495,4.01485308 12.4769495,4.62189215 C12.4769495,5.22763965 12.0147242,5.72102034 11.4487094,5.72102034 C10.8826946,5.72102034 10.4216762,5.22634808 10.4216762,4.62189215 C10.422883,4.01485308 10.8826946,3.52147239 11.4487094,3.52147239 Z" id="Shape" fill="#000000"></path>
            <path d="M19.5,5 C20.878758,5 22,3.8772492 22,2.50061622 C22,1.12151836 20.878758,0 19.5,0 C18.121242,0 17,1.12151836 17,2.50061622 C17.0024643,3.8772492 18.1224741,5 19.5,5 Z M19.5,1.45057925 C20.0778709,1.45057925 20.5497782,1.92137047 20.5497782,2.50061622 C20.5497782,3.07862953 20.0778709,3.54818832 19.5,3.54818832 C18.9221291,3.54818832 18.4502218,3.07862953 18.4502218,2.50061622 C18.4526861,1.92137047 18.9221291,1.45057925 19.5,1.45057925 Z" id="Shape" fill="#000000"></path>
            <path d="M35.5012327,16 C34.1217949,16 33,17.1215181 33,18.4993833 C33,19.8784808 34.1217949,21 35.5012327,21 C36.8782051,21.0012314 38,19.8797133 38,18.5006157 C38,17.1215181 36.8782051,16 35.5012327,16 Z M35.5012327,19.5481876 C34.9218442,19.5481876 34.4509369,19.0773965 34.4509369,18.4993833 C34.4509369,17.9213701 34.9218442,17.4493465 35.5012327,17.4493465 C36.0793886,17.4493465 36.5502959,17.9213701 36.5502959,18.4993833 C36.5478304,19.0786289 36.0756903,19.5481876 35.5012327,19.5481876 Z" id="Shape" fill="#000000"></path>
            <path d="M2.5,16 C1.1224739,16 0,17.121242 0,18.5 C0,19.878758 1.1224739,21 2.5,21 C3.87875722,21 5,19.878758 5,18.5 C5.00123112,17.121242 3.87629296,16 2.5,16 Z M2.49999949,19.5473139 C1.92212874,19.5473139 1.45022149,19.0766387 1.45022149,18.4987679 C1.45022149,17.920897 1.92212874,17.4489897 2.49999949,17.4489897 C3.07787025,17.4489897 3.54854536,17.9221291 3.54854536,18.5 C3.54854536,19.0778709 3.07787025,19.5473139 2.49999949,19.5473139 Z" id="Shape" fill="#000000"></path>
        </g>
        <g id="Group-11" transform="translate(956.500000, 172.000000) scale(-1, 1) translate(-956.500000, -172.000000) translate(938.000000, 154.000000)">
            <g id="Group-10">
                <polygon id="Path-2" fill="#FFBFC7" points="2.85616508 32.3831688 12.0655276 11.1317143 24.2125651 23.2525078"></polygon>
                <g id="Group-7" transform="translate(18.416222, 18.000000) scale(-1, 1) translate(-18.416222, -18.000000) translate(0.416222, 0.000000)" fill="#000000" fill-rule="nonzero">
                    <path d="M2.0694186,14.8265962 C2.3022282,14.8265962 2.45743459,14.9810399 2.45743459,15.2127055 L2.45743459,15.6760366 L2.92305378,15.6760366 C3.15586337,15.6760366 3.31106977,15.8304803 3.31106977,16.0621459 C3.31106977,16.2938114 3.15586337,16.4482552 2.92305378,16.4482552 L2.45743459,16.4482552 L2.45743459,16.9115863 C2.45743459,17.1432518 2.3022282,17.2976956 2.0694186,17.2976956 C1.83660901,17.2976956 1.68140262,17.1432518 1.68140262,16.9115863 L1.68140262,16.4482552 L1.21578343,16.4482552 C0.982973837,16.4482552 0.827767442,16.2938114 0.827767442,16.0621459 C0.827767442,15.8304803 0.982973837,15.6760366 1.21578343,15.6760366 L1.68140262,15.6760366 L1.68140262,15.2127055 C1.68140262,15.0196508 1.87541061,14.8265962 2.0694186,14.8265962 Z" id="Shape"></path>
                    <path d="M16.9889413,3.29479915 C16.7524363,3.29479915 16.5947663,3.14035544 16.5947663,2.90868988 L16.5947663,2.44535875 L16.1217564,2.44535875 C15.8852514,2.44535875 15.7275814,2.29091504 15.7275814,2.05924947 C15.7275814,1.82758391 15.8852514,1.6731402 16.1217564,1.6731402 L16.5947663,1.6731402 L16.5947663,1.20980906 C16.5947663,0.978143499 16.7524363,0.823699789 16.9889413,0.823699789 C17.2254463,0.823699789 17.3831163,0.978143499 17.3831163,1.20980906 L17.3831163,1.6731402 L17.8167087,1.6731402 C18.0532137,1.6731402 18.2108837,1.82758391 18.2108837,2.05924947 C18.2108837,2.29091504 18.0532137,2.44535875 17.8167087,2.44535875 L17.3436988,2.44535875 L17.3436988,2.90868988 C17.3831163,3.10174452 17.1860288,3.29479915 16.9889413,3.29479915 Z" id="Shape"></path>
                    <path d="M4.55272093,26.3583932 C4.31991134,26.3583932 4.16470494,26.2039495 4.16470494,25.972284 L4.16470494,25.5089528 L3.69908576,25.5089528 C3.46627616,25.5089528 3.31106977,25.3545091 3.31106977,25.1228436 C3.31106977,24.891178 3.46627616,24.7367343 3.69908576,24.7367343 L4.16470494,24.7367343 L4.16470494,24.2734031 C4.16470494,24.0417376 4.31991134,23.8872939 4.55272093,23.8872939 C4.78553052,23.8872939 4.94073692,24.0417376 4.94073692,24.2734031 L4.94073692,24.7367343 L5.4063561,24.7367343 C5.6391657,24.7367343 5.79437209,24.891178 5.79437209,25.1228436 C5.79437209,25.3545091 5.6391657,25.5089528 5.4063561,25.5089528 L4.94073692,25.5089528 L4.94073692,25.972284 C4.94073692,26.1653386 4.78553052,26.3583932 4.55272093,26.3583932 Z" id="Shape"></path>
                    <path d="M2.48330233,6.58959831 C2.24679734,6.58959831 2.08912735,6.43270311 2.08912735,6.19736031 L2.08912735,5.33443673 L1.22194241,5.33443673 C0.985437431,5.33443673 0.827767442,5.17754153 0.827767442,4.94219873 C0.827767442,4.70685593 0.985437431,4.54996074 1.22194241,4.54996074 L2.08912735,4.54996074 L2.08912735,3.68703715 C2.08912735,3.45169435 2.24679734,3.29479915 2.48330233,3.29479915 C2.71980731,3.29479915 2.8774773,3.45169435 2.8774773,3.68703715 L2.8774773,4.54996074 L3.74466224,4.54996074 C3.98116722,4.54996074 4.13883721,4.70685593 4.13883721,4.94219873 C4.13883721,5.17754153 3.98116722,5.33443673 3.74466224,5.33443673 L2.8774773,5.33443673 L2.8774773,6.19736031 C2.8774773,6.39347931 2.68038981,6.58959831 2.48330233,6.58959831 Z" id="Shape"></path>
                    <path d="M8.27767442,9.88439746 C8.04116944,9.88439746 7.88349945,9.72750227 7.88349945,9.49215947 L7.88349945,8.62923588 L7.01631451,8.62923588 C6.77980952,8.62923588 6.62213953,8.47234068 6.62213953,8.23699789 C6.62213953,8.00165509 6.77980952,7.84475989 7.01631451,7.84475989 L7.88349945,7.84475989 L7.88349945,6.9818363 C7.88349945,6.74649351 8.04116944,6.58959831 8.27767442,6.58959831 C8.5141794,6.58959831 8.67184939,6.74649351 8.67184939,6.9818363 L8.67184939,7.84475989 L9.53903433,7.84475989 C9.77553931,7.84475989 9.9332093,8.00165509 9.9332093,8.23699789 C9.9332093,8.47234068 9.77553931,8.62923588 9.53903433,8.62923588 L8.67184939,8.62923588 L8.67184939,9.49215947 C8.67184939,9.72750227 8.5141794,9.88439746 8.27767442,9.88439746 Z" id="Shape"></path>
                    <path d="M27.3163256,6.58959831 C27.0478605,6.58959831 26.8688837,6.41150106 26.8688837,6.14435518 L26.8688837,5.38744186 L26.1082326,5.38744186 C25.8397674,5.38744186 25.6607907,5.20934461 25.6607907,4.94219873 C25.6607907,4.67505285 25.8397674,4.4969556 26.1082326,4.4969556 L26.8688837,4.4969556 L26.8688837,3.74004228 C26.8688837,3.47289641 27.0478605,3.29479915 27.3163256,3.29479915 C27.5847907,3.29479915 27.7637674,3.47289641 27.7637674,3.74004228 L27.7637674,4.4969556 L28.5244186,4.4969556 C28.7928837,4.4969556 28.9718605,4.67505285 28.9718605,4.94219873 C28.9718605,5.20934461 28.7928837,5.38744186 28.5244186,5.38744186 L27.7637674,5.38744186 L27.7637674,6.14435518 C27.7637674,6.36697674 27.5847907,6.58959831 27.3163256,6.58959831 Z" id="Shape"></path>
                    <ellipse id="Oval" cx="7.03602326" cy="2.88294926" rx="1" ry="1"></ellipse>
                    <ellipse id="Oval" cx="7.03602326" cy="17.7095455" rx="1" ry="1"></ellipse>
                    <ellipse id="Oval" cx="15.3136977" cy="7.0014482" rx="1" ry="1"></ellipse>
                    <path d="M35.459103,35.2864979 C35.5922023,35.1539048 35.6365688,34.9771141 35.5478359,34.8003233 L24.7667927,9.3424579 C24.7224263,9.20986485 24.589327,9.12146949 24.4562277,9.07727181 C24.3231284,9.03307412 24.1456626,9.07727181 24.0569298,9.20986485 L9.23854116,23.9276933 C9.14980829,24.0160887 9.10544186,24.1928794 9.10544186,24.3254725 C9.14980829,24.4580655 9.23854116,24.5906586 9.37164046,24.6348562 L34.9267059,35.3748932 C34.9710723,35.4190909 35.0598051,35.4190909 35.1041716,35.4190909 C35.2372709,35.4190909 35.3703702,35.3748932 35.459103,35.2864979 Z M32.7083842,30.3363574 L31.6879562,33.032416 L28.6266724,31.7506832 L30.7562612,25.8281937 L32.7083842,30.3363574 Z M30.2682304,24.6348562 C30.2682304,24.6348562 30.2682304,24.6348562 30.2682304,24.6348562 L27.8280766,31.4412994 L24.7224263,30.1153689 L28.3604738,20.0382972 L30.2682304,24.6348562 Z M27.8280766,18.8449598 L23.879464,29.7617875 L20.7738137,28.4800547 L25.8315871,14.204203 L27.8280766,18.8449598 Z M20.4632487,13.9832146 L16.0709718,26.4911589 L12.8765887,25.1652284 L14.8730781,19.5521227 L20.4632487,13.9832146 Z M10.347702,24.0602864 L13.4089859,21.0106462 L12.0779929,24.7674493 L10.347702,24.0602864 Z M25.3435563,13.0108656 L19.9752179,28.1264732 L16.8695676,26.8447404 L21.927341,12.5246911 L24.1900291,10.2706092 L25.3435563,13.0108656 Z M34.3055758,34.1373581 L32.5309185,33.3859975 L33.2407814,31.5296948 L34.3055758,34.1373581 Z" id="Shape"></path>
                    <path d="M15.341312,14.0028964 C15.2223907,14.0028964 15.1034694,13.9566822 15.0241886,13.8180397 C14.9052674,13.5869688 11.6943935,8.45719486 12.5664827,0.415927616 C12.6061231,0.184856718 12.8043252,0 13.0025273,0 C13.2007294,0.0462141796 13.3592911,0.277285077 13.3592911,0.508355975 C12.5268423,8.1336956 15.6187949,13.1710412 15.6584353,13.2172554 C15.7773566,13.4021121 15.7377161,13.7256113 15.5791545,13.8642539 C15.4998736,14.0028964 15.4205928,14.0028964 15.341312,14.0028964 Z" id="Shape"></path>
                    <path d="M0.00660019013,13.0253872 C-0.0361856183,12.7937504 0.134957616,12.5157863 0.348886658,12.5157863 C7.75083152,11.3112753 12.2433414,17.2875031 12.328913,17.3801578 C12.4572705,17.5654672 12.4572705,17.8897586 12.2433414,18.0287407 C12.1577698,18.075068 12.0721982,18.1213953 11.9866266,18.1213953 C11.8582691,18.1213953 11.7299117,18.075068 11.6443401,17.936086 C11.6015543,17.8897586 7.40854506,12.2841496 0.477244083,13.4423333 C0.263315041,13.4423333 0.0493859986,13.2570239 0.00660019013,13.0253872 Z" id="Shape"></path>
                    <path d="M20.6813614,10.7080973 C20.6309818,10.7080973 20.5806022,10.7080973 20.5806022,10.7080973 C20.3287043,10.7080973 20.1271859,10.5665246 20.0768063,10.3305702 C20.0264267,10.1418067 18.9180759,5.46990972 22.3438877,2.59126612 C22.545406,2.4025026 22.8476836,2.44969348 23.0492019,2.63845699 C23.2507202,2.82722051 23.2003407,3.11036578 22.9988223,3.2991293 C20.0264267,5.75305499 21.0340185,10.0946158 21.0340185,10.1418067 C21.0843981,10.424952 20.9332593,10.6609064 20.6813614,10.7080973 Z" id="Shape"></path>
                    <path d="M9.07858638,20.827925 C8.99284941,21.0709325 8.77850699,21.216737 8.56416458,21.1681355 C8.52129609,21.1681355 3.72002596,19.5156844 1.61947027,22.8691881 C1.53373331,23.0149926 1.40512786,23.0635941 1.27652241,23.0635941 C1.19078544,23.0635941 1.10504847,23.0149926 1.01931151,22.9663911 C0.80496909,22.8205866 0.762100607,22.5289776 0.93357454,22.28597 C3.37707809,18.3978499 8.60703306,20.147504 8.82137548,20.244707 C9.03571789,20.2933085 9.16432334,20.5849175 9.07858638,20.827925 Z" id="Shape"></path>
                </g>
            </g>
        </g>
        <text id="DESIGN" font-family="SFProText-Medium, SF Pro Text" font-size="16" font-weight="400" fill="#555555">
            <tspan x="730" y="26">DESIGN</tspan>
        </text>
        <text id="PROTOTYPE" font-family="SFProText-Medium, SF Pro Text" font-size="16" font-weight="400" fill="#555555">
            <tspan x="946" y="26">PROTOTYPE</tspan>
        </text>
        <circle id="Oval" stroke="#555555" fill="#777777" fill-rule="nonzero" cx="90.5" cy="43.5" r="3.5"></circle>
        <circle id="Oval" stroke="#555555" fill="#777777" fill-rule="nonzero" cx="733.5" cy="43.5" r="3.5"></circle>
        <circle id="Oval" stroke="#555555" fill="#777777" fill-rule="nonzero" cx="949.5" cy="43.5" r="3.5"></circle>
        <line x1="90.5" y1="43.5" x2="1061.5" y2="43.5" id="Line-2" stroke="#555555" fill="#777777" fill-rule="nonzero" opacity="0.203218006" stroke-linecap="square"></line>
        <text id="USER-CENTERED" transform="translate(15.000000, 118.000000) rotate(-90.000000) translate(-15.000000, -118.000000) " font-family="ProductSans-Regular, Product Sans" font-size="18" font-weight="normal" line-spacing="31" letter-spacing="5" fill="#777777">
            <tspan x="-88.5" y="119.5">USER  CENTERED</tspan>
        </text>
    </g>
</svg>