<?xml version="1.0" encoding="UTF-8"?>
<svg width="1009px" height="824px" viewBox="0 0 1009 824" version="1.1" xmlns="http://www.w3.org/2000/svg" xmlns:xlink="http://www.w3.org/1999/xlink">
    <!-- Generator: Sketch 64 (93537) - https://sketch.com -->
    <title>a4</title>
    <desc>Created with Sketch.</desc>
    <g id="a4" stroke="none" stroke-width="1" fill="none" fill-rule="evenodd">
        <text id="Used-screening-quest" fill="#3E3E3E" opacity="0.861676897" font-family="SFCompactText-Light, SF Compact Text" font-size="16" font-weight="300" line-spacing="23">
            <tspan x="9" y="149">Used screening questions to </tspan>
            <tspan x="9" y="172">recruit participants for the study</tspan>
        </text>
        <g id="Group-2" transform="translate(117.000000, 15.000000)">
            <path d="M1.46489577,-7.81597009e-14 C0.932109361,-7.81597009e-14 0.441231392,0.289793628 0.183188002,0.757357659 C-0.0748553875,1.22492169 -0.0593303514,1.7961833 0.223724674,2.24895127 L14.643045,25.3876499 L14.643045,45.5312722 C14.6430285,46.0729424 14.9402472,46.5706497 15.4163626,46.8262306 C15.8924779,47.0818116 16.4701893,47.0537708 16.9194794,46.7532727 L25.7049122,40.8782699 C26.1122561,40.6058942 26.3569392,40.1473312 26.3569553,39.6562693 L26.3569553,25.3876499 L40.7762753,2.24895127 C41.0593303,1.79618334 41.0748554,1.2249218 40.8168121,0.757357788 C40.5587688,0.289793777 40.0678909,-7.81597009e-14 39.5351045,-7.81597009e-14 L1.46489577,-7.81597009e-14 Z M4.10738937,2.9375016 L36.8926103,2.9375016 L23.6515457,24.1885619 C23.5056027,24.4224468 23.4282942,24.6928402 23.4284777,24.9687622 L23.4284777,38.8701939 L17.5715226,42.7888208 L17.5715226,24.9687622 C17.5717078,24.6928408 17.4944014,24.4224474 17.3484604,24.1885619 L4.10738937,2.9375016 L4.10738937,2.9375016 Z" id="Shape" stroke="#FFFFFF" fill="#4D4D4D" fill-rule="nonzero"></path>
            <polygon id="Path-3" fill="#FFDA65" points="11 9 31 9 21 23"></polygon>
        </g>
        <text id="1.-Screening" font-family="SFCompactText-Medium, SF Compact Text" font-size="18" font-weight="400" fill="#020202">
            <tspan x="84" y="96">1.  Screening</tspan>
        </text>
        <rect id="Rectangle-7" fill="#F3F3F3" x="89" y="480" width="296" height="253" rx="3"></rect>
        <text id="19-educated" opacity="0.769999981" font-family="SFProText-Medium, SF Pro Text" font-size="14" font-weight="400" line-spacing="21" fill="#555555">
            <tspan x="180" y="528">19 educated</tspan>
        </text>
        <g id="Group-5" transform="translate(125.000000, 522.000000)" fill-rule="nonzero">
            <g id="Group-6" transform="translate(3.000000, 2.000000)" fill="#C6C6C6">
                <path d="M18,3.67461065 C19.2662286,3.67461065 20.5324572,3.8570672 21.4611249,4.2224802 L33.5593093,9.04083297 C34.0238932,9.23778608 34.3469515,9.44773609 34.5444872,9.6446892 C34.7415228,9.82714576 34.8115354,9.98210886 34.8115354,10.1085787 C34.8115354,10.2350486 34.7410227,10.4035085 34.5444872,10.5999618 C34.3469515,10.7824183 34.0238932,10.9933681 33.5593093,11.1758246 L28.3818745,13.2268363 C28.3818745,13.240833 28.3683721,13.240833 28.3538694,13.240833 L21.4611249,15.9931777 C21.2215817,16.0916542 20.9690361,16.1756342 20.7009877,16.2461174 C19.8988428,16.4570672 18.9421701,16.5550439 18,16.5550439 C17.6769417,16.5550439 17.3528832,16.5415471 17.0433273,16.5130539 C16.7342715,16.4845607 16.4387181,16.4570672 16.1431647,16.4150772 C15.8336088,16.3725873 15.552058,16.3166006 15.2850098,16.2461174 C15.1439843,16.2041274 15.0174615,16.1756342 14.8909386,16.1336442 L14.8909386,16.1336442 C14.7644158,16.0916542 14.6513954,16.0356675 14.5393752,15.9931777 L14.5253726,15.9931777 L7.63212802,13.2403331 C7.63212802,13.2403331 7.61812549,13.2403331 7.60362288,13.2263364 L2.42668815,11.1753248 C1.96210427,10.9928682 1.63854585,10.7819184 1.44151027,10.5994619 C1.2444747,10.4025088 1.18846458,10.2345488 1.18846458,10.1080789 C1.18846458,10.1080789 1.18846458,10.0940822 1.18846458,10.0795857 C1.18846458,9.96711243 1.2444747,9.81314909 1.44151027,9.64418932 C1.63854585,9.44723621 1.96210427,9.2372862 2.42668815,9.04033309 L14.5248725,4.22198032 C15.4535402,3.8570672 16.7342715,3.67461065 18,3.67461065 L18,3.67461065 Z" id="Path" transform="translate(18.000000, 10.114827) rotate(-11.000000) translate(-18.000000, -10.114827) "></path>
                <path d="M8.93097176,14.4335065 L15.2901199,16.9624043 C16.359313,17.383804 17.6960543,17.5942539 19.0462981,17.5942539 C20.3830395,17.5942539 21.7332833,17.383804 22.7884738,16.9624043 L29.1611244,14.4335065 L29.1611244,19.7292456 C29.1611244,20.1366486 28.9360838,20.5580482 28.4579975,20.9934446 C27.9794111,21.4148442 27.247779,21.8367438 26.3336139,22.1731637 C24.4902811,22.8754965 21.9023138,23.3253894 19.0462981,23.3253894 C16.1902825,23.3253894 13.5878126,22.8759964 11.7449798,22.1731637 C10.8303147,21.8362439 10.0986826,21.4143444 9.6345988,20.9934446 C9.15601239,20.5580482 8.93097176,20.1366486 8.93097176,19.7292456 L8.93097176,14.4335065 L8.93097176,14.4335065 Z" id="Path" transform="translate(19.046048, 18.879448) rotate(-11.000000) translate(-19.046048, -18.879448) "></path>
            </g>
            <path d="M20.4008224,4 C19.0505786,4 17.7138372,4.19695311 16.6446442,4.61785289 L4.54595969,9.43620567 C4.01186325,9.64665556 3.58978704,9.89959533 3.29423368,10.1945251 C3.01268285,10.4614616 2.8296498,10.7848846 2.80164474,11.135801 C2.80164474,11.1642942 2.80164474,11.1922876 2.7881423,11.2202809 C2.7881423,11.2342776 2.7881423,11.2342776 2.7881423,11.2342776 L2.7881423,11.2482742 L2.7881423,16.8664366 C2.33806104,17.0213997 2,17.4707927 2,17.990169 C2,18.6505118 2.53459652,19.1843847 3.19621598,19.1843847 C3.84333282,19.1843847 4.39243197,18.6510117 4.39243197,17.990169 C4.39243197,17.4707927 4.05437093,17.0213997 3.59028714,16.8664366 L3.59028714,12.5404666 C3.84333282,12.7229231 4.16689124,12.8778862 4.54645978,13.0318496 L9.49785378,14.9983813 L9.49785378,20.6170436 C9.49785378,21.3053797 9.86341978,21.9377291 10.4545265,22.4576053 C11.0311306,22.9909783 11.847278,23.4408712 12.8319558,23.8057843 C14.7873088,24.5501071 17.4607915,25 20.4008224,25 C23.3413533,25 25.9998333,24.550607 27.969689,23.8057843 C28.9548669,23.4408712 29.7705141,22.9909783 30.3471182,22.4576053 C30.938225,21.9377291 31.303791,21.3053797 31.303791,20.6170436 L31.303791,14.9983813 L36.2416825,13.0318496 C36.7762791,12.8208998 37.2123578,12.5824566 37.5079112,12.2875268 C37.817467,11.992597 38,11.6276839 38,11.2342776 C38,10.8548679 37.817467,10.4899548 37.5079112,10.1945251 C37.2123578,9.89959533 36.7762791,9.64665556 36.2416825,9.43620567 L24.1434981,4.61785289 C23.073805,4.19695311 21.7515663,4 20.4008224,4 L20.4008224,4 Z M20.4008224,4.80080933 C21.667051,4.80080933 22.9332796,4.98326589 23.8619473,5.34867889 L35.9601317,10.1670317 C36.4247156,10.3639848 36.7477739,10.5739348 36.9453096,10.7708879 C37.1423451,10.9533444 37.2123578,11.1083075 37.2123578,11.2347774 C37.2123578,11.3612473 37.1418451,11.5297072 36.9453096,11.7261604 C36.7477739,11.908617 36.4247156,12.1195668 35.9601317,12.3020233 L30.7826969,14.353035 C30.7826969,14.3670317 30.7691944,14.3670317 30.7546918,14.3670317 L23.8619473,17.1193763 C23.622404,17.2178529 23.3698584,17.3018329 23.10181,17.3723161 C22.2996652,17.5832659 21.3429925,17.6812426 20.4008224,17.6812426 C20.077764,17.6812426 19.7537055,17.6677458 19.4441496,17.6392526 C19.1350938,17.6107593 18.8395405,17.5832659 18.5439871,17.5412759 C18.2344312,17.498786 17.9528804,17.4427993 17.6858322,17.3723161 C17.5448067,17.3303261 17.4182839,17.3018329 17.291761,17.2598429 L17.291761,17.2598429 C17.1652382,17.2178529 17.0522178,17.1618662 16.9401975,17.1193763 L16.926195,17.1193763 L10.0329504,14.3665318 C10.0329504,14.3665318 10.0189479,14.3665318 10.0044452,14.3525351 L4.82751052,12.3015234 C4.36292664,12.1190669 4.03936822,11.9081171 3.84233264,11.7256606 C3.64529707,11.5287075 3.58928695,11.3607474 3.58928695,11.2342776 C3.58928695,11.2342776 3.58928695,11.2202809 3.58928695,11.2057843 C3.58928695,11.0933111 3.64529707,10.9393478 3.84233264,10.770388 C4.03936822,10.5734349 4.36292664,10.3634849 4.82751052,10.1665318 L16.9256949,5.348179 C17.8543626,4.98326589 19.1350938,4.80080933 20.4008224,4.80080933 L20.4008224,4.80080933 Z M10.285496,15.3218043 L16.6446442,17.8507022 C17.7138372,18.2721019 19.0505786,18.4825518 20.4008224,18.4825518 C21.7375637,18.4825518 23.0878075,18.2721019 24.142998,17.8507022 L30.5156487,15.3218043 L30.5156487,20.6175434 C30.5156487,21.0249464 30.290608,21.4463461 29.8125217,21.8817424 C29.3339353,22.3031421 28.6023032,22.7250417 27.6881381,23.0614616 C25.8448053,23.7637943 23.256838,24.2136872 20.4008224,24.2136872 C17.5448067,24.2136872 14.9423368,23.7642942 13.0995041,23.0614616 C12.1848389,22.7245418 11.4532068,22.3026422 10.989123,21.8817424 C10.5105366,21.4463461 10.285496,21.0249464 10.285496,20.6175434 L10.285496,15.3218043 L10.285496,15.3218043 Z M3.1952158,17.5832659 C3.42025644,17.5832659 3.60278939,17.7657224 3.60278939,17.990169 C3.60278939,18.2151154 3.42025644,18.397572 3.1952158,18.397572 C2.97017517,18.397572 2.78764221,18.2151154 2.78764221,17.990169 C2.78764221,17.7657224 2.97017517,17.5832659 3.1952158,17.5832659 L3.1952158,17.5832659 Z" id="Shape" stroke="#000000" stroke-width="0.2" fill="#000000" transform="translate(20.000000, 14.500000) rotate(-11.000000) translate(-20.000000, -14.500000) "></path>
        </g>
        <text id="6-uneducated" opacity="0.769999981" font-family="SFProText-Medium, SF Pro Text" font-size="14" font-weight="400" line-spacing="21" fill="#555555">
            <tspan x="180" y="552">6 uneducated</tspan>
        </text>
        <text id="7-did-online-shoppin" opacity="0.769999981" font-family="SFProText-Medium, SF Pro Text" font-size="14" font-weight="400" line-spacing="21" fill="#555555">
            <tspan x="180" y="663">7 did online shopping  </tspan>
        </text>
        <g id="Group" transform="translate(125.000000, 657.000000)" fill-rule="nonzero">
            <polygon id="Path" fill="#C6C6C6" points="10 9.07407407 12.75 18.9259259 28.8040541 19 32 9"></polygon>
            <path d="M15.8,26 C15.16,26 14.6,26.4666667 14.6,27 C14.6,27.6 15.16,28 15.8,28 C16.44,28 17,27.6 17,27 C17,26.4666667 16.44,26 15.8,26 Z" id="Shape" fill="#C6C6C6"></path>
            <path d="M25.72,26 C25.08,26 24.52,26.4516129 24.52,26.9677419 C24.52,27.5483871 25.08,28 25.72,28 C26.44,28 27,27.5483871 27,26.9677419 C27,26.4516129 26.44,26 25.72,26 Z" id="Shape" fill="#C6C6C6"></path>
            <path d="M0.832802071,0.0112760187 L7.02519692,1.62074312 C7.24901843,1.62074312 7.39823276,1.85066699 7.47283993,2.08059087 L8.74116176,6.67906831 L32.3916337,6.60242702 C32.7646695,6.60242702 33.0630982,7.06227476 32.988491,7.44548121 L29.1835255,19.5548051 C29.1089183,19.784729 28.8850968,20.0146529 28.5866682,20.0146529 L12.2476986,19.9380116 L12.9191631,22.4671742 L27.7659893,22.4671742 C28.6612753,22.4671742 28.6612753,24 27.7659893,24 L12.3223058,24 C12.0238771,24 11.8000556,23.8467174 11.7254484,23.5401523 L6.20451809,2.92364506 L0.459766237,1.54410183 C-0.360912599,1.31417796 0.0121232351,-0.142006563 0.832802071,0.0112760187 Z M9.1141976,8.21189412 L11.8746628,18.4051858 L27.9898108,18.4818271 L31.197919,8.13525283 L9.1141976,8.21189412 Z" id="Shape" stroke="#F3F3F3" stroke-width="0.2" fill="#000000"></path>
            <path d="M15.5,25 C16.8571429,25 18,26.1428571 18,27.5 C18,28.8571429 16.8571429,30 15.5,30 C14.1428571,30 13,28.8571429 13,27.5 C13,26.1428571 14.1428571,25 15.5,25 Z M15.5,26.4285714 C14.9285714,26.4285714 14.4285714,26.9285714 14.4285714,27.5 C14.4285714,28.1428571 14.9285714,28.5714286 15.5,28.5714286 C16.0714286,28.5714286 16.5714286,28.1428571 16.5714286,27.5 C16.5714286,26.9285714 16.0714286,26.4285714 15.5,26.4285714 Z" id="Shape" stroke="#F3F3F3" stroke-width="0.2" fill="#000000"></path>
            <path d="M24.4637681,25 C25.9130435,25 27,26.0869565 27,27.4637681 C27,28.9130435 25.9130435,30 24.4637681,30 C23.0869565,30 22,28.9130435 22,27.4637681 C22,26.0869565 23.0869565,25 24.4637681,25 Z M24.4637681,26.3768116 C23.884058,26.3768116 23.3768116,26.884058 23.3768116,27.4637681 C23.3768116,28.115942 23.884058,28.6231884 24.4637681,28.6231884 C25.115942,28.6231884 25.6231884,28.115942 25.6231884,27.4637681 C25.6231884,26.884058 25.115942,26.3768116 24.4637681,26.3768116 Z" id="Shape" stroke="#F3F3F3" stroke-width="0.2" fill="#000000"></path>
        </g>
        <text id="18-did-not-shop-onli" opacity="0.769999981" font-family="SFProText-Medium, SF Pro Text" font-size="14" font-weight="400" line-spacing="21" fill="#555555">
            <tspan x="180" y="687">18 did not shop online  </tspan>
        </text>
        <text id="16-smart-phone-users" opacity="0.769999981" font-family="SFProText-Medium, SF Pro Text" font-size="14" font-weight="400" line-spacing="21" fill="#555555">
            <tspan x="180" y="596">16 smart phone users</tspan>
        </text>
        <g id="Group-11" transform="translate(133.000000, 591.000000)">
            <g id="Group-10">
                <g id="Group-9">
                    <rect id="Rectangle" fill="#D8D8D8" fill-rule="nonzero" x="1.78947368" y="2.31111111" width="15.2105263" height="27.5555556" rx="3.6"></rect>
                    <path d="M2.55584375,31.8106667 L2.5808125,31.8197333 C2.65996875,31.8453333 2.7401875,31.8650667 2.82146875,31.8853333 C2.86715625,31.8970667 2.91178125,31.9109333 2.95853125,31.9210667 C3.019625,31.9338667 3.2693125,31.9744 3.33359375,31.9797333 C3.46153903,31.9932304 3.5901003,31.9999995 3.71875,31.9999995 L13.28125,31.9999995 C13.4098997,31.9999995 13.538461,31.9932304 13.6664062,31.9797333 C13.7306875,31.9733333 13.980375,31.9338667 14.0414687,31.9210667 C14.0882188,31.9109333 14.1328437,31.8970667 14.1785313,31.8853333 C14.2592813,31.8650667 14.3379063,31.8453333 14.4191875,31.8197333 L14.4441563,31.8106667 C15.9675984,31.3053948 16.9974445,29.8773832 17,28.2666667 L17,3.2 C17,1.81333333 15.5688125,0.213333333 13.6610937,0.0192 C13.5348852,0.00633967623 13.4081069,-5.44941164e-07 13.28125,-5.44941164e-07 L3.71875,-5.44941164e-07 C3.59189307,-5.44941164e-07 3.46511475,0.00633967623 3.33890625,0.0192 C1.4311875,0.213333333 -1.77635684e-15,1.81333333 -1.77635684e-15,3.2 L-1.77635684e-15,28.2666667 C0.00255550632,29.8773832 1.03240157,31.3053948 2.55584375,31.8106667 Z M1.0625,5.33333333 L15.9375,5.33333333 L15.9375,24.5333333 L1.0625,24.5333333 L1.0625,5.33333333 Z M3.71875,30.9333333 C3.54618598,30.9324486 3.37412381,30.9145854 3.20503125,30.88 L3.17528125,30.8752 C3.03775391,30.8440793 2.90291968,30.8019901 2.7720625,30.7493333 C1.73240625,30.3296 1.0625,29.2069333 1.0625,27.7333333 L1.0625,25.6 L15.9375,25.6 L15.9375,27.7333333 C15.9375,29.2069333 15.2675937,30.3296 14.2279375,30.7504 C14.0970803,30.8030568 13.9622461,30.8451459 13.8247187,30.8762667 L13.7949687,30.8810667 C13.6258409,30.9152938 13.4537791,30.9327997 13.28125,30.9333333 L3.71875,30.9333333 Z M13.28125,1.06666365 C13.4596726,1.06639661 13.6376638,1.08426554 13.8125,1.12 C13.8326875,1.12426667 13.85075,1.1328 13.8709375,1.13706667 C15.0784131,1.41306316 15.9357082,2.49010132 15.9375,3.73333333 L15.9375,4.26666667 L1.0625,4.26666667 L1.0625,3.73333333 C1.0646525,2.48998259 1.92242071,1.41312506 3.130125,1.1376 C3.1503125,1.13333333 3.168375,1.1248 3.1885625,1.12053333 C3.36303262,1.08469134 3.54066447,1.06666365 3.71875,1.06666365 L13.28125,1.06666365 Z" id="Shape" fill="#000000" fill-rule="nonzero"></path>
                    <path d="M8.5,26.6666667 C7.61979618,26.6666667 6.90625,27.3830111 6.90625,28.2666667 C6.90625,29.1503223 7.61979618,29.8666667 8.5,29.8666667 C9.38020382,29.8666667 10.09375,29.1503223 10.09375,28.2666667 C10.09375,27.3830111 9.38020382,26.6666667 8.5,26.6666667 Z M8.5,28.8 C8.20659873,28.8 7.96875,28.5612185 7.96875,28.2666667 C7.96875,27.9721148 8.20659873,27.7333333 8.5,27.7333333 C8.79340127,27.7333333 9.03125,27.9721148 9.03125,28.2666667 C9.03125,28.5612185 8.79340127,28.8 8.5,28.8 Z" id="Shape" fill="#000000" fill-rule="nonzero"></path>
                    <path d="M6.90625,3.2 L10.09375,3.2 C10.3871513,3.2 10.625,2.96121853 10.625,2.66666667 C10.625,2.3721148 10.3871513,2.13333333 10.09375,2.13333333 L6.90625,2.13333333 C6.61284873,2.13333333 6.375,2.3721148 6.375,2.66666667 C6.375,2.96121853 6.61284873,3.2 6.90625,3.2 Z" id="Path" fill="#000000"></path>
                    <path d="M4.78125,3.2 C4.99707832,3.20126007 5.1922144,3.07130465 5.27497832,2.87119014 C5.35774224,2.67107562 5.31168185,2.44058158 5.1584375,2.288 C5.00645195,2.13415469 4.77685827,2.08791368 4.57752545,2.17100216 C4.37819263,2.25409064 4.24874486,2.44999196 4.25,2.66666667 C4.24856505,2.80855218 4.30407497,2.94504621 4.40401642,3.04537959 C4.50395787,3.14571297 4.63991873,3.20144057 4.78125,3.2 Z" id="Path" fill="#000000"></path>
                </g>
            </g>
        </g>
        <text id="9-basic-phone-users" opacity="0.769999981" font-family="SFProText-Medium, SF Pro Text" font-size="14" font-weight="400" line-spacing="21" fill="#555555">
            <tspan x="180" y="620">9 basic phone users</tspan>
        </text>
        <text id="Participant-segments" font-family="SFProText-Semibold, SF Pro Text" font-size="18" font-weight="500" line-spacing="24" fill="#000000">
            <tspan x="93.71875" y="455">Participant segments in the study </tspan>
        </text>
        <text id="Interviews-with-user" fill="#3E3E3E" opacity="0.861676897" font-family="SFCompactText-Light, SF Compact Text" font-size="16" font-weight="300" line-spacing="23">
            <tspan x="333" y="149">Interviews with users and store owners</tspan>
            <tspan x="333" y="172">• Store owners are secondary users since </tspan>
            <tspan x="333" y="195">they assist customers use Amazon Easy. </tspan>
        </text>
        <text id="Findings-•-Behaviour" fill="#3E3E3E" font-family="SFCompactRounded-Semibold, SF Compact Rounded" font-size="16" font-weight="500" line-spacing="26">
            <tspan x="333" y="241">Findings</tspan>
            <tspan x="333" y="267" font-family="SFCompactRounded-Light, SF Compact Rounded" font-weight="300">• Behaviours, User needs and painpoints</tspan>
            <tspan x="333" y="293" font-family="SFCompactRounded-Light, SF Compact Rounded" font-weight="300">• Skills of user</tspan>
            <tspan x="333" y="319" font-family="SFCompactRounded-Light, SF Compact Rounded" font-weight="300">• Motivating factors</tspan>
        </text>
        <text id="2.-Contextual-Inquir" font-family="SFCompactText-Medium, SF Compact Text" font-size="18" font-weight="400" fill="#020202">
            <tspan x="396" y="96">2.  Contextual Inquiry</tspan>
        </text>
        <g id="Group-3" transform="translate(462.000000, 15.000000)">
            <ellipse id="Oval" fill="#6BAFFF" cx="22" cy="19" rx="12" ry="9"></ellipse>
            <path d="M21.0201179,0 C10.4610781,0 1.70317811,7.24443864 1.70317811,16.4038644 C1.70317811,19.4024738 2.68872554,22.1988972 4.33085007,24.6057966 L0.105269482,33.4617622 C-0.0981313254,33.898994 -0.00107199396,34.4165107 0.347101676,34.7512022 C0.695275347,35.0858938 1.21815916,35.1643145 1.64991449,34.9465947 L10.8822754,30.3330079 C12.4010914,31.1301016 14.0474515,31.7636008 15.8002831,32.1890486 C18.2134563,37.8992202 24.5115105,41.8581368 31.8148784,41.8581368 C33.7081425,41.8581368 35.5256387,41.5929315 37.2300132,41.0980439 C37.6201687,40.9844162 37.9197882,40.67217 38.0159883,40.2789458 C38.1121885,39.8857216 37.9903511,39.4712718 37.6963791,39.1917428 C37.4024072,38.9122138 36.9809713,38.8100815 36.5908497,38.9238248 C35.0926324,39.3588666 33.492495,39.5955348 31.8148784,39.5955348 C25.9728052,39.5955348 20.9854741,36.7146315 18.5877459,32.6663162 C19.3851361,32.7540978 20.1954113,32.8077288 21.0201179,32.8077288 C31.3385142,32.8077288 39.932744,25.88522 40.3193032,17.0225446 C44.1351698,19.2939628 46.5866559,22.9882421 46.5866559,27.1512238 C46.5866559,29.6118035 45.7422142,31.8841347 44.2608111,33.8329703 C43.9957528,34.1797769 43.9543171,34.6473196 44.1542839,35.0349776 L46.2493197,39.1889735 L41.9704754,36.9440481 C41.60891,36.7544996 41.1732355,36.7714229 40.8276023,36.9884417 C40.4819691,37.2054606 40.2789009,37.589596 40.2949083,37.9961161 C40.3109156,38.4026363 40.543566,38.7697649 40.905203,38.959178 L48.3266009,42.8657017 C48.7660818,43.1002889 49.3078272,43.0222218 49.6624649,42.6731998 C50.0171025,42.3241778 50.1017714,41.7857498 49.8712459,41.345516 L46.4623741,34.5930632 C47.9508716,32.4162138 48.8592371,29.8799784 48.8592371,27.1512238 C48.8592371,21.6196366 45.2970184,16.8678658 40.1772669,14.3710579 C38.996219,6.19398494 30.7856514,0 21.0201179,0 Z M21.0201179,2.26260199 C30.5428687,2.26260199 38.0644766,8.69368046 38.0644766,16.4038644 C38.0644766,24.1140879 30.5428704,30.5451268 21.0201179,30.5451268 C17.4648641,30.5451268 14.1709163,29.6246155 11.4504207,28.0880825 C11.1156342,27.9002577 10.7081841,27.8936075 10.3673938,28.0704059 L3.58515938,31.4643089 L6.65669484,25.0123579 C6.82966178,24.6355936 6.78198668,24.1948401 6.53241306,23.8633803 C4.89755795,21.6842684 3.97575926,19.1362957 3.97575926,16.4038644 C3.97575926,8.69368046 11.4973671,2.26260199 21.0201179,2.26260199 Z M13.6342292,13.5756119 C12.0787985,13.5756119 10.7935027,14.8552604 10.7935027,16.4038644 C10.7935027,17.9524684 12.0787985,19.2321169 13.6342292,19.2321169 C15.1896604,19.2321169 16.4749556,17.9524684 16.4749556,16.4038644 C16.4749556,14.8552604 15.1896604,13.5756119 13.6342292,13.5756119 Z M21.0201179,13.5756119 C19.4646873,13.5756119 18.1793915,14.8552604 18.1793915,16.4038644 C18.1793915,17.9524684 19.4646873,19.2321169 21.0201179,19.2321169 C22.5755492,19.2321169 23.8608444,17.9524684 23.8608444,16.4038644 C23.8608444,14.8552604 22.5755492,13.5756119 21.0201179,13.5756119 Z M28.4060067,13.5756119 C26.8505754,13.5756119 25.5652802,14.8552604 25.5652802,16.4038644 C25.5652802,17.9524684 26.8505754,19.2321169 28.4060067,19.2321169 C29.9614374,19.2321169 31.2467331,17.9524684 31.2467331,16.4038644 C31.2467331,14.8552604 29.9614374,13.5756119 28.4060067,13.5756119 Z M13.6342292,15.8382139 C13.9614638,15.8382139 14.2023745,16.0780667 14.2023745,16.4038644 C14.2023745,16.7296621 13.9614638,16.9695149 13.6342292,16.9695149 C13.3069945,16.9695149 13.0660839,16.7296621 13.0660839,16.4038644 C13.0660839,16.0780667 13.3069945,15.8382139 13.6342292,15.8382139 Z M21.0201179,15.8382139 C21.3473526,15.8382139 21.5882632,16.0780667 21.5882632,16.4038644 C21.5882632,16.7296621 21.3473526,16.9695149 21.0201179,16.9695149 C20.6928833,16.9695149 20.4519726,16.7296621 20.4519726,16.4038644 C20.4519726,16.0780667 20.6928833,15.8382139 21.0201179,15.8382139 Z M28.4060067,15.8382139 C28.7332413,15.8382139 28.974152,16.0780667 28.974152,16.4038644 C28.974152,16.7296621 28.7332413,16.9695149 28.4060067,16.9695149 C28.078772,16.9695149 27.8378614,16.7296621 27.8378614,16.4038644 C27.8378614,16.0780667 28.078772,15.8382139 28.4060067,15.8382139 Z" id="Shape" fill="#3E3E3E" fill-rule="nonzero"></path>
        </g>
        <text id="The-participants-wer" fill="#3E3E3E" opacity="0.861676897" font-family="SFCompactText-Light, SF Compact Text" font-size="16" font-weight="300" line-spacing="23">
            <tspan x="708" y="149">The participants were given 6 tasks to </tspan>
            <tspan x="708" y="172">test concepts with a paper prototype.</tspan>
        </text>
        <text id="Findings-•-Product-d" fill="#3E3E3E" font-family="SFCompactRounded-Semibold, SF Compact Rounded" font-size="16" font-weight="500" line-spacing="26">
            <tspan x="719" y="241">Findings</tspan>
            <tspan x="719" y="267" font-family="SFCompactRounded-Light, SF Compact Rounded" font-weight="300">• Product discovery paths</tspan>
            <tspan x="719" y="293" font-family="SFCompactRounded-Light, SF Compact Rounded" font-weight="300">• Product evaluation criteria</tspan>
            <tspan x="719" y="319" font-family="SFCompactRounded-Light, SF Compact Rounded" font-weight="300">• Interface issues</tspan>
            <tspan x="719" y="345" font-family="SFCompactRounded-Light, SF Compact Rounded" font-weight="300">• Mental models</tspan>
        </text>
        <text id="3.-Think-Aloud-Proto" font-family="SFCompactText-Medium, SF Compact Text" font-size="18" font-weight="400" fill="#020202">
            <tspan x="748" y="96">3.  Think Aloud Protocol</tspan>
        </text>
        <g id="Group-4" transform="translate(827.000000, 15.000000)">
            <rect id="Rectangle-6" fill="#CBE08D" x="14" y="12" width="20" height="31" rx="4"></rect>
            <path d="M33.0909091,4.68292683 L28.1095455,4.68292683 C27.3174738,1.91496477 24.7679044,0.00340206291 21.8636364,0 L17.1363636,0 C14.2320956,0.00340206291 11.6825262,1.91496477 10.8904545,4.68292683 L5.90909091,4.68292683 C2.64559011,4.68292683 0,7.30369903 0,10.5365854 L0,42.1463415 C0,45.3792278 2.64559011,48 5.90909091,48 L33.0909091,48 C36.3544099,48 39,45.3792278 39,42.1463415 L39,10.5365854 C39,7.30369903 36.3544099,4.68292683 33.0909091,4.68292683 Z M13,6.43902439 C13,4.17600395 14.8519131,2.34146341 17.1363636,2.34146341 L21.8636364,2.34146341 C24.1480869,2.34146341 26,4.17600395 26,6.43902439 L26,8.19512195 L13,8.19512195 L13,6.43902439 Z M36.6363636,42.1463415 C36.6363636,44.0860733 35.0490096,45.6585366 33.0909091,45.6585366 L5.90909091,45.6585366 C3.95099043,45.6585366 2.36363636,44.0860733 2.36363636,42.1463415 L2.36363636,10.5365854 C2.36363636,8.59685356 3.95099043,7.02439024 5.90909091,7.02439024 L10.6363636,7.02439024 L10.6363636,9.36585366 C10.6363636,10.0124309 11.1654817,10.5365854 11.8181818,10.5365854 L27.1818182,10.5365854 C27.8345183,10.5365854 28.3636364,10.0124309 28.3636364,9.36585366 L28.3636364,7.02439024 L33.0909091,7.02439024 C35.0490096,7.02439024 36.6363636,8.59685356 36.6363636,10.5365854 L36.6363636,42.1463415 Z" id="Shape" stroke="#FFFFFF" fill="#000000" fill-rule="nonzero"></path>
            <path d="M12,15 C9.23857625,15 7,17.2385763 7,20 C7,22.7614237 9.23857625,25 12,25 C14.7614237,25 17,22.7614237 17,20 C16.9967586,17.23992 14.76008,15.0032414 12,15 Z M12,22.6470588 C10.5380698,22.6470588 9.35294118,21.4619302 9.35294118,20 C9.35294118,18.5380698 10.5380698,17.3529412 12,17.3529412 C13.4619302,17.3529412 14.6470588,18.5380698 14.6470588,20 C14.6470588,21.4619302 13.4619302,22.6470588 12,22.6470588 Z" id="Shape" stroke="#FFFFFF" fill="#000000" fill-rule="nonzero"></path>
            <path d="M30.8266667,19 L22.1733333,19 C21.5253192,19 21,19.4477153 21,20 C21,20.5522847 21.5253192,21 22.1733333,21 L30.8266667,21 C31.4746808,21 32,20.5522847 32,20 C32,19.4477153 31.4746808,19 30.8266667,19 Z" id="Shape" stroke="#FFFFFF" stroke-width="0.5" fill="#000000" fill-rule="nonzero"></path>
            <path d="M12,31 C9.23857625,31 7,33.2385763 7,36 C7,38.7614237 9.23857625,41 12,41 C14.7614237,41 17,38.7614237 17,36 C16.9967586,33.23992 14.76008,31.0032414 12,31 L12,31 Z M12,38.6470588 C10.9293646,38.6470588 9.96415094,38.0021236 9.55443653,37.0129856 C9.14472212,36.0238475 9.37119324,34.8853003 10.1282468,34.1282468 C10.8853003,33.3711932 12.0238475,33.1447221 13.0129856,33.5544365 C14.0021236,33.9641509 14.6470588,34.9293646 14.6470588,36 C14.6470588,37.4619302 13.4619302,38.6470588 12,38.6470588 L12,38.6470588 Z" id="Shape" stroke="#FFFFFF" fill="#000000" fill-rule="nonzero"></path>
            <path d="M30.8266667,35 L22.1733333,35 C21.5253192,35 21,35.4477153 21,36 C21,36.5522847 21.5253192,37 22.1733333,37 L30.8266667,37 C31.4746808,37 32,36.5522847 32,36 C32,35.4477153 31.4746808,35 30.8266667,35 Z" id="Shape" stroke="#FFFFFF" stroke-width="0.5" fill="#000000" fill-rule="nonzero"></path>
        </g>
        <text id="High-Frequency" font-family="SFProText-Medium, SF Pro Text" font-size="14" font-weight="400" line-spacing="21" fill="#373737">
            <tspan x="820" y="546">High </tspan>
            <tspan x="820" y="567">Frequency</tspan>
        </text>
        <text id="Medium-Intent" font-family="SFProText-Medium, SF Pro Text" font-size="14" font-weight="400" line-spacing="21" fill="#373737">
            <tspan x="606.875977" y="493">Medium Intent</tspan>
        </text>
        <text id="High-Intent" font-family="SFProText-Medium, SF Pro Text" font-size="14" font-weight="400" line-spacing="21" fill="#373737">
            <tspan x="518.086914" y="493">High Intent</tspan>
        </text>
        <text id="2-visits/month" font-family="SFProText-Regular, SF Pro Text" font-size="12" font-weight="normal" fill="#373737">
            <tspan x="820" y="588">2 visits/month</tspan>
        </text>
        <text id="Medium-Frequency" font-family="SFProText-Medium, SF Pro Text" font-size="14" font-weight="400" line-spacing="21" fill="#373737">
            <tspan x="820" y="649">Medium </tspan>
            <tspan x="820" y="670">Frequency</tspan>
        </text>
        <text id="1-visits/-2-month" font-family="SFProText-Regular, SF Pro Text" font-size="12" font-weight="normal" fill="#373737">
            <tspan x="820" y="691">1 visits/ 2 month</tspan>
        </text>
        <text id="Low-Frequency" font-family="SFProText-Medium, SF Pro Text" font-size="14" font-weight="400" line-spacing="21" fill="#373737">
            <tspan x="820" y="748">Low </tspan>
            <tspan x="820" y="769">Frequency</tspan>
        </text>
        <text id="How-did-we-choose-sh" font-family="SFProText-Semibold, SF Pro Text" font-size="18" font-weight="500" line-spacing="24" fill="#000000">
            <tspan x="476.203125" y="455">How did we choose shops for user research?</tspan>
        </text>
        <polygon id="Shape" fill="#FFDA9D" fill-rule="nonzero" points="504 513 805 513 805 813"></polygon>
        <rect id="Rectangle-path" stroke="#020202" stroke-width="1.3723" x="504" y="513" width="301" height="301"></rect>
        <line x1="602" y1="513" x2="602" y2="813" id="Shape" stroke="#000000" stroke-width="0.3"></line>
        <line x1="505" y1="607" x2="806" y2="607" id="Shape" stroke="#000000" stroke-width="0.3"></line>
        <line x1="505" y1="715" x2="806" y2="715" id="Shape" stroke="#000000" stroke-width="0.3"></line>
        <line x1="708" y1="513" x2="708" y2="813" id="Shape" stroke="#000000" stroke-width="0.3"></line>
        <text id="1-visits/-+3-month" font-family="SFProText-Regular, SF Pro Text" font-size="12" font-weight="normal" fill="#373737">
            <tspan x="820" y="790">1 visits/ +3 month</tspan>
        </text>
        <text id="Grocery-Stores" font-family="SFProText-Bold, SF Pro Text" font-size="14" font-weight="bold" line-spacing="21" fill="#000000">
            <tspan x="556.422363" y="559">Grocery Stores</tspan>
        </text>
        <text id="Internet-Cafes" font-family="SFProText-Bold, SF Pro Text" font-size="14" font-weight="bold" line-spacing="21" fill="#000000">
            <tspan x="590.72168" y="601">Internet Cafes</tspan>
        </text>
        <text id="Low-Intent" font-family="SFProText-Medium, SF Pro Text" font-size="14" font-weight="400" line-spacing="21" fill="#373737">
            <tspan x="725.291504" y="493">Low Intent</tspan>
        </text>
        <text id="Gift/Fancy-Stores" font-family="SFProText-Medium, SF Pro Text" font-size="14" font-weight="400" line-spacing="21" fill="#878787">
            <tspan x="680" y="746">Gift/Fancy </tspan>
            <tspan x="680" y="767">Stores</tspan>
        </text>
        <text id="Mobile-Stores" font-family="SFProText-Medium, SF Pro Text" font-size="14" font-weight="400" line-spacing="21" fill="#878787">
            <tspan x="680" y="788">Mobile Stores</tspan>
        </text>
        <text id="Medical-Stores" font-family="SFProText-Medium, SF Pro Text" font-size="14" font-weight="400" line-spacing="21" fill="#878787">
            <tspan x="528.307129" y="729">Medical Stores</tspan>
        </text>
    </g>
</svg>