<?xml version="1.0" encoding="UTF-8"?>
<svg width="1560px" height="693px" viewBox="0 0 1560 693" version="1.1" xmlns="http://www.w3.org/2000/svg" xmlns:xlink="http://www.w3.org/1999/xlink">
    <title>n6</title>
    <defs>
        <rect id="path-1" x="0" y="159" width="350" height="466" rx="8"></rect>
        <filter x="-4.0%" y="-2.1%" width="108.6%" height="106.4%" filterUnits="objectBoundingBox" id="filter-2">
            <feMorphology radius="1.5" operator="dilate" in="SourceAlpha" result="shadowSpreadOuter1"></feMorphology>
            <feOffset dx="1" dy="5" in="shadowSpreadOuter1" result="shadowOffsetOuter1"></feOffset>
            <feGaussianBlur stdDeviation="3" in="shadowOffsetOuter1" result="shadowBlurOuter1"></feGaussianBlur>
            <feComposite in="shadowBlurOuter1" in2="SourceAlpha" operator="out" result="shadowBlurOuter1"></feComposite>
            <feColorMatrix values="0 0 0 0 0   0 0 0 0 0   0 0 0 0 0  0 0 0 0.164144449 0" type="matrix" in="shadowBlurOuter1"></feColorMatrix>
        </filter>
        <rect id="path-3" x="742" y="159" width="350" height="466" rx="8"></rect>
        <filter x="-4.0%" y="-2.1%" width="108.6%" height="106.4%" filterUnits="objectBoundingBox" id="filter-4">
            <feMorphology radius="1.5" operator="dilate" in="SourceAlpha" result="shadowSpreadOuter1"></feMorphology>
            <feOffset dx="1" dy="5" in="shadowSpreadOuter1" result="shadowOffsetOuter1"></feOffset>
            <feGaussianBlur stdDeviation="3" in="shadowOffsetOuter1" result="shadowBlurOuter1"></feGaussianBlur>
            <feComposite in="shadowBlurOuter1" in2="SourceAlpha" operator="out" result="shadowBlurOuter1"></feComposite>
            <feColorMatrix values="0 0 0 0 0   0 0 0 0 0   0 0 0 0 0  0 0 0 0.164144449 0" type="matrix" in="shadowBlurOuter1"></feColorMatrix>
        </filter>
        <rect id="path-5" x="371" y="159" width="350" height="466" rx="8"></rect>
        <filter x="-4.0%" y="-2.1%" width="108.6%" height="106.4%" filterUnits="objectBoundingBox" id="filter-6">
            <feMorphology radius="1.5" operator="dilate" in="SourceAlpha" result="shadowSpreadOuter1"></feMorphology>
            <feOffset dx="1" dy="5" in="shadowSpreadOuter1" result="shadowOffsetOuter1"></feOffset>
            <feGaussianBlur stdDeviation="3" in="shadowOffsetOuter1" result="shadowBlurOuter1"></feGaussianBlur>
            <feComposite in="shadowBlurOuter1" in2="SourceAlpha" operator="out" result="shadowBlurOuter1"></feComposite>
            <feColorMatrix values="0 0 0 0 0   0 0 0 0 0   0 0 0 0 0  0 0 0 0.164144449 0" type="matrix" in="shadowBlurOuter1"></feColorMatrix>
        </filter>
    </defs>
    <g id="n6" stroke="none" stroke-width="1" fill="none" fill-rule="evenodd">
        <g id="Group-9" transform="translate(234.000000, 34.000000)">
            <g id="Rectangle">
                <use fill="black" fill-opacity="1" filter="url(#filter-2)" xlink:href="#path-1"></use>
                <use stroke="#EEEEEE" stroke-width="1" fill="#FFFFFF" fill-rule="evenodd" xlink:href="#path-1"></use>
            </g>
            <text id="As-an-admin-and-powe" font-family="ProductSans-Light, Product Sans Light" font-size="18" font-weight="normal" line-spacing="31">
                <tspan x="49" y="334" fill="#777777">As an </tspan>
                <tspan x="96.016" y="334" font-family="ProductSans-Medium, Product Sans Medium" fill="#5AB36A">admin and power user</tspan>
                <tspan x="274.18" y="334" fill="#777777">,</tspan>
                <tspan x="49" y="365" fill="#777777">I would like to be able to </tspan>
                <tspan x="49" y="396" fill="#777777">customize every aspect of the </tspan>
                <tspan x="49" y="427" fill="#777777">VM so that I am create the right </tspan>
                <tspan x="49" y="458" fill="#777777">VM config to hand off to users </tspan>
                <tspan x="49" y="489" fill="#777777">and ensure that the users’ </tspan>
                <tspan x="49" y="520" fill="#777777">requirements are met. </tspan>
                <tspan x="221.476" y="520" font-family="ProductSans-Regular, Product Sans" fill="#777777"></tspan>
            </text>
            <g id="Group-15" transform="translate(43.000000, 265.000000)" fill-rule="nonzero">
                <path d="M1.74834,26.88 L1.74834,20.9142 C5.57676,20.56584 7.49046,17.7942 7.49046,12.59934 L3,12.59934 C1.67454,12.59934 0.6,11.5248 0.6,10.19934 L0.6,3 C0.6,1.67454 1.67454,0.6 3,0.6 L11.28,0.6 C12.60546,0.6 13.68,1.67454 13.68,3 L13.68,12.18918 C13.68,21.53526 9.70314,26.43258 1.74834,26.88 Z" id="Path" fill="#70C267" transform="translate(7.140000, 13.740000) scale(-1, 1) translate(-7.140000, -13.740000) "></path>
                <path d="M18.18834,26.88 L18.18834,20.9142 C22.01676,20.56584 23.93046,17.7942 23.93046,12.59934 L19.44,12.59934 C18.11454,12.59934 17.04,11.5248 17.04,10.19934 L17.04,3 C17.04,1.67454 18.11454,0.6 19.44,0.6 L27.72,0.6 C29.04546,0.6 30.12,1.67454 30.12,3 L30.12,12.18918 C30.12,21.53526 26.14314,26.43258 18.18834,26.88 Z" id="Path" fill="#70C267" transform="translate(23.580000, 13.740000) scale(-1, 1) translate(-23.580000, -13.740000) "></path>
                <path d="M18.18828,27.48 C18.0354,27.48 17.88786,27.42156 17.77614,27.31602 C17.65626,27.20268 17.58834,27.045 17.58834,26.88 L17.58834,20.91414 C17.58834,20.60382 17.82492,20.34474 18.13398,20.3166 C21.48426,20.0118 23.18496,17.68164 23.32152,13.19928 L19.44,13.19928 C17.7858,13.19928 16.44,11.85348 16.44,10.19928 L16.44,3 C16.44,1.3458 17.7858,5.32907052e-14 19.44,5.32907052e-14 L27.72,5.32907052e-14 C29.3742,5.32907052e-14 30.72,1.3458 30.72,3 L30.72,4.92 C30.72,5.25132 30.45138,5.52 30.12,5.52 C29.78862,5.52 29.52,5.25132 29.52,4.92 L29.52,3 C29.52,2.00748 28.71252,1.2 27.72,1.2 L19.44,1.2 C18.44748,1.2 17.64,2.00748 17.64,3 L17.64,10.19928 C17.64,11.1918 18.44748,11.99928 19.44,11.99928 L23.93046,11.99928 C24.26184,11.99928 24.53046,12.26796 24.53046,12.59928 C24.53046,15.30876 24.01176,17.43366 22.98882,18.91512 C22.02444,20.31162 20.61306,21.16098 18.7884,21.44478 L18.7884,26.23494 C26.0079,25.58898 29.52,20.98776 29.52,12.18912 L29.52,10.03998 C29.52,9.70866 29.78862,9.43998 30.12,9.43998 C30.45138,9.43998 30.72,9.70866 30.72,10.03998 L30.72,12.18912 C30.72,16.98174 29.67126,20.70306 27.60294,23.24982 C25.51266,25.82358 22.35648,27.24648 18.222,27.47904 C18.21078,27.4797 18.1995,27.48 18.18828,27.48 Z" id="Path" fill="#000000" transform="translate(23.580000, 13.740000) scale(-1, 1) translate(-23.580000, -13.740000) "></path>
                <path d="M11.28,5.32907052e-14 L3,5.32907052e-14 C1.3458,5.32907052e-14 -1.42108547e-14,1.3458 -1.42108547e-14,3 L-1.42108547e-14,10.19928 C-1.42108547e-14,11.85348 1.3458,13.19928 3,13.19928 L6.88152,13.19928 C6.74496,17.68164 5.04426,20.0118 1.69398,20.3166 C1.38498,20.34474 1.14834,20.60382 1.14834,20.91414 L1.14834,26.88 C1.14834,27.045 1.21626,27.20268 1.33614,27.31602 C1.44786,27.42162 1.5954,27.48 1.74828,27.48 C1.7595,27.48 1.77078,27.4797 1.782,27.47904 C5.91648,27.24648 9.07266,25.82358 11.16294,23.24982 C13.23126,20.70312 14.28,16.98174 14.28,12.18912 L14.28,3 C14.28,1.3458 12.9342,5.32907052e-14 11.28,5.32907052e-14 Z M13.08,12.18912 C13.08,20.98776 9.5679,25.58898 2.34834,26.23494 L2.34834,21.44478 C4.17306,21.16098 5.58444,20.31162 6.54876,18.91512 C7.5717,17.43372 8.0904,15.30882 8.0904,12.59928 C8.0904,12.26796 7.82178,11.99928 7.4904,11.99928 L3,11.99928 C2.00748,11.99928 1.2,11.1918 1.2,10.19928 L1.2,3 C1.2,2.00748 2.00748,1.2 3,1.2 L10.2,1.2 L10.2,5.64204 C10.2,5.97336 10.46862,6.24204 10.8,6.24204 C11.13138,6.24204 11.4,5.97336 11.4,5.64204 L11.4,1.20444 C12.33672,1.26648 13.08,2.04786 13.08,3 L13.08,12.18912 Z" id="Shape" fill="#000000" transform="translate(7.140000, 13.740000) scale(-1, 1) translate(-7.140000, -13.740000) "></path>
                <path d="M3.48,8.328 C3.14862,8.328 2.88,8.05932 2.88,7.728 C2.88,7.39668 3.14862,7.12506 3.48,7.12506 C3.81138,7.12506 4.08,7.39074 4.08,7.72206 L4.08,7.728 C4.08,8.05932 3.81132,8.328 3.48,8.328 Z" id="Path" fill="#000000" transform="translate(3.480000, 7.726530) scale(-1, 1) translate(-3.480000, -7.726530) "></path>
                <path d="M17.04,8.0925 C16.70862,8.0925 16.44,7.82382 16.44,7.4925 L16.44,7.47996 C16.44,7.14864 16.70862,6.87996 17.04,6.87996 C17.37138,6.87996 17.64,7.14864 17.64,7.47996 L17.64,7.4925 C17.64,7.82382 17.37138,8.0925 17.04,8.0925 Z" id="Path" fill="#000000" transform="translate(17.040000, 7.486230) scale(-1, 1) translate(-17.040000, -7.486230) "></path>
            </g>
            <g id="Group-15" transform="translate(291.500000, 559.000000) scale(-1, -1) translate(-291.500000, -559.000000) translate(276.000000, 545.000000)" fill-rule="nonzero">
                <path d="M1.74834,26.88 L1.74834,20.9142 C5.57676,20.56584 7.49046,17.7942 7.49046,12.59934 L3,12.59934 C1.67454,12.59934 0.6,11.5248 0.6,10.19934 L0.6,3 C0.6,1.67454 1.67454,0.6 3,0.6 L11.28,0.6 C12.60546,0.6 13.68,1.67454 13.68,3 L13.68,12.18918 C13.68,21.53526 9.70314,26.43258 1.74834,26.88 Z" id="Path" fill="#70C267" transform="translate(7.140000, 13.740000) scale(-1, 1) translate(-7.140000, -13.740000) "></path>
                <path d="M18.18834,26.88 L18.18834,20.9142 C22.01676,20.56584 23.93046,17.7942 23.93046,12.59934 L19.44,12.59934 C18.11454,12.59934 17.04,11.5248 17.04,10.19934 L17.04,3 C17.04,1.67454 18.11454,0.6 19.44,0.6 L27.72,0.6 C29.04546,0.6 30.12,1.67454 30.12,3 L30.12,12.18918 C30.12,21.53526 26.14314,26.43258 18.18834,26.88 Z" id="Path" fill="#70C267" transform="translate(23.580000, 13.740000) scale(-1, 1) translate(-23.580000, -13.740000) "></path>
                <path d="M18.18828,27.48 C18.0354,27.48 17.88786,27.42156 17.77614,27.31602 C17.65626,27.20268 17.58834,27.045 17.58834,26.88 L17.58834,20.91414 C17.58834,20.60382 17.82492,20.34474 18.13398,20.3166 C21.48426,20.0118 23.18496,17.68164 23.32152,13.19928 L19.44,13.19928 C17.7858,13.19928 16.44,11.85348 16.44,10.19928 L16.44,3 C16.44,1.3458 17.7858,5.32907052e-14 19.44,5.32907052e-14 L27.72,5.32907052e-14 C29.3742,5.32907052e-14 30.72,1.3458 30.72,3 L30.72,4.92 C30.72,5.25132 30.45138,5.52 30.12,5.52 C29.78862,5.52 29.52,5.25132 29.52,4.92 L29.52,3 C29.52,2.00748 28.71252,1.2 27.72,1.2 L19.44,1.2 C18.44748,1.2 17.64,2.00748 17.64,3 L17.64,10.19928 C17.64,11.1918 18.44748,11.99928 19.44,11.99928 L23.93046,11.99928 C24.26184,11.99928 24.53046,12.26796 24.53046,12.59928 C24.53046,15.30876 24.01176,17.43366 22.98882,18.91512 C22.02444,20.31162 20.61306,21.16098 18.7884,21.44478 L18.7884,26.23494 C26.0079,25.58898 29.52,20.98776 29.52,12.18912 L29.52,10.03998 C29.52,9.70866 29.78862,9.43998 30.12,9.43998 C30.45138,9.43998 30.72,9.70866 30.72,10.03998 L30.72,12.18912 C30.72,16.98174 29.67126,20.70306 27.60294,23.24982 C25.51266,25.82358 22.35648,27.24648 18.222,27.47904 C18.21078,27.4797 18.1995,27.48 18.18828,27.48 Z" id="Path" fill="#000000" transform="translate(23.580000, 13.740000) scale(-1, 1) translate(-23.580000, -13.740000) "></path>
                <path d="M11.28,5.32907052e-14 L3,5.32907052e-14 C1.3458,5.32907052e-14 -1.42108547e-14,1.3458 -1.42108547e-14,3 L-1.42108547e-14,10.19928 C-1.42108547e-14,11.85348 1.3458,13.19928 3,13.19928 L6.88152,13.19928 C6.74496,17.68164 5.04426,20.0118 1.69398,20.3166 C1.38498,20.34474 1.14834,20.60382 1.14834,20.91414 L1.14834,26.88 C1.14834,27.045 1.21626,27.20268 1.33614,27.31602 C1.44786,27.42162 1.5954,27.48 1.74828,27.48 C1.7595,27.48 1.77078,27.4797 1.782,27.47904 C5.91648,27.24648 9.07266,25.82358 11.16294,23.24982 C13.23126,20.70312 14.28,16.98174 14.28,12.18912 L14.28,3 C14.28,1.3458 12.9342,5.32907052e-14 11.28,5.32907052e-14 Z M13.08,12.18912 C13.08,20.98776 9.5679,25.58898 2.34834,26.23494 L2.34834,21.44478 C4.17306,21.16098 5.58444,20.31162 6.54876,18.91512 C7.5717,17.43372 8.0904,15.30882 8.0904,12.59928 C8.0904,12.26796 7.82178,11.99928 7.4904,11.99928 L3,11.99928 C2.00748,11.99928 1.2,11.1918 1.2,10.19928 L1.2,3 C1.2,2.00748 2.00748,1.2 3,1.2 L10.2,1.2 L10.2,5.64204 C10.2,5.97336 10.46862,6.24204 10.8,6.24204 C11.13138,6.24204 11.4,5.97336 11.4,5.64204 L11.4,1.20444 C12.33672,1.26648 13.08,2.04786 13.08,3 L13.08,12.18912 Z" id="Shape" fill="#000000" transform="translate(7.140000, 13.740000) scale(-1, 1) translate(-7.140000, -13.740000) "></path>
                <path d="M3.48,8.328 C3.14862,8.328 2.88,8.05932 2.88,7.728 C2.88,7.39668 3.14862,7.12506 3.48,7.12506 C3.81138,7.12506 4.08,7.39074 4.08,7.72206 L4.08,7.728 C4.08,8.05932 3.81132,8.328 3.48,8.328 Z" id="Path" fill="#000000" transform="translate(3.480000, 7.726530) scale(-1, 1) translate(-3.480000, -7.726530) "></path>
                <path d="M17.04,8.0925 C16.70862,8.0925 16.44,7.82382 16.44,7.4925 L16.44,7.47996 C16.44,7.14864 16.70862,6.87996 17.04,6.87996 C17.37138,6.87996 17.64,7.14864 17.64,7.47996 L17.64,7.4925 C17.64,7.82382 17.37138,8.0925 17.04,8.0925 Z" id="Path" fill="#000000" transform="translate(17.040000, 7.486230) scale(-1, 1) translate(-17.040000, -7.486230) "></path>
            </g>
            <g id="Rectangle">
                <use fill="black" fill-opacity="1" filter="url(#filter-4)" xlink:href="#path-3"></use>
                <use stroke="#EEEEEE" stroke-width="1" fill="#FFFFFF" fill-rule="evenodd" xlink:href="#path-3"></use>
            </g>
            <text id="As-an-consumer-and-e" font-family="ProductSans-Light, Product Sans Light" font-size="18" font-weight="normal" line-spacing="31">
                <tspan x="791" y="348" fill="#777777">As an </tspan>
                <tspan x="838.016" y="348" font-family="ProductSans-Medium, Product Sans Medium" fill="#3B8DEC">consumer and end-user</tspan>
                <tspan x="1029.95" y="348" fill="#777777">, I </tspan>
                <tspan x="791" y="379" fill="#777777">would like to quickly provide the </tspan>
                <tspan x="791" y="410" fill="#777777">configurations and deploy VM(s) </tspan>
                <tspan x="791" y="441" fill="#777777">with minimum number of clicks </tspan>
                <tspan x="791" y="472" fill="#777777">so that I can spend less time </tspan>
                <tspan x="791" y="503" fill="#777777">deploying VMs. </tspan>
            </text>
            <g id="interface-2" transform="translate(786.000000, 266.000000)" fill-rule="nonzero">
                <g id="interface" transform="translate(15.750000, 13.500000) scale(-1, 1) translate(-15.750000, -13.500000) translate(0.250000, 0.000000)">
                    <path d="M18.18834,25.92 L18.18834,20.1672643 C22.01676,19.8313457 23.93046,17.1586929 23.93046,12.1493636 L19.44,12.1493636 C18.11454,12.1493636 17.04,11.1132 17.04,9.83507786 L17.04,2.89285714 C17.04,1.614735 18.11454,0.578571429 19.44,0.578571429 L27.72,0.578571429 C29.04546,0.578571429 30.12,1.614735 30.12,2.89285714 L30.12,11.7538521 C30.12,20.7661436 26.14314,25.4885593 18.18834,25.92 Z" id="Path" fill="#56A4FF"></path>
                    <path d="M1.74834,25.92 L1.74834,20.1672643 C5.57676,19.8313457 7.49046,17.1586929 7.49046,12.1493636 L3,12.1493636 C1.67454,12.1493636 0.6,11.1132 0.6,9.83507786 L0.6,2.89285714 C0.6,1.614735 1.67454,0.578571429 3,0.578571429 L11.28,0.578571429 C12.60546,0.578571429 13.68,1.614735 13.68,2.89285714 L13.68,11.7538521 C13.68,20.7661436 9.70314,25.4885593 1.74834,25.92 Z" id="Path" fill="#56A4FF"></path>
                    <path d="M1.74828,26.4985714 C1.5954,26.4985714 1.44786,26.4422186 1.33614,26.3404479 C1.21626,26.2311557 1.14834,26.0791071 1.14834,25.92 L1.14834,20.1672064 C1.14834,19.8679693 1.38492,19.6181421 1.69398,19.5910071 C5.04426,19.2970929 6.74496,17.0501529 6.88152,12.7278771 L3,12.7278771 C1.3458,12.7278771 0,11.4301414 0,9.83502 L0,2.89285714 C0,1.29773571 1.3458,0 3,0 L11.28,0 C12.9342,0 14.28,1.29773571 14.28,2.89285714 L14.28,4.74428571 C14.28,5.06377286 14.01138,5.32285714 13.68,5.32285714 C13.34862,5.32285714 13.08,5.06377286 13.08,4.74428571 L13.08,2.89285714 C13.08,1.93578429 12.27252,1.15714286 11.28,1.15714286 L3,1.15714286 C2.00748,1.15714286 1.2,1.93578429 1.2,2.89285714 L1.2,9.83502 C1.2,10.7920929 2.00748,11.5707343 3,11.5707343 L7.49046,11.5707343 C7.82184,11.5707343 8.09046,11.8298186 8.09046,12.1493057 C8.09046,14.7620186 7.57176,16.8110293 6.54882,18.23958 C5.58444,19.586205 4.17306,20.4052307 2.3484,20.678895 L2.3484,25.2979779 C9.5679,24.6750879 13.08,20.2381971 13.08,11.7537943 L13.08,9.68140929 C13.08,9.36192214 13.34862,9.10283786 13.68,9.10283786 C14.01138,9.10283786 14.28,9.36192214 14.28,9.68140929 L14.28,11.7537943 C14.28,16.3752493 13.23126,19.963665 11.16294,22.4194693 C9.07266,24.9013093 5.91648,26.2733914 1.782,26.4976457 C1.77078,26.4982821 1.7595,26.4985714 1.74828,26.4985714 Z" id="Path" fill="#000000"></path>
                    <path d="M27.72,0 L19.44,0 C17.7858,0 16.44,1.29773571 16.44,2.89285714 L16.44,9.83502 C16.44,11.4301414 17.7858,12.7278771 19.44,12.7278771 L23.32152,12.7278771 C23.18496,17.0501529 21.48426,19.2970929 18.13398,19.5910071 C17.82498,19.6181421 17.58834,19.8679693 17.58834,20.1672064 L17.58834,25.92 C17.58834,26.0791071 17.65626,26.2311557 17.77614,26.3404479 C17.88786,26.4422764 18.0354,26.4985714 18.18828,26.4985714 C18.1995,26.4985714 18.21078,26.4982821 18.222,26.4976457 C22.35648,26.2733914 25.51266,24.9013093 27.60294,22.4194693 C29.67126,19.9637229 30.72,16.3752493 30.72,11.7537943 L30.72,2.89285714 C30.72,1.29773571 29.3742,0 27.72,0 Z M29.52,11.7537943 C29.52,20.2381971 26.0079,24.6750879 18.78834,25.2979779 L18.78834,20.678895 C20.61306,20.4052307 22.02444,19.586205 22.98876,18.23958 C24.0117,16.8110871 24.5304,14.7620764 24.5304,12.1493057 C24.5304,11.8298186 24.26178,11.5707343 23.9304,11.5707343 L19.44,11.5707343 C18.44748,11.5707343 17.64,10.7920929 17.64,9.83502 L17.64,2.89285714 C17.64,1.93578429 18.44748,1.15714286 19.44,1.15714286 L26.64,1.15714286 L26.64,5.44053857 C26.64,5.76002571 26.90862,6.01911 27.24,6.01911 C27.57138,6.01911 27.84,5.76002571 27.84,5.44053857 L27.84,1.16142429 C28.77672,1.22124857 29.52,1.97472214 29.52,2.89285714 L29.52,11.7537943 Z" id="Shape" fill="#000000"></path>
                    <path d="M27.24,8.03057143 C26.90862,8.03057143 26.64,7.77148714 26.64,7.452 C26.64,7.13251286 26.90862,6.87059357 27.24,6.87059357 C27.57138,6.87059357 27.84,7.126785 27.84,7.44627214 L27.84,7.452 C27.84,7.77148714 27.57132,8.03057143 27.24,8.03057143 Z" id="Path" fill="#000000"></path>
                    <path d="M13.68,7.80348214 C13.34862,7.80348214 13.08,7.54439786 13.08,7.22491071 L13.08,7.21281857 C13.08,6.89333143 13.34862,6.63424714 13.68,6.63424714 C14.01138,6.63424714 14.28,6.89333143 14.28,7.21281857 L14.28,7.22491071 C14.28,7.54439786 14.01138,7.80348214 13.68,7.80348214 Z" id="Path" fill="#000000"></path>
                </g>
            </g>
            <g id="interface-2" transform="translate(1032.000000, 559.500000) scale(-1, -1) translate(-1032.000000, -559.500000) translate(1016.000000, 546.000000)" fill-rule="nonzero">
                <g id="interface" transform="translate(15.750000, 13.500000) scale(-1, 1) translate(-15.750000, -13.500000) translate(0.250000, 0.000000)">
                    <path d="M18.18834,25.92 L18.18834,20.1672643 C22.01676,19.8313457 23.93046,17.1586929 23.93046,12.1493636 L19.44,12.1493636 C18.11454,12.1493636 17.04,11.1132 17.04,9.83507786 L17.04,2.89285714 C17.04,1.614735 18.11454,0.578571429 19.44,0.578571429 L27.72,0.578571429 C29.04546,0.578571429 30.12,1.614735 30.12,2.89285714 L30.12,11.7538521 C30.12,20.7661436 26.14314,25.4885593 18.18834,25.92 Z" id="Path" fill="#56A4FF"></path>
                    <path d="M1.74834,25.92 L1.74834,20.1672643 C5.57676,19.8313457 7.49046,17.1586929 7.49046,12.1493636 L3,12.1493636 C1.67454,12.1493636 0.6,11.1132 0.6,9.83507786 L0.6,2.89285714 C0.6,1.614735 1.67454,0.578571429 3,0.578571429 L11.28,0.578571429 C12.60546,0.578571429 13.68,1.614735 13.68,2.89285714 L13.68,11.7538521 C13.68,20.7661436 9.70314,25.4885593 1.74834,25.92 Z" id="Path" fill="#56A4FF"></path>
                    <path d="M1.74828,26.4985714 C1.5954,26.4985714 1.44786,26.4422186 1.33614,26.3404479 C1.21626,26.2311557 1.14834,26.0791071 1.14834,25.92 L1.14834,20.1672064 C1.14834,19.8679693 1.38492,19.6181421 1.69398,19.5910071 C5.04426,19.2970929 6.74496,17.0501529 6.88152,12.7278771 L3,12.7278771 C1.3458,12.7278771 0,11.4301414 0,9.83502 L0,2.89285714 C0,1.29773571 1.3458,0 3,0 L11.28,0 C12.9342,0 14.28,1.29773571 14.28,2.89285714 L14.28,4.74428571 C14.28,5.06377286 14.01138,5.32285714 13.68,5.32285714 C13.34862,5.32285714 13.08,5.06377286 13.08,4.74428571 L13.08,2.89285714 C13.08,1.93578429 12.27252,1.15714286 11.28,1.15714286 L3,1.15714286 C2.00748,1.15714286 1.2,1.93578429 1.2,2.89285714 L1.2,9.83502 C1.2,10.7920929 2.00748,11.5707343 3,11.5707343 L7.49046,11.5707343 C7.82184,11.5707343 8.09046,11.8298186 8.09046,12.1493057 C8.09046,14.7620186 7.57176,16.8110293 6.54882,18.23958 C5.58444,19.586205 4.17306,20.4052307 2.3484,20.678895 L2.3484,25.2979779 C9.5679,24.6750879 13.08,20.2381971 13.08,11.7537943 L13.08,9.68140929 C13.08,9.36192214 13.34862,9.10283786 13.68,9.10283786 C14.01138,9.10283786 14.28,9.36192214 14.28,9.68140929 L14.28,11.7537943 C14.28,16.3752493 13.23126,19.963665 11.16294,22.4194693 C9.07266,24.9013093 5.91648,26.2733914 1.782,26.4976457 C1.77078,26.4982821 1.7595,26.4985714 1.74828,26.4985714 Z" id="Path" fill="#000000"></path>
                    <path d="M27.72,0 L19.44,0 C17.7858,0 16.44,1.29773571 16.44,2.89285714 L16.44,9.83502 C16.44,11.4301414 17.7858,12.7278771 19.44,12.7278771 L23.32152,12.7278771 C23.18496,17.0501529 21.48426,19.2970929 18.13398,19.5910071 C17.82498,19.6181421 17.58834,19.8679693 17.58834,20.1672064 L17.58834,25.92 C17.58834,26.0791071 17.65626,26.2311557 17.77614,26.3404479 C17.88786,26.4422764 18.0354,26.4985714 18.18828,26.4985714 C18.1995,26.4985714 18.21078,26.4982821 18.222,26.4976457 C22.35648,26.2733914 25.51266,24.9013093 27.60294,22.4194693 C29.67126,19.9637229 30.72,16.3752493 30.72,11.7537943 L30.72,2.89285714 C30.72,1.29773571 29.3742,0 27.72,0 Z M29.52,11.7537943 C29.52,20.2381971 26.0079,24.6750879 18.78834,25.2979779 L18.78834,20.678895 C20.61306,20.4052307 22.02444,19.586205 22.98876,18.23958 C24.0117,16.8110871 24.5304,14.7620764 24.5304,12.1493057 C24.5304,11.8298186 24.26178,11.5707343 23.9304,11.5707343 L19.44,11.5707343 C18.44748,11.5707343 17.64,10.7920929 17.64,9.83502 L17.64,2.89285714 C17.64,1.93578429 18.44748,1.15714286 19.44,1.15714286 L26.64,1.15714286 L26.64,5.44053857 C26.64,5.76002571 26.90862,6.01911 27.24,6.01911 C27.57138,6.01911 27.84,5.76002571 27.84,5.44053857 L27.84,1.16142429 C28.77672,1.22124857 29.52,1.97472214 29.52,2.89285714 L29.52,11.7537943 Z" id="Shape" fill="#000000"></path>
                    <path d="M27.24,8.03057143 C26.90862,8.03057143 26.64,7.77148714 26.64,7.452 C26.64,7.13251286 26.90862,6.87059357 27.24,6.87059357 C27.57138,6.87059357 27.84,7.126785 27.84,7.44627214 L27.84,7.452 C27.84,7.77148714 27.57132,8.03057143 27.24,8.03057143 Z" id="Path" fill="#000000"></path>
                    <path d="M13.68,7.80348214 C13.34862,7.80348214 13.08,7.54439786 13.08,7.22491071 L13.08,7.21281857 C13.08,6.89333143 13.34862,6.63424714 13.68,6.63424714 C14.01138,6.63424714 14.28,6.89333143 14.28,7.21281857 L14.28,7.22491071 C14.28,7.54439786 14.01138,7.80348214 13.68,7.80348214 Z" id="Path" fill="#000000"></path>
                </g>
            </g>
            <g id="Rectangle">
                <use fill="black" fill-opacity="1" filter="url(#filter-6)" xlink:href="#path-5"></use>
                <use stroke="#EEEEEE" stroke-width="1" fill="#FFFFFF" fill-rule="evenodd" xlink:href="#path-5"></use>
            </g>
            <text id="As-a-beginner,-I-wou" font-family="ProductSans-Light, Product Sans Light" font-size="18" font-weight="normal" line-spacing="31">
                <tspan x="419" y="334" fill="#777777">As a </tspan>
                <tspan x="456.386" y="334" font-family="ProductSans-Medium, Product Sans Medium" fill="#E57063">beginner</tspan>
                <tspan x="528.602" y="334" fill="#777777">, I would like to </tspan>
                <tspan x="419" y="365" fill="#777777">create a VM easily without going </tspan>
                <tspan x="419" y="396" fill="#777777">through the hassle of researching </tspan>
                <tspan x="419" y="427" fill="#777777">the best fit for my app so that I </tspan>
                <tspan x="419" y="458" fill="#777777">am not blocked on creating the </tspan>
                <tspan x="419" y="489" fill="#777777">VM until I learn about the config </tspan>
                <tspan x="419" y="520" fill="#777777">details. </tspan>
            </text>
            <g id="Group-14" transform="translate(417.000000, 265.000000)" fill-rule="nonzero">
                <path d="M1.74834,26.88 L1.74834,20.9142 C5.57676,20.56584 7.49046,17.7942 7.49046,12.59934 L3,12.59934 C1.67454,12.59934 0.6,11.5248 0.6,10.19934 L0.6,3 C0.6,1.67454 1.67454,0.6 3,0.6 L11.28,0.6 C12.60546,0.6 13.68,1.67454 13.68,3 L13.68,12.18918 C13.68,21.53526 9.70314,26.43258 1.74834,26.88 Z" id="Path" fill="#E57063" transform="translate(7.140000, 13.740000) scale(-1, 1) translate(-7.140000, -13.740000) "></path>
                <path d="M18.18834,26.88 L18.18834,20.9142 C22.01676,20.56584 23.93046,17.7942 23.93046,12.59934 L19.44,12.59934 C18.11454,12.59934 17.04,11.5248 17.04,10.19934 L17.04,3 C17.04,1.67454 18.11454,0.6 19.44,0.6 L27.72,0.6 C29.04546,0.6 30.12,1.67454 30.12,3 L30.12,12.18918 C30.12,21.53526 26.14314,26.43258 18.18834,26.88 Z" id="Path" fill="#E57063" transform="translate(23.580000, 13.740000) scale(-1, 1) translate(-23.580000, -13.740000) "></path>
                <path d="M18.18828,27.48 C18.0354,27.48 17.88786,27.42156 17.77614,27.31602 C17.65626,27.20268 17.58834,27.045 17.58834,26.88 L17.58834,20.91414 C17.58834,20.60382 17.82492,20.34474 18.13398,20.3166 C21.48426,20.0118 23.18496,17.68164 23.32152,13.19928 L19.44,13.19928 C17.7858,13.19928 16.44,11.85348 16.44,10.19928 L16.44,3 C16.44,1.3458 17.7858,5.32907052e-14 19.44,5.32907052e-14 L27.72,5.32907052e-14 C29.3742,5.32907052e-14 30.72,1.3458 30.72,3 L30.72,4.92 C30.72,5.25132 30.45138,5.52 30.12,5.52 C29.78862,5.52 29.52,5.25132 29.52,4.92 L29.52,3 C29.52,2.00748 28.71252,1.2 27.72,1.2 L19.44,1.2 C18.44748,1.2 17.64,2.00748 17.64,3 L17.64,10.19928 C17.64,11.1918 18.44748,11.99928 19.44,11.99928 L23.93046,11.99928 C24.26184,11.99928 24.53046,12.26796 24.53046,12.59928 C24.53046,15.30876 24.01176,17.43366 22.98882,18.91512 C22.02444,20.31162 20.61306,21.16098 18.7884,21.44478 L18.7884,26.23494 C26.0079,25.58898 29.52,20.98776 29.52,12.18912 L29.52,10.03998 C29.52,9.70866 29.78862,9.43998 30.12,9.43998 C30.45138,9.43998 30.72,9.70866 30.72,10.03998 L30.72,12.18912 C30.72,16.98174 29.67126,20.70306 27.60294,23.24982 C25.51266,25.82358 22.35648,27.24648 18.222,27.47904 C18.21078,27.4797 18.1995,27.48 18.18828,27.48 Z" id="Path" fill="#000000" transform="translate(23.580000, 13.740000) scale(-1, 1) translate(-23.580000, -13.740000) "></path>
                <path d="M11.28,5.32907052e-14 L3,5.32907052e-14 C1.3458,5.32907052e-14 -1.42108547e-14,1.3458 -1.42108547e-14,3 L-1.42108547e-14,10.19928 C-1.42108547e-14,11.85348 1.3458,13.19928 3,13.19928 L6.88152,13.19928 C6.74496,17.68164 5.04426,20.0118 1.69398,20.3166 C1.38498,20.34474 1.14834,20.60382 1.14834,20.91414 L1.14834,26.88 C1.14834,27.045 1.21626,27.20268 1.33614,27.31602 C1.44786,27.42162 1.5954,27.48 1.74828,27.48 C1.7595,27.48 1.77078,27.4797 1.782,27.47904 C5.91648,27.24648 9.07266,25.82358 11.16294,23.24982 C13.23126,20.70312 14.28,16.98174 14.28,12.18912 L14.28,3 C14.28,1.3458 12.9342,5.32907052e-14 11.28,5.32907052e-14 Z M13.08,12.18912 C13.08,20.98776 9.5679,25.58898 2.34834,26.23494 L2.34834,21.44478 C4.17306,21.16098 5.58444,20.31162 6.54876,18.91512 C7.5717,17.43372 8.0904,15.30882 8.0904,12.59928 C8.0904,12.26796 7.82178,11.99928 7.4904,11.99928 L3,11.99928 C2.00748,11.99928 1.2,11.1918 1.2,10.19928 L1.2,3 C1.2,2.00748 2.00748,1.2 3,1.2 L10.2,1.2 L10.2,5.64204 C10.2,5.97336 10.46862,6.24204 10.8,6.24204 C11.13138,6.24204 11.4,5.97336 11.4,5.64204 L11.4,1.20444 C12.33672,1.26648 13.08,2.04786 13.08,3 L13.08,12.18912 Z" id="Shape" fill="#000000" transform="translate(7.140000, 13.740000) scale(-1, 1) translate(-7.140000, -13.740000) "></path>
                <path d="M3.48,8.328 C3.14862,8.328 2.88,8.05932 2.88,7.728 C2.88,7.39668 3.14862,7.12506 3.48,7.12506 C3.81138,7.12506 4.08,7.39074 4.08,7.72206 L4.08,7.728 C4.08,8.05932 3.81132,8.328 3.48,8.328 Z" id="Path" fill="#000000" transform="translate(3.480000, 7.726530) scale(-1, 1) translate(-3.480000, -7.726530) "></path>
                <path d="M17.04,8.0925 C16.70862,8.0925 16.44,7.82382 16.44,7.4925 L16.44,7.47996 C16.44,7.14864 16.70862,6.87996 17.04,6.87996 C17.37138,6.87996 17.64,7.14864 17.64,7.47996 L17.64,7.4925 C17.64,7.82382 17.37138,8.0925 17.04,8.0925 Z" id="Path" fill="#000000" transform="translate(17.040000, 7.486230) scale(-1, 1) translate(-17.040000, -7.486230) "></path>
            </g>
            <g id="Group-14" transform="translate(660.500000, 559.000000) scale(-1, -1) translate(-660.500000, -559.000000) translate(645.000000, 545.000000)" fill-rule="nonzero">
                <path d="M1.74834,26.88 L1.74834,20.9142 C5.57676,20.56584 7.49046,17.7942 7.49046,12.59934 L3,12.59934 C1.67454,12.59934 0.6,11.5248 0.6,10.19934 L0.6,3 C0.6,1.67454 1.67454,0.6 3,0.6 L11.28,0.6 C12.60546,0.6 13.68,1.67454 13.68,3 L13.68,12.18918 C13.68,21.53526 9.70314,26.43258 1.74834,26.88 Z" id="Path" fill="#E57063" transform="translate(7.140000, 13.740000) scale(-1, 1) translate(-7.140000, -13.740000) "></path>
                <path d="M18.18834,26.88 L18.18834,20.9142 C22.01676,20.56584 23.93046,17.7942 23.93046,12.59934 L19.44,12.59934 C18.11454,12.59934 17.04,11.5248 17.04,10.19934 L17.04,3 C17.04,1.67454 18.11454,0.6 19.44,0.6 L27.72,0.6 C29.04546,0.6 30.12,1.67454 30.12,3 L30.12,12.18918 C30.12,21.53526 26.14314,26.43258 18.18834,26.88 Z" id="Path" fill="#E57063" transform="translate(23.580000, 13.740000) scale(-1, 1) translate(-23.580000, -13.740000) "></path>
                <path d="M18.18828,27.48 C18.0354,27.48 17.88786,27.42156 17.77614,27.31602 C17.65626,27.20268 17.58834,27.045 17.58834,26.88 L17.58834,20.91414 C17.58834,20.60382 17.82492,20.34474 18.13398,20.3166 C21.48426,20.0118 23.18496,17.68164 23.32152,13.19928 L19.44,13.19928 C17.7858,13.19928 16.44,11.85348 16.44,10.19928 L16.44,3 C16.44,1.3458 17.7858,5.32907052e-14 19.44,5.32907052e-14 L27.72,5.32907052e-14 C29.3742,5.32907052e-14 30.72,1.3458 30.72,3 L30.72,4.92 C30.72,5.25132 30.45138,5.52 30.12,5.52 C29.78862,5.52 29.52,5.25132 29.52,4.92 L29.52,3 C29.52,2.00748 28.71252,1.2 27.72,1.2 L19.44,1.2 C18.44748,1.2 17.64,2.00748 17.64,3 L17.64,10.19928 C17.64,11.1918 18.44748,11.99928 19.44,11.99928 L23.93046,11.99928 C24.26184,11.99928 24.53046,12.26796 24.53046,12.59928 C24.53046,15.30876 24.01176,17.43366 22.98882,18.91512 C22.02444,20.31162 20.61306,21.16098 18.7884,21.44478 L18.7884,26.23494 C26.0079,25.58898 29.52,20.98776 29.52,12.18912 L29.52,10.03998 C29.52,9.70866 29.78862,9.43998 30.12,9.43998 C30.45138,9.43998 30.72,9.70866 30.72,10.03998 L30.72,12.18912 C30.72,16.98174 29.67126,20.70306 27.60294,23.24982 C25.51266,25.82358 22.35648,27.24648 18.222,27.47904 C18.21078,27.4797 18.1995,27.48 18.18828,27.48 Z" id="Path" fill="#000000" transform="translate(23.580000, 13.740000) scale(-1, 1) translate(-23.580000, -13.740000) "></path>
                <path d="M11.28,5.32907052e-14 L3,5.32907052e-14 C1.3458,5.32907052e-14 -1.42108547e-14,1.3458 -1.42108547e-14,3 L-1.42108547e-14,10.19928 C-1.42108547e-14,11.85348 1.3458,13.19928 3,13.19928 L6.88152,13.19928 C6.74496,17.68164 5.04426,20.0118 1.69398,20.3166 C1.38498,20.34474 1.14834,20.60382 1.14834,20.91414 L1.14834,26.88 C1.14834,27.045 1.21626,27.20268 1.33614,27.31602 C1.44786,27.42162 1.5954,27.48 1.74828,27.48 C1.7595,27.48 1.77078,27.4797 1.782,27.47904 C5.91648,27.24648 9.07266,25.82358 11.16294,23.24982 C13.23126,20.70312 14.28,16.98174 14.28,12.18912 L14.28,3 C14.28,1.3458 12.9342,5.32907052e-14 11.28,5.32907052e-14 Z M13.08,12.18912 C13.08,20.98776 9.5679,25.58898 2.34834,26.23494 L2.34834,21.44478 C4.17306,21.16098 5.58444,20.31162 6.54876,18.91512 C7.5717,17.43372 8.0904,15.30882 8.0904,12.59928 C8.0904,12.26796 7.82178,11.99928 7.4904,11.99928 L3,11.99928 C2.00748,11.99928 1.2,11.1918 1.2,10.19928 L1.2,3 C1.2,2.00748 2.00748,1.2 3,1.2 L10.2,1.2 L10.2,5.64204 C10.2,5.97336 10.46862,6.24204 10.8,6.24204 C11.13138,6.24204 11.4,5.97336 11.4,5.64204 L11.4,1.20444 C12.33672,1.26648 13.08,2.04786 13.08,3 L13.08,12.18912 Z" id="Shape" fill="#000000" transform="translate(7.140000, 13.740000) scale(-1, 1) translate(-7.140000, -13.740000) "></path>
                <path d="M3.48,8.328 C3.14862,8.328 2.88,8.05932 2.88,7.728 C2.88,7.39668 3.14862,7.12506 3.48,7.12506 C3.81138,7.12506 4.08,7.39074 4.08,7.72206 L4.08,7.728 C4.08,8.05932 3.81132,8.328 3.48,8.328 Z" id="Path" fill="#000000" transform="translate(3.480000, 7.726530) scale(-1, 1) translate(-3.480000, -7.726530) "></path>
                <path d="M17.04,8.0925 C16.70862,8.0925 16.44,7.82382 16.44,7.4925 L16.44,7.47996 C16.44,7.14864 16.70862,6.87996 17.04,6.87996 C17.37138,6.87996 17.64,7.14864 17.64,7.47996 L17.64,7.4925 C17.64,7.82382 17.37138,8.0925 17.04,8.0925 Z" id="Path" fill="#000000" transform="translate(17.040000, 7.486230) scale(-1, 1) translate(-17.040000, -7.486230) "></path>
            </g>
            <g id="woman" opacity="0.8" transform="translate(888.000000, 105.000000)" fill-rule="nonzero">
                <path d="M51.7413869,25.3071209 L52.0269966,23.5738472 C52.760848,19.1397634 52.1655349,14.5876306 50.3136728,10.4888795 L50.3136728,10.4888795 C48.5590217,6.55479778 44.6456496,4.01166401 40.3198417,3.99617944 L40.3198417,3.99617944 L36.0366995,2.30552995 C33.2297932,0.908920944 29.9560731,0.774055267 27.0422514,1.9360646 L27.0422514,1.9360646 C17.0554476,5.78772843 10.7293676,15.6362528 11.4090083,26.2733252 L11.4090083,26.2733252 C11.6430845,30.3039775 10.8893224,34.3317992 9.21029854,38.0086371 L9.21029854,38.0086371 C6.37059819,44.2144563 7.07868279,51.4587411 11.0663436,57.0038849 L11.765895,57.9842419 C11.765895,57.9842419 17.4767513,65.088 33.1814387,65.088 C48.886126,65.088 53.3548225,54.219325 53.3548225,54.219325 C55.0651346,50.2497785 55.1722174,45.7772331 53.6546542,41.7310963 L53.6546542,41.7310963 C52.3853891,38.385262 51.7372039,34.8362967 51.7415542,31.2601917 L51.7415542,30.9902939" id="Path" fill="#FECB66"></path>
                <path d="M28.7266848,12.672 C23.6291234,16.7086821 17.622206,19.5069117 11.2016533,20.8355924 C10.858618,22.7498493 10.747651,24.6949521 10.8701032,26.6346114 C11.1063939,30.6277464 10.3455008,34.6180773 8.65059244,38.2606913 L8.65059244,38.2606913 C5.78402695,44.4087468 6.49881043,51.585602 10.5241967,57.0791317 L11.2014844,58.0503635 C11.2014844,58.0503635 16.4186268,64.3841539 30.528,65.088 C26.6946527,38.204278 27.6170139,21.2156396 28.7266848,12.672 Z" id="Path" fill="#F5AD76"></path>
                <path d="M55.531293,61.4133762 L55.872,61.0730059 C55.1920832,60.779503 54.4765651,60.5780729 53.7427474,60.4773578 L40.9668991,58.8890184 C39.5388575,58.7088615 38.4713199,57.4908078 38.4826324,56.05271 L38.4826324,47.232 L24.3013676,47.232 L24.3013676,56.0670029 C24.3126801,57.5049345 23.2453089,58.7231544 21.8171009,58.9033113 L9.0412526,60.4916507 C8.3072685,60.5923658 7.59191682,60.7937959 6.912,61.0872988 L7.26684771,61.4135424 C20.5481003,74.7283703 42.1194471,74.7652659 55.4474471,61.4971392 C55.4745639,61.4687196 55.5030116,61.4403 55.531293,61.4133762 Z" id="Path" fill="#FEDAC6"></path>
                <path d="M55.6931192,61.056 L55.3507935,61.3927971 C42.0064404,74.5678471 20.3326062,74.6043554 6.94128361,61.4755164 C6.91270075,61.4473951 6.88562225,61.4207539 6.85720653,61.3927971 L6.51488077,61.056 C3.28719009,62.3342833 1.16771222,65.4075571 1.152,68.829962 L1.152,85.248 L61.056,85.248 L61.056,68.829962 C61.0402878,65.406077 58.9208099,62.3329676 55.6931192,61.056 Z" id="Path" fill="#8AB5FF"></path>
                <path d="M38.592,53.7668769 L38.592,47.232 L24.768,47.232 L24.768,53.7668769 C29.9521013,56.5737077 33.4080608,56.5737077 38.592,53.7668769 Z" id="Path" fill="#F5C4B0"></path>
                <g id="Group" transform="translate(15.552000, 8.064000)" fill="#FEDAC6">
                    <path d="M33.1150054,15.9373578 L31.6759265,15.9373578 L31.6759265,24.4303258 L33.1150054,24.4303258 C35.4995286,24.4303258 37.4322422,22.5292493 37.4322422,20.1837588 C37.4322422,17.8382684 35.4980108,15.9373578 33.1150054,15.9373578 Z" id="Path"></path>
                    <path d="M31.6759265,15.9373578 C25.9196108,13.1063132 24.4805319,3.19782298 24.4805319,3.19782298 L20.1632951,4.61334528 C20.1632951,4.61334528 18.7242162,-1.04874394 14.4069795,0.366778368 C8.78018595,2.20697395 12.9679005,8.8597463 7.21158486,13.1063132 C4.95658378,14.7441254 2.54608865,16.1652879 0.0161902703,17.3528801 L0.807658378,27.2613704 C1.16165189,35.1783752 7.79004973,41.4164275 15.8458897,41.4164275 L15.8458897,41.4164275 C23.9017297,41.4164275 30.5301276,35.1782093 30.8841211,27.2613704 L31.6759265,15.9373578 Z" id="Path"></path>
                </g>
                <path d="M21.6894617,28.1225897 L21.6894617,22.464 C19.9681655,23.6564949 18.0982682,24.6071088 16.128,25.2932949 L16.8926765,35.1956611 C17.1902046,41.8570872 21.8297529,47.4944564 28.224,48.96 L26.3888089,45.4659054 C21.6894617,39.4396035 21.6894617,34.728975 21.6894617,28.1225897 Z" id="Path" fill="#F5C4B0"></path>
                <path d="M1.152,68.2394091 L1.152,85.248 L6.912,85.248 L6.912,59.904 C2.592,61.3120183 1.152,64.128055 1.152,68.2394091 Z" id="Path" fill="#5C94F5"></path>
                <ellipse id="Oval" fill="#000000" cx="39.744" cy="26.784" rx="2.88" ry="3.168"></ellipse>
                <path d="M2.81455565,85.248 L0.000288050297,85.248 L0.000288050297,67.2413743 C-0.0376400844,62.215145 3.67420506,57.9487737 8.6356998,57.3278269 L21.2997391,55.7398183 C22.0047077,55.6504232 22.5337227,55.0407754 22.5296001,54.3219593 L22.5296001,48.384 L25.344,48.384 L25.344,54.3106603 C25.360688,56.4573051 23.7721587,58.2862484 21.6501621,58.552772 L8.98463864,60.1407806 C5.440172,60.5845989 2.78916029,63.6330039 2.81587489,67.2300753 L2.81587489,85.248 L2.81455565,85.248 L2.81455565,85.248 Z" id="Path" fill="#000000"></path>
                <path d="M62.7837094,85.248 L59.9692956,85.248 L59.9692956,67.3123254 C59.9974958,63.703955 57.3448622,60.6570454 53.8015307,60.2117317 L41.1368334,58.6237231 C39.0119229,58.3571995 37.4233112,56.5267607 37.44,54.3701463 L37.44,48.384 L40.2545462,48.384 L40.2545462,54.380116 C40.2489391,55.1102311 40.7779816,55.720045 41.4844711,55.8092739 L54.147849,57.3972826 C59.1096015,58.0182293 62.8218045,62.2859299 62.7837094,67.3221289 L62.7837094,85.248 L62.7837094,85.248 Z" id="Path" fill="#000000"></path>
                <path d="M48.1536,33.984 L46.656,33.984 L46.656,31.248 L48.1536,31.248 C49.8054705,31.248 51.1488,30.0209202 51.1488,28.512 C51.1488,27.0030798 49.8054705,25.776 48.1536,25.776 L46.656,25.776 L46.656,23.04 L48.1536,23.04 C51.4573411,23.04 54.144,25.4941596 54.144,28.512 C54.144,31.5298404 51.4573411,33.984 48.1536,33.984 Z" id="Path" fill="#000000"></path>
                <ellipse id="Oval" fill="#000000" cx="23.04" cy="26.784" rx="2.88" ry="3.168"></ellipse>
                <path d="M31.3916046,51.264 C22.6846745,51.264 15.5636739,44.414341 15.1800107,35.6684309 L14.4040553,25.7539415 C14.3743513,25.3582428 14.5087661,24.9667145 14.7764342,24.6764465 C15.0114113,24.4217112 15.3286968,24.2622306 15.6685507,24.2266978 C15.8625395,24.1796543 17.4313767,23.71289 22.046121,20.2338437 C24.3824504,18.473051 24.7166622,16.2651787 25.0706213,13.9293549 C25.4614201,11.3471369 25.9059848,8.4206009 29.5282164,7.21065018 C30.9598176,6.73237516 32.3574003,6.82913118 33.5666362,7.49674772 C35.0888431,8.33652325 36.0063489,9.8839523 36.5076666,11.0396863 L39.4387403,10.0574459 C39.8423168,9.9249902 40.2741038,9.97637098 40.6310499,10.196908 C40.9878301,10.4176118 41.2286152,10.7876202 41.2895168,11.204672 C41.3022945,11.2972575 42.6743218,20.4685605 47.6005435,22.9453478 C48.1116518,23.202919 48.4189806,23.7439186 48.3808134,24.3161137 L47.602037,35.7037969 C47.2210289,44.4130065 40.1000282,51.264 31.3916046,51.264 Z M17.3153816,26.6424287 L18.0078671,35.4936027 C18.3264801,42.7618149 24.2042263,48.4172043 31.3932641,48.4172043 C38.5823019,48.4172043 44.4600481,42.7618149 44.77584,35.5433153 L45.4952085,25.0097543 C41.2827131,22.2809008 39.4616406,16.2213048 38.8031737,13.2719144 L36.0886573,14.1815878 C35.7119638,14.3068702 35.3042387,14.2685014 34.9587427,14.0791599 C34.6132468,13.8884838 34.3626709,13.5610147 34.2677508,13.1766598 C34.0978239,12.5147151 33.3955477,10.6443212 32.200417,9.98954982 C31.679352,9.70478684 31.1143118,9.67926327 30.4261409,9.9113109 C28.5315551,10.5447292 28.2610659,11.8017234 27.8730882,14.3595855 C27.489425,16.8962615 27.0106758,20.0520091 23.7483773,22.5117807 C21.009633,24.572684 18.8063909,25.9848214 17.3153816,26.6424287 Z" id="Shape" fill="#000000"></path>
                <path d="M10.8286913,59.328 L10.1354537,58.3434236 C5.90522867,52.3819539 5.14832132,44.5285859 8.16185715,37.8509239 C9.72375578,34.3836699 10.4340715,30.5411799 10.2162015,26.7399926 C9.51168907,15.3651921 16.130193,4.97195808 26.6846152,0.882655106 C29.9259694,-0.427159257 33.5987525,-0.274489716 36.7368091,1.30922685 L40.5624659,2.86016879 C45.2879553,2.9857491 49.5508443,5.85235801 51.4748646,10.2240913 C53.4131443,14.6117102 54.0214889,19.4387766 53.2320835,24.1800605 L52.9973012,25.8808293 L50.1959979,25.4883699 L50.4365834,23.7476361 C51.1397694,19.521382 50.6020584,15.2593434 48.8902706,11.3839116 C47.3777823,7.94943217 43.9964874,5.72360057 40.2726358,5.70938708 C40.0929014,5.70938708 39.9161515,5.67376976 39.7491843,5.60521061 L35.5754993,3.90728452 C33.052917,2.64027783 30.2260794,2.52188786 27.7175906,3.53773393 C18.3034208,7.18474673 12.4121448,16.4363871 13.0403862,26.5670897 C13.2851168,30.8361515 12.4885816,35.1438404 10.7384925,39.0319808 C8.14229197,44.7835926 8.79308306,51.5483749 12.4404977,56.6878035 L13.136554,57.6780653 L10.8286913,59.328 Z" id="Path" fill="#000000"></path>
                <path d="M52.816228,58.752 L50.2247495,57.6328467 L51.8161791,53.8546598 C53.3696467,50.1890901 53.4653768,46.1156593 52.0880194,42.3817507 C50.7725565,38.8530258 50.1078928,35.1490259 50.112,31.3735124 L50.112,31.104 L52.9287933,31.104 L52.9287933,31.3748491 C52.924502,34.8051594 53.5302422,38.171308 54.724392,41.3792246 C56.3580749,45.8075496 56.2440241,50.6352142 54.4046867,54.9764866 L52.816228,58.752 Z" id="Path" fill="#000000"></path>
                <path d="M31.6500603,71.424 C22.4702289,71.424 13.3046544,67.8770014 6.336,60.7977771 L8.36401648,58.752 C21.1763641,71.7690381 42.0606903,71.805206 54.9173184,58.8345239 L57.024,60.7993054 C49.9983176,67.8858312 40.8171443,71.424 31.6500603,71.424 Z" id="Path" fill="#000000"></path>
                <path d="M30.27486,14.976 C29.404979,13.373121 28.0973448,12.0668505 26.496,11.19714 L27.8835821,8.64 C29.980979,9.77887422 31.6931258,11.4894868 32.832,13.5884179 L30.27486,14.976 Z" id="Path" fill="#000000"></path>
            </g>
            <g id="Group-4" transform="translate(515.000000, 105.000000)" fill-rule="nonzero">
                <path d="M31.3567307,67.392 C36.485075,67.3948668 41.1214656,64.2730008 43.1416474,59.4575647 L43.776,58.0176251 L40.8862265,57.6720261 C39.4624023,57.4963579 38.3954014,56.2565552 38.405148,54.7919782 L38.405148,47.232 L24.3084785,47.232 L24.3084785,54.7487783 C24.3183903,56.2131866 23.2512242,57.453158 21.8274,57.6288262 L19.008,57.9744252 L19.6423526,59.4143648 C21.6384158,64.2225447 26.2437496,67.3575731 31.3567307,67.392 Z" id="Path" fill="#FEDAC6"></path>
                <path d="M51.7334657,59.071138 L44.2454657,58.176 L43.6036371,59.6196236 C40.7724043,66.2850264 33.13899,69.3659861 26.5538957,66.5002249 C23.5017,65.171983 21.0697714,62.7090423 19.7561957,59.6196236 L19.1143671,58.176 L11.6263671,59.071138 C5.95838571,59.8376982 1.728,64.7317733 1.728,70.5194638 L1.728,86.4 L61.632,86.4 L61.632,70.5194638 C61.632,64.7317733 57.3999429,59.8376982 51.7334657,59.071138 Z" id="Path" fill="#E88484"></path>
                <path d="M1.152,70.4892986 L1.152,86.4 L7.488,86.4 L7.488,60.48 C3.57071737,62.5440333 1.15664067,66.3583505 1.152,70.4892986 Z" id="Path" fill="#D45B5B"></path>
                <rect id="Rectangle" fill="#FEDAC6" x="1.728" y="78.912" width="10.944" height="7.488"></rect>
                <g id="Group" transform="translate(1.152000, 46.656000)" fill="#F5C4B0">
                    <rect id="Rectangle" x="0.134649686" y="31.9473569" width="5.73067049" height="7.23754694"></rect>
                    <path d="M37.3844276,5.8923915 L37.3844276,0.102455723 L23.0576674,0.102455723 L23.0576674,5.8923915 C28.4300556,8.7874442 32.0118716,8.7874442 37.3844276,5.8923915 Z" id="Path"></path>
                </g>
                <g id="Group" transform="translate(16.128000, 14.400000)" fill="#FEDAC6">
                    <rect id="Rectangle" x="34.0341688" y="64.6548224" width="11.337305" height="7.17762617"></rect>
                    <path d="M31.199801,15.8474019 C31.1813669,21.4157944 29.1675658,26.7875327 25.5312315,30.9633645 L24.9501421,31.6381121 C22.5905771,34.3626729 19.1894022,35.9317009 15.6110274,35.9446581 L15.6110274,35.9446581 C12.0128899,35.947514 8.58763445,34.378486 6.21528175,31.6381121 L5.69098931,30.9490654 C2.05880689,26.7760935 0.0436771971,21.4100748 0.022419854,15.8474019 L0.022419854,0.0566915888 L31.199801,0.0566915888 L31.199801,15.8474019 L31.199801,15.8474019 Z" id="Path"></path>
                </g>
                <path d="M22.5195774,14.4 L16.128,14.4 L16.128,30.2468067 C16.1464348,35.8349809 18.1603173,41.2258023 21.7967985,45.4164687 L22.3779114,46.0936134 C22.9221546,46.7275397 23.5301724,47.3022095 24.192,47.808 C20.47879,35.2024052 21.5984994,21.2717272 22.5195774,14.4 Z" id="Path" fill="#F5C4B0"></path>
                <path d="M48.4992351,24.192 L45.504,24.192 L45.504,32.832 L48.4992351,32.832 C50.9807857,32.832 52.992,30.898125 52.992,28.512 C52.992,26.1260437 50.9807857,24.192 48.4992351,24.192 Z" id="Path" fill="#FEDAC6"></path>
                <path d="M9.792,28.512 C9.792,30.898125 11.8032143,32.832 14.2847649,32.832 L17.28,32.832 L17.28,24.192 L14.2847649,24.192 C11.8032143,24.192 9.792,26.1260437 9.792,28.512 Z" id="Path" fill="#F5C4B0"></path>
                <path d="M38.0822018,4.10404324 L22.1063019,4.10404324 C20.1457154,4.10559995 18.3537581,2.96314694 17.4764508,1.152 L14.2041737,2.84933406 C11.280542,4.37248943 10.1058311,8.05670582 11.5806249,11.0765525 C12.3207848,12.5938269 13.6383365,13.7245181 15.2187956,14.1998339 L15.2187956,24.768 C15.2187956,24.768 18.9912668,19.2183248 22.3636833,14.4361081 L40.9401903,14.4361081 L46.656,23.2920649 L46.656,12.96 C46.656,8.06846763 42.8177182,4.10404324 38.0822018,4.10404324 Z" id="Path" fill="#5C5E6F"></path>
                <path d="M25.2269691,12.0085063 C20.2182288,11.4924778 15.7038668,8.77759652 12.9266093,4.608 C10.4893728,6.75435285 10.2693887,10.4561013 12.432231,12.8732611 C13.1779001,13.7069478 14.1465668,14.3108639 15.2265649,14.6170585 L15.2265649,24.768 C15.2265649,24.768 18.9981038,19.4374225 22.3696868,14.8440047 L40.9416029,14.8440047 L46.656,23.3503339 L46.656,14.4045665 C41.5561856,13.8798987 32.7700469,12.9442025 25.2269691,12.0085063 Z" id="Path" fill="#525463"></path>
                <circle id="Oval" fill="#000000" cx="23.328" cy="27.36" r="3.168"></circle>
                <circle id="Oval" fill="#000000" cx="39.456" cy="27.36" r="3.168"></circle>
                <path d="M48.1535649,34.56 L46.656,34.56 L46.656,31.824 L48.1535649,31.824 C49.8053967,31.824 51.1488702,30.5969921 51.1488702,29.088 C51.1488702,27.5790079 49.8055722,26.352 48.1535649,26.352 L46.656,26.352 L46.656,23.616 L48.1535649,23.616 C51.457404,23.616 54.144,26.0701761 54.144,29.0878397 C54.144,32.1055033 51.4572285,34.56 48.1535649,34.56 Z" id="Path" fill="#000000"></path>
                <path d="M16.128,34.56 L14.6304351,34.56 C11.326596,34.56 8.64,32.105752 8.64,29.088 C8.64,26.070248 11.3267715,23.616 14.6304351,23.616 L16.128,23.616 L16.128,26.3520802 L14.6304351,26.3520802 C12.9786033,26.3520802 11.6351298,27.579124 11.6351298,29.0881603 C11.6351298,30.5971966 12.9784278,31.8242405 14.6304351,31.8242405 L16.128,31.8242405 L16.128,34.56 Z" id="Path" fill="#000000"></path>
                <path d="M46.9544059,24.768 C46.4855244,24.768 46.0338973,24.5320493 45.7650318,24.119733 L40.4718146,16.0265546 L17.1498641,16.0265546 C14.3481343,16.0265546 11.8249861,14.4399482 10.568605,11.8859778 C8.75171048,8.15481479 10.2340726,3.66031187 13.8549629,1.82751078 L17.1227263,0.155026424 C17.4614466,-0.0182659009 17.85327,-0.0474609626 18.2147727,0.0734168366 C18.5749353,0.195831218 18.8722788,0.458074579 19.0424765,0.804829961 C19.6813882,2.10580288 20.9650746,2.91438658 22.3918209,2.91438658 C22.3918209,2.91438658 22.3933286,2.91438658 22.3946687,2.91438658 L38.3776786,2.91438658 C43.8940291,2.91438658 48.384,7.48913323 48.384,13.1126826 L48.384,23.3109786 C48.384,23.9520749 47.972242,24.5202688 47.3690116,24.7051709 C47.2318148,24.747683 47.0931103,24.768 46.9544059,24.768 Z M17.264111,3.34275155 L15.1312785,4.43389564 C12.9155249,5.55577137 12.010763,8.2975462 13.1071649,10.550005 C13.8919842,12.1424163 15.4358253,13.1126826 17.1496966,13.1126826 L41.2365319,13.1126826 C41.7139567,13.1126826 42.1600557,13.3559748 42.4259059,13.7609496 L45.5249792,18.4987447 L45.5249792,13.1128533 C45.5249792,9.09622748 42.3186948,5.82825861 38.3775111,5.82825861 L22.3958414,5.82825861 C22.3943337,5.82825861 22.3929936,5.82825861 22.3914859,5.82825861 C20.3631843,5.82825861 18.5005575,4.9030654 17.264111,3.34275155 Z" id="Shape" fill="#000000"></path>
                <polygon id="Rectangle" fill="#000000" transform="translate(19.281004, 19.394972) rotate(125.521026) translate(-19.281004, -19.394972) " points="13.1233222 17.9909405 25.4503268 17.9408757 25.4386863 20.7990029 13.1116818 20.8490677"></polygon>
                <path d="M31.6740094,51.84 C27.6031043,51.84 23.7325044,50.0875339 21.0512488,47.0289447 L20.4594454,46.2672084 C16.595933,41.8925399 14.4229499,36.1771548 14.4,30.2457699 L14.4,14.4 L17.2800422,14.4 L17.2800422,30.2400325 C17.3001233,35.4672246 19.2182952,40.511492 22.6800158,44.4355986 L23.2733379,45.2002037 C25.3513153,47.5647252 28.432844,48.9585981 31.6699594,48.9585981 C31.6728282,48.9585981 31.6756969,48.9585981 31.6785656,48.9585981 C34.8969499,48.9456043 37.9626162,47.5502127 40.0866621,45.1296663 L40.6755967,44.4543298 C44.1445735,40.520267 46.0625766,35.4716121 46.0799578,30.234295 L46.0799578,20.1599351 L48.96,20.1599351 L48.96,30.2398637 C48.9399188,36.1798548 46.7682857,41.9023274 42.8399736,46.3549582 L42.2539077,47.027426 C39.584127,50.0701527 35.7336083,51.8241375 31.6858218,51.84 C31.6810969,51.84 31.6768781,51.84 31.6740094,51.84 Z" id="Path" fill="#000000"></path>
                <path d="M2.81604256,86.4 L3.67705866e-14,86.4 L3.67705866e-14,70.5599675 C3.67705866e-14,64.094321 4.72524913,58.5719856 10.9935714,57.7137243 L21.292991,56.4724012 C21.9998478,56.3844826 22.5334555,55.7668585 22.5278455,55.0324596 L22.5278455,48.96 L25.344,48.96 L25.344,55.0223346 C25.359398,57.2111876 23.7613801,59.0687848 21.6267845,59.3322032 L11.3441949,60.5706576 C6.49090633,61.2345191 2.81455757,65.5300439 2.81604256,70.5599675 L2.81604256,86.4 Z" id="Path" fill="#000000"></path>
                <path d="M62.784,86.4 L59.9679755,86.4 L59.9679755,70.4426793 C59.9623656,65.3841812 56.2860404,61.06127 51.4172732,60.3911329 L41.1614793,59.1463983 C39.0212875,58.8794994 37.4247648,57.0081476 37.44,54.7928872 L37.44,47.232 L40.2561342,47.232 L40.2561342,54.8044471 C40.2505242,55.5544839 40.7826435,56.1768512 41.4951057,56.2652508 L51.7692144,57.5128754 C58.0502013,58.3774916 62.7754201,63.9335775 62.784,70.4411493 L62.784,86.4 L62.784,86.4 Z" id="Path" fill="#000000"></path>
                <path d="M31.398502,67.968 C31.3928336,67.968 31.3871652,67.968 31.3828305,67.968 C25.6323981,67.968 20.4553084,64.5095393 18.1904462,59.1546669 L20.8052492,58.019184 C22.6219737,62.3120321 26.7732484,65.0858931 31.3841643,65.0858931 C31.3884989,65.0858931 31.3926669,65.0858931 31.3970015,65.0858931 C36.0079174,65.0858931 40.1605259,62.3118632 41.9787508,58.019184 L44.5935538,59.1561867 C42.3260241,64.5080195 37.1476007,67.968 31.398502,67.968 Z" id="Path" fill="#000000"></path>
                <rect id="Rectangle" fill="#000000" x="10.944" y="74.88" width="2.88" height="10.944"></rect>
                <rect id="Rectangle" fill="#000000" x="1.728" y="77.184" width="10.944" height="2.88"></rect>
                <rect id="Rectangle" fill="#000000" x="48.96" y="74.88" width="2.88" height="10.944"></rect>
                <rect id="Rectangle" fill="#000000" x="50.112" y="77.184" width="10.944" height="2.88"></rect>
                <g id="Group-5" transform="translate(19.584000, 70.272000)" fill="#000000">
                    <g id="Group-7">
                        <path d="M6.76718406,13.248 C7.09900709,13.248 7.43100304,13.1241031 7.68414995,12.8763092 C8.19061668,12.380383 8.19061668,11.5767456 7.68414995,11.0809887 L3.13079095,6.62408463 L7.68414995,2.16701133 C8.19061668,1.67108513 8.19061668,0.867447714 7.68414995,0.371690767 C7.17768322,-0.123896922 6.35651199,-0.123896922 5.85021817,0.371690767 L0.379893279,5.72650898 C0.136602499,5.96465511 0,6.28743029 0,6.62425389 C0,6.96107749 0.136602499,7.28368341 0.379893279,7.5219988 L5.85021817,12.8766477 C6.10336508,13.1241031 6.43518811,13.248 6.76718406,13.248 L6.76718406,13.248 Z" id="Path"></path>
                        <path d="M16.5079736,12.8763187 C16.7611165,13.1241062 17.0931071,13.248 17.4249248,13.248 C17.7567425,13.248 18.0887331,13.1241062 18.3418759,12.8763187 L23.8121128,7.5218066 C24.0553997,7.28366655 24.192,6.96089962 24.192,6.62408463 C24.192,6.28726963 24.0553997,5.96467196 23.8121128,5.72636265 L18.3418759,0.371681269 C17.8354173,-0.123893756 17.0142593,-0.123893756 16.5079736,0.371681269 C16.001515,0.867594803 16.001515,1.67121168 16.5079736,2.16695596 L21.0612594,6.62391537 L16.5079736,11.0807055 C16.0013421,11.5767883 16.0013421,12.3804052 16.5079736,12.8763187 L16.5079736,12.8763187 Z" id="Path"></path>
                        <path d="M10.9996315,13.248 C11.5555751,13.248 12.0553938,12.8411265 12.1774537,12.2460485 L14.372603,1.53735384 C14.5131569,0.851897181 14.0990537,0.176595438 13.4479064,0.0288414478 C12.7970808,-0.119081791 12.1551002,0.316563995 12.0145463,1.0018514 L9.81939697,11.7105461 C9.67884309,12.3960028 10.0929463,13.0713045 10.7440936,13.2190585 C10.8298089,13.2386913 10.9153635,13.248 10.9996315,13.248 L10.9996315,13.248 Z" id="Path"></path>
                    </g>
                </g>
            </g>
            <g id="Group-6" transform="translate(165.000000, 105.000000)">
                <path d="M51.0696592,56.7708542 L48.3447439,56.448 L48.2163474,56.6024371 C41.1246129,65.9032028 27.711356,67.7895067 18.2571589,60.8128633 C16.6351497,59.6156878 15.1941997,58.1981229 13.9772749,56.6024371 L13.8488783,56.448 L11.1383408,56.7708542 C5.43037982,57.4782387 1.15049575,62.2542764 1.152,67.9145037 L1.152,84.672 L61.056,84.672 L61.056,67.9145037 C61.0575043,62.2542764 56.7776202,57.4782387 51.0696592,56.7708542 Z" id="Path" fill="#F288B7" fill-rule="nonzero"></path>
                <path d="M9.792,57.024 C4.70874375,58.3038659 1.1563875,62.7756585 1.152,67.8977561 L1.152,84.672 L9.792,84.672 L9.792,57.024 Z" id="Path" fill="#ED7BB2" fill-rule="nonzero"></path>
                <g id="Group" transform="translate(1.152000, 61.056000)" fill="#DB6EA2" fill-rule="nonzero">
                    <rect id="Rectangle" x="0.13312" y="21.2669123" width="59.63776" height="2.81512407"></rect>
                    <rect id="Rectangle" x="0.13312" y="14.2293495" width="59.63776" height="2.81512407"></rect>
                    <rect id="Rectangle" x="0.13312" y="7.19162182" width="59.63776" height="2.81512407"></rect>
                    <rect id="Rectangle" x="0.9566336" y="0.153894109" width="57.3941888" height="2.81512407"></rect>
                </g>
                <path d="M48.0959367,14.4 L48.0959367,22.896 L46.656,31.392 L46.656,37.0559447 C46.656,43.3117884 51.8139873,48.384 58.176,48.384 L58.176,25.7280553 C58.1758313,20.4464306 53.8558523,14.4 48.0959367,14.4 Z" id="Path" fill="#A15D30" fill-rule="nonzero"></path>
                <path d="M55.2959578,44.2207941 C52.5139589,40.5009731 51.0019663,36.0093769 50.9759789,31.3918341 L50.9759789,14.9238647 C50.0544397,14.5840247 49.0795757,14.4069694 48.0959367,14.4 L48.0959367,22.896 L46.656,31.392 L46.656,37.0559447 C46.656,43.3117884 51.8139873,48.384 58.176,48.384 L58.176,48.21408 L55.2959578,44.2207941 Z" id="Path" fill="#8F4F24" fill-rule="nonzero"></path>
                <path d="M48.269554,56.5801924 L48.384,56.4241845 L40.7627031,55.4743476 C39.3241693,55.2942491 38.2489135,54.0764243 38.2604753,52.6387929 L38.2604753,46.656 L23.9617676,46.656 L23.9617676,52.6530811 C23.9731619,54.0907126 22.897906,55.3085374 21.4595398,55.4886359 L13.824,56.4384728 L13.9526889,56.5801924 C21.0605708,65.9755531 34.5043689,67.8810419 43.9800925,60.8334414 C45.6056273,59.6240899 47.0498583,58.1922735 48.269554,56.5801924 Z" id="Path" fill="#FEDAC6" fill-rule="nonzero"></path>
                <path d="M38.592,50.3416225 L38.592,45.504 L24.192,45.504 L24.192,50.3416225 C28.5594358,53.1074592 34.2243954,53.1074592 38.592,50.3416225 Z" id="Path" fill="#F5C4B0" fill-rule="nonzero"></path>
                <path d="M46.656,22.464 L45.8784497,33.728055 C45.5306811,41.60301 39.018511,47.808 31.104,47.808 L31.104,47.808 C23.1893233,47.808 16.6773189,41.60301 16.3295503,33.728055 L15.552,22.464 C15.552,22.464 24.0349693,14.016 25.4487423,9.792 C25.4485767,9.792 38.1730307,21.056055 46.656,22.464 Z" id="Path" fill="#FEDAC6" fill-rule="nonzero"></path>
                <path d="M15.552,22.423217 L16.3317694,33.8269091 C16.5572429,39.346258 19.8055896,44.285458 24.768,46.656 C20.8262849,37.9180193 19.9330311,25.6448557 19.7771769,18.432 C17.5654765,20.6842739 15.552,22.423217 15.552,22.423217 Z" id="Path" fill="#F5C4B0" fill-rule="nonzero"></path>
                <path d="M48.683747,22.464 L48.7981626,21.568896 C50.1247463,11.6986095 43.1502563,2.6296875 33.219557,1.311174 C32.421831,1.204614 31.618577,1.152 30.8151554,1.152 L30.8151554,1.152 C20.7971786,1.1505015 12.6733402,9.2220885 12.672,19.1791215 C12.672,19.9776555 12.724936,20.776023 12.8321483,21.568896 L12.9465638,22.464 L15.8056122,22.464 C18.6646605,19.5370965 24.5254835,13.6266795 25.8120302,9.6768 C25.9978088,10.3303125 39.0921063,22.464 47.2544741,22.464 L48.683747,22.464 Z" id="Path" fill="#A15D30" fill-rule="nonzero"></path>
                <path d="M15.552,31.104 L14.1120422,31.104 C11.7258939,31.104 9.792,29.170125 9.792,26.784 L9.792,26.784 C9.792,24.397875 11.7258939,22.464 14.1120422,22.464 L15.552,22.464" id="Path" fill="#F5C4B0" fill-rule="nonzero"></path>
                <g id="Group" transform="translate(15.552000, 22.464000)" fill="#EBEBEB" fill-rule="nonzero">
                    <path d="M8.5418112,8.380746 L4.2819712,8.380746 C1.9290752,8.380746 0.0221312,6.524226 0.0221312,4.233546 L0.0221312,0.086346 L12.8016512,0.086346 L12.8016512,4.233546 C12.8016512,6.524226 10.8947072,8.380746 8.5418112,8.380746 Z" id="Path"></path>
                    <path d="M25.5811712,8.380746 L21.3213312,8.380746 C18.9684352,8.380746 17.0614912,6.524226 17.0614912,4.233546 L17.0614912,0.086346 L29.8410112,0.086346 L29.8410112,4.233546 C29.8410112,6.524226 27.9340672,8.380746 25.5811712,8.380746 Z" id="Path"></path>
                </g>
                <path d="M47.232,31.104 L48.6719578,31.104 C51.0581061,31.104 52.992,29.170125 52.992,26.784 L52.992,26.784 C52.992,24.397875 51.0581061,22.464 48.6719578,22.464 L47.232,22.464" id="Path" fill="#FEDAC6" fill-rule="nonzero"></path>
                <path d="M21.888,3.456 C15.4368647,7.07269695 11.8490943,14.2504032 12.8330157,21.567662 L12.9471492,22.464 L15.7991509,22.464 C17.3249978,20.9415927 19.6492781,18.6225516 21.7026792,16.1327796 C21.231941,11.9156896 21.2947729,7.65741741 21.888,3.456 Z" id="Path" fill="#8F4F24" fill-rule="nonzero"></path>
                <path d="M47.232,24.192 C40.370856,24.192 30.4087465,16.494121 26.3602454,12.5563146 C24.1413937,16.6582722 19.6013127,21.1756598 16.984769,23.7778951 L14.976,21.7790935 C17.6651237,19.1019881 23.2619434,13.5342648 24.5758751,9.61053796 C24.7733062,9.02250899 25.3216517,8.59564965 25.9565605,8.64368582 C26.4651202,8.65494947 26.921076,8.93620953 27.162621,9.36455964 C28.2551503,10.7059283 40.1832466,21.3649886 47.232,21.3649886 L47.232,24.192 Z" id="Path" fill="#000000" fill-rule="nonzero"></path>
                <rect id="Rectangle" fill="#000000" fill-rule="nonzero" x="28.8" y="21.312" width="4.032" height="2.88"></rect>
                <path d="M49.8260726,23.04 L46.9885872,22.6800235 L47.1030587,21.779915 C47.2017757,21.0398704 47.2517208,20.2954725 47.2517208,19.5567674 C47.2488716,10.3485696 39.7488931,2.85754333 30.53268,2.85754333 C30.5311715,2.85754333 30.5311715,2.85754333 30.5298307,2.85754333 C29.7890342,2.85754333 29.04388,2.90760517 28.3144803,3.0047151 C23.8879695,3.59474162 19.9563845,5.87213685 17.2447674,9.41698406 C14.5331503,12.9603244 13.3646359,17.3480188 13.955262,21.7698691 L14.0710743,22.6785167 L11.2335888,23.0384931 L11.1191173,22.1383846 C10.4282659,16.9691227 11.7955551,11.8315052 14.9720974,7.67955352 C18.1486398,3.52760183 22.7523049,0.861599459 27.9353668,0.170109804 C28.789294,0.0586008183 29.6631658,1.63069558e-13 30.5298307,1.63069558e-13 C30.5298307,1.63069558e-13 30.5313391,1.63069558e-13 30.53268,1.63069558e-13 C35.7614969,1.63069558e-13 40.6770676,2.03311353 44.3755195,5.72647196 C48.0739715,9.41983039 50.1106592,14.331751 50.112,19.5567674 C50.112,20.4212131 50.054848,21.292691 49.9403765,22.147091 L49.8260726,23.04 Z" id="Path" fill="#000000" fill-rule="nonzero"></path>
                <path d="M48.6143676,32.832 L47.232,32.832 L47.232,29.9519578 L48.6143676,29.9519578 C50.1391354,29.9519578 51.3792648,28.6603516 51.3792648,27.0719156 C51.3792648,25.4836484 50.1392974,24.1918734 48.6143676,24.1918734 L47.232,24.1918734 L47.232,21.312 L48.6143676,21.312 C51.6640653,21.312 54.144,23.8953811 54.144,27.0719156 C54.144,30.2484501 51.6640653,32.832 48.6143676,32.832 Z" id="Path" fill="#000000" fill-rule="nonzero"></path>
                <path d="M31.3911701,49.536 C22.6824776,49.536 15.5598091,42.7645284 15.1760829,34.1219208 L14.4,22.9003801 L17.2254994,22.7076443 L18.0044039,33.9629838 C18.3215755,41.1324572 24.202113,46.7221239 31.3911701,46.7221239 C38.5802273,46.7221239 44.4607648,41.1324572 44.7766086,33.9981016 L45.5570068,21.312 L48.384,21.4836321 L47.6050956,34.1458272 C47.223859,42.7658474 40.0998627,49.536 31.3911701,49.536 Z" id="Path" fill="#000000" fill-rule="nonzero"></path>
                <path d="M15.552,32.832 L14.1696324,32.832 C11.1199347,32.832 8.64,30.2486189 8.64,27.0720844 C8.64,23.8955499 11.1199347,21.312 14.1696324,21.312 L15.552,21.312 L15.552,24.1920422 L14.1696324,24.1920422 C12.6448646,24.1920422 11.4047352,25.4836484 11.4047352,27.0720844 C11.4047352,28.6603516 12.6447026,29.9521266 14.1696324,29.9521266 L15.552,29.9521266 L15.552,32.832 L15.552,32.832 Z" id="Path" fill="#000000" fill-rule="nonzero"></path>
                <path d="M58.4638988,49.536 C51.3172233,49.536 45.504,43.8121748 45.504,36.7754038 L45.504,31.1040831 L48.3840337,31.1040831 L48.3840337,36.7754038 C48.3840337,41.7676547 52.1452731,45.9091993 57.0239663,46.5995675 L57.0239663,25.4325962 C57.0239663,20.8431016 53.2497332,15.5077434 48.3840337,15.5077434 L48.3840337,12.672 C54.9777197,12.672 59.904,19.4081991 59.904,25.4325962 L59.904,48.1180452 C59.904,48.902124 59.2602238,49.536 58.4638988,49.536 Z" id="Path" fill="#000000" fill-rule="nonzero"></path>
                <path d="M24.2967423,32.832 L20.0552577,32.832 C16.9362753,32.832 14.4,30.248581 14.4,27.072 L14.4,22.7519578 C14.4,21.9571376 15.0334061,21.312 15.813773,21.312 L28.538227,21.312 C29.3185939,21.312 29.952,21.9571376 29.952,22.7519578 L29.952,27.072 C29.9521657,30.248581 27.4157247,32.832 24.2967423,32.832 Z M17.2277117,24.1919156 L17.2277117,27.072 C17.2277117,28.6602905 18.4958493,29.9520844 20.0554233,29.9520844 L24.296908,29.9520844 C25.8563164,29.9520844 27.1246197,28.6604593 27.1246197,27.072 L27.1246197,24.1919156 L17.2277117,24.1919156 Z" id="Shape" fill="#000000" fill-rule="nonzero"></path>
                <path d="M41.0007423,32.832 L36.7592577,32.832 C33.6402753,32.832 31.104,30.248581 31.104,27.072 L31.104,22.7519578 C31.104,21.9571376 31.7374061,21.312 32.517773,21.312 L45.242227,21.312 C46.0240851,21.312 46.656,21.9571376 46.656,22.7519578 L46.656,27.072 C46.6561657,30.248581 44.1197247,32.832 41.0007423,32.832 Z M33.9317117,24.1919156 L33.9317117,27.072 C33.9317117,28.6602905 35.1998493,29.9520844 36.7594233,29.9520844 L41.000908,29.9520844 C42.5603164,29.9520844 43.8286197,28.6604593 43.8286197,27.072 L43.8286197,24.1919156 L33.9317117,24.1919156 Z" id="Shape" fill="#000000" fill-rule="nonzero"></path>
                <path d="M31.4196569,66.816 C24.5180584,66.816 17.6986831,63.6339429 13.248,57.5999911 L15.515865,55.872 C18.6966566,60.1823516 23.3386955,62.9766577 28.586196,63.7389869 C33.8293777,64.4984451 39.0582742,63.140979 43.2993296,59.9070754 C44.8045953,58.7585153 46.1384382,57.4024003 47.268135,55.872 L49.536,57.5999911 C48.2461756,59.3494301 46.720977,60.9000961 45.0001038,62.2116265 C40.9293085,65.3173494 36.1538854,66.816 31.4196569,66.816 Z" id="Path" fill="#000000" fill-rule="nonzero"></path>
                <path d="M2.8172879,84.672 L-1.43884904e-14,84.672 L-1.43884904e-14,67.86048 C-0.00148538993,61.48785 4.76707012,56.08113 11.0935034,55.28418 L21.2952342,54.01698 C22.0009592,53.92821 22.530707,53.322825 22.5264149,52.609035 L22.5264149,46.656 L25.344,46.656 L25.344,52.597815 C25.3607059,54.72945 23.770307,56.54577 21.6460332,56.810595 L11.4456231,58.077795 C6.52502718,58.69737 2.81596725,62.903055 2.8172879,67.860645 L2.8172879,84.672 Z" id="Path" fill="#000000" fill-rule="nonzero"></path>
                <path d="M62.784,84.672 L59.9664002,84.672 L59.9664002,67.86048 C59.967886,62.90289 56.2584677,58.697205 51.3376153,58.079115 L41.1409661,56.811915 C39.0137751,56.547255 37.4232932,54.72945 37.44,52.587915 L37.44,46.656 L40.2577319,46.656 L40.2577319,52.597815 C40.2521189,53.32299 40.7817292,53.928375 41.4889768,54.017145 L51.6871119,55.284345 C58.0153607,56.07981 62.7854855,61.48653 62.784,67.860645 L62.784,84.672 Z" id="Path" fill="#000000" fill-rule="nonzero"></path>
                <circle id="Oval" fill="#000000" fill-rule="nonzero" cx="23.04" cy="25.344" r="2.88"></circle>
                <circle id="Oval" fill="#000000" fill-rule="nonzero" cx="39.744" cy="25.344" r="2.88"></circle>
                <path d="M70.7015537,76.0048611 C70.5674123,76.0048611 70.436128,76.0158149 70.3042723,76.0245219 C70.3567003,75.619369 70.3926999,75.2094413 70.3926999,74.7902449 C70.3926999,69.42397 65.9674631,65.0737371 60.5086661,65.0737371 C55.8935742,65.0737371 52.0287597,68.1874461 50.9406289,72.3913465 C46.9622442,72.6981954 43.8292788,75.9624499 43.8292788,79.9520475 C43.8292788,84.1445727 47.2865263,87.5430824 51.5511936,87.5430824 L70.7015537,87.5430824 C73.9428036,87.5430824 76.5702032,84.960215 76.5702032,81.7739015 C76.5702032,78.5877285 73.9428036,76.0048611 70.7015537,76.0048611 Z" id="Path" fill="#A2C4FF" fill-rule="nonzero"></path>
                <path d="M70.7015537,88.10496 L51.5513364,88.10496 C46.978244,88.10496 43.2578565,84.4476299 43.2578565,79.9520475 C43.2578565,75.8621798 46.4042504,72.3875547 50.4929195,71.8721609 C51.8007622,67.5189789 55.8630031,64.512 60.5085233,64.512 C66.2737454,64.512 70.9639793,69.1227385 70.9639793,74.7902449 C70.9639793,75.0023007 70.9555509,75.2181482 70.9385511,75.4471965 C74.3802274,75.5703574 77.1416255,78.3609271 77.1416255,81.7739015 C77.1416255,85.2646766 74.2525145,88.10496 70.7015537,88.10496 Z M60.5085233,65.6354743 C56.251856,65.6354743 52.5451826,68.4705616 51.494337,72.5299551 C51.4337663,72.763076 51.22934,72.9325802 50.9851998,72.9515388 C47.2929548,73.2361991 44.400701,76.3112887 44.400701,79.952188 C44.400701,83.8281743 47.6085228,86.9816261 51.5513364,86.9816261 L70.7015537,86.9816261 C73.6225214,86.9816261 75.9989238,84.6455018 75.9989238,81.774042 C75.9989238,78.902863 73.6225214,76.5667387 70.7015537,76.5667387 C70.6035548,76.5667387 70.5071272,76.5739008 70.4105569,76.5805012 L70.3427005,76.5851355 C70.1719881,76.596932 70.0057042,76.5324727 69.8884198,76.4101544 C69.7711354,76.2878362 69.7157074,76.1205789 69.7371357,75.953743 C69.794278,75.5119367 69.8211348,75.1421733 69.8211348,74.7905258 C69.8212777,69.7423345 65.6434666,65.6354743 60.5085233,65.6354743 Z" id="Shape" stroke="#000000" stroke-width="0.864" fill="#000000" fill-rule="nonzero"></path>
                <g id="Group-8" transform="translate(55.296000, 72.000000)">
                    <path d="M6.5617029,7.488 C6.79871935,7.488 7.03585931,7.40181084 7.21667854,7.22943251 C7.57844049,6.88444037 7.57844049,6.32538825 7.21667854,5.98051386 L3.96427925,2.88005887 L7.21667854,-0.220513856 C7.57844049,-0.565505998 7.57844049,-1.12455811 7.21667854,-1.46943251 C6.85491658,-1.81418916 6.26836571,-1.81418916 5.90672726,-1.46943251 L1.99935234,2.25565842 C1.82557321,2.42132529 1.728,2.64586455 1.728,2.88017662 C1.728,3.11448869 1.82557321,3.3389102 1.99935234,3.50469482 L5.90672726,7.229668 C6.08754649,7.40181084 6.32456294,7.488 6.5617029,7.488 L6.5617029,7.488 Z" id="Path" fill="#000000" fill-rule="nonzero" transform="translate(4.608000, 2.880000) rotate(90.000000) translate(-4.608000, -2.880000) "></path>
                    <line x1="4.608" y1="1.728" x2="4.608" y2="10.368" id="Line" stroke="#000000" stroke-width="1.728" fill="#D8D8D8" stroke-linecap="round"></line>
                </g>
            </g>
            <g id="Group-2" transform="translate(108.000000, 105.000000)">
                <g id="man-(1)" fill-rule="nonzero">
                    <path d="M46.0383179,25.3032212 L44.553253,25.3032212 L44.553253,33.4895575 L46.0383179,33.4895575 C48.4991331,33.4895575 50.4936867,31.6571518 50.4936867,29.3963894 C50.4936867,27.135627 48.4975644,25.3032212 46.0383179,25.3032212 Z" id="Path" fill="#FEDAC6"></path>
                    <path d="M11.1383133,29.3963894 C11.1383133,31.6571518 13.1328669,33.4895575 15.5936821,33.4895575 L17.078747,33.4895575 L17.078747,25.3032212 L15.5936821,25.3032212 C13.1328669,25.3030611 11.1383133,27.1354668 11.1383133,29.3963894 Z" id="Path" fill="#F5C4B0"></path>
                    <path d="M45.8149586,25.3032212 L47.4420243,16.7999215 C47.9755866,13.5723209 45.8314655,10.5170255 42.6545284,9.97495435 C42.331834,9.92036908 42.0050939,9.8937341 41.6783537,9.8937341 L41.6783537,9.8937341 C40.8538163,7.38610001 38.5441404,5.69395668 35.9421947,5.69116165 L19.6161913,5.69116165 L16.8584008,1.48842478 L15.4795865,2.88922746 C11.6724729,6.75705411 11.6711782,13.0272902 15.4768353,16.8951169 C15.4782918,16.8965966 15.4782918,16.8979119 15.4795865,16.8979119 L40.2993775,16.8979119 L45.8149586,25.3032212 Z" id="Path" fill="#FECB66"></path>
                    <path d="M50.4536933,57.2348289 L40.3275697,55.8159292 L30.816,61.3924383 L21.3044303,55.8727185 L11.1783067,57.2916182 C5.65010848,58.0422029 1.51313957,62.819998 1.48510843,68.4872701 L1.48510843,84.096 L60.1468916,84.096 L60.1468916,68.4872701 C60.1468916,62.8000135 56.0028739,57.9884113 50.4536933,57.2348289 Z" id="Path" fill="#DBDBDB"></path>
                    <polygon id="Path" fill="#FEDAC6" points="40.0979277 56.2428723 38.9938352 56.0864609 38.9938352 46.1411681 22.6381648 46.1411681 22.6381648 56.0864609 21.5340723 56.2428723 30.816 61.7696283"></polygon>
                    <g id="Group" transform="translate(20.048964, 55.815929)" fill="#EAEAEA">
                        <polygon id="Path" points="2.88611453 11.1602737 11.1384747 5.64630704 2.88611453 0.132340377 0.135274007 0.132340377"></polygon>
                        <polygon id="Path" points="11.1384747 5.64630704 19.3908348 11.1602737 22.1416753 0.132340377 19.3908348 0.132340377"></polygon>
                    </g>
                    <polyline id="Path" fill="#B0D135" points="26.7319518 84.096 28.0932479 68.7465888 26.7319518 64.5604453 30.816 61.7696283 34.9000482 64.5604453 33.5387521 68.7465888 34.9000482 84.096"></polyline>
                    <path d="M39.3553735,53.7953914 L39.3553735,46.1411681 L23.0191807,46.1411681 L23.0191807,53.7953914 C29.1451731,56.4894418 33.2293811,56.4894418 39.3553735,53.7953914 Z" id="Path" fill="#F5C4B0"></path>
                    <path d="M1.48510843,68.5638333 L1.48510843,84.096 L7.42554217,84.096 L7.42554217,58.7927788 C3.75290326,60.8091018 1.4880715,64.532513 1.48510843,68.5638333 Z" id="Path" fill="#BFBFBF"></path>
                    <path d="M46.7809157,24.7674473 L46.7809157,32.7423437 C46.7794183,36.6892327 45.7601958,40.5689608 43.8180827,44.0192867 L43.8180827,44.0192867 C41.2691946,48.5454993 36.433794,51.3519679 31.1872771,51.3506549 L31.1872771,51.3506549 C25.9407602,51.3521322 21.1053596,48.5454993 18.5564715,44.0192867 L18.5564715,44.0192867 C16.6143585,40.5691251 15.5951359,36.6893969 15.5936386,32.7423437 L15.5936386,16.3726726 L41.110305,16.3726726 L46.7809157,24.7674473 Z" id="Path" fill="#FEDAC6"></path>
                    <path d="M21.119646,16.3726726 L15.5936386,16.3726726 L15.5936386,32.7670788 C15.5950978,36.7199317 16.5883588,40.6055223 18.4810026,44.0610616 C19.8624234,46.5693372 21.9637396,48.5926335 24.5042892,49.8622301 C19.7382252,35.9899137 21.119646,16.3726726 21.119646,16.3726726 Z" id="Path" fill="#F5C4B0"></path>
                    <path d="M12.9123286,7.44212389 C12.0822834,10.9165795 13.0687923,14.5866857 15.5115293,17.116885 L37.8702651,17.116885 C21.9954266,17.116885 15.5113653,11.3235192 12.9123286,7.44212389 Z" id="Path" fill="#F5AD76"></path>
                    <path d="M46.6323421,34.9779823 L45.2958072,34.9779823 L45.2958072,32.1871858 L46.6323421,32.1871858 C48.106609,32.1871858 49.3055686,30.9354954 49.3055686,29.3963894 C49.3055686,27.8572834 48.106609,26.6055929 46.6323421,26.6055929 L45.2958072,26.6055929 L45.2958072,23.8147965 L46.6323421,23.8147965 C49.580876,23.8147965 51.9787952,26.3181774 51.9787952,29.3963894 C51.9787952,32.4746014 49.580876,34.9779823 46.6323421,34.9779823 Z" id="Path" fill="#000000"></path>
                    <path d="M16.3361928,34.9779823 L14.9996579,34.9779823 C12.051124,34.9779823 9.65320482,32.4746014 9.65320482,29.3963894 C9.65320482,26.3181774 12.051124,23.8147965 14.9996579,23.8147965 L16.3361928,23.8147965 L16.3361928,26.6055929 L14.9996579,26.6055929 C13.525391,26.6055929 12.3264314,27.8572834 12.3264314,29.3963894 C12.3264314,30.9354954 13.525391,32.1871858 14.9996579,32.1871858 L16.3361928,32.1871858 L16.3361928,34.9779823 Z" id="Path" fill="#000000"></path>
                    <path d="M30.8201669,53.583292 C30.817389,53.583292 30.814611,53.583292 30.8118331,53.583292 C25.1590938,53.583292 19.9408538,50.4850361 17.1938182,45.4932456 C15.176395,41.8284307 14.1098374,37.6744348 14.1085301,33.4826573 L14.1085301,17.0341336 C14.1085301,16.2582085 14.7322547,15.6284602 15.500758,15.6284602 L40.5620037,15.6284602 C41.0270601,15.6284602 41.461396,15.863234 41.7203961,16.2540838 L47.2896344,24.6884543 C47.4414396,24.9189385 47.5234699,25.1903391 47.5234699,25.468669 L47.5234699,33.4813374 C47.5219992,37.6732799 46.4541343,41.8272758 44.4381818,45.4934106 C41.6926169,50.4835512 36.4742135,53.583292 30.8201669,53.583292 Z M30.8159183,50.7717802 C30.8172256,50.7717802 30.8186962,50.7717802 30.8186962,50.7717802 C35.4633776,50.7717802 39.7488903,48.2260595 42.0043975,44.1283235 C43.7920704,40.8782812 44.7375435,37.1966378 44.7388507,33.4798525 L44.7388507,25.8930108 L39.817031,18.439807 L16.8942931,18.439807 L16.8942931,33.4811724 C16.8957638,37.1979577 17.8410735,40.8796011 19.6287463,44.1283235 C21.8842536,48.2275444 26.1697663,50.7717802 30.812977,50.7717802 C30.814611,50.7717802 30.8159183,50.7717802 30.8159183,50.7717802 Z" id="Shape" fill="#000000"></path>
                    <ellipse id="Oval" fill="#000000" cx="22.2766265" cy="28.2800708" rx="2.97021687" ry="2.97684956"></ellipse>
                    <ellipse id="Oval" fill="#000000" cx="39.3553735" cy="28.2800708" rx="2.97021687" ry="2.97684956"></ellipse>
                    <path d="M47.268549,26.791646 L44.5324863,26.3317566 L46.1688181,16.4483188 C46.3670529,15.2573317 46.0939511,14.0606021 45.399153,13.0792969 C44.7043549,12.0979917 43.6726553,11.4464681 42.4925238,11.2466303 C42.2456255,11.2046283 41.9655254,11.1739471 41.7422265,11.1851039 C41.7407617,11.1851039 41.7407617,11.1851039 41.7394596,11.1851039 C41.1431278,11.1851039 40.6120605,10.800687 40.4248931,10.2303782 C39.7828273,8.2941832 37.99253,6.99277666 35.9693311,6.98998746 L19.5532806,6.98998746 C19.0900819,6.98998746 18.6574809,6.75651526 18.3995153,6.36783244 L16.563484,3.59290949 L16.3720849,3.78437966 C14.7829519,5.38636321 13.9065199,7.5182942 13.9065199,9.78443479 C13.9065199,12.0518879 14.7814871,14.1823423 16.3707829,15.7844899 L14.4113838,17.7639995 C10.0472897,13.3633028 10.0472897,6.20573087 14.4113838,1.80782335 L15.7980505,0.409943407 C16.0919848,0.114944798 16.5024511,-0.0359999851 16.9156843,0.00731460481 C17.3289175,0.0478399977 17.7019504,0.274257172 17.932085,0.622414596 L20.2951148,4.19422756 L35.972098,4.19422756 C38.8689619,4.19701676 41.4635911,5.87316013 42.697757,8.44955788 C42.7836913,8.46071467 42.8668587,8.47334809 42.9529558,8.48729408 C44.8653189,8.81018466 46.5363174,9.86433708 47.6609496,11.4551638 C48.7855819,13.0459906 49.2279481,14.9821856 48.9061828,16.9085363 L47.268549,26.791646 Z" id="Path" fill="#000000"></path>
                    <path d="M2.79552718,84.096 L0,84.096 L0,68.7056615 C0,62.423579 4.69076369,57.0581023 10.9135636,56.2240929 L20.9662078,54.8879373 L20.9662078,49.1180177 L23.7617349,49.1180177 L23.7617349,56.1135813 C23.7617349,56.8145827 23.243182,57.4076998 22.5484424,57.5001486 L11.2826696,58.9972275 C6.44508372,59.6450256 2.79552718,63.8172072 2.79552718,68.7043479 L2.79552718,84.096 Z" id="Path" fill="#000000"></path>
                    <path d="M61.632,84.096 L58.8364728,84.096 L58.8364728,68.7050835 C58.8364728,63.8177593 55.1883927,59.6441073 50.348018,58.9975985 L39.0835576,57.5004634 C38.388818,57.4081754 37.8702651,56.8148718 37.8702651,56.1138441 L37.8702651,49.1180177 L40.6657922,49.1180177 L40.6657922,54.888154 L50.71696,56.2243598 C56.9397599,57.0569226 61.632,62.4240788 61.632,68.7063972 L61.632,84.096 L61.632,84.096 Z" id="Path" fill="#000000"></path>
                    <rect id="Rectangle" fill="#000000" x="11.1383133" y="72.9328142" width="2.97021687" height="11.1631858"></rect>
                    <rect id="Rectangle" fill="#000000" x="47.5234699" y="72.9328142" width="2.97021687" height="11.1631858"></rect>
                    <path d="M21.9894288,68.4675398 C21.8182961,68.4675398 21.6469987,68.4374923 21.4827837,68.3757905 C21.0575049,68.2155906 20.7389576,67.8624118 20.6281084,67.4311416 L17.8213012,56.4785814 L20.543942,55.8159292 L22.867987,64.8833694 L29.6309412,60.4845418 L31.1872771,62.7626897 L22.7670203,68.2390502 C22.5337923,68.3908946 22.2615282,68.4675398 21.9894288,68.4675398 Z" id="Path" fill="#000000"></path>
                    <path d="M31.1872771,63.2580531 C30.9501257,63.2580531 30.7129744,63.1966531 30.4994242,63.0738532 L20.7915181,57.4934957 L22.1672239,55.0717168 L31.1872771,60.2571496 L40.2073303,55.0717168 L41.5830361,57.4934957 L31.87513,63.0738532 C31.6615799,63.1968169 31.4244285,63.2580531 31.1872771,63.2580531 Z" id="Path" fill="#000000"></path>
                    <path d="M39.6449092,68.4675398 C39.372615,68.4675398 39.1003207,68.3894573 38.8659137,68.2376303 L30.4447229,62.7618958 L32.0012315,60.4840082 L38.7649358,64.8823331 L41.0892385,55.8159292 L43.8106988,56.4785056 L41.0035803,67.4298141 C40.8940366,67.861035 40.5741361,68.2141734 40.1488102,68.374355 C39.9873774,68.4374957 39.8162257,68.4675398 39.6449092,68.4675398 Z" id="Path" fill="#000000"></path>
                    <path d="M28.2099652,84.096 L25.2468434,83.8421317 L26.7061455,68.7927001 L25.3168494,64.8849939 L28.1385626,64.0022655 L29.6259719,68.1861005 C29.6898676,68.3687678 29.7151815,68.5627291 29.6958033,68.7537441 L28.2099652,84.096 Z" id="Path" fill="#000000"></path>
                    <path d="M33.4231197,84.096 L31.9355539,68.7540538 C31.917745,68.5615531 31.9414902,68.3690524 32.006964,68.1863731 L33.4945299,64.0022655 L36.3151433,64.8850515 L34.9257009,68.7930122 L36.3851566,83.8434247 L33.4231197,84.096 Z" id="Path" fill="#000000"></path>
                    <rect id="Rectangle" fill="#000000" x="28.2170602" y="66.979115" width="5.94043373" height="2.97684956"></rect>
                </g>
                <g id="Group-3" transform="translate(42.624000, 61.632000)">
                    <ellipse id="Oval" stroke="#FFFFFF" stroke-width="0.576" fill="#FFFFFF" cx="16.2083721" cy="16.416" rx="7.36744186" ry="7.46181818"></ellipse>
                    <g id="Group" fill-rule="nonzero">
                        <path d="M26.3351359,20.5781013 C26.5837542,19.9490176 26.7805278,19.2921172 26.9198601,18.6125967 L30.5684211,18.3937318 L30.5684211,14.4382682 L26.9988052,14.2239885 C26.7307453,12.5800563 26.1407188,11.0504474 25.2832216,9.71708326 L27.6050331,7.01092264 L24.9102942,4.21305885 L22.3260196,6.59764701 C21.0366808,5.6696109 19.5514519,5.01974109 17.9472163,4.71773197 L17.7457295,1.13213793 L13.933976,1.13213793 L13.7307217,4.74799402 C12.1550595,5.0732346 10.7031172,5.74541886 9.43970063,6.67712309 L6.76941119,4.21336452 L4.0749669,7.01122831 L6.50871553,9.84791311 C5.69658227,11.1470414 5.13218353,12.6240738 4.87148787,14.2105387 L1.11157895,14.4382682 L1.11157895,18.3937318 L4.95190586,18.6263521 C5.26444608,20.143734 5.86095309,21.5504606 6.68192349,22.786008 L4.07526147,25.821383 L6.76970576,28.6192468 L9.72337285,25.8910775 C10.9116737,26.7112095 12.2578649,27.3039177 13.7065669,27.6065381 L13.933976,31.6998621 L17.7457295,31.6998621 L17.9722548,27.6364945 C19.4474682,27.3555771 20.8201708,26.7775415 22.0335103,25.9613832 L24.9105888,28.6189412 L27.6050331,25.8210774 L25.1005873,22.9049165 C25.5925215,22.1847409 26.0084563,21.4052639 26.3351359,20.5781013 M15.9341156,20.4283195 C13.6723966,20.4283195 11.8389844,18.5257843 11.8389844,16.1787945 C11.8389844,13.8318046 13.6723966,11.9292695 15.9341156,11.9292695 C18.1958345,11.9292695 20.0292467,13.8318046 20.0292467,16.1787945 C20.0289521,18.52609 18.1955399,20.4283195 15.9341156,20.4283195 Z" id="Shape" fill="#B5A19C"></path>
                        <path d="M17.7380309,32.832 L13.9419691,32.832 C13.32039,32.832 12.8064652,32.3297873 12.7703849,31.6859094 L12.5937966,28.515768 C11.6463212,28.2409495 10.7381528,27.8503059 9.87809146,27.3465732 L7.58743025,29.4596968 C7.12219928,29.8871247 6.41701942,29.8670605 5.97701534,29.4110563 L3.29416383,26.6288226 C2.85474643,26.1728183 2.83479958,25.4413876 3.24840341,24.9598471 L5.25482199,22.6269295 C4.74764396,21.7279932 4.35134696,20.7737283 4.07121103,19.7756871 L1.10529023,19.5963254 C0.48488449,19.5583251 0,19.0263202 0,18.3821382 L0,14.4486458 C0,13.8044638 0.484591154,13.2724589 1.10529023,13.2344585 L3.95387661,13.063001 C4.20937231,11.9983831 4.59276253,10.9824057 5.09964722,10.0260128 L3.24811008,7.87124088 C2.83509292,7.39030843 2.85562644,6.65887766 3.29445717,6.20287343 L5.97730868,3.42063967 C6.41731275,2.96402744 7.12366596,2.94396326 7.58713692,3.37139122 L9.57448865,5.20300818 C10.5325242,4.60321062 11.550987,4.14659839 12.6190235,3.83925155 L12.7703849,1.14548261 C12.8070519,0.502516653 13.32039,0 13.9419691,0 L17.7380309,0 C18.35961,0 18.8729481,0.50221265 18.9096151,1.14548261 L19.0580431,3.79304312 C20.1598133,4.08883786 21.205263,4.53633 22.1826587,5.13187152 L24.0928631,3.37139122 C24.556334,2.94578728 25.2621006,2.96402744 25.7026913,3.42063967 L28.3855428,6.20287343 C28.8243736,6.65887766 28.8449071,7.38970042 28.4318899,7.87124088 L26.6994472,9.88829956 C27.2421189,10.8857328 27.6492693,11.9521747 27.9167918,13.0760731 L30.5741231,13.2344585 C31.1945288,13.2718509 31.68,13.8044638 31.68,14.4486458 L31.68,18.3821382 C31.68,19.0263202 31.1954088,19.5589331 30.5741231,19.5963254 L27.7994574,19.762615 C27.6797763,20.1876109 27.5386817,20.6068308 27.3767602,21.0166266 C27.140038,21.6146001 26.858142,22.1964615 26.5345924,22.7546107 L28.4315966,24.9598471 C28.8452004,25.4407796 28.8252536,26.1728183 28.3858362,26.6288226 L25.7029847,29.4110563 C25.2623939,29.8670605 24.5578007,29.8871247 24.0925697,29.4596968 L21.8702558,27.4095018 C20.9884877,27.9111064 20.0562657,28.296582 19.0835634,28.5613685 L18.9099084,31.6856054 C18.8735348,32.3291793 18.35961,32.832 17.7380309,32.832 L17.7380309,32.832 Z M15.0493127,30.3999775 L16.6306873,30.3999775 L16.7917288,27.5049587 C16.8231158,26.9449855 17.2197061,26.4801652 17.751231,26.3792363 C19.046603,26.132386 20.2639476,25.6310853 21.3692379,24.8884064 C21.812762,24.5926117 22.3918073,24.6366921 22.787811,25.0005835 L24.8256165,26.8805369 L25.9429335,25.7219822 L24.1858506,23.6787792 C23.8221139,23.2559113 23.7883803,22.6290575 24.1045965,22.1663652 C24.547534,21.5179272 24.9180174,20.8208488 25.2057801,20.0942821 C25.4287155,19.5303568 25.6038371,18.9424154 25.7258649,18.3474819 C25.8358659,17.8118289 26.27763,17.4181453 26.8059282,17.386225 L29.3336049,17.2348316 L29.3336049,15.5965604 L26.8842489,15.4506391 C26.3383505,15.4181108 25.8863197,14.9982829 25.7950922,14.4395257 C25.5571966,12.9824402 25.0435652,11.6335797 24.2676914,10.4294246 C23.971422,9.9685563 24.0127823,9.35933466 24.3674256,8.94558683 L25.9435202,7.11092984 L24.8253232,5.95146311 L23.0790937,7.56115801 C22.6739966,7.93568948 22.0758844,7.9703458 21.6303069,7.65144685 C20.4569627,6.80723103 19.1442839,6.24421782 17.7298175,5.97882336 C17.1971192,5.87911044 16.7987689,5.41368213 16.7673819,4.85310094 L16.631274,2.43171852 L15.048726,2.43171852 L14.9111514,4.88228521 C14.8797644,5.43496232 14.4922675,5.8964386 13.9686627,6.0043596 C12.5946766,6.28769022 11.3086914,6.86529557 10.1456139,7.72136749 C9.69944981,8.04786652 9.09429754,8.01473021 8.6862671,7.63898273 L6.8546768,5.9508551 L5.73647978,7.11032184 L7.42433541,9.07448402 C7.77545866,9.48367181 7.81975241,10.0855974 7.53198974,10.5452496 C6.79395624,11.7232605 6.30349837,13.0295606 6.07381624,14.4267576 C5.98229539,14.9849067 5.53055788,15.4035186 4.98524616,15.4366549 L2.34639506,15.5956484 L2.34639506,17.2351356 L5.06562024,17.3996011 C5.59274512,17.4315214 6.03450921,17.824597 6.1450969,18.359642 C6.41965944,19.6908703 6.93798424,20.9354578 7.6862845,22.0599643 C7.99340735,22.5220485 7.95615367,23.1413023 7.59623034,23.5599141 L5.73706645,25.7216782 L6.85438347,26.8802329 L8.96845637,24.9303588 C9.36827341,24.5634274 9.95553218,24.521171 10.3990563,24.8263899 C11.4835197,25.5745408 12.6776907,26.0880016 13.9466625,26.352788 C14.4696806,26.461925 14.8560042,26.9227933 14.8868045,27.4748624 L15.0493127,30.3999775 Z M15.9340142,21.6225042 C13.0384941,21.6225042 10.6827122,19.1810576 10.6827122,16.1802458 C10.6827122,13.179434 13.0384941,10.7379874 15.9340142,10.7379874 C18.8295343,10.7379874 21.1847295,13.179434 21.1847295,16.1802458 C21.1847295,19.1810576 18.8295343,21.6225042 15.9340142,21.6225042 Z M15.9340142,13.1697059 C14.332106,13.1697059 13.0294006,14.5197824 13.0294006,16.1799418 C13.0294006,17.8401012 14.332106,19.1901777 15.9340142,19.1901777 C17.5353357,19.1901777 18.8380411,17.8401012 18.8380411,16.1799418 C18.8380411,14.5197824 17.5353357,13.1697059 15.9340142,13.1697059 Z" id="Shape" fill="#000000"></path>
                    </g>
                </g>
            </g>
            <text id="User-Stories" font-family="SFProText-Regular, SF Pro Text" font-size="36" font-weight="normal" line-spacing="43" letter-spacing="0.1" fill="#525252">
                <tspan x="440.985938" y="34">User Stories</tspan>
            </text>
        </g>
    </g>
</svg>