<?xml version="1.0" encoding="UTF-8"?>
<svg width="1240px" height="1165px" viewBox="0 0 1240 1165" version="1.1" xmlns="http://www.w3.org/2000/svg" xmlns:xlink="http://www.w3.org/1999/xlink">
    <title>n7_1</title>
    <defs>
        <rect id="path-1" x="10" y="21" width="1217" height="367" rx="8"></rect>
        <filter x="-1.2%" y="-2.7%" width="102.5%" height="108.2%" filterUnits="objectBoundingBox" id="filter-2">
            <feMorphology radius="1.5" operator="dilate" in="SourceAlpha" result="shadowSpreadOuter1"></feMorphology>
            <feOffset dx="1" dy="5" in="shadowSpreadOuter1" result="shadowOffsetOuter1"></feOffset>
            <feGaussianBlur stdDeviation="3" in="shadowOffsetOuter1" result="shadowBlurOuter1"></feGaussianBlur>
            <feComposite in="shadowBlurOuter1" in2="SourceAlpha" operator="out" result="shadowBlurOuter1"></feComposite>
            <feColorMatrix values="0 0 0 0 0   0 0 0 0 0   0 0 0 0 0  0 0 0 0.164144449 0" type="matrix" in="shadowBlurOuter1"></feColorMatrix>
        </filter>
    </defs>
    <g id="n7_1" stroke="none" stroke-width="1" fill="none" fill-rule="evenodd" transform="translate(1.000000, 0.000000)">
        <g id="Rectangle">
            <use fill="black" fill-opacity="1" filter="url(#filter-2)" xlink:href="#path-1"></use>
            <use stroke="#EEEEEE" stroke-width="1" fill="#FFFFFF" fill-rule="evenodd" xlink:href="#path-1"></use>
        </g>
        <text id="FINDING-#1" font-family="SFProText-Bold, SF Pro Text" font-size="18" font-weight="bold" line-spacing="23" fill="#000000">
            <tspan x="66" y="91">FINDING #1 	</tspan>
        </text>
        <text id="FINDING-#2" font-family="SFProText-Bold, SF Pro Text" font-size="18" font-weight="bold" line-spacing="23" fill="#555555">
            <tspan x="120" y="498">FINDING #2</tspan>
        </text>
        <text id="Inclusivity-The-flow" font-family="SFCompactText-Semibold, SF Compact Text" font-size="21" font-weight="500" line-spacing="30">
            <tspan x="120" y="545" fill="#000000">Inclusivity</tspan>
            <tspan x="120" y="575" font-family="SFCompactText-Light, SF Compact Text" font-weight="300" fill="#555555">The flow is not optimized for those with low </tspan>
            <tspan x="120" y="605" font-family="SFCompactText-Light, SF Compact Text" font-weight="300" fill="#555555">technical knowledge. </tspan>
        </text>
        <text id="Developers-and-consu" font-family="SFCompactText-LightItalic, SF Compact Text" font-size="14" font-style="italic" font-weight="300" line-spacing="21" fill="#555555">
            <tspan x="245" y="663">Developers and consumers often have </tspan>
            <tspan x="245" y="684">lesser domain knowledge about virtual </tspan>
            <tspan x="245" y="705">infrastructure. </tspan>
        </text>
        <g id="Group-12" transform="translate(119.000000, 789.000000)">
            <text id="FINDING-#4" font-family="SFProText-Bold, SF Pro Text" font-size="18" font-weight="bold" line-spacing="23" fill="#555555">
                <tspan x="0" y="17">FINDING #4</tspan>
            </text>
            <text id="Lack-of-contextual-h" font-family="SFCompactText-Semibold, SF Compact Text" font-size="21" font-weight="500" line-spacing="23" fill="#000000">
                <tspan x="0" y="65">Lack of contextual help</tspan>
            </text>
            <text id="Lack-of-help-and-res" font-family="SFCompactText-Light, SF Compact Text" font-size="21" font-weight="300" line-spacing="30" fill="#555555">
                <tspan x="0" y="98">Lack of help and resources at each step affects </tspan>
                <tspan x="0" y="128">domain and product learning. </tspan>
            </text>
        </g>
        <g id="Group-8" transform="translate(119.000000, 1003.000000)">
            <text id="FINDING-#5" font-family="SFProText-Bold, SF Pro Text" font-size="18" font-weight="bold" line-spacing="23" fill="#555555">
                <tspan x="0" y="17">FINDING #5</tspan>
            </text>
            <text id="Lack-of-Hierarchy" font-family="SFCompactText-Semibold, SF Compact Text" font-size="21" font-weight="500" line-spacing="23" fill="#000000">
                <tspan x="0" y="65">Lack of Hierarchy</tspan>
            </text>
            <text id="The-flow-lacks-hiera" font-family="SFCompactText-Light, SF Compact Text" font-size="21" font-weight="300" line-spacing="30" fill="#555555">
                <tspan x="0" y="98">The flow lacks hierarchy that differentiates </tspan>
                <tspan x="0" y="128">primary and secondary features. </tspan>
            </text>
        </g>
        <g id="Group-11" transform="translate(732.000000, 840.000000)">
            <text id="FINDING-#6" font-family="SFProText-Bold, SF Pro Text" font-size="18" font-weight="bold" line-spacing="23" fill="#555555">
                <tspan x="0" y="17">FINDING #6</tspan>
            </text>
            <text id="Scalable-Design" font-family="SFCompactText-Semibold, SF Compact Text" font-size="21" font-weight="500" line-spacing="23" fill="#000000">
                <tspan x="0" y="72">Scalable Design</tspan>
            </text>
            <text id="•-The-current-design" font-family="SFCompactText-Light, SF Compact Text" font-size="21" font-weight="300" line-spacing="30" fill="#555555">
                <tspan x="0" y="109">• The current design does not support </tspan>
                <tspan x="0" y="139">the addition of new features and </tspan>
                <tspan x="0" y="169">customizations while retaining usability. </tspan>
                <tspan x="0" y="200.6"></tspan>
                <tspan x="0" y="230.6">• The flow lacks a design that allows </tspan>
                <tspan x="0" y="260.6">integration of cost metrics - an integral </tspan>
                <tspan x="0" y="290.6">part of cloud infrastructure. </tspan>
            </text>
        </g>
        <g id="Group-14" transform="translate(733.000000, 481.000000)">
            <text id="FINDING-#3" font-family="SFProText-Bold, SF Pro Text" font-size="18" font-weight="bold" line-spacing="23" fill="#555555">
                <tspan x="0" y="17">FINDING #3</tspan>
            </text>
            <text id="Lack-of-efficiency" font-family="SFCompactText-Semibold, SF Compact Text" font-size="21" font-weight="500" line-spacing="23" fill="#000000">
                <tspan x="0" y="64">Lack of efficiency</tspan>
            </text>
            <text id="•-The-form-is-heavil" font-family="SFCompactText-Light, SF Compact Text" font-size="21" font-weight="300" line-spacing="30" fill="#555555">
                <tspan x="0" y="102">• The form is heavily based on text fields </tspan>
                <tspan x="0" y="132">and lacks accelerators </tspan>
                <tspan x="0" y="162"></tspan>
                <tspan x="0" y="192">• Lack of Batch Creation</tspan>
                <tspan x="0" y="222">The flow allows users to create only one </tspan>
                <tspan x="0" y="252">VM at a time.</tspan>
            </text>
        </g>
        <text id="Different-users-have" font-family="SFProText-Light, SF Pro Text" font-size="36" font-weight="300" line-spacing="50" fill="#555555">
            <tspan x="66" y="155">Different users have different goals and </tspan>
            <tspan x="66" y="205">hence use different number of </tspan>
            <tspan x="66" y="255">customizations and have varied access </tspan>
            <tspan x="66" y="305">to features/ customizations. </tspan>
        </text>
        <text id="ADMIN" font-family="SFCompactText-Medium, SF Compact Text" font-size="14" font-weight="400" line-spacing="28" fill="#555555">
            <tspan x="931.884766" y="185">ADMIN</tspan>
        </text>
        <text id="DEVOPS" font-family="SFCompactText-Medium, SF Compact Text" font-size="14" font-weight="400" line-spacing="28" fill="#555555">
            <tspan x="1068.41064" y="185">DEVOPS</tspan>
        </text>
        <text id="DEVELOPER" font-family="SFCompactText-Medium, SF Compact Text" font-size="14" font-weight="400" line-spacing="28" fill="#555555">
            <tspan x="915.152832" y="334">DEVELOPER</tspan>
        </text>
        <text id="CONSUMER" font-family="SFCompactText-Medium, SF Compact Text" font-size="14" font-weight="400" line-spacing="28" fill="#555555">
            <tspan x="1060.79199" y="334">CONSUMER</tspan>
        </text>
        <g id="Group-2" transform="translate(918.000000, 64.000000)">
            <g id="man-(1)" fill-rule="nonzero">
                <path d="M51.1536865,28.1146903 L49.5036145,28.1146903 L49.5036145,37.2106195 L51.1536865,37.2106195 C53.8879257,37.2106195 56.1040964,35.1746131 56.1040964,32.6626549 C56.1040964,30.1506966 53.8861826,28.1146903 51.1536865,28.1146903 Z" id="Path" fill="#FEDAC6"></path>
                <path d="M12.3759036,32.6626549 C12.3759036,35.1746131 14.5920743,37.2106195 17.3263135,37.2106195 L18.9763855,37.2106195 L18.9763855,28.1146903 L17.3263135,28.1146903 C14.5920743,28.1145123 12.3759036,30.1505187 12.3759036,32.6626549 Z" id="Path" fill="#F5C4B0"></path>
                <path d="M50.9055095,28.1146903 L52.7133603,18.6665794 C53.3062073,15.0803565 50.9238506,11.6855839 47.3939204,11.0832826 C47.0353712,11.0226323 46.6723265,10.9930379 46.3092819,10.9930379 L46.3092819,10.9930379 C45.3931292,8.20677779 42.8268227,6.32661853 39.9357719,6.32351294 L21.7957681,6.32351294 L18.7315564,1.65380531 L17.1995405,3.21025273 C12.9694143,7.5078379 12.9679758,14.4747669 17.1964837,18.7723521 C17.198102,18.7739962 17.198102,18.7754577 17.1995405,18.7754577 L44.7770862,18.7754577 L50.9055095,28.1146903 Z" id="Path" fill="#FECB66"></path>
                <path d="M56.0596592,63.5942544 L44.8084108,62.0176991 L34.24,68.2138204 L23.6715892,62.0807983 L12.4203408,63.6573536 C6.27789831,64.4913365 1.68126618,69.7999978 1.65012048,76.0969668 L1.65012048,93.44 L66.8298795,93.44 L66.8298795,76.0969668 C66.8298795,69.7777928 62.2254154,64.4315681 56.0596592,63.5942544 Z" id="Path" fill="#DBDBDB"></path>
                <polygon id="Path" fill="#FEDAC6" points="44.553253 62.4920803 43.3264835 62.3182899 43.3264835 51.2679646 25.1535165 51.2679646 25.1535165 62.3182899 23.926747 62.4920803 34.24 68.6329204"></polygon>
                <g id="Group" transform="translate(22.276627, 62.017699)" fill="#EAEAEA">
                    <polygon id="Path" points="3.20679392 12.4003041 12.376083 6.27367449 3.20679392 0.147044863 0.150304453 0.147044863"></polygon>
                    <polygon id="Path" points="12.376083 6.27367449 21.545372 12.4003041 24.6018615 0.147044863 21.545372 0.147044863"></polygon>
                </g>
                <polyline id="Path" fill="#B0D135" points="29.7021687 93.44 31.2147199 76.3850986 29.7021687 71.7338281 34.24 68.6329204 38.7778313 71.7338281 37.2652801 76.3850986 38.7778313 93.44"></polyline>
                <path d="M43.7281928,59.7726571 L43.7281928,51.2679646 L25.5768675,51.2679646 L25.5768675,59.7726571 C32.3835257,62.7660465 36.9215345,62.7660465 43.7281928,59.7726571 Z" id="Path" fill="#F5C4B0"></path>
                <path d="M1.65012048,76.182037 L1.65012048,93.44 L8.25060241,93.44 L8.25060241,65.3253097 C4.16989251,67.5656686 1.65341278,71.7027923 1.65012048,76.182037 Z" id="Path" fill="#BFBFBF"></path>
                <path d="M51.9787952,27.5193859 L51.9787952,36.3803819 C51.9771314,40.7658141 50.844662,45.0766232 48.6867586,48.9103185 L48.6867586,48.9103185 C45.8546606,53.9394437 40.4819934,57.0577422 34.6525301,57.0562832 L34.6525301,57.0562832 C28.8230669,57.0579246 23.4503996,53.9394437 20.6183016,48.9103185 L20.6183016,48.9103185 C18.4603983,45.0768056 17.3279288,40.7659966 17.3262651,36.3803819 L17.3262651,18.1918584 L45.6781167,18.1918584 L51.9787952,27.5193859 Z" id="Path" fill="#FEDAC6"></path>
                <path d="M23.4662734,18.1918584 L17.3262651,18.1918584 L17.3262651,36.4078654 C17.3278864,40.7999241 18.4315098,45.117247 20.5344473,48.9567352 C22.0693593,51.743708 24.4041551,53.991815 27.226988,55.4024779 C21.9313614,39.988793 23.4662734,18.1918584 23.4662734,18.1918584 Z" id="Path" fill="#F5C4B0"></path>
                <path d="M14.3470317,8.26902655 C13.4247594,12.1295328 14.5208803,16.2074286 17.2350326,19.0187611 L42.0780723,19.0187611 C24.4393628,19.0187611 17.2348504,12.581688 14.3470317,8.26902655 Z" id="Path" fill="#F5AD76"></path>
                <path d="M51.8137134,38.8644248 L50.3286747,38.8644248 L50.3286747,35.7635398 L51.8137134,35.7635398 C53.4517878,35.7635398 54.7839651,34.3727726 54.7839651,32.6626549 C54.7839651,30.9525371 53.4517878,29.5617699 51.8137134,29.5617699 L50.3286747,29.5617699 L50.3286747,26.460885 L51.8137134,26.460885 C55.0898622,26.460885 57.7542169,29.2424193 57.7542169,32.6626549 C57.7542169,36.0828904 55.0898622,38.8644248 51.8137134,38.8644248 Z" id="Path" fill="#000000"></path>
                <path d="M18.1513253,38.8644248 L16.6662866,38.8644248 C13.3901378,38.8644248 10.7257831,36.0828904 10.7257831,32.6626549 C10.7257831,29.2424193 13.3901378,26.460885 16.6662866,26.460885 L18.1513253,26.460885 L18.1513253,29.5617699 L16.6662866,29.5617699 C15.0282122,29.5617699 13.6960349,30.9525371 13.6960349,32.6626549 C13.6960349,34.3727726 15.0282122,35.7635398 16.6662866,35.7635398 L18.1513253,35.7635398 L18.1513253,38.8644248 Z" id="Path" fill="#000000"></path>
                <path d="M34.2446299,59.5369912 C34.2415433,59.5369912 34.2384567,59.5369912 34.2353701,59.5369912 C27.9545487,59.5369912 22.1565042,56.0944845 19.1042425,50.5480507 C16.8626612,46.4760341 15.6775971,41.8604831 15.6761446,37.2029525 L15.6761446,18.9268151 C15.6761446,18.0646761 16.3691719,17.3649558 17.2230644,17.3649558 L45.068893,17.3649558 C45.5856223,17.3649558 46.0682177,17.6258156 46.3559957,18.0600931 L52.5440382,27.4316158 C52.7127106,27.6877094 52.8038554,27.9892656 52.8038554,28.2985211 L52.8038554,37.201486 C52.8022214,41.8591998 51.6157048,46.4747508 49.3757575,50.548234 C46.3251299,56.0928347 40.5269038,59.5369912 34.2446299,59.5369912 Z M34.2399092,56.4130891 C34.2413617,56.4130891 34.2429958,56.4130891 34.2429958,56.4130891 C39.4037529,56.4130891 44.1654337,53.5845106 46.6715528,49.0314706 C48.657856,45.4203125 49.7083816,41.3295975 49.7098341,37.1998361 L49.7098341,28.770012 L44.2411456,20.4886744 L18.7714368,20.4886744 L18.7714368,37.2013027 C18.7730709,41.3310641 19.823415,45.421779 21.8097182,49.0314706 C24.3158373,53.5861604 29.0775181,56.4130891 34.2366411,56.4130891 C34.2384567,56.4130891 34.2399092,56.4130891 34.2399092,56.4130891 Z" id="Shape" fill="#000000"></path>
                <ellipse id="Oval" fill="#000000" cx="24.7518072" cy="31.4223009" rx="3.30024096" ry="3.30761062"></ellipse>
                <ellipse id="Oval" fill="#000000" cx="43.7281928" cy="31.4223009" rx="3.30024096" ry="3.30761062"></ellipse>
                <path d="M52.52061,29.7684956 L49.4805403,29.2575074 L51.2986868,18.2759098 C51.5189476,16.9525907 51.2155013,15.6228912 50.4435033,14.5325521 C49.6715054,13.442213 48.5251726,12.7182979 47.2139154,12.4962559 C46.9395839,12.449587 46.6283615,12.4154968 46.3802516,12.4278933 C46.3786241,12.4278933 46.3786241,12.4278933 46.3771774,12.4278933 C45.7145865,12.4278933 45.1245117,12.0007633 44.9165479,11.3670869 C44.2031415,9.21575911 42.2139222,7.76975184 39.9659235,7.76665273 L21.7258674,7.76665273 C21.2112021,7.76665273 20.7305343,7.50723917 20.4439059,7.07536938 L18.4038711,3.99212165 L18.1912055,4.20486629 C16.4255021,5.98484801 15.4516888,8.35366022 15.4516888,10.8715942 C15.4516888,13.3909866 16.4238745,15.7581581 18.1897588,17.5383221 L16.0126486,19.7377772 C11.1636553,14.8481142 11.1636553,6.89525652 16.0126486,2.00869262 L17.5533894,0.455492674 C17.8799831,0.127716442 18.3360568,-0.0399999835 18.7952048,0.00812733868 C19.2543528,0.053155553 19.6688337,0.304730192 19.9245388,0.691571773 L22.5501275,4.66025285 L39.9689977,4.66025285 C43.1877354,4.66335195 46.0706568,6.52573348 47.4419522,9.38839765 C47.5374347,9.40079408 47.629843,9.41483121 47.7255064,9.43032675 C49.8503543,9.78909406 51.7070193,10.9603745 52.9566107,12.7279598 C54.2062021,14.4955451 54.6977201,16.6468729 54.3402031,18.7872626 L52.52061,29.7684956 Z" id="Path" fill="#000000"></path>
                <path d="M3.10614131,93.44 L0,93.44 L0,76.3396239 C0,69.3595323 5.21195966,63.3978914 12.1261817,62.4712143 L23.2957864,60.986597 L23.2957864,54.5755752 L26.4019277,54.5755752 L26.4019277,62.3484237 C26.4019277,63.1273141 25.8257577,63.7863331 25.0538248,63.889054 L12.5362996,65.5524749 C7.16120414,66.2722507 3.10614131,70.908008 3.10614131,76.3381643 L3.10614131,93.44 Z" id="Path" fill="#000000"></path>
                <path d="M68.48,93.44 L65.3738587,93.44 L65.3738587,76.3389816 C65.3738587,70.9086215 61.3204363,66.2712303 55.9422422,65.5528872 L43.4261752,63.8894038 C42.6542423,63.7868615 42.0780723,63.1276353 42.0780723,62.3487156 L42.0780723,54.5755752 L45.1842136,54.5755752 L45.1842136,60.9868378 L56.3521778,62.4715109 C63.2663999,63.3965806 68.48,69.3600875 68.48,76.3404413 L68.48,93.44 L68.48,93.44 Z" id="Path" fill="#000000"></path>
                <rect id="Rectangle" fill="#000000" x="12.3759036" y="81.0364602" width="3.30024096" height="12.4035398"></rect>
                <rect id="Rectangle" fill="#000000" x="52.8038554" y="81.0364602" width="3.30024096" height="12.4035398"></rect>
                <path d="M24.4326987,76.0750442 C24.2425512,76.0750442 24.0522207,76.0416581 23.8697597,75.9731005 C23.3972277,75.7951007 23.0432862,75.4026798 22.9201204,74.9234906 L19.8014458,62.7539793 L22.8266023,62.0176991 L25.4088744,72.0926327 L32.9232679,67.2050464 L34.6525301,69.7363219 L25.2966892,75.8211668 C25.037547,75.9898828 24.7350313,76.0750442 24.4326987,76.0750442 Z" id="Path" fill="#000000"></path>
                <path d="M34.6525301,70.2867257 C34.3890286,70.2867257 34.1255271,70.2185035 33.8882491,70.0820591 L23.1016867,63.8816619 L24.6302488,61.1907965 L34.6525301,66.9523885 L44.6748115,61.1907965 L46.2033735,63.8816619 L35.4168111,70.0820591 C35.1795332,70.2186854 34.9160316,70.2867257 34.6525301,70.2867257 Z" id="Path" fill="#000000"></path>
                <path d="M44.0498992,76.0750442 C43.7473499,76.0750442 43.4448007,75.9882859 43.1843485,75.8195892 L33.8274699,69.7354397 L35.5569239,67.2044535 L43.0721509,72.0914812 L45.6547095,62.0176991 L48.6785542,62.7538951 L45.5595337,74.9220156 C45.4378185,75.40115 45.0823735,75.793526 44.6097891,75.9715055 C44.4304193,76.0416619 44.2402507,76.0750442 44.0498992,76.0750442 Z" id="Path" fill="#000000"></path>
                <path d="M31.3444058,93.44 L28.0520482,93.1579241 L29.673495,76.4363334 L28.1298326,72.0944377 L31.2650695,71.1136283 L32.9177465,75.7623338 C32.9887418,75.9652975 33.0168683,76.1808101 32.995337,76.393049 L31.3444058,93.44 Z" id="Path" fill="#000000"></path>
                <path d="M37.1367997,93.44 L35.4839488,76.3933931 C35.4641611,76.1795034 35.4905447,75.9656137 35.5632934,75.7626368 L37.2161443,71.1136283 L40.3501592,72.0945016 L38.8063343,76.4366803 L40.4279518,93.1593607 L37.1367997,93.44 Z" id="Path" fill="#000000"></path>
                <rect id="Rectangle" fill="#000000" x="31.3522892" y="74.4212389" width="6.60048193" height="3.30761062"></rect>
            </g>
            <g id="Group-3" transform="translate(47.360000, 68.480000)">
                <ellipse id="Oval" stroke="#FFFFFF" stroke-width="0.64" fill="#FFFFFF" cx="18.0093023" cy="18.24" rx="8.18604651" ry="8.29090909"></ellipse>
                <g id="Group" fill-rule="nonzero">
                    <path d="M29.2612622,22.864557 C29.5375046,22.1655751 29.7561421,21.4356857 29.9109557,20.680663 L33.9649123,20.4374797 L33.9649123,16.0425203 L29.9986725,15.8044317 C29.7008281,13.9778403 29.0452432,12.2782749 28.0924684,10.7967592 L30.672259,7.78991404 L27.6781047,4.6811765 L24.8066885,7.3307189 C23.3740897,6.29956767 21.7238355,5.5774901 19.9413514,5.24192441 L19.7174772,1.25793103 L15.4821955,1.25793103 L15.2563575,5.27554891 C13.5056217,5.63692734 11.8923525,6.38379873 10.4885563,7.41902566 L7.52156799,4.68151614 L4.527741,7.79025368 L7.23190614,10.9421257 C6.32953586,12.3856015 5.70242615,14.0267487 5.4127643,15.7894874 L1.23508772,16.0425203 L1.23508772,20.4374797 L5.50211762,20.6959468 C5.84938453,22.3819266 6.5121701,23.9449562 7.42435944,25.3177867 L4.5280683,28.6904256 L7.52189529,31.7991631 L10.8037476,28.7678638 C12.1240819,29.6791217 13.6198499,30.3376863 15.2295188,30.6739313 L15.4821955,35.222069 L19.7174772,35.222069 L19.969172,30.7072161 C21.608298,30.3950857 23.1335231,29.7528238 24.4816781,28.8459814 L27.678432,31.7988235 L30.672259,28.690086 L27.8895415,25.4499072 C28.436135,24.6497121 28.8982848,23.7836266 29.2612622,22.864557 M17.7045728,22.6981327 C15.1915518,22.6981327 13.1544271,20.5842048 13.1544271,17.9764383 C13.1544271,15.3686718 15.1915518,13.2547438 17.7045728,13.2547438 C20.2175939,13.2547438 22.2547185,15.3686718 22.2547185,17.9764383 C22.2543912,20.5845444 20.2172666,22.6981327 17.7045728,22.6981327 Z" id="Shape" fill="#B5A19C"></path>
                    <path d="M19.7089232,36.48 L15.4910768,36.48 C14.8004333,36.48 14.2294058,35.9219859 14.1893166,35.206566 L13.9931073,31.6841867 C12.9403569,31.3788328 11.9312808,30.9447843 10.9756572,30.3850813 L8.43047806,32.7329964 C7.91355476,33.2079164 7.13002157,33.1856228 6.64112816,32.6789515 L3.66018204,29.5875806 C3.17194048,29.0809093 3.14977731,28.2682084 3.60933712,27.7331635 L5.8386911,25.1410328 C5.27515996,24.1422147 4.83482995,23.0819204 4.52356781,21.9729857 L1.22810026,21.7736949 C0.538760544,21.7314723 0,21.1403557 0,20.424598 L0,16.0540509 C0,15.3382931 0.538434615,14.7471765 1.22810026,14.7049539 L4.39319623,14.5144455 C4.67708034,13.3315368 5.10306947,12.202673 5.66627469,11.1400143 L3.60901119,8.7458232 C3.15010324,8.21145381 3.17291827,7.39875295 3.66050797,6.89208159 L6.64145409,3.80071075 C7.1303475,3.29336383 7.9151844,3.27107029 8.43015213,3.74599024 L10.6383207,5.7811202 C11.7028047,5.11467847 12.8344299,4.60733155 14.0211372,4.26583505 L14.1893166,1.27275845 C14.2300577,0.558351837 14.8004333,0 15.4910768,0 L19.7089232,0 C20.3995667,0 20.9699423,0.558014056 21.0106834,1.27275845 L21.1756035,4.21449236 C22.3997926,4.54315318 23.5614033,5.04036667 24.6473986,5.70207946 L26.7698479,3.74599024 C27.2848156,3.27309697 28.0690006,3.29336383 28.5585459,3.80071075 L31.539492,6.89208159 C32.0270817,7.39875295 32.0498968,8.21077825 31.5909888,8.7458232 L29.6660525,10.9869995 C30.269021,12.0952587 30.7214104,13.2801941 31.0186576,14.5289701 L33.9712479,14.7049539 C34.6605876,14.746501 35.2,15.3382931 35.2,16.0540509 L35.2,20.424598 C35.2,21.1403557 34.6615654,21.7321479 33.9712479,21.7736949 L30.888286,21.9584611 C30.755307,22.4306788 30.5985352,22.8964787 30.4186224,23.3518073 C30.1555977,24.0162224 29.84238,24.662735 29.4828804,25.2829008 L31.5906629,27.7331635 C32.0502227,28.2675328 32.0280595,29.0809093 31.539818,29.5875806 L28.5588718,32.6789515 C28.0693266,33.1856228 27.2864452,33.2079164 26.7695219,32.7329964 L24.3002843,30.455002 C23.3205419,31.0123405 22.2847397,31.4406467 21.2039593,31.7348538 L21.0110094,35.2062282 C20.9705942,35.9213104 20.3995667,36.48 19.7089232,36.48 L19.7089232,36.48 Z M16.7214585,33.7777528 L18.4785415,33.7777528 L18.6574765,30.5610652 C18.6923509,29.9388728 19.1330068,29.4224058 19.72359,29.3102625 C21.1628922,29.0359844 22.5154974,28.4789837 23.7435976,27.6537849 C24.2364022,27.3251241 24.8797859,27.3741024 25.31979,27.7784261 L27.5840184,29.8672632 L28.8254817,28.5799802 L26.8731673,26.3097547 C26.4690155,25.8399015 26.4315336,25.1433973 26.782885,24.6292947 C27.2750377,23.908808 27.686686,23.1342764 28.0064223,22.3269801 C28.2541283,21.7003965 28.4487079,21.0471282 28.5842943,20.386091 C28.7065177,19.790921 29.1973666,19.3534948 29.7843647,19.3180278 L32.5928944,19.1498129 L32.5928944,17.3295116 L29.8713877,17.1673767 C29.2648339,17.1312342 28.7625774,16.6647587 28.6612135,16.0439174 C28.3968852,14.4249336 27.8261836,12.9261997 26.9641015,11.5882495 C26.6349133,11.0761737 26.6808693,10.3992607 27.0749174,9.93954092 L28.8261336,7.90103316 L27.5836924,6.61273678 L25.6434374,8.40128668 C25.1933296,8.81743275 24.5287605,8.85593978 24.0336744,8.50160761 C22.7299586,7.56359003 21.2714266,6.9380198 19.6997972,6.64313707 C19.1079103,6.53234493 18.6652988,6.01520236 18.6304244,5.39233437 L18.4791933,2.70190946 L16.7208067,2.70190946 L16.567946,5.42476134 C16.5330716,6.03884703 16.1025195,6.55159844 15.5207363,6.67151066 C13.9940851,6.98632247 12.5652126,7.62810619 11.2729044,8.57929722 C10.7771665,8.94207391 10.104775,8.90525579 9.65140788,8.48775859 L7.61630756,6.61206122 L6.37386642,7.9003576 L8.24926157,10.08276 C8.63939851,10.5374131 8.68861378,11.2062193 8.36887749,11.716944 C7.54884027,13.0258451 7.00388707,14.4772896 6.74868471,16.0297306 C6.64699488,16.6498964 6.14506431,17.1150207 5.5391624,17.1518388 L2.60710562,17.3284982 L2.60710562,19.1501506 L5.62846693,19.3328901 C6.21416124,19.3683571 6.70501023,19.8051078 6.82788544,20.3996022 C7.13295493,21.8787448 7.70887138,23.2616198 8.54031611,24.5110714 C8.88156372,25.0244984 8.84017074,25.7125581 8.44025593,26.1776824 L6.37451828,28.5796424 L7.61598163,29.8669254 L9.96495153,27.7003987 C10.4091927,27.2926972 11.0617024,27.2457456 11.554507,27.5848776 C12.7594663,28.4161564 14.086323,28.9866684 15.4962916,29.2808756 C16.0774229,29.4021389 16.5066714,29.9142148 16.5408939,30.5276249 L16.7214585,33.7777528 Z M17.7044602,24.0250047 C14.4872156,24.0250047 11.8696803,21.3122862 11.8696803,17.9780509 C11.8696803,14.6438156 14.4872156,11.9310971 17.7044602,11.9310971 C20.9217048,11.9310971 23.5385883,14.6438156 23.5385883,17.9780509 C23.5385883,21.3122862 20.9217048,24.0250047 17.7044602,24.0250047 Z M17.7044602,14.6330066 C15.9245623,14.6330066 14.4771118,16.1330916 14.4771118,17.9777131 C14.4771118,19.8223347 15.9245623,21.3224197 17.7044602,21.3224197 C19.4837063,21.3224197 20.9311568,19.8223347 20.9311568,17.9777131 C20.9311568,16.1330916 19.4837063,14.6330066 17.7044602,14.6330066 Z" id="Shape" fill="#000000"></path>
                </g>
            </g>
        </g>
        <g id="Group-6" transform="translate(1055.000000, 68.000000)">
            <path d="M56.7440657,63.0787269 L53.7163821,62.72 L53.5737193,62.8915968 C45.6940144,73.2257809 30.7903955,75.3216741 20.2857321,67.5698481 C18.4834997,66.2396532 16.8824441,64.664581 15.5303054,62.8915968 L15.3876426,62.72 L12.3759343,63.0787269 C6.03375535,63.8647096 1.27832861,69.1714182 1.28,75.4605597 L1.28,94.08 L67.84,94.08 L67.84,75.4605597 C67.8416714,69.1714182 63.0862446,63.8647096 56.7440657,63.0787269 Z" id="Path" fill="#F288B7" fill-rule="nonzero"></path>
            <path d="M10.88,63.36 C5.2319375,64.7820732 1.284875,69.7507317 1.28,75.4419512 L1.28,94.08 L10.88,94.08 L10.88,63.36 Z" id="Path" fill="#ED7BB2" fill-rule="nonzero"></path>
            <g id="Group" transform="translate(1.280000, 67.840000)" fill="#DB6EA2" fill-rule="nonzero">
                <rect id="Rectangle" x="0.147911111" y="23.6299025" width="66.2641778" height="3.12791564"></rect>
                <rect id="Rectangle" x="0.147911111" y="15.8103884" width="66.2641778" height="3.12791564"></rect>
                <rect id="Rectangle" x="0.147911111" y="7.99069091" width="66.2641778" height="3.12791564"></rect>
                <rect id="Rectangle" x="1.06292622" y="0.170993455" width="63.7713209" height="3.12791564"></rect>
            </g>
            <path d="M53.4399297,16 L53.4399297,25.44 L51.84,34.88 L51.84,41.1732719 C51.84,48.1242094 57.571097,53.76 64.64,53.76 L64.64,28.5867281 C64.6398125,22.7182563 59.8398359,16 53.4399297,16 Z" id="Path" fill="#A15D30" fill-rule="nonzero"></path>
            <path d="M61.4399531,49.1342156 C58.3488432,45.0010813 56.6688514,40.0104188 56.6399766,34.8798156 L56.6399766,16.5820719 C55.6160441,16.2044719 54.5328619,16.0077438 53.4399297,16 L53.4399297,25.44 L51.84,34.88 L51.84,41.1732719 C51.84,48.1242094 57.571097,53.76 64.64,53.76 L64.64,53.5712 L61.4399531,49.1342156 Z" id="Path" fill="#8F4F24" fill-rule="nonzero"></path>
            <path d="M53.6328378,62.8668804 L53.76,62.6935384 L45.2918924,61.638164 C43.6935215,61.4380546 42.4987927,60.0849159 42.5116393,58.4875477 L42.5116393,51.84 L26.6241862,51.84 L26.6241862,58.5034235 C26.6368465,60.1007917 25.4421178,61.4539304 23.8439331,61.6540399 L15.36,62.7094142 L15.5029876,62.8668804 C23.4006342,73.3061701 38.3381876,75.4233798 48.8667695,67.5927127 C50.6729193,66.2489887 52.2776204,64.6580816 53.6328378,62.8668804 Z" id="Path" fill="#FEDAC6" fill-rule="nonzero"></path>
            <path d="M42.88,55.9351361 L42.88,50.56 L26.88,50.56 L26.88,55.9351361 C31.7327065,59.008288 38.027106,59.008288 42.88,55.9351361 Z" id="Path" fill="#F5C4B0" fill-rule="nonzero"></path>
            <path d="M51.84,24.96 L50.9760552,37.4756167 C50.5896457,46.2255667 43.3539011,53.12 34.56,53.12 L34.56,53.12 C25.7659148,53.12 18.5303543,46.2255667 18.1439448,37.4756167 L17.28,24.96 C17.28,24.96 26.7055215,15.5733333 28.2763804,10.88 C28.2761963,10.88 42.4144785,23.3956167 51.84,24.96 Z" id="Path" fill="#FEDAC6" fill-rule="nonzero"></path>
            <path d="M17.28,24.9146856 L18.1464104,37.5854545 C18.3969365,43.7180644 22.0062107,49.2060644 27.52,51.84 C23.1403166,42.1311326 22.1478124,28.4942841 21.974641,20.48 C19.5171961,22.9825265 17.28,24.9146856 17.28,24.9146856 Z" id="Path" fill="#F5C4B0" fill-rule="nonzero"></path>
            <path d="M54.0930522,24.96 L54.2201806,23.96544 C55.6941625,12.998455 47.9447292,2.921875 36.9106188,1.45686 C36.0242567,1.33846 35.1317522,1.28 34.2390616,1.28 L34.2390616,1.28 C23.1079762,1.278335 14.0814891,10.246765 14.08,21.310135 C14.08,22.197395 14.1388178,23.08447 14.2579425,23.96544 L14.3850709,24.96 L17.5617913,24.96 C20.7385117,21.707885 27.2505373,15.140755 28.6800335,10.752 C28.8864543,11.478125 43.4356737,24.96 52.5049712,24.96 L54.0930522,24.96 Z" id="Path" fill="#A15D30" fill-rule="nonzero"></path>
            <path d="M17.28,34.56 L15.6800469,34.56 C13.028771,34.56 10.88,32.41125 10.88,29.76 L10.88,29.76 C10.88,27.10875 13.028771,24.96 15.6800469,24.96 L17.28,24.96" id="Path" fill="#F5C4B0" fill-rule="nonzero"></path>
            <g id="Group" transform="translate(17.280000, 24.960000)" fill="#EBEBEB" fill-rule="nonzero">
                <path d="M9.49090133,9.31194 L4.75774578,9.31194 C2.14341689,9.31194 0.0245902222,7.24914 0.0245902222,4.70394 L0.0245902222,0.09594 L14.2240569,0.09594 L14.2240569,4.70394 C14.2240569,7.24914 12.1052302,9.31194 9.49090133,9.31194 Z" id="Path"></path>
                <path d="M28.4235236,9.31194 L23.690368,9.31194 C21.0760391,9.31194 18.9572124,7.24914 18.9572124,4.70394 L18.9572124,0.09594 L33.1566791,0.09594 L33.1566791,4.70394 C33.1566791,7.24914 31.0378524,9.31194 28.4235236,9.31194 Z" id="Path"></path>
            </g>
            <path d="M52.48,34.56 L54.0799531,34.56 C56.731229,34.56 58.88,32.41125 58.88,29.76 L58.88,29.76 C58.88,27.10875 56.731229,24.96 54.0799531,24.96 L52.48,24.96" id="Path" fill="#FEDAC6" fill-rule="nonzero"></path>
            <path d="M24.32,3.84 C17.1520719,7.85855217 13.1656603,15.8337813 14.2589063,23.9640689 L14.3857213,24.96 L17.5546122,24.96 C19.2499975,23.2684363 21.8325312,20.691724 24.114088,17.9253106 C23.5910456,13.2396551 23.6608588,8.50824157 24.32,3.84 Z" id="Path" fill="#8F4F24" fill-rule="nonzero"></path>
            <path d="M52.48,26.88 C44.8565066,26.88 33.7874961,18.3268011 29.2891615,13.9514607 C26.8237708,18.5091914 21.7792363,23.5285109 18.8719656,26.4198834 L16.64,24.1989928 C19.6279152,21.2244312 25.8466038,15.038072 27.3065279,10.6783755 C27.5258957,10.02501 28.1351685,9.55072183 28.8406228,9.60409535 C29.4056891,9.61661052 29.9123066,9.9291217 30.18069,10.4050663 C31.3946115,11.8954758 44.6480517,23.7388762 52.48,23.7388762 L52.48,26.88 Z" id="Path" fill="#000000" fill-rule="nonzero"></path>
            <rect id="Rectangle" fill="#000000" fill-rule="nonzero" x="32" y="23.68" width="4.48" height="3.2"></rect>
            <path d="M55.3623029,25.6 L52.2095413,25.2000262 L52.3367319,24.1999055 C52.4464174,23.3776337 52.501912,22.550525 52.501912,21.7297415 C52.4987462,11.4984107 44.1654367,3.17504814 33.9252,3.17504814 C33.9235239,3.17504814 33.9235239,3.17504814 33.9220342,3.17504814 C33.0989269,3.17504814 32.2709778,3.23067241 31.4605337,3.33857233 C26.5421883,3.99415736 22.1737606,6.5245965 19.1608527,10.4633156 C16.1479448,14.4003604 14.8495955,19.2755765 15.5058466,24.1887435 L15.634527,25.1983519 L12.4817654,25.5983257 L12.3545748,24.5982051 C11.5869621,18.8545807 13.1061723,13.1461169 16.6356638,8.53283724 C20.1651553,3.91955759 25.2803388,0.957332733 31.0392964,0.189010893 C31.9881045,0.0651120203 32.9590731,1.81188398e-13 33.9220342,1.81188398e-13 C33.9220342,1.81188398e-13 33.9237102,1.81188398e-13 33.9252,1.81188398e-13 C39.7349966,1.81188398e-13 45.1967417,2.25901504 49.3061328,6.36274662 C53.4155238,10.4664782 55.6785102,15.9241678 55.68,21.7297415 C55.68,22.6902368 55.6164978,23.6585456 55.4893073,24.6078788 L55.3623029,25.6 Z" id="Path" fill="#000000" fill-rule="nonzero"></path>
            <path d="M54.015964,36.48 L52.48,36.48 L52.48,33.2799531 L54.015964,33.2799531 C55.7101505,33.2799531 57.088072,31.8448351 57.088072,30.0799063 C57.088072,28.3151649 55.7103305,26.8798594 54.015964,26.8798594 L52.48,26.8798594 L52.48,23.68 L54.015964,23.68 C57.4045169,23.68 60.16,26.5504235 60.16,30.0799063 C60.16,33.609389 57.4045169,36.48 54.015964,36.48 Z" id="Path" fill="#000000" fill-rule="nonzero"></path>
            <path d="M34.8790779,55.04 C25.2027529,55.04 17.2886768,47.5161427 16.8623143,37.9132453 L16,25.4448667 L19.1394438,25.2307159 L20.0048932,37.7366487 C20.3573061,45.7027302 26.8912367,51.913471 34.8790779,51.913471 C42.8669192,51.913471 49.4008498,45.7027302 49.7517874,37.7756685 L50.6188965,23.68 L53.76,23.8707023 L52.8945506,37.939808 C52.4709544,47.5176082 44.555403,55.04 34.8790779,55.04 Z" id="Path" fill="#000000" fill-rule="nonzero"></path>
            <path d="M17.28,36.48 L15.744036,36.48 C12.3554831,36.48 9.6,33.6095765 9.6,30.0800937 C9.6,26.550611 12.3554831,23.68 15.744036,23.68 L17.28,23.68 L17.28,26.8800469 L15.744036,26.8800469 C14.0498495,26.8800469 12.671928,28.3151649 12.671928,30.0800937 C12.671928,31.8448351 14.0496695,33.2801406 15.744036,33.2801406 L17.28,33.2801406 L17.28,36.48 L17.28,36.48 Z" id="Path" fill="#000000" fill-rule="nonzero"></path>
            <path d="M64.9598875,55.04 C57.019137,55.04 50.56,48.6801942 50.56,40.8615598 L50.56,34.5600923 L53.7600375,34.5600923 L53.7600375,40.8615598 C53.7600375,46.4085053 57.9391924,51.0102214 63.3599625,51.7772972 L63.3599625,28.2584402 C63.3599625,23.1590017 59.1663703,17.230826 53.7600375,17.230826 L53.7600375,14.08 C61.0863553,14.08 66.56,21.5646657 66.56,28.2584402 L66.56,53.4644947 C66.56,54.3356934 65.8446931,55.04 64.9598875,55.04 Z" id="Path" fill="#000000" fill-rule="nonzero"></path>
            <path d="M26.9963804,36.48 L22.2836196,36.48 C18.8180837,36.48 16,33.6095345 16,30.08 L16,25.2799531 C16,24.3968195 16.7037845,23.68 17.5708589,23.68 L31.7091411,23.68 C32.5762155,23.68 33.28,24.3968195 33.28,25.2799531 L33.28,30.08 C33.2801841,33.6095345 30.4619163,36.48 26.9963804,36.48 Z M19.1419019,26.8799062 L19.1419019,30.08 C19.1419019,31.8447672 20.5509437,33.2800938 22.2838037,33.2800938 L26.9965645,33.2800938 C28.7292404,33.2800938 30.1384663,31.8449547 30.1384663,30.08 L30.1384663,26.8799062 L19.1419019,26.8799062 Z" id="Shape" fill="#000000" fill-rule="nonzero"></path>
            <path d="M45.5563804,36.48 L40.8436196,36.48 C37.3780837,36.48 34.56,33.6095345 34.56,30.08 L34.56,25.2799531 C34.56,24.3968195 35.2637845,23.68 36.1308589,23.68 L50.2691411,23.68 C51.1378723,23.68 51.84,24.3968195 51.84,25.2799531 L51.84,30.08 C51.8401841,33.6095345 49.0219163,36.48 45.5563804,36.48 Z M37.7019019,26.8799062 L37.7019019,30.08 C37.7019019,31.8447672 39.1109437,33.2800938 40.8438037,33.2800938 L45.5565645,33.2800938 C47.2892404,33.2800938 48.6984663,31.8449547 48.6984663,30.08 L48.6984663,26.8799062 L37.7019019,26.8799062 Z" id="Shape" fill="#000000" fill-rule="nonzero"></path>
            <path d="M34.9107299,74.24 C27.2422871,74.24 19.6652034,70.704381 14.72,63.9999901 L17.23985,62.08 C20.7740629,66.8692795 25.9318839,69.9740642 31.76244,70.8210966 C37.5881974,71.664939 43.3980824,70.1566434 48.1103662,66.5634171 C49.7828837,65.2872392 51.2649313,63.7804447 52.52015,62.08 L55.04,63.9999901 C53.6068618,65.9438112 51.9121967,67.6667735 50.0001154,69.1240294 C45.4770094,72.5748326 40.1709837,74.24 34.9107299,74.24 Z" id="Path" fill="#000000" fill-rule="nonzero"></path>
            <path d="M3.13031989,94.08 L-1.59872116e-14,94.08 L-1.59872116e-14,75.4005333 C-0.00165043326,68.3198333 5.29674458,62.3123667 12.3261149,61.4268667 L23.6613713,60.0188667 C24.4455103,59.9202333 25.0341189,59.2475833 25.0293499,58.4544833 L25.0293499,51.84 L28.16,51.84 L28.16,58.4420167 C28.1785621,60.8105 26.4114522,62.8286333 24.051148,63.1228833 L12.717359,64.5308833 C7.2500302,65.2193 3.1288525,69.8922833 3.13031989,75.4007167 L3.13031989,94.08 Z" id="Path" fill="#000000" fill-rule="nonzero"></path>
            <path d="M69.76,94.08 L66.6293335,94.08 L66.6293335,75.4005333 C66.6309845,69.8921 62.5094086,65.2191167 57.0417948,64.53235 L45.7121845,63.12435 C43.348639,62.8302833 41.5814369,60.8105 41.6,58.4310167 L41.6,51.84 L44.7308133,51.84 L44.7308133,58.4420167 C44.7245765,59.2477667 45.3130324,59.9204167 46.0988631,60.01905 L57.4301244,61.42705 C64.4615119,62.3109 69.7616505,68.3183667 69.76,75.4007167 L69.76,94.08 Z" id="Path" fill="#000000" fill-rule="nonzero"></path>
            <circle id="Oval" fill="#000000" fill-rule="nonzero" cx="25.6" cy="28.16" r="3.2"></circle>
            <circle id="Oval" fill="#000000" fill-rule="nonzero" cx="44.16" cy="28.16" r="3.2"></circle>
            <path d="M78.5572819,84.4498456 C78.4082359,84.4498456 78.2623645,84.4620166 78.1158582,84.471691 C78.1741115,84.0215211 78.214111,83.5660459 78.214111,83.1002722 C78.214111,77.1377445 73.2971812,72.3041524 67.2318513,72.3041524 C62.1039714,72.3041524 57.809733,75.763829 56.6006987,80.4348294 C52.1802713,80.7757726 48.6991986,84.4027221 48.6991986,88.8356084 C48.6991986,93.4939697 52.5405848,97.2700916 57.279104,97.2700916 L78.5572819,97.2700916 C82.1586707,97.2700916 85.0780036,94.4002389 85.0780036,90.8598906 C85.0780036,87.3196983 82.1586707,84.4498456 78.5572819,84.4498456 Z" id="Path" fill="#A2C4FF" fill-rule="nonzero"></path>
            <path d="M78.5572819,97.8944 L57.2792627,97.8944 C52.1980489,97.8944 48.064285,93.8306999 48.064285,88.8356084 C48.064285,84.2913109 51.5602782,80.4306164 56.1032439,79.8579566 C57.5564025,75.0210877 62.0700035,71.68 67.2316925,71.68 C73.6374949,71.68 78.8488659,76.8030427 78.8488659,83.1002722 C78.8488659,83.3358897 78.839501,83.5757202 78.8206123,83.8302184 C82.6446971,83.9670638 85.7129172,87.0676968 85.7129172,90.8598906 C85.7129172,94.7385295 82.5027939,97.8944 78.5572819,97.8944 Z M67.2316925,72.9283048 C62.5020622,72.9283048 58.3835362,76.0784018 57.2159301,80.588839 C57.1486292,80.8478622 56.9214889,81.0362002 56.650222,81.0572654 C52.5477276,81.3735546 49.3341123,84.7903208 49.3341123,88.8357644 C49.3341123,93.1424158 52.8983586,96.6462513 57.2792627,96.6462513 L78.5572819,96.6462513 C81.8028016,96.6462513 84.4432487,94.0505576 84.4432487,90.8600466 C84.4432487,87.6698478 81.8028016,85.0741541 78.5572819,85.0741541 C78.4483942,85.0741541 78.3412525,85.082112 78.2339521,85.0894458 L78.1585561,85.094595 C77.9688757,85.1077022 77.7841158,85.0360808 77.6537998,84.9001716 C77.5234837,84.7642624 77.4618971,84.578421 77.4857064,84.3930478 C77.5491977,83.9021519 77.5790387,83.4913036 77.5790387,83.1005842 C77.5791974,77.4914828 72.9371851,72.9283048 67.2316925,72.9283048 Z" id="Shape" stroke="#000000" stroke-width="0.96" fill="#000000" fill-rule="nonzero"></path>
            <g id="Group-8" transform="translate(61.440000, 80.000000)">
                <path d="M7.290781,8.32 C7.55413261,8.32 7.81762146,8.22423426 8.01853171,8.03270279 C8.42048943,7.64937819 8.42048943,7.02820917 8.01853171,6.6450154 L4.40475472,3.20006541 L8.01853171,-0.245015395 C8.42048943,-0.628339998 8.42048943,-1.24950901 8.01853171,-1.63270279 C7.61657398,-2.01576574 6.96485079,-2.01576574 6.56303029,-1.63270279 L2.2215026,2.50628713 C2.02841468,2.69036144 1.92,2.9398495 1.92,3.20019624 C1.92,3.46054299 2.02841468,3.70990022 2.2215026,3.89410535 L6.56303029,8.03296444 C6.76394054,8.22423426 7.02729215,8.32 7.290781,8.32 L7.290781,8.32 Z" id="Path" fill="#000000" fill-rule="nonzero" transform="translate(5.120000, 3.200000) rotate(90.000000) translate(-5.120000, -3.200000) "></path>
                <line x1="5.12" y1="1.92" x2="5.12" y2="11.52" id="Line" stroke="#000000" stroke-width="1.92" fill="#D8D8D8" stroke-linecap="round"></line>
            </g>
        </g>
        <g id="Group-4" transform="translate(918.000000, 213.000000)" fill-rule="nonzero">
            <path d="M34.8408118,74.88 C40.5389722,74.8831853 45.6905174,71.4144453 47.9351638,66.0639608 L48.64,64.4640279 L45.4291406,64.080029 C43.8471137,63.8848421 42.6615571,62.5072835 42.6723866,60.8799757 L42.6723866,52.48 L27.0094206,52.48 L27.0094206,60.8319759 C27.0204337,62.4590962 25.8346936,63.8368422 24.2526666,64.0320291 L21.12,64.416028 L21.8248362,66.0159609 C24.0426842,71.358383 29.1597217,74.8417479 34.8408118,74.88 Z" id="Path" fill="#FEDAC6"></path>
            <path d="M57.4816286,65.6345978 L49.1616286,64.64 L48.4484857,66.2440262 C45.3026714,73.6500293 36.8211,77.0733179 29.5043286,73.8891388 C26.113,72.4133144 23.4108571,69.6767137 21.9513286,66.2440262 L21.2381857,64.64 L12.9181857,65.6345978 C6.62042857,66.4863313 1.92,71.9241926 1.92,78.3549598 L1.92,96 L68.48,96 L68.48,78.3549598 C68.48,71.9241926 63.7777143,66.4863313 57.4816286,65.6345978 Z" id="Path" fill="#E88484"></path>
            <path d="M1.28,78.3214429 L1.28,96 L8.32,96 L8.32,67.2 C3.96746374,69.4933703 1.2851563,73.7315005 1.28,78.3214429 Z" id="Path" fill="#D45B5B"></path>
            <rect id="Rectangle" fill="#FEDAC6" x="1.92" y="87.68" width="12.16" height="8.32"></rect>
            <g id="Group" transform="translate(1.280000, 51.840000)" fill="#F5C4B0">
                <rect id="Rectangle" x="0.149610762" y="35.4970633" width="6.36741166" height="8.04171882"></rect>
                <path d="M41.5382529,6.54710166 L41.5382529,0.113839693 L25.6196305,0.113839693 L25.6196305,6.54710166 C31.5889507,9.76382689 35.5687462,9.76382689 41.5382529,6.54710166 Z" id="Path"></path>
            </g>
            <g id="Group" transform="translate(17.920000, 16.000000)" fill="#FEDAC6">
                <rect id="Rectangle" x="37.8157431" y="71.8386916" width="12.5970055" height="7.97514019"></rect>
                <path d="M34.6664455,17.6082243 C34.6459632,23.7953271 32.4084064,29.7639252 28.368035,34.4037383 L27.7223801,35.1534579 C25.1006412,38.1807477 21.321558,39.9241121 17.345586,39.938509 L17.345586,39.938509 C13.3476555,39.9416822 9.54181606,38.1983178 6.90586861,35.1534579 L6.32332146,34.3878505 C2.28756321,29.751215 0.048530219,23.788972 0.0249109489,17.6082243 L0.0249109489,0.0629906542 L34.6664455,0.0629906542 L34.6664455,17.6082243 L34.6664455,17.6082243 Z" id="Path"></path>
            </g>
            <path d="M25.0217527,16 L17.92,16 L17.92,33.607563 C17.9404832,39.8166455 20.1781304,45.806447 24.218665,50.4627431 L24.864346,51.2151261 C25.4690607,51.9194886 26.144636,52.5580106 26.88,53.12 C22.7542111,39.1137836 23.9983326,23.6352525 25.0217527,16 Z" id="Path" fill="#F5C4B0"></path>
            <path d="M53.888039,26.88 L50.56,26.88 L50.56,36.48 L53.888039,36.48 C56.6453175,36.48 58.88,34.33125 58.88,31.68 C58.88,29.0289375 56.6453175,26.88 53.888039,26.88 Z" id="Path" fill="#FEDAC6"></path>
            <path d="M10.88,31.68 C10.88,34.33125 13.1146825,36.48 15.871961,36.48 L19.2,36.48 L19.2,26.88 L15.871961,26.88 C13.1146825,26.88 10.88,29.0289375 10.88,31.68 Z" id="Path" fill="#F5C4B0"></path>
            <path d="M42.3135575,4.56004805 L24.5625577,4.56004805 C22.3841282,4.56177773 20.3930645,3.29238549 19.4182787,1.28 L15.7824152,3.16592673 C12.5339355,4.85832159 11.2287013,8.95189535 12.867361,12.3072805 C13.6897609,13.993141 15.1537072,15.2494646 16.9097729,15.7775933 L16.9097729,27.52 C16.9097729,27.52 21.1014076,21.3536942 24.848537,16.0401201 L45.4891004,16.0401201 L51.84,25.8800721 L51.84,14.4 C51.84,8.96496404 47.5752424,4.56004805 42.3135575,4.56004805 Z" id="Path" fill="#5C5E6F"></path>
            <path d="M28.0299657,13.3427848 C22.4646987,12.7694198 17.4487409,9.75288502 14.3628992,5.12 C11.6548586,7.5048365 11.4104318,11.6178903 13.8135899,14.3036234 C14.6421112,15.229942 15.7184076,15.9009599 16.9184055,16.2411762 L16.9184055,27.52 C16.9184055,27.52 21.1090043,21.5971361 24.8552076,16.4933386 L45.4906699,16.4933386 L51.84,25.9448154 L51.84,16.0050738 C46.1735396,15.4221097 36.4111632,14.3824473 28.0299657,13.3427848 Z" id="Path" fill="#525463"></path>
            <circle id="Oval" fill="#000000" cx="25.92" cy="30.4" r="3.52"></circle>
            <circle id="Oval" fill="#000000" cx="43.84" cy="30.4" r="3.52"></circle>
            <path d="M53.503961,38.4 L51.84,38.4 L51.84,35.36 L53.503961,35.36 C55.3393297,35.36 56.832078,33.9966579 56.832078,32.32 C56.832078,30.6433421 55.3395247,29.28 53.503961,29.28 L51.84,29.28 L51.84,26.24 L53.503961,26.24 C57.1748934,26.24 60.16,28.9668624 60.16,32.3198219 C60.16,35.6727814 57.1746984,38.4 53.503961,38.4 Z" id="Path" fill="#000000"></path>
            <path d="M17.92,38.4 L16.256039,38.4 C12.5851066,38.4 9.6,35.6730577 9.6,32.32 C9.6,28.9669423 12.5853016,26.24 16.256039,26.24 L17.92,26.24 L17.92,29.2800891 L16.256039,29.2800891 C14.4206703,29.2800891 12.927922,30.6434711 12.927922,32.3201781 C12.927922,33.9968851 14.4204753,35.3602672 16.256039,35.3602672 L17.92,35.3602672 L17.92,38.4 Z" id="Path" fill="#000000"></path>
            <path d="M52.1715621,27.52 C51.6505827,27.52 51.1487748,27.2578325 50.8500353,26.7997034 L44.9686829,17.8072829 L19.0554045,17.8072829 C15.9423715,17.8072829 13.1388734,16.0443868 11.7428945,13.206642 C9.72412276,9.06090532 11.3711918,4.06701319 15.3944032,2.03056753 L19.0252514,0.172251582 C19.4016073,-0.0202954455 19.8369666,-0.0527344029 20.2386363,0.0815742629 C20.638817,0.217590242 20.9691986,0.508971755 21.1583073,0.894255512 C21.8682091,2.33978098 23.2945273,3.23820731 24.8798011,3.23820731 C24.8798011,3.23820731 24.8814762,3.23820731 24.8829653,3.23820731 L42.6418651,3.23820731 C48.7711434,3.23820731 53.76,8.32125915 53.76,14.5696473 L53.76,25.9010874 C53.76,26.6134165 53.3024912,27.2447431 52.6322351,27.4501898 C52.4797942,27.4974255 52.3256781,27.52 52.1715621,27.52 Z M19.1823456,3.71416839 L16.8125317,4.92655071 C14.3505832,6.1730793 13.3452922,9.21949578 14.5635165,11.7222277 C15.435538,13.4915737 17.150917,14.5696473 19.0552184,14.5696473 L45.8183687,14.5696473 C46.3488407,14.5696473 46.8445063,14.839972 47.1398955,15.2899439 L50.5833103,20.5541607 L50.5833103,14.569837 C50.5833103,10.1069194 47.020772,6.4758429 42.641679,6.4758429 L24.8842682,6.4758429 C24.882593,6.4758429 24.881104,6.4758429 24.8794288,6.4758429 C22.6257603,6.4758429 20.556175,5.44785045 19.1823456,3.71416839 Z" id="Shape" fill="#000000"></path>
            <polygon id="Rectangle" fill="#000000" transform="translate(21.423338, 21.549969) rotate(125.521026) translate(-21.423338, -21.549969) " points="14.5814691 19.9899339 28.2781409 19.9343064 28.265207 23.1100032 14.5685353 23.1656307"></polygon>
            <path d="M35.1933438,57.6 C30.6701159,57.6 26.3694494,55.6528154 23.3902764,52.254383 L22.7327171,51.4080093 C18.4399256,46.5472666 16.0254999,40.1968386 16,33.606411 L16,16 L19.2000469,16 L19.2000469,33.6000361 C19.2223593,39.4080273 21.3536614,45.0127689 25.2000176,49.3728874 L25.8592644,50.2224486 C28.1681281,52.8496946 31.5920489,54.3984423 35.1888438,54.3984423 C35.1920313,54.3984423 35.1952188,54.3984423 35.1984063,54.3984423 C38.7743888,54.3840048 42.1806847,52.8335697 44.5407356,50.1440737 L45.1951074,49.3936998 C49.0495261,45.0225189 51.1806407,39.4129023 51.1999531,33.5936611 L51.1999531,22.3999279 L54.4,22.3999279 L54.4,33.5998486 C54.3776876,40.1998386 51.9647619,46.5581416 47.5999707,51.5055092 L46.9487864,52.2526955 C43.9823634,55.633503 39.7040093,57.582375 35.2064687,57.6 C35.2012187,57.6 35.1965313,57.6 35.1933438,57.6 Z" id="Path" fill="#000000"></path>
            <path d="M3.12893618,96 L4.08562073e-14,96 L4.08562073e-14,78.3999639 C4.08562073e-14,71.2159122 5.25027681,65.079984 12.2150794,64.1263604 L23.6588788,62.7471125 C24.4442754,62.6494251 25.0371728,61.9631761 25.0309394,61.1471774 L25.0309394,54.4 L28.16,54.4 L28.16,61.1359274 C28.1771089,63.5679862 26.4015334,65.6319831 24.0297605,65.9246702 L12.604661,67.3007306 C7.21211815,68.0383545 3.12728619,72.8111598 3.12893618,78.3999639 L3.12893618,96 Z" id="Path" fill="#000000"></path>
            <path d="M69.76,96 L66.6310839,96 L66.6310839,78.2696436 C66.6248506,72.6490902 62.5400449,67.8458555 57.1303035,67.1012588 L45.734977,65.7182203 C43.3569862,65.4216661 41.583072,63.3423862 41.6,60.8809858 L41.6,52.48 L44.729038,52.48 L44.729038,60.8938301 C44.7228047,61.7272043 45.3140483,62.4187235 46.105673,62.5169453 L57.5213493,63.9031949 C64.5002237,64.8638796 69.7504668,71.0373083 69.76,78.2679436 L69.76,96 L69.76,96 Z" id="Path" fill="#000000"></path>
            <path d="M34.8872244,75.52 C34.8809262,75.52 34.874628,75.52 34.8698117,75.52 C28.4804423,75.52 22.7281204,71.6772659 20.2116069,65.7274076 L23.1169435,64.46576 C25.1355263,69.2355912 29.7480538,72.317659 34.8712936,72.317659 C34.8761099,72.317659 34.880741,72.317659 34.8855573,72.317659 C40.0087971,72.317659 44.6228065,69.2354035 46.6430565,64.46576 L49.5483931,65.7290963 C47.0289157,71.6755772 41.2751119,75.52 34.8872244,75.52 Z" id="Path" fill="#000000"></path>
            <rect id="Rectangle" fill="#000000" x="12.16" y="83.2" width="3.2" height="12.16"></rect>
            <rect id="Rectangle" fill="#000000" x="1.92" y="85.76" width="12.16" height="3.2"></rect>
            <rect id="Rectangle" fill="#000000" x="54.4" y="83.2" width="3.2" height="12.16"></rect>
            <rect id="Rectangle" fill="#000000" x="55.68" y="85.76" width="12.16" height="3.2"></rect>
            <g id="Group-5" transform="translate(21.760000, 78.080000)" fill="#000000">
                <g id="Group-7">
                    <path d="M7.5190934,14.72 C7.88778566,14.72 8.25667004,14.5823368 8.53794439,14.3070103 C9.1006852,13.7559811 9.1006852,12.8630507 8.53794439,12.3122096 L3.47865661,7.36009403 L8.53794439,2.40779037 C9.1006852,1.85676125 9.1006852,0.963830793 8.53794439,0.412989741 C7.97520357,-0.137663247 7.0627911,-0.137663247 6.50024241,0.412989741 L0.422103644,6.36278775 C0.151780555,6.62739457 0,6.98603365 0,7.3602821 C0,7.73453054 0.151780555,8.09298156 0.422103644,8.35777644 L6.50024241,14.3073864 C6.78151675,14.5823368 7.15020901,14.72 7.5190934,14.72 L7.5190934,14.72 Z" id="Path"></path>
                    <path d="M18.3421929,14.3070208 C18.6234627,14.5823403 18.9923412,14.72 19.3610275,14.72 C19.7297139,14.72 20.0985923,14.5823403 20.3798621,14.3070208 L26.4579031,8.35756289 C26.7282219,8.09296284 26.88,7.73433291 26.88,7.36009403 C26.88,6.98585515 26.7282219,6.62741328 26.4579031,6.36262517 L20.3798621,0.412979188 C19.8171304,-0.137659729 18.9047326,-0.137659729 18.3421929,0.412979188 C17.7794612,0.963994225 17.7794612,1.85690187 18.3421929,2.40772885 L23.4013993,7.35990597 L18.3421929,12.311895 C17.779269,12.8630981 17.779269,13.7560058 18.3421929,14.3070208 L18.3421929,14.3070208 Z" id="Path"></path>
                    <path d="M12.2218127,14.72 C12.8395279,14.72 13.394882,14.2679183 13.5305041,13.6067206 L15.9695589,1.70817093 C16.1257299,0.946552423 15.6656152,0.196217153 14.9421183,0.0320460531 C14.2189787,-0.132313101 13.5056669,0.351737772 13.3494959,1.11316823 L10.9104411,13.0117179 C10.7542701,13.7733364 11.2143848,14.5236717 11.9378817,14.6878428 C12.033121,14.709657 12.1281816,14.72 12.2218127,14.72 L12.2218127,14.72 Z" id="Path"></path>
                </g>
            </g>
        </g>
        <g id="woman" opacity="0.8" transform="translate(1063.000000, 214.000000)" fill-rule="nonzero">
            <path d="M57.4904298,28.1190232 L57.807774,26.1931635 C58.6231644,21.2664038 57.9617054,16.2084784 55.9040809,11.6543106 L55.9040809,11.6543106 C53.9544686,7.28310864 49.6062774,4.45740446 44.7998241,4.44019937 L44.7998241,4.44019937 L40.0407772,2.56169995 C36.9219924,1.00991216 33.2845257,0.860061408 30.0469461,2.15118289 L30.0469461,2.15118289 C18.9504974,6.43080936 11.9215195,17.3736143 12.6766759,29.1925836 L12.6766759,29.1925836 C12.9367605,33.6710861 12.0992471,38.1464435 10.233665,42.231819 L10.233665,42.231819 C7.07844244,49.1271736 7.86520311,57.176379 12.2959373,63.3376499 L13.0732167,64.4269354 C13.0732167,64.4269354 19.4186125,72.32 36.8682652,72.32 C54.3179178,72.32 59.2831362,60.2436944 59.2831362,60.2436944 C61.1834829,55.8330873 61.3024638,50.8635923 59.6162825,46.3678848 L59.6162825,46.3678848 C58.2059879,42.6502911 57.4857822,38.7069963 57.4906157,34.7335464 L57.4906157,34.4336599" id="Path" fill="#FECB66"></path>
            <path d="M31.9185387,14.08 C26.2545815,18.5652023 19.5802289,21.6743463 12.4462815,23.1506582 C12.0651312,25.2776103 11.9418344,27.4388356 12.0778925,29.5940127 C12.3404377,34.0308294 11.4950009,38.4645303 9.61176938,42.5118792 L9.61176938,42.5118792 C6.42669661,49.343052 7.22090048,57.3173355 11.6935519,63.4212575 L12.4460938,64.5004039 C12.4460938,64.5004039 18.2429187,71.5379487 33.92,72.32 C29.6607252,42.4491978 30.685571,23.5729329 31.9185387,14.08 Z" id="Path" fill="#F5AD76"></path>
            <path d="M61.7014366,68.2370847 L62.08,67.8588954 C61.3245369,67.5327811 60.5295168,67.3089699 59.7141638,67.1970643 L45.5187768,65.4322427 C43.9320639,65.2320683 42.745911,63.8786753 42.7584805,62.2807888 L42.7584805,52.48 L27.0015195,52.48 L27.0015195,62.2966698 C27.014089,63.8943716 25.828121,65.2479493 24.2412232,65.4481237 L10.0458362,67.2129452 C9.23029834,67.3248509 8.43546313,67.5486621 7.68,67.8747764 L8.07427523,68.2372693 C22.8312226,83.0315226 46.7993857,83.0725177 61.6082745,68.3301547 C61.6384043,68.2985773 61.6700129,68.267 61.7014366,68.2370847 Z" id="Path" fill="#FEDAC6"></path>
            <path d="M61.8812436,67.84 L61.5008816,68.214219 C46.6738227,82.8531635 22.5917846,82.8937282 7.71253735,68.3061293 C7.68077861,68.2748835 7.65069139,68.2452821 7.61911837,68.214219 L7.23875641,67.84 C3.65243344,69.2603147 1.29745802,72.6750635 1.28,76.4777355 L1.28,94.72 L67.84,94.72 L67.84,76.4777355 C67.822542,72.6734189 65.4675666,69.2588529 61.8812436,67.84 Z" id="Path" fill="#8AB5FF"></path>
            <path d="M42.88,59.7409744 L42.88,52.48 L27.52,52.48 L27.52,59.7409744 C33.2801125,62.8596752 37.1200675,62.8596752 42.88,59.7409744 Z" id="Path" fill="#F5C4B0"></path>
            <g id="Group" transform="translate(17.280000, 8.960000)" fill="#FEDAC6">
                <path d="M36.7944505,17.7081754 L35.1954739,17.7081754 L35.1954739,27.1448064 L36.7944505,27.1448064 C39.4439207,27.1448064 41.5913802,25.0324992 41.5913802,22.4263987 C41.5913802,19.8202982 39.4422342,17.7081754 36.7944505,17.7081754 Z" id="Path"></path>
                <path d="M35.1954739,17.7081754 C28.7995676,14.5625702 27.200591,3.55313664 27.200591,3.55313664 L22.4036613,5.1259392 C22.4036613,5.1259392 20.8046847,-1.16527104 16.007755,0.40753152 C9.75576216,2.45219328 14.4087784,9.84416256 8.01287207,14.5625702 C5.50731532,16.3823616 2.82898739,17.961431 0.0179891892,19.2809779 L0.897398198,30.2904115 C1.29072432,39.0870835 8.65561081,46.0182528 17.6065441,46.0182528 L17.6065441,46.0182528 C26.5574775,46.0182528 33.922364,39.0868992 34.3156901,30.2904115 L35.1954739,17.7081754 Z" id="Path"></path>
            </g>
            <path d="M24.0994019,31.2473219 L24.0994019,24.96 C22.1868506,26.2849943 20.1091869,27.341232 17.92,28.103661 L18.7696406,39.1062902 C19.1002274,46.5078747 24.255281,52.7716182 31.36,54.4 L29.3208988,50.5176726 C24.0994019,43.8217816 24.0994019,38.58775 24.0994019,31.2473219 Z" id="Path" fill="#F5C4B0"></path>
            <path d="M1.28,75.8215657 L1.28,94.72 L7.68,94.72 L7.68,66.56 C2.88,68.1244648 1.28,71.2533944 1.28,75.8215657 Z" id="Path" fill="#5C94F5"></path>
            <ellipse id="Oval" fill="#000000" cx="44.16" cy="29.76" rx="3.2" ry="3.52"></ellipse>
            <path d="M3.12728405,94.72 L0.000320055886,94.72 L0.000320055886,74.7126381 C-0.041822316,69.1279388 4.08245007,64.3875263 9.595222,63.6975855 L23.6663768,61.9331314 C24.4496752,61.8338035 25.0374697,61.1564171 25.032889,60.3577326 L25.032889,53.76 L28.16,53.76 L28.16,60.3451781 C28.1785422,62.730339 26.4135097,64.7624982 24.0557356,65.0586355 L9.98293182,66.8230896 C6.04463555,67.316221 3.09906698,70.7033377 3.12874987,74.7000837 L3.12874987,94.72 L3.12728405,94.72 L3.12728405,94.72 Z" id="Path" fill="#000000"></path>
            <path d="M69.7596772,94.72 L66.6325507,94.72 L66.6325507,74.7914727 C66.6638843,70.7821722 63.7165135,67.3967171 59.7794785,66.9019241 L45.7075927,65.1374701 C43.346581,64.8413328 41.5814568,62.8075119 41.6,60.4112736 L41.6,53.76 L44.7272735,53.76 L44.7272735,60.4223511 C44.7210434,61.2335901 45.3088685,61.9111611 46.0938567,62.0103043 L60.1642767,63.7747584 C65.677335,64.4646993 69.802005,69.2065888 69.7596772,74.8023655 L69.7596772,94.72 L69.7596772,94.72 Z" id="Path" fill="#000000"></path>
            <path d="M53.504,37.76 L51.84,37.76 L51.84,34.72 L53.504,34.72 C55.3394117,34.72 56.832,33.356578 56.832,31.68 C56.832,30.003422 55.3394117,28.64 53.504,28.64 L51.84,28.64 L51.84,25.6 L53.504,25.6 C57.1748234,25.6 60.16,28.326844 60.16,31.68 C60.16,35.033156 57.1748234,37.76 53.504,37.76 Z" id="Path" fill="#000000"></path>
            <ellipse id="Oval" fill="#000000" cx="25.6" cy="29.76" rx="3.2" ry="3.52"></ellipse>
            <path d="M34.8795607,56.96 C25.2051939,56.96 17.292971,49.3492678 16.8666786,39.6315898 L16.0045059,28.6154906 C15.9715014,28.1758253 16.1208513,27.7407939 16.4182603,27.4182738 C16.6793459,27.1352347 17.0318853,26.958034 17.4095007,26.9185531 C17.6250439,26.8662826 19.3681963,26.3476555 24.49569,22.4820486 C27.0916116,20.5256122 27.462958,18.0724208 27.8562459,15.477061 C28.2904668,12.6079299 28.7844275,9.35622322 32.8091293,8.01183353 C34.3997974,7.48041684 35.952667,7.58792353 37.2962625,8.32971969 C38.9876034,9.26280361 40.0070544,10.9821692 40.564074,12.2663181 L43.8208226,11.1749398 C44.2692409,11.0277669 44.7490042,11.0848566 45.145611,11.3298978 C45.5420334,11.5751242 45.8095725,11.9862446 45.8772409,12.4496355 C45.8914383,12.5525083 47.4159131,22.742845 52.8894927,25.4948309 C53.4573909,25.7810211 53.7988674,26.3821318 53.7564594,27.0179041 L52.8911522,39.6708854 C52.4678099,49.347785 44.5555869,56.96 34.8795607,56.96 Z M19.2393129,29.6026986 L20.0087412,39.4373364 C20.3627557,47.5131277 26.8935847,53.7968937 34.8814045,53.7968937 C42.8692243,53.7968937 49.4000534,47.5131277 49.7509334,39.4925726 L50.5502316,27.7886159 C45.8696812,24.7565565 43.8462673,18.023672 43.1146375,14.7465716 L40.0985081,15.7573198 C39.6799598,15.8965224 39.2269319,15.8538905 38.8430475,15.643511 C38.4591631,15.4316487 38.1807455,15.0677941 38.0752787,14.6407331 C37.886471,13.905239 37.1061641,11.8270235 35.7782411,11.0994998 C35.19928,10.7830965 34.5714575,10.754737 33.8068232,11.0125677 C31.7017279,11.7163658 31.4011844,13.1130259 30.970098,15.955095 C30.5438056,18.7736239 30.011862,22.2800102 26.3870859,25.0130897 C23.3440367,27.3029822 20.8959899,28.8720238 19.2393129,29.6026986 Z" id="Shape" fill="#000000"></path>
            <path d="M12.0318792,65.92 L11.2616152,64.8260262 C6.56136519,58.202171 5.72035702,49.4762066 9.06873017,42.0565821 C10.8041731,38.2040776 11.5934127,33.9346443 11.351335,29.7111029 C10.5685434,17.0724356 17.9224367,5.52439787 29.6495725,0.980727895 C33.2510771,-0.474621397 37.3319472,-0.304988573 40.8186767,1.4546965 L45.0694065,3.17796532 C50.3199504,3.317499 55.0564936,6.50262001 57.194294,11.3601014 C59.3479381,16.2352336 60.0238766,21.5986407 59.1467594,26.8667339 L58.8858903,28.756477 L55.773331,28.320411 L56.0406482,26.3862624 C56.821966,21.6904245 56.2245093,16.954826 54.3225229,12.6487906 C52.6419804,8.83270242 48.8849859,6.35955619 44.7473732,6.34376343 C44.5476683,6.34376343 44.3512795,6.30418863 44.1657603,6.22801178 L39.5283326,4.34142724 C36.7254633,2.93364203 33.5845327,2.80209763 30.7973229,3.93081548 C20.3371342,7.98305192 13.791272,18.2626524 14.489318,29.5189886 C14.7612409,34.2623905 13.8762018,39.0487116 11.9316583,43.3688676 C9.04699107,49.7595473 9.77009229,57.2759721 13.8227752,62.9864484 L14.5961711,64.0867392 L12.0318792,65.92 Z" id="Path" fill="#000000"></path>
            <path d="M58.6846978,65.28 L55.8052772,64.0364963 L57.5735323,59.8385109 C59.2996075,55.7656556 59.4059742,51.2396214 57.8755771,47.0908341 C56.4139516,43.1700286 55.6754364,39.0544732 55.68,34.8594583 L55.68,34.56 L58.8097704,34.56 L58.8097704,34.8609435 C58.8050022,38.6723993 59.4780468,42.4125645 60.80488,45.9769162 C62.6200832,50.8972773 62.4933601,56.2613491 60.4496519,61.0849851 L58.6846978,65.28 Z" id="Path" fill="#000000"></path>
            <path d="M35.1667337,79.36 C24.966921,79.36 14.7829494,75.4188905 7.04,67.5530857 L9.29335164,65.28 C23.5292934,79.7433757 46.7341003,79.7835622 61.0192427,65.3716932 L63.36,67.5547837 C55.5536862,75.4287013 45.3523826,79.36 35.1667337,79.36 Z" id="Path" fill="#000000"></path>
            <path d="M33.6387334,16.64 C32.6721989,14.8590234 31.219272,13.4076117 29.44,12.4412666 L30.9817579,9.6 C33.3121989,10.8654158 35.2145842,12.7660965 36.48,15.0982421 L33.6387334,16.64 Z" id="Path" fill="#000000"></path>
        </g>
        <g id="Group-4" transform="translate(120.000000, 641.000000)" fill-rule="nonzero">
            <path d="M18.8140384,40.4352 C21.891045,40.4369201 24.6728794,38.5638005 25.8849884,35.6745388 L26.2656,34.8105751 L24.5317359,34.6032157 C23.6774414,34.4978147 23.0372408,33.7539331 23.0430888,32.8751869 L23.0430888,28.3392 L14.5850871,28.3392 L14.5850871,32.849267 C14.5910342,33.7279119 13.9507345,34.4718948 13.09644,34.5772957 L11.4048,34.7846551 L11.7854116,35.6486189 C12.9830495,38.5335268 15.7462497,40.4145439 18.8140384,40.4352 Z" id="Path" fill="#FEDAC6"></path>
            <path d="M31.0400794,35.4426828 L26.5472794,34.9056 L26.1621823,35.7717742 C24.4634426,39.7710158 19.883394,41.6195916 15.9323374,39.900135 C14.10102,39.1031898 12.6418629,37.6254254 11.8537174,35.7717742 L11.4686203,34.9056 L6.97582029,35.4426828 C3.57503143,35.9026189 1.0368,38.839064 1.0368,42.3116783 L1.0368,51.84 L36.9792,51.84 L36.9792,42.3116783 C36.9792,38.839064 34.4399657,35.9026189 31.0400794,35.4426828 Z" id="Path" fill="#E88484"></path>
            <path d="M0.6912,42.2935791 L0.6912,51.84 L4.4928,51.84 L4.4928,36.288 C2.14243042,37.52642 0.693984402,39.8150103 0.6912,42.2935791 Z" id="Path" fill="#D45B5B"></path>
            <rect id="Rectangle" fill="#FEDAC6" x="1.0368" y="47.3472" width="6.5664" height="4.4928"></rect>
            <g id="Group" transform="translate(0.691200, 27.993600)" fill="#F5C4B0">
                <rect id="Rectangle" x="0.0807898117" y="19.1684142" width="3.4384023" height="4.34252816"></rect>
                <path d="M22.4306566,3.5354349 L22.4306566,0.0614734341 L13.8346005,0.0614734341 L13.8346005,3.5354349 C17.0580334,5.27246652 19.2071229,5.27246652 22.4306566,3.5354349 Z" id="Path"></path>
            </g>
            <g id="Group" transform="translate(9.676800, 8.640000)" fill="#FEDAC6">
                <rect id="Rectangle" x="20.4205013" y="38.7928935" width="6.802383" height="4.3065757"></rect>
                <path d="M18.7198806,9.50844112 C18.7088201,12.8494766 17.5005395,16.0725196 15.3187389,18.5780187 L14.9700853,18.9828673 C13.5543462,20.6176037 11.5136413,21.5590206 9.36661643,21.5667949 L9.36661643,21.5667949 C7.20773396,21.5685084 5.15258067,20.6270916 3.72916905,18.9828673 L3.41459359,18.5694393 C1.23528413,16.0656561 0.0262063182,12.8460449 0.0134519124,9.50844112 L0.0134519124,0.0340149533 L18.7198806,0.0340149533 L18.7198806,9.50844112 L18.7198806,9.50844112 Z" id="Path"></path>
            </g>
            <path d="M13.5117464,8.64 L9.6768,8.64 L9.6768,18.148084 C9.68786091,21.5009886 10.8961904,24.7354814 13.0780791,27.2498812 L13.4267468,27.6561681 C13.7532928,28.0365238 14.1181034,28.3813257 14.5152,28.6848 C12.287274,21.1214431 12.9590996,12.7630363 13.5117464,8.64 Z" id="Path" fill="#F5C4B0"></path>
            <path d="M29.0995411,14.5152 L27.3024,14.5152 L27.3024,19.6992 L29.0995411,19.6992 C30.5884714,19.6992 31.7952,18.538875 31.7952,17.1072 C31.7952,15.6756262 30.5884714,14.5152 29.0995411,14.5152 Z" id="Path" fill="#FEDAC6"></path>
            <path d="M5.8752,17.1072 C5.8752,18.538875 7.08192857,19.6992 8.57085894,19.6992 L10.368,19.6992 L10.368,14.5152 L8.57085894,14.5152 C7.08192857,14.5152 5.8752,15.6756262 5.8752,17.1072 Z" id="Path" fill="#F5C4B0"></path>
            <path d="M22.8493211,2.46242595 L13.2637811,2.46242595 C12.0874292,2.46335997 11.0122548,1.77788816 10.4858705,0.6912 L8.5225042,1.70960043 C6.76832518,2.62349366 6.06349868,4.83402349 6.94837494,6.64593149 C7.3924709,7.55629617 8.18300189,8.23471089 9.13127737,8.51990037 L9.13127737,14.8608 C9.13127737,14.8608 11.3947601,11.5309949 13.41821,8.66166486 L24.5641142,8.66166486 L27.9936,13.9752389 L27.9936,7.776 C27.9936,4.84108058 25.6906309,2.46242595 22.8493211,2.46242595 Z" id="Path" fill="#5C5E6F"></path>
            <path d="M15.1361815,7.2051038 C12.1309373,6.89548671 9.42232011,5.26655791 7.75596555,2.7648 C6.29362367,4.05261171 6.1616332,6.27366076 7.45933857,7.72395665 C7.90674005,8.22416867 8.48794009,8.58651835 9.13593896,8.77023513 L9.13593896,14.8608 C9.13593896,14.8608 11.3988623,11.6624535 13.4218121,8.90640285 L24.5649618,8.90640285 L27.9936,14.0102003 L27.9936,8.64273987 C24.9337114,8.32793924 19.6620281,7.76652152 15.1361815,7.2051038 Z" id="Path" fill="#525463"></path>
            <circle id="Oval" fill="#000000" cx="13.9968" cy="16.416" r="1.9008"></circle>
            <circle id="Oval" fill="#000000" cx="23.6736" cy="16.416" r="1.9008"></circle>
            <path d="M28.8921389,20.736 L27.9936,20.736 L27.9936,19.0944 L28.8921389,19.0944 C29.883238,19.0944 30.6893221,18.3581953 30.6893221,17.4528 C30.6893221,16.5474047 29.8833433,15.8112 28.8921389,15.8112 L27.9936,15.8112 L27.9936,14.1696 L28.8921389,14.1696 C30.8744424,14.1696 32.4864,15.6421057 32.4864,17.4527038 C32.4864,19.263302 30.8743371,20.736 28.8921389,20.736 Z" id="Path" fill="#000000"></path>
            <path d="M9.6768,20.736 L8.77826106,20.736 C6.79595759,20.736 5.184,19.2634512 5.184,17.4528 C5.184,15.6421488 6.79606289,14.1696 8.77826106,14.1696 L9.6768,14.1696 L9.6768,15.8112481 L8.77826106,15.8112481 C7.78716197,15.8112481 6.98107788,16.5474744 6.98107788,17.4528962 C6.98107788,18.358318 7.78705667,19.0945443 8.77826106,19.0945443 L9.6768,19.0945443 L9.6768,20.736 Z" id="Path" fill="#000000"></path>
            <path d="M28.1726435,14.8608 C27.8913147,14.8608 27.6203384,14.7192296 27.4590191,14.4718398 L24.2830888,9.61593278 L10.2899185,9.61593278 C8.60888059,9.61593278 7.09499166,8.66396889 6.34116301,7.13158669 C5.25102629,4.89288887 6.14044358,2.19618712 8.31297772,1.09650647 L10.2736358,0.0930158545 C10.476868,-0.0109595406 10.711962,-0.0284765776 10.9288636,0.044050102 C11.1449612,0.117498731 11.3233673,0.274844747 11.4254859,0.482897976 C11.8088329,1.26348173 12.5790448,1.74863195 13.4350926,1.74863195 C13.4350926,1.74863195 13.4359972,1.74863195 13.4368012,1.74863195 L23.0266072,1.74863195 C26.3364175,1.74863195 29.0304,4.49347994 29.0304,7.86760956 L29.0304,13.9865872 C29.0304,14.3712449 28.7833452,14.7121613 28.421407,14.8231025 C28.3390889,14.8486098 28.2558662,14.8608 28.1726435,14.8608 Z M10.3584666,2.00565093 L9.07876711,2.66033738 C7.74931492,3.33346282 7.20645778,4.97852772 7.86429891,6.33000298 C8.33519054,7.28544979 9.26149517,7.86760956 10.2898179,7.86760956 L24.7419191,7.86760956 C25.028374,7.86760956 25.2960334,8.01358487 25.4555436,8.25656973 L27.3149875,11.0992468 L27.3149875,7.867712 C27.3149875,5.45773649 25.3912169,3.49695517 23.0265067,3.49695517 L13.4375048,3.49695517 C13.4366002,3.49695517 13.4357961,3.49695517 13.4348915,3.49695517 C12.2179106,3.49695517 11.1003345,2.94183924 10.3584666,2.00565093 Z" id="Shape" fill="#000000"></path>
            <polygon id="Rectangle" fill="#000000" transform="translate(11.568603, 11.636983) rotate(125.521026) translate(-11.568603, -11.636983) " points="7.87399334 10.7945643 15.2701961 10.7645254 15.2632118 12.4794017 7.86700907 12.5094406"></polygon>
            <path d="M19.0044056,31.104 C16.5618626,31.104 14.2395027,30.0525203 12.6307493,28.2173668 L12.2756672,27.760325 C9.95755982,25.135524 8.65376993,21.7062929 8.64,18.147462 L8.64,8.64 L10.3680253,8.64 L10.3680253,18.1440195 C10.380074,21.2803348 11.5309771,24.3068952 13.6080095,26.6613592 L13.9640028,27.1201222 C15.2107892,28.5388351 17.0597064,29.3751588 19.0019757,29.3751588 C19.0036969,29.3751588 19.0054181,29.3751588 19.0071394,29.3751588 C20.93817,29.3673626 22.7775697,28.5301276 24.0519972,27.0777998 L24.405358,26.6725979 C26.4867441,24.3121602 27.637546,21.2829673 27.6479747,18.140577 L27.6479747,12.0959611 L29.376,12.0959611 L29.376,18.1439182 C29.3639513,21.7079129 28.0609714,25.1413965 25.7039842,27.8129749 L25.3523446,28.2164556 C23.7504762,30.0420916 21.440165,31.0944825 19.0114931,31.104 C19.0086581,31.104 19.0061269,31.104 19.0044056,31.104 Z" id="Path" fill="#000000"></path>
            <path d="M1.68962554,51.84 L2.20623519e-14,51.84 L2.20623519e-14,42.3359805 C2.20623519e-14,38.4565926 2.83514948,35.1431913 6.59614287,34.6282346 L12.7757946,33.8834407 C13.1999087,33.8306896 13.5200733,33.4601151 13.5167073,33.0194758 L13.5167073,29.376 L15.2064,29.376 L15.2064,33.0134008 C15.2156388,34.3267126 14.256828,35.4412709 12.9760707,35.5993219 L6.80651694,36.3423945 C3.8945438,36.7407114 1.68873454,39.3180263 1.68962554,42.3359805 L1.68962554,51.84 Z" id="Path" fill="#000000"></path>
            <path d="M37.6704,51.84 L35.9807853,51.84 L35.9807853,42.2656076 C35.9774193,39.2305087 33.7716243,36.636762 30.8503639,36.2346797 L24.6968876,35.487839 C23.4127725,35.3276997 22.4548589,34.2048885 22.464,32.8757323 L22.464,28.3392 L24.1536805,28.3392 L24.1536805,32.8826683 C24.1503145,33.3326903 24.4695861,33.7061107 24.8970634,33.7591505 L31.0615286,34.5077252 C34.8301208,35.026495 37.6652521,38.3601465 37.6704,42.2646896 L37.6704,51.84 L37.6704,51.84 Z" id="Path" fill="#000000"></path>
            <path d="M18.8391012,40.7808 C18.8357002,40.7808 18.8322991,40.7808 18.8296983,40.7808 C15.3794388,40.7808 12.273185,38.7057236 10.9142677,35.4928001 L12.4831495,34.8115104 C13.5731842,37.3872192 16.063949,39.0515359 18.8304986,39.0515359 C18.8330994,39.0515359 18.8356001,39.0515359 18.8382009,39.0515359 C21.6047504,39.0515359 24.0963155,37.3871179 25.1872505,34.8115104 L26.7561323,35.493712 C25.3956145,38.7048117 22.2885604,40.7808 18.8391012,40.7808 Z" id="Path" fill="#000000"></path>
            <rect id="Rectangle" fill="#000000" x="6.5664" y="44.928" width="1.728" height="6.5664"></rect>
            <rect id="Rectangle" fill="#000000" x="1.0368" y="46.3104" width="6.5664" height="1.728"></rect>
            <rect id="Rectangle" fill="#000000" x="29.376" y="44.928" width="1.728" height="6.5664"></rect>
            <rect id="Rectangle" fill="#000000" x="30.0672" y="46.3104" width="6.5664" height="1.728"></rect>
            <g id="Group-5" transform="translate(11.750400, 42.163200)" fill="#000000">
                <g id="Group-7">
                    <path d="M4.06031044,7.9488 C4.25940426,7.9488 4.45860182,7.87446185 4.61048997,7.72578554 C4.91437001,7.42822982 4.91437001,6.94604737 4.61048997,6.6485932 L1.87847457,3.97445078 L4.61048997,1.3002068 C4.91437001,1.00265108 4.91437001,0.520468628 4.61048997,0.22301446 C4.30660993,-0.0743381533 3.81390719,-0.0743381533 3.5101309,0.22301446 L0.227935968,3.43590539 C0.0819614995,3.57879307 0,3.77245817 0,3.97455233 C0,4.17664649 0.0819614995,4.37021004 0.227935968,4.51319928 L3.5101309,7.72598865 C3.66201905,7.87446185 3.86111287,7.9488 4.06031044,7.9488 L4.06031044,7.9488 Z" id="Path"></path>
                    <path d="M9.90478418,7.72579124 C10.0566699,7.87446375 10.2558642,7.9488 10.4549549,7.9488 C10.6540455,7.9488 10.8532398,7.87446375 11.0051255,7.72579124 L14.2872677,4.51308396 C14.4332398,4.37019993 14.5152,4.17653977 14.5152,3.97445078 C14.5152,3.77236178 14.4332398,3.57880317 14.2872677,3.43581759 L11.0051255,0.223008762 C10.7012504,-0.0743362539 10.2085556,-0.0743362539 9.90478418,0.223008762 C9.60090902,0.520556882 9.60090902,1.00272701 9.90478418,1.30017358 L12.6367556,3.97434922 L9.90478418,6.64842332 C9.60080527,6.94607299 9.60080527,7.42824312 9.90478418,7.72579124 L9.90478418,7.72579124 Z" id="Path"></path>
                    <path d="M6.59977888,7.9488 C6.93334509,7.9488 7.23323625,7.70467588 7.30647223,7.34762913 L8.62356182,0.922412302 C8.70789415,0.511138309 8.45943219,0.105957263 8.06874386,0.0173048687 C7.6782485,-0.0714490747 7.2930601,0.189938397 7.20872777,0.601110842 L5.89163818,7.02632766 C5.80730585,7.43760166 6.05576781,7.8427827 6.44645614,7.9314351 C6.49788535,7.9432148 6.54921808,7.9488 6.59977888,7.9488 L6.59977888,7.9488 Z" id="Path"></path>
                </g>
            </g>
        </g>
        <g id="woman" opacity="0.8" transform="translate(172.000000, 661.000000)" fill-rule="nonzero">
            <path d="M31.0448321,15.1842725 L31.216198,14.1443083 C31.6565088,11.4838581 31.2993209,8.75257835 30.1882037,6.29332771 L30.1882037,6.29332771 C29.135413,3.93287867 26.7873898,2.40699841 24.191905,2.39770766 L24.191905,2.39770766 L21.6220197,1.38331797 C19.9378759,0.545352566 17.9736439,0.46443316 16.2253509,1.16163876 L16.2253509,1.16163876 C10.2332686,3.47263706 6.43762054,9.38175171 6.84540499,15.7639951 L6.84540499,15.7639951 C6.98585069,18.1823865 6.53359344,20.5990795 5.52617913,22.8051823 L5.52617913,22.8051823 C3.82235891,26.5286738 4.24720968,30.8752447 6.63980614,34.202331 L7.059537,34.7905451 C7.059537,34.7905451 10.4860508,39.0528 19.9088632,39.0528 C29.3316756,39.0528 32.0128935,32.531595 32.0128935,32.531595 C33.0390808,30.1498671 33.1033304,27.4663399 32.1927925,25.0386578 L32.1927925,25.0386578 C31.4312335,23.0311572 31.0423224,20.901778 31.0449325,18.756115 L31.0449325,18.5941763" id="Path" fill="#FECB66"></path>
            <path d="M17.2360109,7.6032 C14.177474,10.0252092 10.5733236,11.704147 6.72099199,12.5013554 C6.51517083,13.6499096 6.44859057,14.8169712 6.52206194,15.9807669 C6.66383633,18.3766479 6.20730048,20.7708464 5.19035546,22.9564148 L5.19035546,22.9564148 C3.47041617,26.6452481 3.89928626,30.9513612 6.314518,34.247479 L6.72089065,34.8302181 C6.72089065,34.8302181 9.85117611,38.6304923 18.3168,39.0528 C16.0167916,22.9225668 16.5702083,12.7293838 17.2360109,7.6032 Z" id="Path" fill="#F5AD76"></path>
            <path d="M33.3187758,36.8480257 L33.5232,36.6438035 C33.1152499,36.4677018 32.6859391,36.3468437 32.2456484,36.2864147 L24.5801394,35.3334111 C23.7233145,35.2253169 23.0827919,34.4944847 23.0895794,33.631626 L23.0895794,28.3392 L14.5808206,28.3392 L14.5808206,33.6402017 C14.5876081,34.5029607 13.9471853,35.2338926 13.0902606,35.3419868 L5.42475156,36.2949904 C4.9843611,36.3554195 4.55515009,36.4762775 4.1472,36.6523793 L4.36010862,36.8481254 C12.3288602,44.8370222 25.2716683,44.8591596 33.2684683,36.8982835 C33.2847383,36.8812318 33.301807,36.86418 33.3187758,36.8480257 Z" id="Path" fill="#FEDAC6"></path>
            <path d="M33.4158715,36.6336 L33.2104761,36.8356783 C25.2038642,44.7407083 12.1995637,44.7626132 4.16477017,36.8853098 C4.14762045,36.8684371 4.13137335,36.8524524 4.11432392,36.8356783 L3.90892846,36.6336 C1.97231406,37.40057 0.700627331,39.2445343 0.6912,41.2979772 L0.6912,51.1488 L36.6336,51.1488 L36.6336,41.2979772 C36.6241727,39.2436462 35.3524859,37.3997806 33.4158715,36.6336 Z" id="Path" fill="#8AB5FF"></path>
            <path d="M23.1552,32.2601262 L23.1552,28.3392 L14.8608,28.3392 L14.8608,32.2601262 C17.9712608,33.9442246 20.0448365,33.9442246 23.1552,32.2601262 Z" id="Path" fill="#F5C4B0"></path>
            <g id="Group" transform="translate(9.331200, 4.838400)" fill="#FEDAC6">
                <path d="M19.8690032,9.56241469 L19.0055559,9.56241469 L19.0055559,14.6581955 L19.8690032,14.6581955 C21.2997172,14.6581955 22.4593453,13.5175496 22.4593453,12.1102553 C22.4593453,10.702961 21.2988065,9.56241469 19.8690032,9.56241469 Z" id="Path"></path>
                <path d="M19.0055559,9.56241469 C15.5517665,7.86378793 14.6883191,1.91869379 14.6883191,1.91869379 L12.0979771,2.76800717 C12.0979771,2.76800717 11.2345297,-0.629246362 8.64418768,0.220067021 C5.26811157,1.32418437 7.78074032,5.31584778 4.32695092,7.86378793 C2.97395027,8.84647526 1.52765319,9.69917276 0.00971416216,10.4117281 L0.484595027,16.3568222 C0.696991135,21.1070251 4.67402984,24.8498565 9.50753384,24.8498565 L9.50753384,24.8498565 C14.3410378,24.8498565 18.3180765,21.1069256 18.5304726,16.3568222 L19.0055559,9.56241469 Z" id="Path"></path>
            </g>
            <path d="M13.013677,16.8735538 L13.013677,13.4784 C11.9808993,14.1938969 10.8589609,14.7642653 9.6768,15.1759769 L10.1356059,21.1173967 C10.3141228,25.1142523 13.0978517,28.4966739 16.9344,29.376 L15.8332853,27.2795432 C13.013677,23.6637621 13.013677,20.837385 13.013677,16.8735538 Z" id="Path" fill="#F5C4B0"></path>
            <path d="M0.6912,40.9436455 L0.6912,51.1488 L4.1472,51.1488 L4.1472,35.9424 C1.5552,36.787211 0.6912,38.476833 0.6912,40.9436455 Z" id="Path" fill="#5C94F5"></path>
            <ellipse id="Oval" fill="#000000" cx="23.8464" cy="16.0704" rx="1.728" ry="1.9008"></ellipse>
            <path d="M1.68873339,51.1488 L0.000172830178,51.1488 L0.000172830178,40.3448246 C-0.0225840507,37.329087 2.20452304,34.7692642 5.18141988,34.3966961 L12.7798434,33.443891 C13.2028246,33.3902539 13.5202336,33.0244653 13.51776,32.5931756 L13.51776,29.0304 L15.2064,29.0304 L15.2064,32.5863962 C15.2164128,33.874383 14.2632952,34.971749 12.9900972,35.1316632 L5.39078318,36.0844684 C3.2641032,36.3507593 1.67349617,38.1798023 1.68952493,40.3380452 L1.68952493,51.1488 L1.68873339,51.1488 L1.68873339,51.1488 Z" id="Path" fill="#000000"></path>
            <path d="M37.6702257,51.1488 L35.9815774,51.1488 L35.9815774,40.3873952 C35.9984975,38.222373 34.4069173,36.3942273 32.2809184,36.127039 L24.6821,35.1742338 C23.4071538,35.0143197 22.4539867,33.9160564 22.464,32.6220878 L22.464,29.0304 L24.1527277,29.0304 L24.1527277,32.6280696 C24.1493635,33.0661386 24.466789,33.432027 24.8906826,33.4855643 L32.4887094,34.4383695 C35.4657609,34.8109376 37.6930827,37.3715579 37.6702257,40.3932774 L37.6702257,51.1488 L37.6702257,51.1488 Z" id="Path" fill="#000000"></path>
            <path d="M28.89216,20.3904 L27.9936,20.3904 L27.9936,18.7488 L28.89216,18.7488 C29.8832823,18.7488 30.68928,18.0125521 30.68928,17.1072 C30.68928,16.2018479 29.8832823,15.4656 28.89216,15.4656 L27.9936,15.4656 L27.9936,13.824 L28.89216,13.824 C30.8744046,13.824 32.4864,15.2964958 32.4864,17.1072 C32.4864,18.9179042 30.8744046,20.3904 28.89216,20.3904 Z" id="Path" fill="#000000"></path>
            <ellipse id="Oval" fill="#000000" cx="13.824" cy="16.0704" rx="1.728" ry="1.9008"></ellipse>
            <path d="M18.8349628,30.7584 C13.6108047,30.7584 9.33820432,26.6486046 9.10800643,21.4010585 L8.64243317,15.4523649 C8.62461076,15.2149457 8.70525968,14.9800287 8.86586054,14.8058679 C9.0068468,14.6530267 9.19721807,14.5573384 9.40113039,14.5360187 C9.51752371,14.5077926 10.458826,14.227734 13.2276726,12.1403062 C14.6294702,11.0838306 14.8299973,9.75910721 15.0423728,8.35761293 C15.276852,6.80828213 15.5435909,5.05236054 17.7169298,4.32639011 C18.5758906,4.03942509 19.4144402,4.09747871 20.1399817,4.49804863 C21.0533058,5.00191395 21.6038094,5.93037138 21.9046,6.62381177 L23.6632442,6.03446751 C23.9053901,5.95499412 24.1644623,5.98582259 24.3786299,6.11814479 C24.5926981,6.25056708 24.7371691,6.4725721 24.7737101,6.72280319 C24.7813767,6.77835449 25.6045931,12.2811363 28.5603261,13.7672087 C28.8669911,13.9217514 29.0513884,14.2463512 29.0284881,14.5896682 L28.5612222,21.4222781 C28.3326173,26.6478039 24.0600169,30.7584 18.8349628,30.7584 Z M10.389229,15.9854572 L10.8047202,21.2961616 C10.9958881,25.657089 14.5225358,29.0503226 18.8359585,29.0503226 C23.1493811,29.0503226 26.6760288,25.657089 26.865504,21.3259892 L27.2971251,15.0058526 C24.7696278,13.3685405 23.6769844,9.7327829 23.2819042,7.96314864 L21.6531944,8.50895269 C21.4271783,8.58412211 21.1825432,8.56110085 20.9752456,8.44749594 C20.7679481,8.33309028 20.6176026,8.13660883 20.5606505,7.90599586 C20.4586943,7.50882908 20.0373286,6.3865927 19.3202502,5.99372989 C19.0076112,5.8228721 18.6685871,5.80755796 18.2556845,5.94678654 C17.1189331,6.32683751 16.9566396,7.08103401 16.7238529,8.61575132 C16.493655,10.1377569 16.2064055,12.0312055 14.2490264,13.5070684 C12.6057798,14.7436104 11.2838346,15.5908928 10.389229,15.9854572 Z" id="Shape" fill="#000000"></path>
            <path d="M6.49721477,35.5968 L6.08127221,35.0060542 C3.5431372,31.4291724 3.08899279,26.7171516 4.89711429,22.7105543 C5.83425347,20.6302019 6.26044287,18.3247079 6.12972091,16.0439955 C5.70701344,9.21911525 9.67811583,2.98317485 16.0107691,0.529593063 C17.9555816,-0.256295554 20.1592515,-0.16469383 22.0420854,0.785536107 L24.3374795,1.71610127 C27.1727732,1.79144946 29.7305066,3.51141481 30.8849188,6.13445477 C32.0478866,8.76702612 32.4128933,11.663266 31.9392501,14.5080363 L31.7983807,15.5284976 L30.1175988,15.2930219 L30.26195,14.2485817 C30.6838616,11.7128292 30.361235,9.15560606 29.3341623,6.83034695 C28.4266694,4.7696593 26.3978924,3.43416034 24.1635815,3.42563225 C24.0557409,3.42563225 23.9496909,3.40426186 23.8495106,3.36312636 L21.3452996,2.34437071 C19.8317502,1.5841667 18.1356477,1.51313272 16.6305544,2.12264036 C10.9820525,4.31084804 7.44728686,9.86183228 7.82423169,15.9402538 C7.97107006,18.5016909 7.49314898,21.0863043 6.44309548,23.4191885 C4.88537518,26.8701555 5.27584984,30.9290249 7.46429862,34.0126821 L7.88193241,34.6068392 L6.49721477,35.5968 Z" id="Path" fill="#000000"></path>
            <path d="M31.6897368,35.2512 L30.1348497,34.579708 L31.0897074,32.3127959 C32.021788,30.113454 32.0792261,27.6693956 31.2528116,25.4290504 C30.4635339,23.3118155 30.0647357,21.0894155 30.0672,18.8241075 L30.0672,18.6624 L31.757276,18.6624 L31.757276,18.8249095 C31.7547012,20.8830956 32.1181453,22.9027848 32.8346352,24.8275347 C33.8148449,27.4845298 33.7464144,30.3811285 32.642812,32.9858919 L31.6897368,35.2512 Z" id="Path" fill="#000000"></path>
            <path d="M18.9900362,42.8544 C13.4821373,42.8544 7.98279266,40.7262009 3.8016,36.4786663 L5.01840989,35.2512 C12.7058184,43.0614229 25.2364142,43.0831236 32.9503911,35.3007143 L34.2144,36.4795832 C29.9989905,40.7314987 24.4902866,42.8544 18.9900362,42.8544 Z" id="Path" fill="#000000"></path>
            <path d="M18.164916,8.9856 C17.6429874,8.02387263 16.8584069,7.24011033 15.8976,6.71828399 L16.7301493,5.184 C17.9885874,5.86732453 19.0158755,6.8936921 19.6992,8.15305073 L18.164916,8.9856 Z" id="Path" fill="#000000"></path>
        </g>
    </g>
</svg>