<?xml version="1.0" encoding="UTF-8"?>
<svg width="287px" height="210px" viewBox="0 0 287 210" version="1.1" xmlns="http://www.w3.org/2000/svg" xmlns:xlink="http://www.w3.org/1999/xlink">
    <title>Artboard</title>
    <g id="Artboard" stroke="none" stroke-width="1" fill="none" fill-rule="evenodd">
        <g id="Group" transform="translate(24.000000, 3.000000)">
            <path d="M124.219089,202.918738 C180,196.017621 228,180.964518 228,116.918738 C228,114.371143 226.734323,110.48465 225.5,109.017621 C212.58536,93.6681973 160.932839,114.627192 145,96.0176207 C124.173154,71.6918448 176.5,7.91873772 136.5,1.41873772 C74.6088117,-8.63858038 5,35.8802217 5,99.9260016 C5,130.662769 13.5527604,151.530458 33,173.517621 C54.0747062,197.344807 95.2084802,206.50788 124.219089,202.918738 Z" id="Oval" fill="#B0BF74" transform="translate(116.500000, 101.835561) scale(-1, 1) translate(-116.500000, -101.835561) "></path>
            <path d="M193.5,87.4260016 C210.344685,87.4260016 224,73.7706864 224,56.9260016 C224,47.8416996 190.301493,55.5135081 184,49.9260016 C178.616868,45.1528016 201.260383,26.4260016 193.5,26.4260016 C176.655315,26.4260016 163,40.0813167 163,56.9260016 C163,73.7706864 176.655315,87.4260016 193.5,87.4260016 Z" id="Oval" fill="#FFFFFF" opacity="0.124465216"></path>
            <path d="M205.5,151.060737 C220.687831,151.060737 239.5,112.748567 239.5,97.5607366 C239.5,90.4950721 218.879279,118.931521 214.5,114.060737 C209.465904,108.461643 211.122166,101.560737 203,101.560737 C187.812169,101.560737 186,108.372906 186,123.560737 C186,138.748567 190.312169,151.060737 205.5,151.060737 Z" id="Oval" fill="#FFFFFF" opacity="0.206147693" transform="translate(212.750000, 123.743369) scale(1, -1) translate(-212.750000, -123.743369) "></path>
            <text id="pixel-pushing" font-family="GloriaHallelujah, Gloria Hallelujah" font-size="8" font-weight="normal" line-spacing="14" fill="#FFFFFF">
                <tspan x="9.58984375" y="143.183814">pixel pushing</tspan>
            </text>
            <path d="M17.5,135.426181 C27.1649831,135.426181 35,132.590985 35,122.926002 C35,118.802305 25.8861858,119.460733 23.5,115.426002 C20.2935229,110.004263 23.0412864,100.426002 17.5,100.426002 C7.83501688,100.426002 0,108.261018 0,117.926002 C0,127.590985 7.83501688,135.426181 17.5,135.426181 Z" id="Oval" fill="#FFFFFF" opacity="0.274600074" transform="translate(17.500000, 117.926091) scale(-1, 1) translate(-17.500000, -117.926091) "></path>
            <text id="coding" font-family="GloriaHallelujah, Gloria Hallelujah" font-size="8" font-weight="normal" line-spacing="9" fill="#FFFFFF">
                <tspan x="39.828125" y="177.183814">coding</tspan>
            </text>
            <path d="M42.0001798,201.926002 C51.6651629,201.926002 68.0001798,189.590985 68.0001798,179.926002 C68.0001798,175.802305 54.8863657,181.460554 52.5001798,177.425822 C49.2937027,172.004083 47.5414662,155.426002 42.0001798,155.426002 C32.3351967,155.426002 29,170.260839 29,179.925822 C29,189.590805 32.3351967,201.926002 42.0001798,201.926002 Z" id="Oval" fill="#FFFFFF" opacity="0.246047247" transform="translate(48.500090, 178.676002) scale(-1, -1) translate(-48.500090, -178.676002) "></path>
            <text id="building" font-family="GloriaHallelujah, Gloria Hallelujah" font-size="8" font-weight="normal" line-spacing="10" fill="#FFFFFF">
                <tspan x="192.410156" y="116.183814">building</tspan>
            </text>
            <g id="Group-3" transform="translate(65.000000, 33.426002)">
                <g id="Group-320" transform="translate(0.000000, 11.362572)">
                    <path d="M113.087,36.531 C116.077,42.3914 120.5178,47.9138 122.6563,54.146 C124.5803,59.7568 124.0109,64.4667 123.0229,70.1789 C122.6745,72.1952 121.8971,75.2203 122.4561,77.2691 C123.0892,79.5805 124.9521,79.964 126.7279,81.2939 C130.234,83.9173 131.6302,88.518 130.9399,92.7859 C130.3185,96.6222 128.1358,100.1439 125.1861,102.6373 C122.252,105.119 117.8892,105.4518 115.8352,109.0736 C114.3402,111.7061 114.8511,114.9795 114.2583,117.95 C113.3613,122.4402 109.6459,126.2375 105.1765,127.232 C105.7641,125.1793 106.3517,123.1266 106.9393,121.0739 C103.9337,124.086 100.1182,126.283 96.0037,127.3672 C98.1318,125.399 99.4019,122.5325 99.4279,119.6348 C97.8536,124.034 93.3894,126.8875 88.8121,127.8326 C84.2348,128.779 79.4963,128.142 74.867,127.5011 C72.0668,127.1137 72.3515,123.9625 70.382,122.7535 C68.4528,121.5692 63.934,122.3466 61.8241,122.7691 C59.6024,123.2137 57.4977,124.1653 55.2617,124.6281 C48.7344,125.984 43.1717,124.0886 36.7133,123.6427 C30.7801,123.2332 18.8747,116.7579 20.1513,109.1893 C19.9511,110.3762 19.7509,111.5618 19.5507,112.7474 C12.3253,112.1065 6.0268,105.7768 5.4197,98.5475 C4.0092,99.0545 3.4177,101.0643 4.3303,102.2525 C-0.5551,96.3518 -1.2493,87.3337 2.6754,80.7531 C4.1535,78.274 6.2023,76.142 7.4503,73.5394 C10.0997,68.0118 8.71,61.5196 8.0015,55.4304 C6.8887,45.8572 6.4935,35.3805 13.2262,27.7729 C18.2988,22.0425 25.9662,19.2709 31.4431,13.9617 C34.4123,11.0835 37.4946,8.1325 41.3556,6.6479 C43.7671,5.7223 46.3645,5.4181 48.9346,5.1217 C61.8189,3.6319 75.2193,-1.312 88.3155,0.495 C106.0007,2.9364 106.4583,23.5349 113.087,36.531" id="Fill-317" fill="#0A0B09"></path>
                    <path d="M113.087,36.531 C116.077,42.3914 120.5178,47.9138 122.6563,54.146 C124.5803,59.7568 124.0109,64.4667 123.0229,70.1789 C122.6745,72.1952 121.8971,75.2203 122.4561,77.2691 C123.0892,79.5805 124.9521,79.964 126.7279,81.2939 C130.234,83.9173 131.6302,88.518 130.9399,92.7859 C130.3185,96.6222 128.1358,100.1439 125.1861,102.6373 C122.252,105.119 117.8892,105.4518 115.8352,109.0736 C114.3402,111.7061 114.8511,114.9795 114.2583,117.95 C113.3613,122.4402 109.6459,126.2375 105.1765,127.232 C105.7641,125.1793 106.3517,123.1266 106.9393,121.0739 C103.9337,124.086 100.1182,126.283 96.0037,127.3672 C98.1318,125.399 99.4019,122.5325 99.4279,119.6348 C97.8536,124.034 93.3894,126.8875 88.8121,127.8326 C84.2348,128.779 79.4963,128.142 74.867,127.5011 C72.0668,127.1137 72.3515,123.9625 70.382,122.7535 C68.4528,121.5692 63.934,122.3466 61.8241,122.7691 C59.6024,123.2137 57.4977,124.1653 55.2617,124.6281 C48.7344,125.984 43.1717,124.0886 36.7133,123.6427 C30.7801,123.2332 18.8747,116.7579 20.1513,109.1893 C19.9511,110.3762 19.7509,111.5618 19.5507,112.7474 C12.3253,112.1065 6.0268,105.7768 5.4197,98.5475 C4.0092,99.0545 3.4177,101.0643 4.3303,102.2525 C-0.5551,96.3518 -1.2493,87.3337 2.6754,80.7531 C4.1535,78.274 6.2023,76.142 7.4503,73.5394 C10.0997,68.0118 8.71,61.5196 8.0015,55.4304 C6.8887,45.8572 6.4935,35.3805 13.2262,27.7729 C18.2988,22.0425 25.9662,19.2709 31.4431,13.9617 C34.4123,11.0835 37.4946,8.1325 41.3556,6.6479 C43.7671,5.7223 46.3645,5.4181 48.9346,5.1217 C61.8189,3.6319 75.2193,-1.312 88.3155,0.495 C106.0007,2.9364 106.4583,23.5349 113.087,36.531 Z" id="Stroke-319" stroke="#0A0B09" stroke-width="1.3"></path>
                </g>
                <path d="M88.2856,144.977572 L55.731,145.510572 C55.731,145.510572 39.7735,145.773172 28.171,143.703572 C18.9514,147.790772 9.2937,151.512672 2.3114,169.465672 L111.2709,169.465672 C105.0114,153.371672 96.6017,148.713772 88.2856,144.977572" id="Fill-321" fill="#FFCF4B"></path>
                <path d="M88.2856,144.977572 L55.731,145.510572 C55.731,145.510572 39.7735,145.773172 28.171,143.703572 C18.9514,147.790772 9.2937,151.512672 2.3114,169.465672 L111.2709,169.465672 C105.0114,153.371672 96.6017,148.713772 88.2856,144.977572 Z" id="Stroke-322" stroke="#0A0B09" stroke-width="1.3"></path>
                <path d="M78.6188,140.574472 C77.4527,139.906272 76.3074,139.175672 75.1907,138.342372 C73.151,136.822672 71.5767,135.045572 70.3508,133.155372 C69.5331,131.893072 68.8688,130.581372 68.3397,129.255372 C65.1664,121.286372 66.7095,112.897472 66.7095,112.897472 L47.2836,112.662172 L46.0499,112.897472 C46.0499,112.897472 47.5917,121.286372 44.4171,129.255372 C43.8893,130.581372 43.2237,131.893072 42.406,133.155372 C41.1827,135.045572 39.6084,136.822672 37.5674,138.342372 C36.4507,139.175672 35.3054,139.906272 34.1406,140.574472 C32.0632,141.762672 29.9234,142.744172 27.7589,143.703572 C49.5209,147.438472 87.8735,144.977572 87.8735,144.977572 C84.734,143.567072 81.6088,142.286572 78.6188,140.574472" id="Fill-323" fill="#FFFFFE"></path>
                <path d="M78.6188,140.574472 C77.4527,139.906272 76.3074,139.175672 75.1907,138.342372 C73.151,136.822672 71.5767,135.045572 70.3508,133.155372 C69.5331,131.893072 68.8688,130.581372 68.3397,129.255372 C65.1664,121.286372 66.7095,112.897472 66.7095,112.897472 L47.2836,112.662172 L46.0499,112.897472 C46.0499,112.897472 47.5917,121.286372 44.4171,129.255372 C43.8893,130.581372 43.2237,131.893072 42.406,133.155372 C41.1827,135.045572 39.6084,136.822672 37.5674,138.342372 C36.4507,139.175672 35.3054,139.906272 34.1406,140.574472 C32.0632,141.762672 29.9234,142.744172 27.7589,143.703572 C49.5209,147.438472 87.8735,144.977572 87.8735,144.977572 C84.734,143.567072 81.6088,142.286572 78.6188,140.574472 Z" id="Stroke-324" stroke="#0A0B09" stroke-width="1.3"></path>
                <path d="M103.311,81.9899725 C103.0276,78.6632725 101.6678,75.8682725 97.7938,76.7678725 C97.0593,76.9368725 96.226,77.4191725 95.4135,78.0288725 C95.9075,75.3092725 96.2897,72.5376725 96.5458,69.7322725 C99.0457,42.2437725 92.2285,14.2989725 56.7892,14.2989725 L55.9702,14.2989725 C20.5283,14.2989725 13.7137,42.2437725 16.2123,69.7322725 C16.4671,72.5376725 16.8493,75.3092725 17.3459,78.0288725 C16.5321,77.4191725 15.6975,76.9368725 14.9643,76.7678725 C11.089,75.8682725 9.7305,78.6632725 9.4484,81.9899725 C8.9349,87.9998725 12.9363,93.6145725 18.7122,96.5408725 C19.6807,97.0322725 21.7152,97.5626725 23.8121,97.8005725 C30.3823,110.565272 41.0969,119.136172 56.3784,118.353572 C71.6612,119.136172 82.3758,110.565272 88.9447,97.8005725 C91.0429,97.5626725 93.0774,97.0322725 94.0472,96.5408725 C99.8218,93.6145725 103.8219,87.9998725 103.311,81.9899725" id="Fill-325" fill="#FFFFFE"></path>
                <path d="M103.311,81.9899725 C103.0276,78.6632725 101.6678,75.8682725 97.7938,76.7678725 C97.0593,76.9368725 96.226,77.4191725 95.4135,78.0288725 C95.9075,75.3092725 96.2897,72.5376725 96.5458,69.7322725 C99.0457,42.2437725 92.2285,14.2989725 56.7892,14.2989725 L55.9702,14.2989725 C20.5283,14.2989725 13.7137,42.2437725 16.2123,69.7322725 C16.4671,72.5376725 16.8493,75.3092725 17.3459,78.0288725 C16.5321,77.4191725 15.6975,76.9368725 14.9643,76.7678725 C11.089,75.8682725 9.7305,78.6632725 9.4484,81.9899725 C8.9349,87.9998725 12.9363,93.6145725 18.7122,96.5408725 C19.6807,97.0322725 21.7152,97.5626725 23.8121,97.8005725 C30.3823,110.565272 41.0969,119.136172 56.3784,118.353572 C71.6612,119.136172 82.3758,110.565272 88.9447,97.8005725 C91.0429,97.5626725 93.0774,97.0322725 94.0472,96.5408725 C99.8218,93.6145725 103.8219,87.9998725 103.311,81.9899725 Z" id="Stroke-326" stroke="#0A0B09" stroke-width="1.3"></path>
                <path d="M56.2614,65.1718725 C56.4252,67.2141725 56.5318,69.2525725 56.8282,71.2441725 C57.1337,73.1954725 57.5445,75.2728725 58.6794,76.6677725 C59.2462,77.3437725 59.9937,77.7064725 60.8569,77.6466725 C61.0142,77.6817725 61.3873,77.4958725 61.9853,77.8117725 C62.2986,78.0054725 62.4481,78.4149725 62.4351,78.6515725 C62.4403,78.9037725 62.3896,79.0818725 62.3389,79.2482725 C62.1101,79.8670725 61.802,80.3090725 61.4653,80.7406725 C60.7893,81.5856725 60.0106,82.3045725 59.1422,82.9142725 C58.7041,83.2119725 58.2491,83.4901725 57.7499,83.6864725 C57.2611,83.8827725 56.7216,84.0621725 56.1977,83.9698725 C57.1922,83.6968725 57.8916,82.9402725 58.6001,82.2655725 C59.2904,81.5609725 59.9391,80.8030725 60.4812,80.0126725 C60.7451,79.6239725 61.0103,79.2053725 61.1169,78.8582725 C61.1364,78.7815725 61.1416,78.7048725 61.1416,78.7048725 C61.1325,78.6840725 61.1624,78.8426725 61.2677,78.8894725 C61.4094,78.9453725 61.2404,78.8907725 60.8985,78.9219725 C60.3096,78.9401725 59.683,78.8400725 59.1227,78.5709725 C58.5611,78.3044725 58.097,77.8897725 57.7434,77.4308725 C56.3615,75.5432725 56.16,73.3696725 56.0053,71.3247725 C55.8922,69.2538725 56.0599,67.2063725 56.2614,65.1718725" id="Fill-327" fill="#0A0B09"></path>
                <path d="M26.8138,54.5872725 C27.6692,53.3535725 28.6806,52.2719725 29.8675,51.3385725 C31.0505,50.3830725 32.4675,49.6810725 33.9391,49.2481725 C35.4185,48.8308725 36.8888,48.6488725 38.3734,48.6150725 C39.8476,48.5812725 41.3517,48.6709725 42.7934,49.1207725 C41.3426,49.4834725 39.9529,49.8136725 38.5593,50.1256725 C37.1761,50.4558725 35.7838,50.7509725 34.4799,51.1201725 C33.1773,51.5010725 31.928,51.9924725 30.6852,52.6151725 C29.4372,53.2456725 28.184,53.9749725 26.8138,54.5872725" id="Fill-328" fill="#0A0B09"></path>
                <path d="M46.9573,92.5394725 C46.9573,92.5394725 54.9848,101.626472 66.0413,92.5394725 L46.9573,92.5394725" id="Fill-329" fill="#0A0B09"></path>
                <path d="M40.4391,85.1177725 C40.4391,87.8789725 36.9486,90.1162725 32.6417,90.1162725 C28.3361,90.1162725 24.8443,87.8789725 24.8443,85.1177725 C24.8443,82.3578725 28.3361,80.1205725 32.6417,80.1205725 C36.9486,80.1205725 40.4391,82.3578725 40.4391,85.1177725" id="Fill-330" fill="#FDECEF"></path>
                <path d="M85.943,54.5872725 C84.5741,53.9749725 83.3209,53.2456725 82.0742,52.6151725 C80.8301,51.9924725 79.5821,51.5010725 78.2769,51.1201725 C76.973,50.7509725 75.582,50.4558725 74.1975,50.1256725 C72.8039,49.8136725 71.4168,49.4834725 69.9647,49.1207725 C71.4064,48.6709725 72.9105,48.5812725 74.386,48.6150725 C75.868,48.6488725 77.3396,48.8308725 78.8203,49.2481725 C80.2906,49.6810725 81.7089,50.3830725 82.8906,51.3385725 C84.0775,52.2719725 85.0889,53.3535725 85.943,54.5872725" id="Fill-331" fill="#0A0B09"></path>
                <path d="M72.319,85.1177725 C72.319,87.8789725 75.8095,90.1162725 80.1151,90.1162725 C84.422,90.1162725 87.9125,87.8789725 87.9125,85.1177725 C87.9125,82.3578725 84.422,80.1205725 80.1151,80.1205725 C75.8095,80.1205725 72.319,82.3578725 72.319,85.1177725" id="Fill-332" fill="#FDECEF"></path>
                <path d="M13.9191,83.4485725 C14.9383,83.5603725 15.8405,84.1635725 16.6036,84.7966725 C17.3771,85.4453725 18.031,86.2084725 18.6108,87.0209725 C19.1828,87.8464725 19.6456,88.7642725 19.9771,89.6807725 C20.3242,90.6011725 20.5868,91.5202725 20.8325,92.4913725 C20.1149,91.7854725 19.5741,90.9443725 19.0671,90.1292725 C18.551,89.3076725 18.0934,88.5172725 17.5448,87.7632725 C17.0235,86.9884725 16.4554,86.2435725 15.8821,85.5038725 C15.2854,84.7797725 14.7095,84.0556725 13.9191,83.4485725" id="Fill-333" fill="#0A0B09"></path>
                <path d="M98.839,83.4485725 C98.0499,84.0556725 97.474,84.7797725 96.8773,85.5038725 C96.3027,86.2435725 95.7359,86.9884725 95.2133,87.7632725 C94.6647,88.5172725 94.2071,89.3076725 93.691,90.1292725 C93.1853,90.9443725 92.6432,91.7854725 91.9243,92.4913725 C92.17,91.5202725 92.4352,90.6011725 92.7797,89.6807725 C93.1125,88.7642725 93.5766,87.8464725 94.146,87.0209725 C94.7258,86.2084725 95.381,85.4453725 96.1545,84.7966725 C96.9176,84.1635725 97.8198,83.5603725 98.839,83.4485725" id="Fill-334" fill="#0A0B09"></path>
                <path d="M38.7777,72.7768725 C37.4504,74.1041725 35.295,74.1041725 33.9677,72.7755725 C32.6391,71.4456725 32.6391,69.2928725 33.9664,67.9655725 C35.2937,66.6369725 37.4478,66.6382725 38.7751,67.9668725 C40.105,69.2954725 40.105,71.4482725 38.7777,72.7768725" id="Fill-335" fill="#0A0B09"></path>
                <path d="M74.0129,72.7768725 C75.3402,74.1041725 77.493,74.1041725 78.8216,72.7755725 C80.1502,71.4456725 80.1502,69.2928725 78.8242,67.9655725 C77.4956,66.6369725 75.3415,66.6382725 74.0142,67.9668725 C72.6843,69.2954725 72.6843,71.4482725 74.0129,72.7768725" id="Fill-336" fill="#0A0B09"></path>
                <path d="M95.8061,77.6544725 C95.6943,77.6362725 95.5851,77.5933725 95.4798,77.5218725 C95.4577,77.6934725 95.4382,77.8780725 95.4135,78.0288725 C95.5786,77.8676725 95.7008,77.7519725 95.8061,77.6544725" id="Fill-337" fill="#0A0B09"></path>
                <path d="M96.876,76.6001725 C95.849,77.8533725 96.6342,76.8926725 95.8061,77.6544725 C96.2611,77.7311725 96.7265,77.3918725 96.876,76.6001725" id="Fill-338" fill="#0A0B09"></path>
                <path d="M95.4798,77.5218725 C95.5201,77.2124725 95.5539,76.8731725 95.5799,76.5065725 C95.3485,76.6573725 95.1366,76.7691725 94.9637,76.8172725 C95.0885,77.1552725 95.2744,77.3827725 95.4798,77.5218725" id="Fill-339" fill="#0A0B09"></path>
                <path d="M8.2069,57.1612725 C9.2482,65.3785725 11.8391,74.3784725 18.3547,79.2846725 C17.7268,75.5718725 17.277,69.9922725 17.355,65.1744725 C14.3442,62.4626725 11.2723,59.8145725 8.2069,57.1612725" id="Fill-340" fill="#70706C"></path>
                <path d="M8.2069,57.1612725 C9.2482,65.3785725 11.8391,74.3784725 18.3547,79.2846725 C17.7268,75.5718725 17.277,69.9922725 17.355,65.1744725 C14.3442,62.4626725 11.2723,59.8145725 8.2069,57.1612725 Z" id="Stroke-341" stroke="#0A0B09" stroke-width="1.3"></path>
                <path d="M108.2263,40.8228725 C107.198,20.7040725 89.3867,2.68477248 68.7479,4.75957248 C67.7534,4.46447248 66.7771,4.20447248 65.8099,3.96267248 C57.0271,-0.622427522 45.7418,0.0314724775 36.4598,2.80827248 C22.1312,7.09437248 11.4959,20.9484725 9.1832,35.3056725 C8.2979,40.8189725 7.3424,48.7697725 7.8416,54.3077725 C7.93,55.2892725 8.0418,56.2941725 8.1731,57.3081725 C11.2463,59.9549725 14.326,62.5939725 17.342,65.2992725 C17.3797,62.5133725 17.5942,59.9796725 18.057,58.2129725 C20.4724,49.0037725 24.1306,37.6248725 30.2757,29.1267725 C29.7141,37.9186725 33.1864,47.8415725 40.0998,49.5159725 C37.2723,43.0926725 37.5921,37.2153725 37.3516,30.3123725 C38.9805,44.7228725 59.4555,49.1285725 70.7538,52.2342725 C63.5804,47.2760725 58.9875,37.5000725 57.6212,29.0877725 C61.1936,36.4093725 67.5831,41.8095725 75.4533,44.0325725 C82.7502,46.0943725 89.6363,45.7394725 93.5714,53.0103725 C96.5419,58.4989725 95.797,66.3535725 95.433,77.9521725 C96.4847,76.8848725 97.3947,75.3638725 98.1071,73.4281725 C98.2644,73.8818725 98.4971,74.2536725 98.8507,74.4850725 C102.0864,76.6001725 103.3448,70.0234725 104.4979,67.8589725 C107.4476,62.3131725 106.847,56.0796725 106.8548,49.9969725 C107.0576,51.8364725 107.2786,53.6967725 107.4268,55.5674725 C109.5107,51.9742725 108.4278,44.7670725 108.2263,40.8228725" id="Fill-342" fill="#0A0B09"></path>
                <path d="M108.8763,40.8228725 C108.2016,30.2161725 103.3084,20.1593725 95.3238,13.1185725 C91.6188,9.84907248 87.3054,7.27767248 82.6176,5.69947248 C80.3231,4.92727248 77.9571,4.40987248 75.5521,4.14597248 C71.9875,3.75467248 68.6387,4.31497248 65.221,2.94607248 C54.3062,-1.42582752 41.4479,-0.907127522 30.8347,4.33707248 C20.8676,9.26407248 13.3666,18.7293725 9.984,29.2294725 C7.969,35.4798725 7.2995,42.4712725 7.0889,49.0076725 C7.0174,51.2683725 6.5065,55.5882725 7.6128,57.6370725 C8.3031,58.9162725 10.2947,59.9887725 11.3997,60.9455725 C13.2392,62.5367725 15.0683,64.1396725 16.8818,65.7594725 C17.3004,66.1325725 17.9777,65.8803725 17.992,65.2992725 C18.1376,58.9864725 20.0031,53.0480725 22.0805,47.1239725 C24.2671,40.8891725 27.0179,34.8662725 30.8373,29.4543725 C30.433,29.3451725 30.03,29.2359725 29.6257,29.1267725 C29.263,36.7889725 31.4197,47.6803725 39.9256,50.1425725 C40.3585,50.2686725 40.9214,49.8149725 40.7251,49.3443725 C38.1836,43.2226725 38.2044,36.8266725 38.0016,30.3123725 C37.5752,30.3695725 37.1501,30.4267725 36.725,30.4852725 C38.8128,45.7160725 58.4363,49.5432725 70.5809,52.8608725 C71.3297,53.0662725 71.6547,52.0886725 71.0814,51.6739725 C63.804,46.4024725 59.7649,37.5741725 58.2491,28.9148725 C57.8526,29.0825725 57.4561,29.2489725 57.0609,29.4153725 C59.5153,34.2435725 63.0695,38.3658725 67.6663,41.2713725 C72.6063,44.3900725 78.0663,45.1206725 83.5939,46.5974725 C89.687,48.2237725 93.6039,52.2303725 94.6764,58.4989725 C95.7619,64.8442725 94.9923,71.5639725 94.783,77.9521725 C94.7661,78.5007725 95.5175,78.8296725 95.8932,78.4110725 C97.1789,76.9810725 98.0239,75.3794725 98.7337,73.6010725 C98.3385,73.6530725 97.942,73.7050725 97.5455,73.7557725 C99.7087,78.1939725 102.947,73.4944725 103.9077,71.0751725 C105.0855,68.1098725 106.5324,65.2771725 107.0706,62.1012725 C107.7492,58.1050725 107.5217,54.0308725 107.5048,49.9969725 C107.0719,49.9969725 106.6377,49.9969725 106.2048,49.9969725 C106.4115,51.8533725 106.6156,53.7071725 106.7768,55.5674725 C106.8275,56.1550725 107.6712,56.5216725 107.9871,55.8950725 C110.2946,51.3294725 109.1688,45.7082725 108.8763,40.8228725 C108.8269,39.9908725 107.5256,39.9856725 107.5763,40.8228725 C107.8506,45.4170725 109.031,50.9511725 106.8639,55.2398725 C107.2695,55.3490725 107.6725,55.4582725 108.0768,55.5674725 C107.9156,53.7071725 107.7115,51.8520725 107.5048,49.9969725 C107.4151,49.1857725 106.2009,49.1402725 106.2048,49.9969725 C106.2256,54.9980725 106.6546,60.2266725 105.001,65.0379725 C104.4823,66.5446725 103.7062,67.9798725 103.1277,69.4735725 C102.8976,70.0676725 100.4614,76.7795725 98.6674,73.1005725 C98.397,72.5428725 97.6664,72.7885725 97.4792,73.2552725 C96.8396,74.8607725 96.1298,76.2062725 94.9741,77.4919725 C95.3433,77.6466725 95.7138,77.7987725 96.083,77.9521725 C96.395,68.4387725 99.086,53.6772725 89.4205,47.5659725 C84.7535,44.6162725 78.8684,44.6318725 73.7672,42.8118725 C66.872,40.3535725 61.4744,35.2328725 58.1828,28.7601725 C57.8266,28.0594725 56.8763,28.5794725 56.9959,29.2606725 C58.5741,38.2787725 62.8667,47.3215725 70.4262,52.7958725 C70.5926,52.3993725 70.7603,52.0028725 70.9267,51.6076725 C59.1877,48.3992725 39.9932,44.8333725 37.9782,30.1394725 C37.8781,29.4101725 36.6795,29.5895725 36.7016,30.3123725 C36.9096,36.9631725 36.8771,43.4410725 39.4719,49.6888725 C39.7384,49.4223725 40.0049,49.1558725 40.2727,48.8893725 C32.3739,46.6026725 30.5942,36.1428725 30.9257,29.1267725 C30.9595,28.4312725 30.0586,28.3116725 29.7141,28.7991725 C25.8336,34.2981725 23.049,40.4432725 20.8273,46.7768725 C18.7044,52.8322725 16.8415,58.8525725 16.692,65.2992725 C17.0612,65.1458725 17.4317,64.9937725 17.8009,64.8390725 C15.392,62.6888725 12.8037,60.6751725 10.4767,58.4365725 C8.1874,56.2330725 8.3356,53.5680725 8.3564,50.5351725 C8.3928,44.9282725 8.9882,39.1341725 10.1491,33.6494725 C12.4306,22.8698725 19.1724,12.8650725 28.5922,7.06967248 C38.1199,1.20667248 51.7595,-0.693927522 62.3545,3.15797248 C64.3955,3.89897248 66.5145,5.23667248 68.7479,5.40957248 C71.5741,5.62667248 74.2781,5.19377248 77.1433,5.66697248 C82.0131,6.47167248 86.6398,8.41127248 90.7166,11.1789725 C100.5368,17.8414725 106.8249,29.0097725 107.5763,40.8228725 C107.6283,41.6535725 108.9296,41.6587725 108.8763,40.8228725" id="Fill-343" fill="#0A0B09"></path>
                <path d="M47.74965,57.8869975 C53.91425,64.0515975 53.91425,74.0472975 47.74965,80.2131975 C41.58505,86.3777975 31.58935,86.3777975 25.42345,80.2131975 C19.25885,74.0472975 19.25885,64.0515975 25.42345,57.8869975 C31.58935,51.7210975 41.58505,51.7210975 47.74965,57.8869975 Z M88.93105,57.8869975 C95.09565,64.0515975 95.09565,74.0472975 88.93105,80.2131975 C82.76645,86.3777975 72.76945,86.3777975 66.60485,80.2131975 C60.44025,74.0472975 60.44025,64.0515975 66.60485,57.8869975 C72.76945,51.7210975 82.76645,51.7210975 88.93105,57.8869975 Z M52.36985,69.1280975 L61.98205,69.1280975 L52.36985,69.1280975 Z" id="Stroke-290" stroke="#0A0B09" stroke-width="1.3"></path>
            </g>
            <text id="designing" font-family="GloriaHallelujah, Gloria Hallelujah" font-size="8" font-weight="normal" line-spacing="14" fill="#FFFFFF">
                <tspan x="16.6289062" y="123.183814">designing</tspan>
            </text>
            <text id="user-research" font-family="GloriaHallelujah, Gloria Hallelujah" font-size="8" font-weight="normal" line-spacing="10" fill="#FFFFFF">
                <tspan x="187.695312" y="64.1838141">user </tspan>
                <tspan x="179.351562" y="74.1838141">research</tspan>
            </text>
            <text id="“Full-stack-UXer”" font-family="GloriaHallelujah, Gloria Hallelujah" font-size="8" font-weight="normal" line-spacing="14" fill="#000000">
                <tspan x="90" y="196.426002">“Full stack UXer”</tspan>
            </text>
        </g>
    </g>
</svg>