<?xml version="1.0" encoding="UTF-8"?>
<svg width="67px" height="68px" viewBox="0 0 67 68" version="1.1" xmlns="http://www.w3.org/2000/svg" xmlns:xlink="http://www.w3.org/1999/xlink">
    <title>ICON</title>
    <g id="ICON" stroke="none" stroke-width="1" fill="none" fill-rule="evenodd">
        <g id="Group" transform="translate(3.000000, 1.000000)">
            <g id="Group-320" transform="translate(0.000000, 5.148000)">
                <path d="M52.924716,17.096508 C54.324036,19.8391752 56.4023304,22.4236584 57.4031484,25.340328 C58.3035804,27.9661824 58.0371012,30.1704156 57.5747172,32.8437252 C57.411666,33.7873536 57.0478428,35.2031004 57.3094548,36.1619388 C57.6057456,37.243674 58.4775828,37.423152 59.3086572,38.0455452 C60.949512,39.2732964 61.6029336,41.426424 61.2798732,43.4238012 C60.989058,45.2191896 59.9675544,46.8673452 58.5870948,48.0342564 C57.213936,49.195692 55.1721456,49.3514424 54.2108736,51.0464448 C53.5112136,52.2784548 53.7503148,53.810406 53.4728844,55.2006 C53.0530884,57.3020136 51.3142812,59.07915 49.222602,59.544576 C49.4975988,58.5839124 49.7725956,57.6232488 50.0475924,56.6625852 C48.6409716,58.072248 46.8553176,59.100444 44.9297316,59.6078496 C45.9256824,58.686732 46.5200892,57.34521 46.5322572,55.9890864 C45.7954848,58.047912 43.7062392,59.38335 41.5640628,59.8256568 C39.4218864,60.268572 37.2042684,59.970456 35.037756,59.6705148 C33.7272624,59.4892116 33.860502,58.01445 32.938776,57.448638 C32.0359104,56.8943856 29.921112,57.2582088 28.9336788,57.4559388 C27.8939232,57.6640116 26.9089236,58.1093604 25.8624756,58.3259508 C22.8076992,58.960512 20.2043556,58.0734648 17.1818244,57.8647836 C14.4050868,57.6731376 8.8333596,54.6426972 9.4308084,51.1005924 C9.3371148,51.6560616 9.2434212,52.2109224 9.1497276,52.7657832 C5.7682404,52.465842 2.8205424,49.5035424 2.5364196,46.12023 C1.8763056,46.357506 1.5994836,47.2980924 2.0265804,47.85417 C-0.2597868,45.0926424 -0.5846724,40.8721716 1.2520872,37.7924508 C1.943838,36.632232 2.9026764,35.634456 3.4867404,34.4164392 C4.7266596,31.8295224 4.07628,28.7911728 3.744702,25.9414272 C3.2239116,21.4611696 3.038958,16.558074 6.1898616,12.9977172 C8.5638384,10.31589 12.1521816,9.0187812 14.7153708,6.5340756 C16.1049564,5.187078 17.5474728,3.80601 19.3544208,3.1112172 C20.4830028,2.6780364 21.698586,2.5356708 22.9013928,2.3969556 C28.9312452,1.6997292 35.2026324,-0.614016 41.331654,0.23166 C49.6083276,1.3742352 49.8224844,11.0143332 52.924716,17.096508" id="Fill-317" fill="#0A0B09"></path>
                <path d="M52.924716,17.096508 C54.324036,19.8391752 56.4023304,22.4236584 57.4031484,25.340328 C58.3035804,27.9661824 58.0371012,30.1704156 57.5747172,32.8437252 C57.411666,33.7873536 57.0478428,35.2031004 57.3094548,36.1619388 C57.6057456,37.243674 58.4775828,37.423152 59.3086572,38.0455452 C60.949512,39.2732964 61.6029336,41.426424 61.2798732,43.4238012 C60.989058,45.2191896 59.9675544,46.8673452 58.5870948,48.0342564 C57.213936,49.195692 55.1721456,49.3514424 54.2108736,51.0464448 C53.5112136,52.2784548 53.7503148,53.810406 53.4728844,55.2006 C53.0530884,57.3020136 51.3142812,59.07915 49.222602,59.544576 C49.4975988,58.5839124 49.7725956,57.6232488 50.0475924,56.6625852 C48.6409716,58.072248 46.8553176,59.100444 44.9297316,59.6078496 C45.9256824,58.686732 46.5200892,57.34521 46.5322572,55.9890864 C45.7954848,58.047912 43.7062392,59.38335 41.5640628,59.8256568 C39.4218864,60.268572 37.2042684,59.970456 35.037756,59.6705148 C33.7272624,59.4892116 33.860502,58.01445 32.938776,57.448638 C32.0359104,56.8943856 29.921112,57.2582088 28.9336788,57.4559388 C27.8939232,57.6640116 26.9089236,58.1093604 25.8624756,58.3259508 C22.8076992,58.960512 20.2043556,58.0734648 17.1818244,57.8647836 C14.4050868,57.6731376 8.8333596,54.6426972 9.4308084,51.1005924 C9.3371148,51.6560616 9.2434212,52.2109224 9.1497276,52.7657832 C5.7682404,52.465842 2.8205424,49.5035424 2.5364196,46.12023 C1.8763056,46.357506 1.5994836,47.2980924 2.0265804,47.85417 C-0.2597868,45.0926424 -0.5846724,40.8721716 1.2520872,37.7924508 C1.943838,36.632232 2.9026764,35.634456 3.4867404,34.4164392 C4.7266596,31.8295224 4.07628,28.7911728 3.744702,25.9414272 C3.2239116,21.4611696 3.038958,16.558074 6.1898616,12.9977172 C8.5638384,10.31589 12.1521816,9.0187812 14.7153708,6.5340756 C16.1049564,5.187078 17.5474728,3.80601 19.3544208,3.1112172 C20.4830028,2.6780364 21.698586,2.5356708 22.9013928,2.3969556 C28.9312452,1.6997292 35.2026324,-0.614016 41.331654,0.23166 C49.6083276,1.3742352 49.8224844,11.0143332 52.924716,17.096508 Z" id="Stroke-319" stroke="#0A0B09" stroke-width="0.78"></path>
            </g>
            <path d="M36.8610572,65.9032062 C36.3163628,65.5915359 35.7813842,65.2507603 35.2597649,64.862082 C34.3070051,64.1532444 33.5716372,63.3243471 32.9990097,62.4426962 C32.6170557,61.8539183 32.3067559,61.2420987 32.0596092,60.6236091 C30.5773359,56.9066079 31.29813,52.9937516 31.29813,52.9937516 L22.2241401,52.884 L21.6478692,52.9937516 C21.6478692,52.9937516 22.3680561,56.9066079 20.8851756,60.6236091 C20.638636,61.2420987 20.3277291,61.8539183 19.945775,62.4426962 C19.374362,63.3243471 18.6389942,64.1532444 17.6856271,64.862082 C17.1640078,65.2507603 16.6290292,65.5915359 16.084942,65.9032062 C15.1145722,66.4574214 14.1150549,66.9152249 13.104,67.3627204 C23.2692005,69.1047994 41.184,67.9569555 41.184,67.9569555 C39.717515,67.2990523 38.2577096,66.7017854 36.8610572,65.9032062" id="Fill-323" fill="#FFFFFE"></path>
            <path d="M48.1834407,38.1997116 C48.05074,36.6443728 47.4140206,35.3376207 45.6000396,35.7582126 C45.2561137,35.8372255 44.8659252,36.0627162 44.4854762,36.3477705 C44.7167892,35.0762703 44.8957524,33.7804585 45.0156699,32.4688441 C46.1862355,19.6170895 42.994116,6.552 26.3998428,6.552 L26.0163502,6.552 C9.42085958,6.552 6.22995755,19.6170895 7.39991438,32.4688441 C7.5192232,33.7804585 7.69818641,35.0762703 7.93071686,36.3477705 C7.54965912,36.0627162 7.15886188,35.8372255 6.81554469,35.7582126 C5.00095504,35.3376207 4.36484428,36.6443728 4.23275238,38.1997116 C3.9923086,41.0095325 5.86594393,43.6345847 8.57047993,45.0027237 C9.02397516,45.2324689 9.97661951,45.4804479 10.9584823,45.5916738 C14.0349453,51.5595801 19.0520026,55.5667505 26.2074878,55.2008599 C33.3635817,55.5667505 38.380639,51.5595801 41.4564933,45.5916738 C42.4389648,45.4804479 43.3916092,45.2324689 43.8457131,45.0027237 C46.5496404,43.6345847 48.422667,41.0095325 48.1834407,38.1997116" id="Fill-325" fill="#FFFFFE"></path>
            <path d="M48.1834407,38.1997116 C48.05074,36.6443728 47.4140206,35.3376207 45.6000396,35.7582126 C45.2561137,35.8372255 44.8659252,36.0627162 44.4854762,36.3477705 C44.7167892,35.0762703 44.8957524,33.7804585 45.0156699,32.4688441 C46.1862355,19.6170895 42.994116,6.552 26.3998428,6.552 L26.0163502,6.552 C9.42085958,6.552 6.22995755,19.6170895 7.39991438,32.4688441 C7.5192232,33.7804585 7.69818641,35.0762703 7.93071686,36.3477705 C7.54965912,36.0627162 7.15886188,35.8372255 6.81554469,35.7582126 C5.00095504,35.3376207 4.36484428,36.6443728 4.23275238,38.1997116 C3.9923086,41.0095325 5.86594393,43.6345847 8.57047993,45.0027237 C9.02397516,45.2324689 9.97661951,45.4804479 10.9584823,45.5916738 C14.0349453,51.5595801 19.0520026,55.5667505 26.2074878,55.2008599 C33.3635817,55.5667505 38.380639,51.5595801 41.4564933,45.5916738 C42.4389648,45.4804479 43.3916092,45.2324689 43.8457131,45.0027237 C46.5496404,43.6345847 48.422667,41.0095325 48.1834407,38.1997116 Z" id="Stroke-326" stroke="#0A0B09" stroke-width="0.78"></path>
            <path d="M26.3350514,30.42 C26.406173,31.384787 26.4524586,32.3477316 26.581155,33.2885679 C26.7138025,34.2103663 26.8921712,35.1917346 27.3849428,35.8506884 C27.6310464,36.1700323 27.9556097,36.3413726 28.3304096,36.3131229 C28.398709,36.3297042 28.5607084,36.2418847 28.820359,36.3911165 C28.9563933,36.4826208 29.0213059,36.6760695 29.0156614,36.7878399 C29.0179192,36.9069797 28.9959053,36.9911146 28.9738915,37.0697223 C28.8745469,37.3620448 28.7407704,37.5708465 28.5945759,37.7747353 C28.3010578,38.1739152 27.9629476,38.5135251 27.5858898,38.8015487 C27.3956675,38.9421829 27.1981073,39.0736052 26.9813555,39.1663377 C26.7691194,39.2590703 26.5348694,39.3438192 26.3073929,39.3002165 C26.7392031,39.1712507 27.0428814,38.8138312 27.3505109,38.4951014 C27.650238,38.1622468 27.9319024,37.8042132 28.1672813,37.4308265 C28.2818662,37.2472038 28.3970156,37.0494562 28.4433012,36.8854854 C28.451768,36.8492522 28.4540259,36.8130189 28.4540259,36.8130189 C28.4500747,36.803193 28.4630572,36.8781159 28.5087783,36.9002244 C28.5703042,36.9266317 28.4969247,36.9008385 28.3484723,36.9155774 C28.0927729,36.9241752 27.8207042,36.8768877 27.5774229,36.7497643 C27.3335772,36.6238691 27.1320657,36.4279639 26.9785332,36.2111785 C26.3785146,35.3194721 26.2910237,34.2926587 26.2238532,33.3266435 C26.1747454,32.3483458 26.2475604,31.3811023 26.3350514,30.42" id="Fill-327" fill="#0A0B09"></path>
            <path d="M12.636,25.74 C13.0368383,25.1605643 13.5107777,24.6525659 14.0669561,24.2141731 C14.6213069,23.7654005 15.2853095,23.43569 15.9748975,23.2323685 C16.6681406,23.0363739 17.3571194,22.9508934 18.0527992,22.9350185 C18.7436056,22.9191435 19.448423,22.9612732 20.124,23.1725321 C19.4441588,23.3428826 18.7929489,23.4979686 18.1399115,23.6445066 C17.4917475,23.7995927 16.8393192,23.9381932 16.228315,24.1115965 C15.6179199,24.290495 15.0325011,24.5212923 14.4501282,24.8137577 C13.8653186,25.1098866 13.2780722,25.4524192 12.636,25.74" id="Fill-328" fill="#0A0B09"></path>
            <path d="M21.996,43.524 C21.996,43.524 25.7363338,47.736 30.888,43.524 L21.996,43.524" id="Fill-329" fill="#0A0B09"></path>
            <path d="M19.188,39.7796957 C19.188,41.0724932 17.5120013,42.12 15.444,42.12 C13.3766229,42.12 11.7,41.0724932 11.7,39.7796957 C11.7,38.4875068 13.3766229,37.44 15.444,37.44 C17.5120013,37.44 19.188,38.4875068 19.188,39.7796957" id="Fill-330" fill="#E9E9E9"></path>
            <path d="M40.248,25.74 C39.6064847,25.4524192 39.0191906,25.1098866 38.4349426,24.8137577 C37.8519131,24.5212923 37.2670559,24.290495 36.6553927,24.1115965 C36.0443388,23.9381932 35.3924667,23.7995927 34.7436407,23.6445066 C34.0905502,23.4979686 33.4405057,23.3428826 32.76,23.1725321 C33.4356319,22.9612732 34.1405067,22.9191435 34.8319785,22.9350185 C35.5264965,22.9508934 36.2161406,23.0363739 36.9100493,23.2323685 C37.5990842,23.43569 38.2637501,23.7654005 38.8175367,24.2141731 C39.3737603,24.6525659 39.8477383,25.1605643 40.248,25.74" id="Fill-331" fill="#0A0B09"></path>
            <path d="M33.696,39.7796957 C33.696,41.0724932 35.3721384,42.12 37.4396879,42.12 C39.5078616,42.12 41.184,41.0724932 41.184,39.7796957 C41.184,38.4875068 39.5078616,37.44 37.4396879,37.44 C35.3721384,37.44 33.696,38.4875068 33.696,39.7796957" id="Fill-332" fill="#E9E9E9"></path>
            <path d="M6.552,38.844 C7.03496051,38.8960748 7.46247913,39.1770362 7.82408349,39.4719247 C8.19061602,39.7740794 8.50047461,40.1295198 8.77522001,40.5079701 C9.04626927,40.8924756 9.26557277,41.319973 9.42265814,41.7468649 C9.58713577,42.1755733 9.71157202,42.6036763 9.828,43.056 C9.48795637,42.7272024 9.23169161,42.3354307 8.9914434,41.9557694 C8.74688304,41.5730805 8.53004363,41.2049241 8.27008274,40.8537223 C8.02305829,40.4928321 7.75385709,40.1458689 7.4821918,39.8013278 C7.19943813,39.4640529 6.9265408,39.126778 6.552,38.844" id="Fill-333" fill="#0A0B09"></path>
            <path d="M46.332,38.844 C45.9581455,39.126778 45.6852995,39.4640529 45.402599,39.8013278 C45.1303689,40.1458689 44.8618342,40.4928321 44.6142403,40.8537223 C44.3543283,41.2049241 44.1375296,41.5730805 43.8930152,41.9557694 C43.6534281,42.3354307 43.3965956,42.7272024 43.056,43.056 C43.1724061,42.6036763 43.2980508,42.1755733 43.4612657,41.7468649 C43.6189374,41.319973 43.8388156,40.8924756 44.1085821,40.5079701 C44.3832758,40.1295198 44.693692,39.7740794 45.0601557,39.4719247 C45.421692,39.1770362 45.8491303,38.8960748 46.332,38.844" id="Fill-334" fill="#0A0B09"></path>
            <path d="M18.240696,34.1526636 C17.6014154,34.7918831 16.5632889,34.7918831 15.9240083,34.1520375 C15.2841016,33.5115659 15.2841016,32.4747907 15.9233822,31.8355712 C16.5626628,31.1957257 17.6001632,31.1963518 18.2394437,31.8361973 C18.8799766,32.4760429 18.8799766,33.5128181 18.240696,34.1526636 L17.316,34.164" id="Fill-335" fill="#0A0B09"></path>
            <path d="M34.6438518,34.1526636 C35.2831324,34.7918831 36.3200066,34.7918831 36.9599133,34.1520375 C37.59982,33.5115659 37.59982,32.4747907 36.9611656,31.8355712 C36.3212589,31.1957257 35.2837585,31.1963518 34.6444779,31.8361973 C34.0039451,32.4760429 34.0039451,33.5128181 34.6438518,34.1526636" id="Fill-336" fill="#0A0B09"></path>
            <path d="M44.764668,36.226476 C44.72442,36.219924 44.685108,36.20448 44.6472,36.17874 C44.639244,36.240516 44.632224,36.306972 44.623332,36.36126 C44.682768,36.303228 44.72676,36.261576 44.764668,36.226476" id="Fill-337" fill="#0A0B09"></path>
            <path d="M45.354582,36.078322 C44.984862,36.529474 45.267534,36.183622 44.969418,36.45787 C45.133218,36.485482 45.300762,36.363334 45.354582,36.078322" id="Fill-338" fill="#0A0B09"></path>
            <path d="M44.76888,36.452754 C44.783388,36.34137 44.795556,36.219222 44.804916,36.087246 C44.721612,36.141534 44.645328,36.181782 44.583084,36.199098 C44.628012,36.320778 44.694936,36.402678 44.76888,36.452754" id="Fill-339" fill="#0A0B09"></path>
            <path d="M3.744,26.676 C4.22423059,30.5002459 5.41911145,34.6887056 8.424,36.972 C8.13442275,35.2441015 7.92698232,32.6474138 7.96295465,30.4052598 C6.57442275,29.1432164 5.15771253,27.9108182 3.744,26.676" id="Fill-340" fill="#70706C"></path>
            <path d="M3.744,26.676 C4.22423059,30.5002459 5.41911145,34.6887056 8.424,36.972 C8.13442275,35.2441015 7.92698232,32.6474138 7.96295465,30.4052598 C6.57442275,29.1432164 5.15771253,27.9108182 3.744,26.676 Z" id="Stroke-341" stroke="#0A0B09" stroke-width="0.78"></path>
            <path d="M50.7964686,19.2017788 C50.3151413,9.82643572 41.9780182,1.42945776 32.3173973,2.39631273 C31.8518911,2.25879639 31.3949041,2.13763662 30.9421766,2.02495803 C26.8311187,-0.111694538 21.5486892,0.193022287 17.2039655,1.48700865 C10.4970265,3.48432748 5.51884943,9.9403259 4.43631953,16.6307685 C4.02192782,19.1999614 3.57467685,22.9050272 3.80834266,25.4857304 C3.84972098,25.9431085 3.90205239,26.411391 3.96351136,26.8839141 C5.40201652,28.1173206 6.8435642,29.3470923 8.25529515,30.6077597 C8.27294178,29.3095328 8.37334506,28.1288308 8.58997274,27.3055501 C9.72057451,23.014071 11.4329068,17.7115136 14.3093086,13.7514065 C14.0464346,17.8484242 15.6717507,22.4724869 18.9077788,23.2527558 C17.584281,20.2595036 17.7339732,17.520687 17.6213998,14.3038951 C18.3838562,21.0191754 27.9678055,23.0722277 33.25632,24.5194812 C29.898591,22.2089644 27.7487438,17.653357 27.1092054,13.7332325 C28.7813763,17.1450917 31.772177,19.6615802 35.4560646,20.6974962 C38.8716016,21.6582932 42.0948511,21.4929101 43.9367949,24.8811431 C45.3272281,27.4388259 44.9785549,31.0990626 44.8081736,36.504 C45.3004539,36.0066391 45.7264072,35.2978545 46.0598678,34.39582 C46.1334969,34.6072438 46.2424192,34.7805023 46.4079325,34.8883344 C47.9225008,35.8739692 48.5115333,32.8092328 49.051277,31.8005777 C50.4319742,29.2162397 50.1508451,26.3114342 50.1544961,23.4769014 C50.2494228,24.3341068 50.3528686,25.2010049 50.4222382,26.0727495 C51.3976712,24.3983214 50.8907868,21.0397726 50.7964686,19.2017788" id="Fill-342" fill="#0A0B09"></path>
            <path d="M50.7640646,19.2021764 C50.4498438,14.2130193 48.1709861,9.48252296 44.4524038,6.17068636 C42.7269137,4.63278587 40.7180801,3.42325618 38.5348812,2.6809058 C37.4662882,2.31768 36.3643964,2.07430648 35.2443414,1.95017376 C33.5842384,1.76611489 32.0246376,2.02966762 30.4329487,1.38576734 C25.3497157,-0.670677732 19.3613572,-0.426692724 14.4185851,2.04006297 C9.77671424,4.35761481 6.28335375,8.80988259 4.70801164,13.7488974 C3.76958724,16.6889473 3.45778817,19.9775473 3.35970769,23.0521253 C3.32640876,24.1155085 3.08847277,26.147494 3.60369803,27.1112042 C3.92518406,27.7129116 4.85271063,28.2173918 5.36733046,28.6674494 C6.22402111,29.4159147 7.07586829,30.1698834 7.92045024,30.9318015 C8.11540034,31.1072995 8.43083203,30.9886702 8.43749181,30.7153336 C8.50530054,27.7459321 9.3740999,24.9526401 10.3415852,22.1660744 C11.359927,19.2333624 12.6410277,16.4003235 14.419796,13.8546854 C14.2315057,13.8033201 14.0438208,13.7519549 13.8555305,13.7005896 C13.6866141,17.304719 14.6910309,22.4277927 18.6523927,23.5859571 C18.8540026,23.6452718 19.116156,23.4318613 19.0247353,23.2105015 C17.8411097,20.3309892 17.8507966,17.3224523 17.7563488,14.2582696 C17.5577661,14.2851752 17.3597888,14.3120808 17.1618115,14.339598 C18.1341403,21.5038294 27.273183,23.3040597 32.9291576,24.8645853 C33.2778882,24.9612009 33.429247,24.5013595 33.1622501,24.3062938 C29.7730245,21.8266968 27.8919377,17.6740597 27.1860003,13.6009165 C27.0013426,13.6797989 26.8166849,13.7580698 26.6326327,13.8363407 C27.7756941,16.1074192 29.4309537,18.0464579 31.5717722,19.4131408 C33.8724255,20.8801083 36.4152529,21.2237664 38.9895629,21.9184205 C41.8272372,22.683396 43.6514131,24.5680121 44.1508971,27.5166229 C44.6564354,30.5013117 44.2980178,33.6621099 44.2005428,36.6669779 C44.1926721,36.9250272 44.5426136,37.0797345 44.7175843,36.8828343 C45.3163596,36.210194 45.7098924,35.4568367 46.04046,34.6203167 C45.8564077,34.6447764 45.67175,34.669236 45.4870923,34.6930842 C46.4945363,36.7807153 48.0026751,34.5701744 48.4500917,33.4321892 C48.9986159,32.0373777 49.6724651,30.7049382 49.9231153,29.2110651 C50.2391524,27.331341 50.1332012,25.4149274 50.1253306,23.5174701 C49.9237207,23.5174701 49.7215054,23.5174701 49.5198955,23.5174701 C49.6161597,24.3906796 49.711213,25.2626661 49.7862869,26.1377101 C49.8098989,26.4141041 50.2028263,26.5865447 50.349947,26.2918059 C51.4245943,24.1442486 50.9002875,21.5001605 50.7640646,19.2021764 C50.7410581,18.810822 50.1350175,18.808376 50.1586295,19.2021764 C50.2863763,21.3631864 50.8361114,23.9663047 49.8268511,25.9836143 C50.0157468,26.0349796 50.2034317,26.0863448 50.391722,26.1377101 C50.3166481,25.2626661 50.2215948,24.3900681 50.1253306,23.5174701 C50.0835556,23.1358996 49.5180792,23.1144974 49.5198955,23.5174701 C49.5295825,25.8698769 49.729376,28.3292947 48.9592626,30.5924239 C48.717694,31.3011422 48.3562492,31.9762285 48.0868306,32.678832 C47.9796686,32.9582835 46.8450832,36.1154128 46.0095828,34.3848926 C45.8836523,34.1225628 45.5433978,34.2381347 45.4562151,34.45766 C45.1583411,35.2128517 44.8277735,35.8457452 44.2895417,36.45051 C44.4614853,36.5232775 44.6340343,36.5948219 44.8059779,36.6669779 C44.9512823,32.192085 46.2045329,25.2486018 41.703123,22.3739815 C39.529611,20.9865078 36.7888064,20.9938457 34.413079,20.137758 C31.2018513,18.981428 28.6880848,16.572764 27.1551232,13.5281491 C26.9892339,13.1985553 26.5466609,13.4431518 26.6023609,13.7635732 C27.3373591,18.005488 29.3365058,22.2590211 32.8571109,24.8340108 C32.9346065,24.6475059 33.0127077,24.4610011 33.0902034,24.2751078 C27.6231245,22.7659474 18.6838753,21.0886269 17.7454509,14.1769413 C17.6988324,13.8338947 17.1406213,13.9182805 17.1509137,14.2582696 C17.2477833,17.3866588 17.2326474,20.4337197 18.4410959,23.3725467 C18.5652101,23.247191 18.6893242,23.1218353 18.8140439,22.9964796 C15.1354202,21.9208665 14.3065796,17.0008079 14.4609656,13.7005896 C14.4767069,13.3734418 14.0571403,13.3171846 13.8967,13.5464938 C12.0894763,16.1331018 10.7926343,19.0236209 9.75794575,22.0028063 C8.76927024,24.8511325 7.90168176,27.6829485 7.83205672,30.7153336 C8.00400029,30.6431776 8.17654929,30.5716331 8.34849285,30.4988657 C7.22662163,29.4874592 6.02120036,28.5402592 4.93747154,27.4872713 C3.87130034,26.4507936 3.94031994,25.1972366 3.9500069,23.7706275 C3.96695909,21.1332657 4.24424836,18.4078492 4.7849019,15.8279676 C5.84744048,10.7574822 8.98722688,6.05144556 13.3742096,3.32541758 C17.8114434,0.567592046 24.1636684,-0.326408159 29.0979644,1.48544041 C30.0484975,1.83399042 31.0353567,2.46321492 32.0754942,2.54454325 C33.39171,2.64666229 34.651015,2.44303571 35.985394,2.66561852 C38.2533538,3.0441316 40.4080973,3.95647655 42.3067418,5.25834142 C46.8801985,8.39223407 49.808688,13.6455554 50.1586295,19.2021764 C50.1828469,19.5929193 50.7888874,19.5953652 50.7640646,19.2021764" id="Fill-343" fill="#0A0B09"></path>
            <path d="M22.4829951,26.9974257 C25.3777631,29.9213768 25.3777631,34.6624691 22.4829951,37.5870367 C19.5882272,40.5109878 14.8944544,40.5109878 11.999076,37.5870367 C9.10430801,34.6624691 9.10430801,29.9213768 11.999076,26.9974257 C14.8944544,24.0728581 19.5882272,24.0728581 22.4829951,26.9974257 Z M41.820924,26.9974257 C44.715692,29.9213768 44.715692,34.6624691 41.820924,37.5870367 C38.9261561,40.5109878 34.2317728,40.5109878 31.3370049,37.5870367 C28.4422369,34.6624691 28.4422369,29.9213768 31.3370049,26.9974257 C34.2317728,24.0728581 38.9261561,24.0728581 41.820924,26.9974257 Z M24.6525449,32.3292277 L29.1662341,32.3292277 L24.6525449,32.3292277 Z" id="Stroke-290" stroke="#0A0B09" stroke-width="0.78"></path>
        </g>
    </g>
</svg>